%TF.GenerationSoftware,KiCad,Pcbnew,(5.1.10)-1*%
%TF.CreationDate,2022-01-12T07:46:51+01:00*%
%TF.ProjectId,automate,6175746f-6d61-4746-952e-6b696361645f,rev?*%
%TF.SameCoordinates,Original*%
%TF.FileFunction,Copper,L1,Top*%
%TF.FilePolarity,Positive*%
%FSLAX46Y46*%
G04 Gerber Fmt 4.6, Leading zero omitted, Abs format (unit mm)*
G04 Created by KiCad (PCBNEW (5.1.10)-1) date 2022-01-12 07:46:51*
%MOMM*%
%LPD*%
G01*
G04 APERTURE LIST*
%TA.AperFunction,ComponentPad*%
%ADD10C,2.000000*%
%TD*%
%TA.AperFunction,ComponentPad*%
%ADD11R,2.000000X2.000000*%
%TD*%
%TA.AperFunction,SMDPad,CuDef*%
%ADD12R,3.500000X2.300000*%
%TD*%
%TA.AperFunction,SMDPad,CuDef*%
%ADD13R,2.300000X3.500000*%
%TD*%
%TA.AperFunction,ComponentPad*%
%ADD14C,2.500000*%
%TD*%
%TA.AperFunction,ComponentPad*%
%ADD15R,2.500000X2.500000*%
%TD*%
%TA.AperFunction,ComponentPad*%
%ADD16R,1.600000X2.400000*%
%TD*%
%TA.AperFunction,ComponentPad*%
%ADD17O,1.600000X2.400000*%
%TD*%
%TA.AperFunction,ComponentPad*%
%ADD18C,3.000000*%
%TD*%
%TA.AperFunction,SMDPad,CuDef*%
%ADD19R,5.400000X2.900000*%
%TD*%
%TA.AperFunction,SMDPad,CuDef*%
%ADD20R,0.800000X0.900000*%
%TD*%
%TA.AperFunction,SMDPad,CuDef*%
%ADD21R,0.900000X0.800000*%
%TD*%
%TA.AperFunction,ComponentPad*%
%ADD22R,1.700000X1.700000*%
%TD*%
%TA.AperFunction,ComponentPad*%
%ADD23O,1.700000X1.700000*%
%TD*%
%TA.AperFunction,SMDPad,CuDef*%
%ADD24R,2.200000X3.000000*%
%TD*%
%TA.AperFunction,ViaPad*%
%ADD25C,1.300000*%
%TD*%
%TA.AperFunction,ViaPad*%
%ADD26C,0.800000*%
%TD*%
%TA.AperFunction,Conductor*%
%ADD27C,1.000000*%
%TD*%
%TA.AperFunction,Conductor*%
%ADD28C,2.000000*%
%TD*%
%TA.AperFunction,Conductor*%
%ADD29C,0.250000*%
%TD*%
G04 APERTURE END LIST*
D10*
%TO.P,BZ2,2*%
%TO.N,Net-(BZ1-Pad2)*%
X181100000Y-69900000D03*
D11*
%TO.P,BZ2,1*%
%TO.N,Net-(BZ1-Pad1)*%
X187600000Y-69900000D03*
%TD*%
D10*
%TO.P,SW1,1*%
%TO.N,GND*%
X170000000Y-131500000D03*
%TO.P,SW1,2*%
%TO.N,/Logique/Vpp*%
X165000000Y-131500000D03*
%TD*%
%TO.P,C2,2*%
%TO.N,GND*%
%TA.AperFunction,SMDPad,CuDef*%
G36*
G01*
X79100000Y-105049999D02*
X79100000Y-105950001D01*
G75*
G02*
X78850001Y-106200000I-249999J0D01*
G01*
X78149999Y-106200000D01*
G75*
G02*
X77900000Y-105950001I0J249999D01*
G01*
X77900000Y-105049999D01*
G75*
G02*
X78149999Y-104800000I249999J0D01*
G01*
X78850001Y-104800000D01*
G75*
G02*
X79100000Y-105049999I0J-249999D01*
G01*
G37*
%TD.AperFunction*%
%TO.P,C2,1*%
%TO.N,+12V*%
%TA.AperFunction,SMDPad,CuDef*%
G36*
G01*
X81100000Y-105049999D02*
X81100000Y-105950001D01*
G75*
G02*
X80850001Y-106200000I-249999J0D01*
G01*
X80149999Y-106200000D01*
G75*
G02*
X79900000Y-105950001I0J249999D01*
G01*
X79900000Y-105049999D01*
G75*
G02*
X80149999Y-104800000I249999J0D01*
G01*
X80850001Y-104800000D01*
G75*
G02*
X81100000Y-105049999I0J-249999D01*
G01*
G37*
%TD.AperFunction*%
%TD*%
%TO.P,C3,1*%
%TO.N,Net-(C3-Pad1)*%
%TA.AperFunction,SMDPad,CuDef*%
G36*
G01*
X98900000Y-110950001D02*
X98900000Y-110049999D01*
G75*
G02*
X99149999Y-109800000I249999J0D01*
G01*
X99850001Y-109800000D01*
G75*
G02*
X100100000Y-110049999I0J-249999D01*
G01*
X100100000Y-110950001D01*
G75*
G02*
X99850001Y-111200000I-249999J0D01*
G01*
X99149999Y-111200000D01*
G75*
G02*
X98900000Y-110950001I0J249999D01*
G01*
G37*
%TD.AperFunction*%
%TO.P,C3,2*%
%TO.N,GND*%
%TA.AperFunction,SMDPad,CuDef*%
G36*
G01*
X100900000Y-110950001D02*
X100900000Y-110049999D01*
G75*
G02*
X101149999Y-109800000I249999J0D01*
G01*
X101850001Y-109800000D01*
G75*
G02*
X102100000Y-110049999I0J-249999D01*
G01*
X102100000Y-110950001D01*
G75*
G02*
X101850001Y-111200000I-249999J0D01*
G01*
X101149999Y-111200000D01*
G75*
G02*
X100900000Y-110950001I0J249999D01*
G01*
G37*
%TD.AperFunction*%
%TD*%
%TO.P,C4,2*%
%TO.N,Net-(C4-Pad2)*%
%TA.AperFunction,SMDPad,CuDef*%
G36*
G01*
X89100000Y-105049999D02*
X89100000Y-105950001D01*
G75*
G02*
X88850001Y-106200000I-249999J0D01*
G01*
X88149999Y-106200000D01*
G75*
G02*
X87900000Y-105950001I0J249999D01*
G01*
X87900000Y-105049999D01*
G75*
G02*
X88149999Y-104800000I249999J0D01*
G01*
X88850001Y-104800000D01*
G75*
G02*
X89100000Y-105049999I0J-249999D01*
G01*
G37*
%TD.AperFunction*%
%TO.P,C4,1*%
%TO.N,Net-(C4-Pad1)*%
%TA.AperFunction,SMDPad,CuDef*%
G36*
G01*
X91100000Y-105049999D02*
X91100000Y-105950001D01*
G75*
G02*
X90850001Y-106200000I-249999J0D01*
G01*
X90149999Y-106200000D01*
G75*
G02*
X89900000Y-105950001I0J249999D01*
G01*
X89900000Y-105049999D01*
G75*
G02*
X90149999Y-104800000I249999J0D01*
G01*
X90850001Y-104800000D01*
G75*
G02*
X91100000Y-105049999I0J-249999D01*
G01*
G37*
%TD.AperFunction*%
%TD*%
%TO.P,C6,1*%
%TO.N,Net-(C5-Pad1)*%
%TA.AperFunction,SMDPad,CuDef*%
G36*
G01*
X123950001Y-115100000D02*
X123049999Y-115100000D01*
G75*
G02*
X122800000Y-114850001I0J249999D01*
G01*
X122800000Y-114149999D01*
G75*
G02*
X123049999Y-113900000I249999J0D01*
G01*
X123950001Y-113900000D01*
G75*
G02*
X124200000Y-114149999I0J-249999D01*
G01*
X124200000Y-114850001D01*
G75*
G02*
X123950001Y-115100000I-249999J0D01*
G01*
G37*
%TD.AperFunction*%
%TO.P,C6,2*%
%TO.N,GND*%
%TA.AperFunction,SMDPad,CuDef*%
G36*
G01*
X123950001Y-113100000D02*
X123049999Y-113100000D01*
G75*
G02*
X122800000Y-112850001I0J249999D01*
G01*
X122800000Y-112149999D01*
G75*
G02*
X123049999Y-111900000I249999J0D01*
G01*
X123950001Y-111900000D01*
G75*
G02*
X124200000Y-112149999I0J-249999D01*
G01*
X124200000Y-112850001D01*
G75*
G02*
X123950001Y-113100000I-249999J0D01*
G01*
G37*
%TD.AperFunction*%
%TD*%
%TO.P,C7,2*%
%TO.N,VCC*%
%TA.AperFunction,SMDPad,CuDef*%
G36*
G01*
X167100000Y-121549999D02*
X167100000Y-122450001D01*
G75*
G02*
X166850001Y-122700000I-249999J0D01*
G01*
X166149999Y-122700000D01*
G75*
G02*
X165900000Y-122450001I0J249999D01*
G01*
X165900000Y-121549999D01*
G75*
G02*
X166149999Y-121300000I249999J0D01*
G01*
X166850001Y-121300000D01*
G75*
G02*
X167100000Y-121549999I0J-249999D01*
G01*
G37*
%TD.AperFunction*%
%TO.P,C7,1*%
%TO.N,GND*%
%TA.AperFunction,SMDPad,CuDef*%
G36*
G01*
X169100000Y-121549999D02*
X169100000Y-122450001D01*
G75*
G02*
X168850001Y-122700000I-249999J0D01*
G01*
X168149999Y-122700000D01*
G75*
G02*
X167900000Y-122450001I0J249999D01*
G01*
X167900000Y-121549999D01*
G75*
G02*
X168149999Y-121300000I249999J0D01*
G01*
X168850001Y-121300000D01*
G75*
G02*
X169100000Y-121549999I0J-249999D01*
G01*
G37*
%TD.AperFunction*%
%TD*%
%TO.P,C8,2*%
%TO.N,GND*%
%TA.AperFunction,SMDPad,CuDef*%
G36*
G01*
X167900000Y-137950001D02*
X167900000Y-137049999D01*
G75*
G02*
X168149999Y-136800000I249999J0D01*
G01*
X168850001Y-136800000D01*
G75*
G02*
X169100000Y-137049999I0J-249999D01*
G01*
X169100000Y-137950001D01*
G75*
G02*
X168850001Y-138200000I-249999J0D01*
G01*
X168149999Y-138200000D01*
G75*
G02*
X167900000Y-137950001I0J249999D01*
G01*
G37*
%TD.AperFunction*%
%TO.P,C8,1*%
%TO.N,/Logique/Vpp*%
%TA.AperFunction,SMDPad,CuDef*%
G36*
G01*
X165900000Y-137950001D02*
X165900000Y-137049999D01*
G75*
G02*
X166149999Y-136800000I249999J0D01*
G01*
X166850001Y-136800000D01*
G75*
G02*
X167100000Y-137049999I0J-249999D01*
G01*
X167100000Y-137950001D01*
G75*
G02*
X166850001Y-138200000I-249999J0D01*
G01*
X166149999Y-138200000D01*
G75*
G02*
X165900000Y-137950001I0J249999D01*
G01*
G37*
%TD.AperFunction*%
%TD*%
%TO.P,C9,1*%
%TO.N,Net-(C9-Pad1)*%
%TA.AperFunction,SMDPad,CuDef*%
G36*
G01*
X246400000Y-165450001D02*
X246400000Y-164549999D01*
G75*
G02*
X246649999Y-164300000I249999J0D01*
G01*
X247350001Y-164300000D01*
G75*
G02*
X247600000Y-164549999I0J-249999D01*
G01*
X247600000Y-165450001D01*
G75*
G02*
X247350001Y-165700000I-249999J0D01*
G01*
X246649999Y-165700000D01*
G75*
G02*
X246400000Y-165450001I0J249999D01*
G01*
G37*
%TD.AperFunction*%
%TO.P,C9,2*%
%TO.N,GND*%
%TA.AperFunction,SMDPad,CuDef*%
G36*
G01*
X248400000Y-165450001D02*
X248400000Y-164549999D01*
G75*
G02*
X248649999Y-164300000I249999J0D01*
G01*
X249350001Y-164300000D01*
G75*
G02*
X249600000Y-164549999I0J-249999D01*
G01*
X249600000Y-165450001D01*
G75*
G02*
X249350001Y-165700000I-249999J0D01*
G01*
X248649999Y-165700000D01*
G75*
G02*
X248400000Y-165450001I0J249999D01*
G01*
G37*
%TD.AperFunction*%
%TD*%
%TO.P,C10,1*%
%TO.N,Net-(C10-Pad1)*%
%TA.AperFunction,SMDPad,CuDef*%
G36*
G01*
X247389599Y-150262800D02*
X248289601Y-150262800D01*
G75*
G02*
X248539600Y-150512799I0J-249999D01*
G01*
X248539600Y-151212801D01*
G75*
G02*
X248289601Y-151462800I-249999J0D01*
G01*
X247389599Y-151462800D01*
G75*
G02*
X247139600Y-151212801I0J249999D01*
G01*
X247139600Y-150512799D01*
G75*
G02*
X247389599Y-150262800I249999J0D01*
G01*
G37*
%TD.AperFunction*%
%TO.P,C10,2*%
%TO.N,GND*%
%TA.AperFunction,SMDPad,CuDef*%
G36*
G01*
X247389599Y-152262800D02*
X248289601Y-152262800D01*
G75*
G02*
X248539600Y-152512799I0J-249999D01*
G01*
X248539600Y-153212801D01*
G75*
G02*
X248289601Y-153462800I-249999J0D01*
G01*
X247389599Y-153462800D01*
G75*
G02*
X247139600Y-153212801I0J249999D01*
G01*
X247139600Y-152512799D01*
G75*
G02*
X247389599Y-152262800I249999J0D01*
G01*
G37*
%TD.AperFunction*%
%TD*%
%TO.P,C11,1*%
%TO.N,Net-(C11-Pad1)*%
%TA.AperFunction,SMDPad,CuDef*%
G36*
G01*
X247389599Y-138762800D02*
X248289601Y-138762800D01*
G75*
G02*
X248539600Y-139012799I0J-249999D01*
G01*
X248539600Y-139712801D01*
G75*
G02*
X248289601Y-139962800I-249999J0D01*
G01*
X247389599Y-139962800D01*
G75*
G02*
X247139600Y-139712801I0J249999D01*
G01*
X247139600Y-139012799D01*
G75*
G02*
X247389599Y-138762800I249999J0D01*
G01*
G37*
%TD.AperFunction*%
%TO.P,C11,2*%
%TO.N,GND*%
%TA.AperFunction,SMDPad,CuDef*%
G36*
G01*
X247389599Y-140762800D02*
X248289601Y-140762800D01*
G75*
G02*
X248539600Y-141012799I0J-249999D01*
G01*
X248539600Y-141712801D01*
G75*
G02*
X248289601Y-141962800I-249999J0D01*
G01*
X247389599Y-141962800D01*
G75*
G02*
X247139600Y-141712801I0J249999D01*
G01*
X247139600Y-141012799D01*
G75*
G02*
X247389599Y-140762800I249999J0D01*
G01*
G37*
%TD.AperFunction*%
%TD*%
%TO.P,C12,2*%
%TO.N,GND*%
%TA.AperFunction,SMDPad,CuDef*%
G36*
G01*
X248389599Y-127762800D02*
X249289601Y-127762800D01*
G75*
G02*
X249539600Y-128012799I0J-249999D01*
G01*
X249539600Y-128712801D01*
G75*
G02*
X249289601Y-128962800I-249999J0D01*
G01*
X248389599Y-128962800D01*
G75*
G02*
X248139600Y-128712801I0J249999D01*
G01*
X248139600Y-128012799D01*
G75*
G02*
X248389599Y-127762800I249999J0D01*
G01*
G37*
%TD.AperFunction*%
%TO.P,C12,1*%
%TO.N,Net-(C12-Pad1)*%
%TA.AperFunction,SMDPad,CuDef*%
G36*
G01*
X248389599Y-125762800D02*
X249289601Y-125762800D01*
G75*
G02*
X249539600Y-126012799I0J-249999D01*
G01*
X249539600Y-126712801D01*
G75*
G02*
X249289601Y-126962800I-249999J0D01*
G01*
X248389599Y-126962800D01*
G75*
G02*
X248139600Y-126712801I0J249999D01*
G01*
X248139600Y-126012799D01*
G75*
G02*
X248389599Y-125762800I249999J0D01*
G01*
G37*
%TD.AperFunction*%
%TD*%
%TO.P,C13,2*%
%TO.N,GND*%
%TA.AperFunction,SMDPad,CuDef*%
G36*
G01*
X248389599Y-114762800D02*
X249289601Y-114762800D01*
G75*
G02*
X249539600Y-115012799I0J-249999D01*
G01*
X249539600Y-115712801D01*
G75*
G02*
X249289601Y-115962800I-249999J0D01*
G01*
X248389599Y-115962800D01*
G75*
G02*
X248139600Y-115712801I0J249999D01*
G01*
X248139600Y-115012799D01*
G75*
G02*
X248389599Y-114762800I249999J0D01*
G01*
G37*
%TD.AperFunction*%
%TO.P,C13,1*%
%TO.N,Net-(C13-Pad1)*%
%TA.AperFunction,SMDPad,CuDef*%
G36*
G01*
X248389599Y-112762800D02*
X249289601Y-112762800D01*
G75*
G02*
X249539600Y-113012799I0J-249999D01*
G01*
X249539600Y-113712801D01*
G75*
G02*
X249289601Y-113962800I-249999J0D01*
G01*
X248389599Y-113962800D01*
G75*
G02*
X248139600Y-113712801I0J249999D01*
G01*
X248139600Y-113012799D01*
G75*
G02*
X248389599Y-112762800I249999J0D01*
G01*
G37*
%TD.AperFunction*%
%TD*%
%TO.P,C14,2*%
%TO.N,GND*%
%TA.AperFunction,SMDPad,CuDef*%
G36*
G01*
X248389599Y-101762800D02*
X249289601Y-101762800D01*
G75*
G02*
X249539600Y-102012799I0J-249999D01*
G01*
X249539600Y-102712801D01*
G75*
G02*
X249289601Y-102962800I-249999J0D01*
G01*
X248389599Y-102962800D01*
G75*
G02*
X248139600Y-102712801I0J249999D01*
G01*
X248139600Y-102012799D01*
G75*
G02*
X248389599Y-101762800I249999J0D01*
G01*
G37*
%TD.AperFunction*%
%TO.P,C14,1*%
%TO.N,Net-(C14-Pad1)*%
%TA.AperFunction,SMDPad,CuDef*%
G36*
G01*
X248389599Y-99762800D02*
X249289601Y-99762800D01*
G75*
G02*
X249539600Y-100012799I0J-249999D01*
G01*
X249539600Y-100712801D01*
G75*
G02*
X249289601Y-100962800I-249999J0D01*
G01*
X248389599Y-100962800D01*
G75*
G02*
X248139600Y-100712801I0J249999D01*
G01*
X248139600Y-100012799D01*
G75*
G02*
X248389599Y-99762800I249999J0D01*
G01*
G37*
%TD.AperFunction*%
%TD*%
%TO.P,C15,2*%
%TO.N,GND*%
%TA.AperFunction,SMDPad,CuDef*%
G36*
G01*
X248389599Y-89262800D02*
X249289601Y-89262800D01*
G75*
G02*
X249539600Y-89512799I0J-249999D01*
G01*
X249539600Y-90212801D01*
G75*
G02*
X249289601Y-90462800I-249999J0D01*
G01*
X248389599Y-90462800D01*
G75*
G02*
X248139600Y-90212801I0J249999D01*
G01*
X248139600Y-89512799D01*
G75*
G02*
X248389599Y-89262800I249999J0D01*
G01*
G37*
%TD.AperFunction*%
%TO.P,C15,1*%
%TO.N,Net-(C15-Pad1)*%
%TA.AperFunction,SMDPad,CuDef*%
G36*
G01*
X248389599Y-87262800D02*
X249289601Y-87262800D01*
G75*
G02*
X249539600Y-87512799I0J-249999D01*
G01*
X249539600Y-88212801D01*
G75*
G02*
X249289601Y-88462800I-249999J0D01*
G01*
X248389599Y-88462800D01*
G75*
G02*
X248139600Y-88212801I0J249999D01*
G01*
X248139600Y-87512799D01*
G75*
G02*
X248389599Y-87262800I249999J0D01*
G01*
G37*
%TD.AperFunction*%
%TD*%
%TO.P,C16,1*%
%TO.N,Net-(C16-Pad1)*%
%TA.AperFunction,SMDPad,CuDef*%
G36*
G01*
X248889599Y-74762800D02*
X249789601Y-74762800D01*
G75*
G02*
X250039600Y-75012799I0J-249999D01*
G01*
X250039600Y-75712801D01*
G75*
G02*
X249789601Y-75962800I-249999J0D01*
G01*
X248889599Y-75962800D01*
G75*
G02*
X248639600Y-75712801I0J249999D01*
G01*
X248639600Y-75012799D01*
G75*
G02*
X248889599Y-74762800I249999J0D01*
G01*
G37*
%TD.AperFunction*%
%TO.P,C16,2*%
%TO.N,GND*%
%TA.AperFunction,SMDPad,CuDef*%
G36*
G01*
X248889599Y-76762800D02*
X249789601Y-76762800D01*
G75*
G02*
X250039600Y-77012799I0J-249999D01*
G01*
X250039600Y-77712801D01*
G75*
G02*
X249789601Y-77962800I-249999J0D01*
G01*
X248889599Y-77962800D01*
G75*
G02*
X248639600Y-77712801I0J249999D01*
G01*
X248639600Y-77012799D01*
G75*
G02*
X248889599Y-76762800I249999J0D01*
G01*
G37*
%TD.AperFunction*%
%TD*%
D12*
%TO.P,D2,2*%
%TO.N,GND*%
X77200000Y-49500000D03*
%TO.P,D2,1*%
%TO.N,+12V*%
X71800000Y-49500000D03*
%TD*%
%TO.P,D14,1*%
%TO.N,Net-(D14-Pad1)*%
X161300000Y-180500000D03*
%TO.P,D14,2*%
%TO.N,+12V*%
X166700000Y-180500000D03*
%TD*%
D13*
%TO.P,D23,2*%
%TO.N,GND*%
X264839600Y-170562800D03*
%TO.P,D23,1*%
%TO.N,Net-(D23-Pad1)*%
X264839600Y-165162800D03*
%TD*%
%TO.P,D24,2*%
%TO.N,GND*%
X264839600Y-157062800D03*
%TO.P,D24,1*%
%TO.N,Net-(D24-Pad1)*%
X264839600Y-151662800D03*
%TD*%
%TO.P,D25,2*%
%TO.N,GND*%
X264839600Y-144062800D03*
%TO.P,D25,1*%
%TO.N,Net-(D25-Pad1)*%
X264839600Y-138662800D03*
%TD*%
%TO.P,D26,1*%
%TO.N,Net-(D26-Pad1)*%
X264839600Y-126162800D03*
%TO.P,D26,2*%
%TO.N,GND*%
X264839600Y-131562800D03*
%TD*%
%TO.P,D31,1*%
%TO.N,Net-(D31-Pad1)*%
X264839600Y-113662800D03*
%TO.P,D31,2*%
%TO.N,GND*%
X264839600Y-119062800D03*
%TD*%
%TO.P,D32,2*%
%TO.N,GND*%
X264839600Y-106062800D03*
%TO.P,D32,1*%
%TO.N,Net-(D32-Pad1)*%
X264839600Y-100662800D03*
%TD*%
%TO.P,D33,2*%
%TO.N,GND*%
X264839600Y-93062800D03*
%TO.P,D33,1*%
%TO.N,Net-(D33-Pad1)*%
X264839600Y-87662800D03*
%TD*%
%TO.P,D34,1*%
%TO.N,Net-(D34-Pad1)*%
X264839600Y-74662800D03*
%TO.P,D34,2*%
%TO.N,GND*%
X264839600Y-80062800D03*
%TD*%
D12*
%TO.P,D39,2*%
%TO.N,GND*%
X134200000Y-37500000D03*
%TO.P,D39,1*%
%TO.N,Net-(D39-Pad1)*%
X128800000Y-37500000D03*
%TD*%
%TO.P,D40,2*%
%TO.N,GND*%
X148200000Y-37500000D03*
%TO.P,D40,1*%
%TO.N,Net-(D40-Pad1)*%
X142800000Y-37500000D03*
%TD*%
%TO.P,D41,2*%
%TO.N,GND*%
X161700000Y-37500000D03*
%TO.P,D41,1*%
%TO.N,Net-(D41-Pad1)*%
X156300000Y-37500000D03*
%TD*%
%TO.P,D42,1*%
%TO.N,Net-(D42-Pad1)*%
X171800000Y-38000000D03*
%TO.P,D42,2*%
%TO.N,GND*%
X177200000Y-38000000D03*
%TD*%
D14*
%TO.P,J1,2*%
%TO.N,Net-(D1-Pad1)*%
X85500000Y-27500000D03*
D15*
%TO.P,J1,1*%
%TO.N,GND*%
X90500000Y-27500000D03*
%TD*%
D14*
%TO.P,J3,4*%
%TO.N,Net-(J3-Pad4)*%
X217500000Y-27000000D03*
D15*
%TO.P,J3,1*%
%TO.N,GND*%
X232500000Y-27000000D03*
D14*
%TO.P,J3,2*%
%TO.N,VCC*%
X227500000Y-27000000D03*
%TO.P,J3,3*%
%TO.N,Net-(J3-Pad3)*%
X222500000Y-27000000D03*
%TD*%
%TO.P,J4,3*%
%TO.N,Net-(J4-Pad3)*%
X199500000Y-27000000D03*
%TO.P,J4,2*%
%TO.N,VCC*%
X204500000Y-27000000D03*
D15*
%TO.P,J4,1*%
%TO.N,GND*%
X209500000Y-27000000D03*
D14*
%TO.P,J4,4*%
%TO.N,Net-(J4-Pad4)*%
X194500000Y-27000000D03*
%TD*%
D15*
%TO.P,J5,1*%
%TO.N,Net-(J5-Pad1)*%
X93000000Y-212500000D03*
D14*
%TO.P,J5,2*%
%TO.N,Net-(J5-Pad2)*%
X98000000Y-212500000D03*
%TO.P,J5,3*%
%TO.N,Net-(J5-Pad3)*%
X103000000Y-212500000D03*
%TD*%
D15*
%TO.P,J6,1*%
%TO.N,Net-(J6-Pad1)*%
X116000000Y-212500000D03*
D14*
%TO.P,J6,2*%
%TO.N,Net-(J6-Pad2)*%
X121000000Y-212500000D03*
%TO.P,J6,3*%
%TO.N,Net-(J6-Pad3)*%
X126000000Y-212500000D03*
%TD*%
D15*
%TO.P,J7,1*%
%TO.N,Net-(J7-Pad1)*%
X137000000Y-212500000D03*
D14*
%TO.P,J7,2*%
%TO.N,Net-(J7-Pad2)*%
X142000000Y-212500000D03*
%TO.P,J7,3*%
%TO.N,Net-(J7-Pad3)*%
X147000000Y-212500000D03*
%TD*%
%TO.P,J8,3*%
%TO.N,Net-(J8-Pad3)*%
X168000000Y-212500000D03*
%TO.P,J8,2*%
%TO.N,Net-(J8-Pad2)*%
X163000000Y-212500000D03*
D15*
%TO.P,J8,1*%
%TO.N,Net-(J8-Pad1)*%
X158000000Y-212500000D03*
%TD*%
%TO.P,J9,1*%
%TO.N,Net-(J9-Pad1)*%
X178000000Y-212500000D03*
D14*
%TO.P,J9,2*%
%TO.N,Net-(J9-Pad2)*%
X183000000Y-212500000D03*
%TO.P,J9,3*%
%TO.N,Net-(J9-Pad3)*%
X188000000Y-212500000D03*
%TD*%
%TO.P,J10,3*%
%TO.N,Net-(J10-Pad3)*%
X208000000Y-212500000D03*
%TO.P,J10,2*%
%TO.N,Net-(J10-Pad2)*%
X203000000Y-212500000D03*
D15*
%TO.P,J10,1*%
%TO.N,Net-(J10-Pad1)*%
X198000000Y-212500000D03*
%TD*%
D14*
%TO.P,J11,3*%
%TO.N,Net-(J11-Pad3)*%
X228000000Y-212500000D03*
%TO.P,J11,2*%
%TO.N,Net-(J11-Pad2)*%
X223000000Y-212500000D03*
D15*
%TO.P,J11,1*%
%TO.N,Net-(J11-Pad1)*%
X218000000Y-212500000D03*
%TD*%
D14*
%TO.P,J12,3*%
%TO.N,Net-(J12-Pad3)*%
X248000000Y-212500000D03*
%TO.P,J12,2*%
%TO.N,Net-(J12-Pad2)*%
X243000000Y-212500000D03*
D15*
%TO.P,J12,1*%
%TO.N,Net-(J12-Pad1)*%
X238000000Y-212500000D03*
%TD*%
D14*
%TO.P,J13,2*%
%TO.N,Net-(D23-Pad1)*%
X273839600Y-165362800D03*
D15*
%TO.P,J13,1*%
%TO.N,GND*%
X273839600Y-170362800D03*
%TD*%
D14*
%TO.P,J14,2*%
%TO.N,Net-(D24-Pad1)*%
X273839600Y-152362800D03*
D15*
%TO.P,J14,1*%
%TO.N,GND*%
X273839600Y-157362800D03*
%TD*%
D14*
%TO.P,J15,2*%
%TO.N,Net-(D25-Pad1)*%
X273839600Y-139362800D03*
D15*
%TO.P,J15,1*%
%TO.N,GND*%
X273839600Y-144362800D03*
%TD*%
%TO.P,J16,1*%
%TO.N,GND*%
X273839600Y-131362800D03*
D14*
%TO.P,J16,2*%
%TO.N,Net-(D26-Pad1)*%
X273839600Y-126362800D03*
%TD*%
%TO.P,J17,2*%
%TO.N,Net-(D31-Pad1)*%
X273839600Y-113362800D03*
D15*
%TO.P,J17,1*%
%TO.N,GND*%
X273839600Y-118362800D03*
%TD*%
%TO.P,J18,1*%
%TO.N,GND*%
X273839600Y-105362800D03*
D14*
%TO.P,J18,2*%
%TO.N,Net-(D32-Pad1)*%
X273839600Y-100362800D03*
%TD*%
D15*
%TO.P,J19,1*%
%TO.N,GND*%
X273839600Y-92362800D03*
D14*
%TO.P,J19,2*%
%TO.N,Net-(D33-Pad1)*%
X273839600Y-87362800D03*
%TD*%
%TO.P,J20,2*%
%TO.N,Net-(D34-Pad1)*%
X273839600Y-74362800D03*
D15*
%TO.P,J20,1*%
%TO.N,GND*%
X273839600Y-79362800D03*
%TD*%
%TO.P,J21,1*%
%TO.N,GND*%
X134000000Y-27000000D03*
D14*
%TO.P,J21,2*%
%TO.N,Net-(D39-Pad1)*%
X129000000Y-27000000D03*
%TD*%
D15*
%TO.P,J22,1*%
%TO.N,GND*%
X148000000Y-27000000D03*
D14*
%TO.P,J22,2*%
%TO.N,Net-(D40-Pad1)*%
X143000000Y-27000000D03*
%TD*%
D15*
%TO.P,J23,1*%
%TO.N,GND*%
X161500000Y-27000000D03*
D14*
%TO.P,J23,2*%
%TO.N,Net-(D41-Pad1)*%
X156500000Y-27000000D03*
%TD*%
%TO.P,J24,2*%
%TO.N,Net-(D42-Pad1)*%
X171500000Y-27000000D03*
D15*
%TO.P,J24,1*%
%TO.N,GND*%
X176500000Y-27000000D03*
%TD*%
D14*
%TO.P,J25,4*%
%TO.N,Net-(J25-Pad4)*%
X102500000Y-27500000D03*
D15*
%TO.P,J25,1*%
%TO.N,Net-(J25-Pad1)*%
X117500000Y-27500000D03*
D14*
%TO.P,J25,2*%
%TO.N,Net-(J25-Pad2)*%
X112500000Y-27500000D03*
%TO.P,J25,3*%
%TO.N,Net-(J25-Pad3)*%
X107500000Y-27500000D03*
%TO.P,J25,5*%
%TO.N,Net-(D13-Pad2)*%
X97500000Y-27500000D03*
%TD*%
%TO.P,R1,2*%
%TO.N,Net-(R1-Pad2)*%
%TA.AperFunction,SMDPad,CuDef*%
G36*
G01*
X83125001Y-110950001D02*
X83125001Y-110049999D01*
G75*
G02*
X83375000Y-109800000I249999J0D01*
G01*
X84075002Y-109800000D01*
G75*
G02*
X84325001Y-110049999I0J-249999D01*
G01*
X84325001Y-110950001D01*
G75*
G02*
X84075002Y-111200000I-249999J0D01*
G01*
X83375000Y-111200000D01*
G75*
G02*
X83125001Y-110950001I0J249999D01*
G01*
G37*
%TD.AperFunction*%
%TO.P,R1,1*%
%TO.N,+12V*%
%TA.AperFunction,SMDPad,CuDef*%
G36*
G01*
X81125001Y-110950001D02*
X81125001Y-110049999D01*
G75*
G02*
X81375000Y-109800000I249999J0D01*
G01*
X82075002Y-109800000D01*
G75*
G02*
X82325001Y-110049999I0J-249999D01*
G01*
X82325001Y-110950001D01*
G75*
G02*
X82075002Y-111200000I-249999J0D01*
G01*
X81375000Y-111200000D01*
G75*
G02*
X81125001Y-110950001I0J249999D01*
G01*
G37*
%TD.AperFunction*%
%TD*%
%TO.P,R2,1*%
%TO.N,Net-(R1-Pad2)*%
%TA.AperFunction,SMDPad,CuDef*%
G36*
G01*
X78600000Y-110049999D02*
X78600000Y-110950001D01*
G75*
G02*
X78350001Y-111200000I-249999J0D01*
G01*
X77649999Y-111200000D01*
G75*
G02*
X77400000Y-110950001I0J249999D01*
G01*
X77400000Y-110049999D01*
G75*
G02*
X77649999Y-109800000I249999J0D01*
G01*
X78350001Y-109800000D01*
G75*
G02*
X78600000Y-110049999I0J-249999D01*
G01*
G37*
%TD.AperFunction*%
%TO.P,R2,2*%
%TO.N,GND*%
%TA.AperFunction,SMDPad,CuDef*%
G36*
G01*
X76600000Y-110049999D02*
X76600000Y-110950001D01*
G75*
G02*
X76350001Y-111200000I-249999J0D01*
G01*
X75649999Y-111200000D01*
G75*
G02*
X75400000Y-110950001I0J249999D01*
G01*
X75400000Y-110049999D01*
G75*
G02*
X75649999Y-109800000I249999J0D01*
G01*
X76350001Y-109800000D01*
G75*
G02*
X76600000Y-110049999I0J-249999D01*
G01*
G37*
%TD.AperFunction*%
%TD*%
%TO.P,R3,2*%
%TO.N,Net-(R3-Pad2)*%
%TA.AperFunction,SMDPad,CuDef*%
G36*
G01*
X100950001Y-116100000D02*
X100049999Y-116100000D01*
G75*
G02*
X99800000Y-115850001I0J249999D01*
G01*
X99800000Y-115149999D01*
G75*
G02*
X100049999Y-114900000I249999J0D01*
G01*
X100950001Y-114900000D01*
G75*
G02*
X101200000Y-115149999I0J-249999D01*
G01*
X101200000Y-115850001D01*
G75*
G02*
X100950001Y-116100000I-249999J0D01*
G01*
G37*
%TD.AperFunction*%
%TO.P,R3,1*%
%TO.N,Net-(C5-Pad1)*%
%TA.AperFunction,SMDPad,CuDef*%
G36*
G01*
X100950001Y-118100000D02*
X100049999Y-118100000D01*
G75*
G02*
X99800000Y-117850001I0J249999D01*
G01*
X99800000Y-117149999D01*
G75*
G02*
X100049999Y-116900000I249999J0D01*
G01*
X100950001Y-116900000D01*
G75*
G02*
X101200000Y-117149999I0J-249999D01*
G01*
X101200000Y-117850001D01*
G75*
G02*
X100950001Y-118100000I-249999J0D01*
G01*
G37*
%TD.AperFunction*%
%TD*%
%TO.P,R4,2*%
%TO.N,GND*%
%TA.AperFunction,SMDPad,CuDef*%
G36*
G01*
X105950001Y-114100000D02*
X105049999Y-114100000D01*
G75*
G02*
X104800000Y-113850001I0J249999D01*
G01*
X104800000Y-113149999D01*
G75*
G02*
X105049999Y-112900000I249999J0D01*
G01*
X105950001Y-112900000D01*
G75*
G02*
X106200000Y-113149999I0J-249999D01*
G01*
X106200000Y-113850001D01*
G75*
G02*
X105950001Y-114100000I-249999J0D01*
G01*
G37*
%TD.AperFunction*%
%TO.P,R4,1*%
%TO.N,Net-(R3-Pad2)*%
%TA.AperFunction,SMDPad,CuDef*%
G36*
G01*
X105950001Y-116100000D02*
X105049999Y-116100000D01*
G75*
G02*
X104800000Y-115850001I0J249999D01*
G01*
X104800000Y-115149999D01*
G75*
G02*
X105049999Y-114900000I249999J0D01*
G01*
X105950001Y-114900000D01*
G75*
G02*
X106200000Y-115149999I0J-249999D01*
G01*
X106200000Y-115850001D01*
G75*
G02*
X105950001Y-116100000I-249999J0D01*
G01*
G37*
%TD.AperFunction*%
%TD*%
%TO.P,R5,2*%
%TO.N,GND*%
%TA.AperFunction,SMDPad,CuDef*%
G36*
G01*
X109049999Y-107900000D02*
X109950001Y-107900000D01*
G75*
G02*
X110200000Y-108149999I0J-249999D01*
G01*
X110200000Y-108850001D01*
G75*
G02*
X109950001Y-109100000I-249999J0D01*
G01*
X109049999Y-109100000D01*
G75*
G02*
X108800000Y-108850001I0J249999D01*
G01*
X108800000Y-108149999D01*
G75*
G02*
X109049999Y-107900000I249999J0D01*
G01*
G37*
%TD.AperFunction*%
%TO.P,R5,1*%
%TO.N,Net-(D5-Pad1)*%
%TA.AperFunction,SMDPad,CuDef*%
G36*
G01*
X109049999Y-105900000D02*
X109950001Y-105900000D01*
G75*
G02*
X110200000Y-106149999I0J-249999D01*
G01*
X110200000Y-106850001D01*
G75*
G02*
X109950001Y-107100000I-249999J0D01*
G01*
X109049999Y-107100000D01*
G75*
G02*
X108800000Y-106850001I0J249999D01*
G01*
X108800000Y-106149999D01*
G75*
G02*
X109049999Y-105900000I249999J0D01*
G01*
G37*
%TD.AperFunction*%
%TD*%
%TO.P,R6,2*%
%TO.N,/Logique/Vpp*%
%TA.AperFunction,SMDPad,CuDef*%
G36*
G01*
X160049999Y-130900000D02*
X160950001Y-130900000D01*
G75*
G02*
X161200000Y-131149999I0J-249999D01*
G01*
X161200000Y-131850001D01*
G75*
G02*
X160950001Y-132100000I-249999J0D01*
G01*
X160049999Y-132100000D01*
G75*
G02*
X159800000Y-131850001I0J249999D01*
G01*
X159800000Y-131149999D01*
G75*
G02*
X160049999Y-130900000I249999J0D01*
G01*
G37*
%TD.AperFunction*%
%TO.P,R6,1*%
%TO.N,VCC*%
%TA.AperFunction,SMDPad,CuDef*%
G36*
G01*
X160049999Y-128900000D02*
X160950001Y-128900000D01*
G75*
G02*
X161200000Y-129149999I0J-249999D01*
G01*
X161200000Y-129850001D01*
G75*
G02*
X160950001Y-130100000I-249999J0D01*
G01*
X160049999Y-130100000D01*
G75*
G02*
X159800000Y-129850001I0J249999D01*
G01*
X159800000Y-129149999D01*
G75*
G02*
X160049999Y-128900000I249999J0D01*
G01*
G37*
%TD.AperFunction*%
%TD*%
%TO.P,R7,1*%
%TO.N,Net-(D6-Pad1)*%
%TA.AperFunction,SMDPad,CuDef*%
G36*
G01*
X89400000Y-180950001D02*
X89400000Y-180049999D01*
G75*
G02*
X89649999Y-179800000I249999J0D01*
G01*
X90350001Y-179800000D01*
G75*
G02*
X90600000Y-180049999I0J-249999D01*
G01*
X90600000Y-180950001D01*
G75*
G02*
X90350001Y-181200000I-249999J0D01*
G01*
X89649999Y-181200000D01*
G75*
G02*
X89400000Y-180950001I0J249999D01*
G01*
G37*
%TD.AperFunction*%
%TO.P,R7,2*%
%TO.N,Net-(D7-Pad1)*%
%TA.AperFunction,SMDPad,CuDef*%
G36*
G01*
X91400000Y-180950001D02*
X91400000Y-180049999D01*
G75*
G02*
X91649999Y-179800000I249999J0D01*
G01*
X92350001Y-179800000D01*
G75*
G02*
X92600000Y-180049999I0J-249999D01*
G01*
X92600000Y-180950001D01*
G75*
G02*
X92350001Y-181200000I-249999J0D01*
G01*
X91649999Y-181200000D01*
G75*
G02*
X91400000Y-180950001I0J249999D01*
G01*
G37*
%TD.AperFunction*%
%TD*%
%TO.P,R8,1*%
%TO.N,Net-(Q1-Pad2)*%
%TA.AperFunction,SMDPad,CuDef*%
G36*
G01*
X87900000Y-158950001D02*
X87900000Y-158049999D01*
G75*
G02*
X88149999Y-157800000I249999J0D01*
G01*
X88850001Y-157800000D01*
G75*
G02*
X89100000Y-158049999I0J-249999D01*
G01*
X89100000Y-158950001D01*
G75*
G02*
X88850001Y-159200000I-249999J0D01*
G01*
X88149999Y-159200000D01*
G75*
G02*
X87900000Y-158950001I0J249999D01*
G01*
G37*
%TD.AperFunction*%
%TO.P,R8,2*%
%TO.N,Rel1*%
%TA.AperFunction,SMDPad,CuDef*%
G36*
G01*
X89900000Y-158950001D02*
X89900000Y-158049999D01*
G75*
G02*
X90149999Y-157800000I249999J0D01*
G01*
X90850001Y-157800000D01*
G75*
G02*
X91100000Y-158049999I0J-249999D01*
G01*
X91100000Y-158950001D01*
G75*
G02*
X90850001Y-159200000I-249999J0D01*
G01*
X90149999Y-159200000D01*
G75*
G02*
X89900000Y-158950001I0J249999D01*
G01*
G37*
%TD.AperFunction*%
%TD*%
%TO.P,R9,2*%
%TO.N,Net-(Q1-Pad2)*%
%TA.AperFunction,SMDPad,CuDef*%
G36*
G01*
X87900000Y-164450001D02*
X87900000Y-163549999D01*
G75*
G02*
X88149999Y-163300000I249999J0D01*
G01*
X88850001Y-163300000D01*
G75*
G02*
X89100000Y-163549999I0J-249999D01*
G01*
X89100000Y-164450001D01*
G75*
G02*
X88850001Y-164700000I-249999J0D01*
G01*
X88149999Y-164700000D01*
G75*
G02*
X87900000Y-164450001I0J249999D01*
G01*
G37*
%TD.AperFunction*%
%TO.P,R9,1*%
%TO.N,GND*%
%TA.AperFunction,SMDPad,CuDef*%
G36*
G01*
X85900000Y-164450001D02*
X85900000Y-163549999D01*
G75*
G02*
X86149999Y-163300000I249999J0D01*
G01*
X86850001Y-163300000D01*
G75*
G02*
X87100000Y-163549999I0J-249999D01*
G01*
X87100000Y-164450001D01*
G75*
G02*
X86850001Y-164700000I-249999J0D01*
G01*
X86149999Y-164700000D01*
G75*
G02*
X85900000Y-164450001I0J249999D01*
G01*
G37*
%TD.AperFunction*%
%TD*%
%TO.P,R10,2*%
%TO.N,Net-(D9-Pad1)*%
%TA.AperFunction,SMDPad,CuDef*%
G36*
G01*
X113400000Y-180950001D02*
X113400000Y-180049999D01*
G75*
G02*
X113649999Y-179800000I249999J0D01*
G01*
X114350001Y-179800000D01*
G75*
G02*
X114600000Y-180049999I0J-249999D01*
G01*
X114600000Y-180950001D01*
G75*
G02*
X114350001Y-181200000I-249999J0D01*
G01*
X113649999Y-181200000D01*
G75*
G02*
X113400000Y-180950001I0J249999D01*
G01*
G37*
%TD.AperFunction*%
%TO.P,R10,1*%
%TO.N,Net-(D8-Pad1)*%
%TA.AperFunction,SMDPad,CuDef*%
G36*
G01*
X111400000Y-180950001D02*
X111400000Y-180049999D01*
G75*
G02*
X111649999Y-179800000I249999J0D01*
G01*
X112350001Y-179800000D01*
G75*
G02*
X112600000Y-180049999I0J-249999D01*
G01*
X112600000Y-180950001D01*
G75*
G02*
X112350001Y-181200000I-249999J0D01*
G01*
X111649999Y-181200000D01*
G75*
G02*
X111400000Y-180950001I0J249999D01*
G01*
G37*
%TD.AperFunction*%
%TD*%
%TO.P,R11,1*%
%TO.N,Net-(Q2-Pad2)*%
%TA.AperFunction,SMDPad,CuDef*%
G36*
G01*
X110900000Y-159450001D02*
X110900000Y-158549999D01*
G75*
G02*
X111149999Y-158300000I249999J0D01*
G01*
X111850001Y-158300000D01*
G75*
G02*
X112100000Y-158549999I0J-249999D01*
G01*
X112100000Y-159450001D01*
G75*
G02*
X111850001Y-159700000I-249999J0D01*
G01*
X111149999Y-159700000D01*
G75*
G02*
X110900000Y-159450001I0J249999D01*
G01*
G37*
%TD.AperFunction*%
%TO.P,R11,2*%
%TO.N,Rel2*%
%TA.AperFunction,SMDPad,CuDef*%
G36*
G01*
X112900000Y-159450001D02*
X112900000Y-158549999D01*
G75*
G02*
X113149999Y-158300000I249999J0D01*
G01*
X113850001Y-158300000D01*
G75*
G02*
X114100000Y-158549999I0J-249999D01*
G01*
X114100000Y-159450001D01*
G75*
G02*
X113850001Y-159700000I-249999J0D01*
G01*
X113149999Y-159700000D01*
G75*
G02*
X112900000Y-159450001I0J249999D01*
G01*
G37*
%TD.AperFunction*%
%TD*%
%TO.P,R12,1*%
%TO.N,GND*%
%TA.AperFunction,SMDPad,CuDef*%
G36*
G01*
X108900000Y-163950001D02*
X108900000Y-163049999D01*
G75*
G02*
X109149999Y-162800000I249999J0D01*
G01*
X109850001Y-162800000D01*
G75*
G02*
X110100000Y-163049999I0J-249999D01*
G01*
X110100000Y-163950001D01*
G75*
G02*
X109850001Y-164200000I-249999J0D01*
G01*
X109149999Y-164200000D01*
G75*
G02*
X108900000Y-163950001I0J249999D01*
G01*
G37*
%TD.AperFunction*%
%TO.P,R12,2*%
%TO.N,Net-(Q2-Pad2)*%
%TA.AperFunction,SMDPad,CuDef*%
G36*
G01*
X110900000Y-163950001D02*
X110900000Y-163049999D01*
G75*
G02*
X111149999Y-162800000I249999J0D01*
G01*
X111850001Y-162800000D01*
G75*
G02*
X112100000Y-163049999I0J-249999D01*
G01*
X112100000Y-163950001D01*
G75*
G02*
X111850001Y-164200000I-249999J0D01*
G01*
X111149999Y-164200000D01*
G75*
G02*
X110900000Y-163950001I0J249999D01*
G01*
G37*
%TD.AperFunction*%
%TD*%
%TO.P,R13,2*%
%TO.N,Net-(D11-Pad1)*%
%TA.AperFunction,SMDPad,CuDef*%
G36*
G01*
X135400000Y-180950001D02*
X135400000Y-180049999D01*
G75*
G02*
X135649999Y-179800000I249999J0D01*
G01*
X136350001Y-179800000D01*
G75*
G02*
X136600000Y-180049999I0J-249999D01*
G01*
X136600000Y-180950001D01*
G75*
G02*
X136350001Y-181200000I-249999J0D01*
G01*
X135649999Y-181200000D01*
G75*
G02*
X135400000Y-180950001I0J249999D01*
G01*
G37*
%TD.AperFunction*%
%TO.P,R13,1*%
%TO.N,Net-(D10-Pad1)*%
%TA.AperFunction,SMDPad,CuDef*%
G36*
G01*
X133400000Y-180950001D02*
X133400000Y-180049999D01*
G75*
G02*
X133649999Y-179800000I249999J0D01*
G01*
X134350001Y-179800000D01*
G75*
G02*
X134600000Y-180049999I0J-249999D01*
G01*
X134600000Y-180950001D01*
G75*
G02*
X134350001Y-181200000I-249999J0D01*
G01*
X133649999Y-181200000D01*
G75*
G02*
X133400000Y-180950001I0J249999D01*
G01*
G37*
%TD.AperFunction*%
%TD*%
%TO.P,R14,1*%
%TO.N,Net-(Q3-Pad2)*%
%TA.AperFunction,SMDPad,CuDef*%
G36*
G01*
X131900000Y-159950001D02*
X131900000Y-159049999D01*
G75*
G02*
X132149999Y-158800000I249999J0D01*
G01*
X132850001Y-158800000D01*
G75*
G02*
X133100000Y-159049999I0J-249999D01*
G01*
X133100000Y-159950001D01*
G75*
G02*
X132850001Y-160200000I-249999J0D01*
G01*
X132149999Y-160200000D01*
G75*
G02*
X131900000Y-159950001I0J249999D01*
G01*
G37*
%TD.AperFunction*%
%TO.P,R14,2*%
%TO.N,Rel3*%
%TA.AperFunction,SMDPad,CuDef*%
G36*
G01*
X133900000Y-159950001D02*
X133900000Y-159049999D01*
G75*
G02*
X134149999Y-158800000I249999J0D01*
G01*
X134850001Y-158800000D01*
G75*
G02*
X135100000Y-159049999I0J-249999D01*
G01*
X135100000Y-159950001D01*
G75*
G02*
X134850001Y-160200000I-249999J0D01*
G01*
X134149999Y-160200000D01*
G75*
G02*
X133900000Y-159950001I0J249999D01*
G01*
G37*
%TD.AperFunction*%
%TD*%
%TO.P,R15,1*%
%TO.N,GND*%
%TA.AperFunction,SMDPad,CuDef*%
G36*
G01*
X129900000Y-164450001D02*
X129900000Y-163549999D01*
G75*
G02*
X130149999Y-163300000I249999J0D01*
G01*
X130850001Y-163300000D01*
G75*
G02*
X131100000Y-163549999I0J-249999D01*
G01*
X131100000Y-164450001D01*
G75*
G02*
X130850001Y-164700000I-249999J0D01*
G01*
X130149999Y-164700000D01*
G75*
G02*
X129900000Y-164450001I0J249999D01*
G01*
G37*
%TD.AperFunction*%
%TO.P,R15,2*%
%TO.N,Net-(Q3-Pad2)*%
%TA.AperFunction,SMDPad,CuDef*%
G36*
G01*
X131900000Y-164450001D02*
X131900000Y-163549999D01*
G75*
G02*
X132149999Y-163300000I249999J0D01*
G01*
X132850001Y-163300000D01*
G75*
G02*
X133100000Y-163549999I0J-249999D01*
G01*
X133100000Y-164450001D01*
G75*
G02*
X132850001Y-164700000I-249999J0D01*
G01*
X132149999Y-164700000D01*
G75*
G02*
X131900000Y-164450001I0J249999D01*
G01*
G37*
%TD.AperFunction*%
%TD*%
%TO.P,R16,1*%
%TO.N,Net-(D12-Pad1)*%
%TA.AperFunction,SMDPad,CuDef*%
G36*
G01*
X155549999Y-178900000D02*
X156450001Y-178900000D01*
G75*
G02*
X156700000Y-179149999I0J-249999D01*
G01*
X156700000Y-179850001D01*
G75*
G02*
X156450001Y-180100000I-249999J0D01*
G01*
X155549999Y-180100000D01*
G75*
G02*
X155300000Y-179850001I0J249999D01*
G01*
X155300000Y-179149999D01*
G75*
G02*
X155549999Y-178900000I249999J0D01*
G01*
G37*
%TD.AperFunction*%
%TO.P,R16,2*%
%TO.N,Net-(D14-Pad1)*%
%TA.AperFunction,SMDPad,CuDef*%
G36*
G01*
X155549999Y-180900000D02*
X156450001Y-180900000D01*
G75*
G02*
X156700000Y-181149999I0J-249999D01*
G01*
X156700000Y-181850001D01*
G75*
G02*
X156450001Y-182100000I-249999J0D01*
G01*
X155549999Y-182100000D01*
G75*
G02*
X155300000Y-181850001I0J249999D01*
G01*
X155300000Y-181149999D01*
G75*
G02*
X155549999Y-180900000I249999J0D01*
G01*
G37*
%TD.AperFunction*%
%TD*%
%TO.P,R17,1*%
%TO.N,Net-(Q4-Pad2)*%
%TA.AperFunction,SMDPad,CuDef*%
G36*
G01*
X152900000Y-159950001D02*
X152900000Y-159049999D01*
G75*
G02*
X153149999Y-158800000I249999J0D01*
G01*
X153850001Y-158800000D01*
G75*
G02*
X154100000Y-159049999I0J-249999D01*
G01*
X154100000Y-159950001D01*
G75*
G02*
X153850001Y-160200000I-249999J0D01*
G01*
X153149999Y-160200000D01*
G75*
G02*
X152900000Y-159950001I0J249999D01*
G01*
G37*
%TD.AperFunction*%
%TO.P,R17,2*%
%TO.N,Rel4*%
%TA.AperFunction,SMDPad,CuDef*%
G36*
G01*
X154900000Y-159950001D02*
X154900000Y-159049999D01*
G75*
G02*
X155149999Y-158800000I249999J0D01*
G01*
X155850001Y-158800000D01*
G75*
G02*
X156100000Y-159049999I0J-249999D01*
G01*
X156100000Y-159950001D01*
G75*
G02*
X155850001Y-160200000I-249999J0D01*
G01*
X155149999Y-160200000D01*
G75*
G02*
X154900000Y-159950001I0J249999D01*
G01*
G37*
%TD.AperFunction*%
%TD*%
%TO.P,R18,2*%
%TO.N,Net-(Q4-Pad2)*%
%TA.AperFunction,SMDPad,CuDef*%
G36*
G01*
X152900000Y-163950001D02*
X152900000Y-163049999D01*
G75*
G02*
X153149999Y-162800000I249999J0D01*
G01*
X153850001Y-162800000D01*
G75*
G02*
X154100000Y-163049999I0J-249999D01*
G01*
X154100000Y-163950001D01*
G75*
G02*
X153850001Y-164200000I-249999J0D01*
G01*
X153149999Y-164200000D01*
G75*
G02*
X152900000Y-163950001I0J249999D01*
G01*
G37*
%TD.AperFunction*%
%TO.P,R18,1*%
%TO.N,GND*%
%TA.AperFunction,SMDPad,CuDef*%
G36*
G01*
X150900000Y-163950001D02*
X150900000Y-163049999D01*
G75*
G02*
X151149999Y-162800000I249999J0D01*
G01*
X151850001Y-162800000D01*
G75*
G02*
X152100000Y-163049999I0J-249999D01*
G01*
X152100000Y-163950001D01*
G75*
G02*
X151850001Y-164200000I-249999J0D01*
G01*
X151149999Y-164200000D01*
G75*
G02*
X150900000Y-163950001I0J249999D01*
G01*
G37*
%TD.AperFunction*%
%TD*%
%TO.P,R19,1*%
%TO.N,Net-(D15-Pad1)*%
%TA.AperFunction,SMDPad,CuDef*%
G36*
G01*
X172400000Y-180450001D02*
X172400000Y-179549999D01*
G75*
G02*
X172649999Y-179300000I249999J0D01*
G01*
X173350001Y-179300000D01*
G75*
G02*
X173600000Y-179549999I0J-249999D01*
G01*
X173600000Y-180450001D01*
G75*
G02*
X173350001Y-180700000I-249999J0D01*
G01*
X172649999Y-180700000D01*
G75*
G02*
X172400000Y-180450001I0J249999D01*
G01*
G37*
%TD.AperFunction*%
%TO.P,R19,2*%
%TO.N,Net-(D16-Pad1)*%
%TA.AperFunction,SMDPad,CuDef*%
G36*
G01*
X174400000Y-180450001D02*
X174400000Y-179549999D01*
G75*
G02*
X174649999Y-179300000I249999J0D01*
G01*
X175350001Y-179300000D01*
G75*
G02*
X175600000Y-179549999I0J-249999D01*
G01*
X175600000Y-180450001D01*
G75*
G02*
X175350001Y-180700000I-249999J0D01*
G01*
X174649999Y-180700000D01*
G75*
G02*
X174400000Y-180450001I0J249999D01*
G01*
G37*
%TD.AperFunction*%
%TD*%
%TO.P,R20,1*%
%TO.N,Net-(Q5-Pad2)*%
%TA.AperFunction,SMDPad,CuDef*%
G36*
G01*
X174900000Y-159450001D02*
X174900000Y-158549999D01*
G75*
G02*
X175149999Y-158300000I249999J0D01*
G01*
X175850001Y-158300000D01*
G75*
G02*
X176100000Y-158549999I0J-249999D01*
G01*
X176100000Y-159450001D01*
G75*
G02*
X175850001Y-159700000I-249999J0D01*
G01*
X175149999Y-159700000D01*
G75*
G02*
X174900000Y-159450001I0J249999D01*
G01*
G37*
%TD.AperFunction*%
%TO.P,R20,2*%
%TO.N,Rel5*%
%TA.AperFunction,SMDPad,CuDef*%
G36*
G01*
X176900000Y-159450001D02*
X176900000Y-158549999D01*
G75*
G02*
X177149999Y-158300000I249999J0D01*
G01*
X177850001Y-158300000D01*
G75*
G02*
X178100000Y-158549999I0J-249999D01*
G01*
X178100000Y-159450001D01*
G75*
G02*
X177850001Y-159700000I-249999J0D01*
G01*
X177149999Y-159700000D01*
G75*
G02*
X176900000Y-159450001I0J249999D01*
G01*
G37*
%TD.AperFunction*%
%TD*%
%TO.P,R21,2*%
%TO.N,Net-(Q5-Pad2)*%
%TA.AperFunction,SMDPad,CuDef*%
G36*
G01*
X174900000Y-164950001D02*
X174900000Y-164049999D01*
G75*
G02*
X175149999Y-163800000I249999J0D01*
G01*
X175850001Y-163800000D01*
G75*
G02*
X176100000Y-164049999I0J-249999D01*
G01*
X176100000Y-164950001D01*
G75*
G02*
X175850001Y-165200000I-249999J0D01*
G01*
X175149999Y-165200000D01*
G75*
G02*
X174900000Y-164950001I0J249999D01*
G01*
G37*
%TD.AperFunction*%
%TO.P,R21,1*%
%TO.N,GND*%
%TA.AperFunction,SMDPad,CuDef*%
G36*
G01*
X172900000Y-164950001D02*
X172900000Y-164049999D01*
G75*
G02*
X173149999Y-163800000I249999J0D01*
G01*
X173850001Y-163800000D01*
G75*
G02*
X174100000Y-164049999I0J-249999D01*
G01*
X174100000Y-164950001D01*
G75*
G02*
X173850001Y-165200000I-249999J0D01*
G01*
X173149999Y-165200000D01*
G75*
G02*
X172900000Y-164950001I0J249999D01*
G01*
G37*
%TD.AperFunction*%
%TD*%
%TO.P,R22,2*%
%TO.N,Net-(D18-Pad1)*%
%TA.AperFunction,SMDPad,CuDef*%
G36*
G01*
X194400000Y-180950001D02*
X194400000Y-180049999D01*
G75*
G02*
X194649999Y-179800000I249999J0D01*
G01*
X195350001Y-179800000D01*
G75*
G02*
X195600000Y-180049999I0J-249999D01*
G01*
X195600000Y-180950001D01*
G75*
G02*
X195350001Y-181200000I-249999J0D01*
G01*
X194649999Y-181200000D01*
G75*
G02*
X194400000Y-180950001I0J249999D01*
G01*
G37*
%TD.AperFunction*%
%TO.P,R22,1*%
%TO.N,Net-(D17-Pad1)*%
%TA.AperFunction,SMDPad,CuDef*%
G36*
G01*
X192400000Y-180950001D02*
X192400000Y-180049999D01*
G75*
G02*
X192649999Y-179800000I249999J0D01*
G01*
X193350001Y-179800000D01*
G75*
G02*
X193600000Y-180049999I0J-249999D01*
G01*
X193600000Y-180950001D01*
G75*
G02*
X193350001Y-181200000I-249999J0D01*
G01*
X192649999Y-181200000D01*
G75*
G02*
X192400000Y-180950001I0J249999D01*
G01*
G37*
%TD.AperFunction*%
%TD*%
%TO.P,R23,1*%
%TO.N,Net-(Q6-Pad2)*%
%TA.AperFunction,SMDPad,CuDef*%
G36*
G01*
X194900000Y-159950001D02*
X194900000Y-159049999D01*
G75*
G02*
X195149999Y-158800000I249999J0D01*
G01*
X195850001Y-158800000D01*
G75*
G02*
X196100000Y-159049999I0J-249999D01*
G01*
X196100000Y-159950001D01*
G75*
G02*
X195850001Y-160200000I-249999J0D01*
G01*
X195149999Y-160200000D01*
G75*
G02*
X194900000Y-159950001I0J249999D01*
G01*
G37*
%TD.AperFunction*%
%TO.P,R23,2*%
%TO.N,Rel6*%
%TA.AperFunction,SMDPad,CuDef*%
G36*
G01*
X196900000Y-159950001D02*
X196900000Y-159049999D01*
G75*
G02*
X197149999Y-158800000I249999J0D01*
G01*
X197850001Y-158800000D01*
G75*
G02*
X198100000Y-159049999I0J-249999D01*
G01*
X198100000Y-159950001D01*
G75*
G02*
X197850001Y-160200000I-249999J0D01*
G01*
X197149999Y-160200000D01*
G75*
G02*
X196900000Y-159950001I0J249999D01*
G01*
G37*
%TD.AperFunction*%
%TD*%
%TO.P,R24,2*%
%TO.N,Net-(Q6-Pad2)*%
%TA.AperFunction,SMDPad,CuDef*%
G36*
G01*
X194900000Y-164450001D02*
X194900000Y-163549999D01*
G75*
G02*
X195149999Y-163300000I249999J0D01*
G01*
X195850001Y-163300000D01*
G75*
G02*
X196100000Y-163549999I0J-249999D01*
G01*
X196100000Y-164450001D01*
G75*
G02*
X195850001Y-164700000I-249999J0D01*
G01*
X195149999Y-164700000D01*
G75*
G02*
X194900000Y-164450001I0J249999D01*
G01*
G37*
%TD.AperFunction*%
%TO.P,R24,1*%
%TO.N,GND*%
%TA.AperFunction,SMDPad,CuDef*%
G36*
G01*
X192900000Y-164450001D02*
X192900000Y-163549999D01*
G75*
G02*
X193149999Y-163300000I249999J0D01*
G01*
X193850001Y-163300000D01*
G75*
G02*
X194100000Y-163549999I0J-249999D01*
G01*
X194100000Y-164450001D01*
G75*
G02*
X193850001Y-164700000I-249999J0D01*
G01*
X193149999Y-164700000D01*
G75*
G02*
X192900000Y-164450001I0J249999D01*
G01*
G37*
%TD.AperFunction*%
%TD*%
%TO.P,R25,2*%
%TO.N,Net-(D20-Pad1)*%
%TA.AperFunction,SMDPad,CuDef*%
G36*
G01*
X214400000Y-180950001D02*
X214400000Y-180049999D01*
G75*
G02*
X214649999Y-179800000I249999J0D01*
G01*
X215350001Y-179800000D01*
G75*
G02*
X215600000Y-180049999I0J-249999D01*
G01*
X215600000Y-180950001D01*
G75*
G02*
X215350001Y-181200000I-249999J0D01*
G01*
X214649999Y-181200000D01*
G75*
G02*
X214400000Y-180950001I0J249999D01*
G01*
G37*
%TD.AperFunction*%
%TO.P,R25,1*%
%TO.N,Net-(D19-Pad1)*%
%TA.AperFunction,SMDPad,CuDef*%
G36*
G01*
X212400000Y-180950001D02*
X212400000Y-180049999D01*
G75*
G02*
X212649999Y-179800000I249999J0D01*
G01*
X213350001Y-179800000D01*
G75*
G02*
X213600000Y-180049999I0J-249999D01*
G01*
X213600000Y-180950001D01*
G75*
G02*
X213350001Y-181200000I-249999J0D01*
G01*
X212649999Y-181200000D01*
G75*
G02*
X212400000Y-180950001I0J249999D01*
G01*
G37*
%TD.AperFunction*%
%TD*%
%TO.P,R26,2*%
%TO.N,Rel7*%
%TA.AperFunction,SMDPad,CuDef*%
G36*
G01*
X213900000Y-159950001D02*
X213900000Y-159049999D01*
G75*
G02*
X214149999Y-158800000I249999J0D01*
G01*
X214850001Y-158800000D01*
G75*
G02*
X215100000Y-159049999I0J-249999D01*
G01*
X215100000Y-159950001D01*
G75*
G02*
X214850001Y-160200000I-249999J0D01*
G01*
X214149999Y-160200000D01*
G75*
G02*
X213900000Y-159950001I0J249999D01*
G01*
G37*
%TD.AperFunction*%
%TO.P,R26,1*%
%TO.N,Net-(Q7-Pad2)*%
%TA.AperFunction,SMDPad,CuDef*%
G36*
G01*
X211900000Y-159950001D02*
X211900000Y-159049999D01*
G75*
G02*
X212149999Y-158800000I249999J0D01*
G01*
X212850001Y-158800000D01*
G75*
G02*
X213100000Y-159049999I0J-249999D01*
G01*
X213100000Y-159950001D01*
G75*
G02*
X212850001Y-160200000I-249999J0D01*
G01*
X212149999Y-160200000D01*
G75*
G02*
X211900000Y-159950001I0J249999D01*
G01*
G37*
%TD.AperFunction*%
%TD*%
%TO.P,R27,1*%
%TO.N,GND*%
%TA.AperFunction,SMDPad,CuDef*%
G36*
G01*
X209900000Y-164450001D02*
X209900000Y-163549999D01*
G75*
G02*
X210149999Y-163300000I249999J0D01*
G01*
X210850001Y-163300000D01*
G75*
G02*
X211100000Y-163549999I0J-249999D01*
G01*
X211100000Y-164450001D01*
G75*
G02*
X210850001Y-164700000I-249999J0D01*
G01*
X210149999Y-164700000D01*
G75*
G02*
X209900000Y-164450001I0J249999D01*
G01*
G37*
%TD.AperFunction*%
%TO.P,R27,2*%
%TO.N,Net-(Q7-Pad2)*%
%TA.AperFunction,SMDPad,CuDef*%
G36*
G01*
X211900000Y-164450001D02*
X211900000Y-163549999D01*
G75*
G02*
X212149999Y-163300000I249999J0D01*
G01*
X212850001Y-163300000D01*
G75*
G02*
X213100000Y-163549999I0J-249999D01*
G01*
X213100000Y-164450001D01*
G75*
G02*
X212850001Y-164700000I-249999J0D01*
G01*
X212149999Y-164700000D01*
G75*
G02*
X211900000Y-164450001I0J249999D01*
G01*
G37*
%TD.AperFunction*%
%TD*%
%TO.P,R28,1*%
%TO.N,Net-(D21-Pad1)*%
%TA.AperFunction,SMDPad,CuDef*%
G36*
G01*
X231900000Y-180950001D02*
X231900000Y-180049999D01*
G75*
G02*
X232149999Y-179800000I249999J0D01*
G01*
X232850001Y-179800000D01*
G75*
G02*
X233100000Y-180049999I0J-249999D01*
G01*
X233100000Y-180950001D01*
G75*
G02*
X232850001Y-181200000I-249999J0D01*
G01*
X232149999Y-181200000D01*
G75*
G02*
X231900000Y-180950001I0J249999D01*
G01*
G37*
%TD.AperFunction*%
%TO.P,R28,2*%
%TO.N,Net-(D22-Pad1)*%
%TA.AperFunction,SMDPad,CuDef*%
G36*
G01*
X233900000Y-180950001D02*
X233900000Y-180049999D01*
G75*
G02*
X234149999Y-179800000I249999J0D01*
G01*
X234850001Y-179800000D01*
G75*
G02*
X235100000Y-180049999I0J-249999D01*
G01*
X235100000Y-180950001D01*
G75*
G02*
X234850001Y-181200000I-249999J0D01*
G01*
X234149999Y-181200000D01*
G75*
G02*
X233900000Y-180950001I0J249999D01*
G01*
G37*
%TD.AperFunction*%
%TD*%
%TO.P,R29,2*%
%TO.N,Rel8*%
%TA.AperFunction,SMDPad,CuDef*%
G36*
G01*
X232900000Y-159950001D02*
X232900000Y-159049999D01*
G75*
G02*
X233149999Y-158800000I249999J0D01*
G01*
X233850001Y-158800000D01*
G75*
G02*
X234100000Y-159049999I0J-249999D01*
G01*
X234100000Y-159950001D01*
G75*
G02*
X233850001Y-160200000I-249999J0D01*
G01*
X233149999Y-160200000D01*
G75*
G02*
X232900000Y-159950001I0J249999D01*
G01*
G37*
%TD.AperFunction*%
%TO.P,R29,1*%
%TO.N,Net-(Q8-Pad2)*%
%TA.AperFunction,SMDPad,CuDef*%
G36*
G01*
X230900000Y-159950001D02*
X230900000Y-159049999D01*
G75*
G02*
X231149999Y-158800000I249999J0D01*
G01*
X231850001Y-158800000D01*
G75*
G02*
X232100000Y-159049999I0J-249999D01*
G01*
X232100000Y-159950001D01*
G75*
G02*
X231850001Y-160200000I-249999J0D01*
G01*
X231149999Y-160200000D01*
G75*
G02*
X230900000Y-159950001I0J249999D01*
G01*
G37*
%TD.AperFunction*%
%TD*%
%TO.P,R30,2*%
%TO.N,Net-(Q8-Pad2)*%
%TA.AperFunction,SMDPad,CuDef*%
G36*
G01*
X231400000Y-163950001D02*
X231400000Y-163049999D01*
G75*
G02*
X231649999Y-162800000I249999J0D01*
G01*
X232350001Y-162800000D01*
G75*
G02*
X232600000Y-163049999I0J-249999D01*
G01*
X232600000Y-163950001D01*
G75*
G02*
X232350001Y-164200000I-249999J0D01*
G01*
X231649999Y-164200000D01*
G75*
G02*
X231400000Y-163950001I0J249999D01*
G01*
G37*
%TD.AperFunction*%
%TO.P,R30,1*%
%TO.N,GND*%
%TA.AperFunction,SMDPad,CuDef*%
G36*
G01*
X229400000Y-163950001D02*
X229400000Y-163049999D01*
G75*
G02*
X229649999Y-162800000I249999J0D01*
G01*
X230350001Y-162800000D01*
G75*
G02*
X230600000Y-163049999I0J-249999D01*
G01*
X230600000Y-163950001D01*
G75*
G02*
X230350001Y-164200000I-249999J0D01*
G01*
X229649999Y-164200000D01*
G75*
G02*
X229400000Y-163950001I0J249999D01*
G01*
G37*
%TD.AperFunction*%
%TD*%
%TO.P,R31,2*%
%TO.N,Net-(D27-Pad1)*%
%TA.AperFunction,SMDPad,CuDef*%
G36*
G01*
X248789601Y-159462800D02*
X247889599Y-159462800D01*
G75*
G02*
X247639600Y-159212801I0J249999D01*
G01*
X247639600Y-158512799D01*
G75*
G02*
X247889599Y-158262800I249999J0D01*
G01*
X248789601Y-158262800D01*
G75*
G02*
X249039600Y-158512799I0J-249999D01*
G01*
X249039600Y-159212801D01*
G75*
G02*
X248789601Y-159462800I-249999J0D01*
G01*
G37*
%TD.AperFunction*%
%TO.P,R31,1*%
%TO.N,Net-(C9-Pad1)*%
%TA.AperFunction,SMDPad,CuDef*%
G36*
G01*
X248789601Y-161462800D02*
X247889599Y-161462800D01*
G75*
G02*
X247639600Y-161212801I0J249999D01*
G01*
X247639600Y-160512799D01*
G75*
G02*
X247889599Y-160262800I249999J0D01*
G01*
X248789601Y-160262800D01*
G75*
G02*
X249039600Y-160512799I0J-249999D01*
G01*
X249039600Y-161212801D01*
G75*
G02*
X248789601Y-161462800I-249999J0D01*
G01*
G37*
%TD.AperFunction*%
%TD*%
%TO.P,R32,1*%
%TO.N,Net-(C10-Pad1)*%
%TA.AperFunction,SMDPad,CuDef*%
G36*
G01*
X248289601Y-148462800D02*
X247389599Y-148462800D01*
G75*
G02*
X247139600Y-148212801I0J249999D01*
G01*
X247139600Y-147512799D01*
G75*
G02*
X247389599Y-147262800I249999J0D01*
G01*
X248289601Y-147262800D01*
G75*
G02*
X248539600Y-147512799I0J-249999D01*
G01*
X248539600Y-148212801D01*
G75*
G02*
X248289601Y-148462800I-249999J0D01*
G01*
G37*
%TD.AperFunction*%
%TO.P,R32,2*%
%TO.N,Net-(D28-Pad1)*%
%TA.AperFunction,SMDPad,CuDef*%
G36*
G01*
X248289601Y-146462800D02*
X247389599Y-146462800D01*
G75*
G02*
X247139600Y-146212801I0J249999D01*
G01*
X247139600Y-145512799D01*
G75*
G02*
X247389599Y-145262800I249999J0D01*
G01*
X248289601Y-145262800D01*
G75*
G02*
X248539600Y-145512799I0J-249999D01*
G01*
X248539600Y-146212801D01*
G75*
G02*
X248289601Y-146462800I-249999J0D01*
G01*
G37*
%TD.AperFunction*%
%TD*%
%TO.P,R33,2*%
%TO.N,Net-(D29-Pad1)*%
%TA.AperFunction,SMDPad,CuDef*%
G36*
G01*
X248289601Y-134462800D02*
X247389599Y-134462800D01*
G75*
G02*
X247139600Y-134212801I0J249999D01*
G01*
X247139600Y-133512799D01*
G75*
G02*
X247389599Y-133262800I249999J0D01*
G01*
X248289601Y-133262800D01*
G75*
G02*
X248539600Y-133512799I0J-249999D01*
G01*
X248539600Y-134212801D01*
G75*
G02*
X248289601Y-134462800I-249999J0D01*
G01*
G37*
%TD.AperFunction*%
%TO.P,R33,1*%
%TO.N,Net-(C11-Pad1)*%
%TA.AperFunction,SMDPad,CuDef*%
G36*
G01*
X248289601Y-136462800D02*
X247389599Y-136462800D01*
G75*
G02*
X247139600Y-136212801I0J249999D01*
G01*
X247139600Y-135512799D01*
G75*
G02*
X247389599Y-135262800I249999J0D01*
G01*
X248289601Y-135262800D01*
G75*
G02*
X248539600Y-135512799I0J-249999D01*
G01*
X248539600Y-136212801D01*
G75*
G02*
X248289601Y-136462800I-249999J0D01*
G01*
G37*
%TD.AperFunction*%
%TD*%
%TO.P,R34,2*%
%TO.N,VCC*%
%TA.AperFunction,SMDPad,CuDef*%
G36*
G01*
X242439600Y-164412799D02*
X242439600Y-165312801D01*
G75*
G02*
X242189601Y-165562800I-249999J0D01*
G01*
X241489599Y-165562800D01*
G75*
G02*
X241239600Y-165312801I0J249999D01*
G01*
X241239600Y-164412799D01*
G75*
G02*
X241489599Y-164162800I249999J0D01*
G01*
X242189601Y-164162800D01*
G75*
G02*
X242439600Y-164412799I0J-249999D01*
G01*
G37*
%TD.AperFunction*%
%TO.P,R34,1*%
%TO.N,Net-(C9-Pad1)*%
%TA.AperFunction,SMDPad,CuDef*%
G36*
G01*
X244439600Y-164412799D02*
X244439600Y-165312801D01*
G75*
G02*
X244189601Y-165562800I-249999J0D01*
G01*
X243489599Y-165562800D01*
G75*
G02*
X243239600Y-165312801I0J249999D01*
G01*
X243239600Y-164412799D01*
G75*
G02*
X243489599Y-164162800I249999J0D01*
G01*
X244189601Y-164162800D01*
G75*
G02*
X244439600Y-164412799I0J-249999D01*
G01*
G37*
%TD.AperFunction*%
%TD*%
%TO.P,R35,2*%
%TO.N,Net-(D30-Pad1)*%
%TA.AperFunction,SMDPad,CuDef*%
G36*
G01*
X249289601Y-120962800D02*
X248389599Y-120962800D01*
G75*
G02*
X248139600Y-120712801I0J249999D01*
G01*
X248139600Y-120012799D01*
G75*
G02*
X248389599Y-119762800I249999J0D01*
G01*
X249289601Y-119762800D01*
G75*
G02*
X249539600Y-120012799I0J-249999D01*
G01*
X249539600Y-120712801D01*
G75*
G02*
X249289601Y-120962800I-249999J0D01*
G01*
G37*
%TD.AperFunction*%
%TO.P,R35,1*%
%TO.N,Net-(C12-Pad1)*%
%TA.AperFunction,SMDPad,CuDef*%
G36*
G01*
X249289601Y-122962800D02*
X248389599Y-122962800D01*
G75*
G02*
X248139600Y-122712801I0J249999D01*
G01*
X248139600Y-122012799D01*
G75*
G02*
X248389599Y-121762800I249999J0D01*
G01*
X249289601Y-121762800D01*
G75*
G02*
X249539600Y-122012799I0J-249999D01*
G01*
X249539600Y-122712801D01*
G75*
G02*
X249289601Y-122962800I-249999J0D01*
G01*
G37*
%TD.AperFunction*%
%TD*%
%TO.P,R36,1*%
%TO.N,Net-(C10-Pad1)*%
%TA.AperFunction,SMDPad,CuDef*%
G36*
G01*
X243939600Y-150412799D02*
X243939600Y-151312801D01*
G75*
G02*
X243689601Y-151562800I-249999J0D01*
G01*
X242989599Y-151562800D01*
G75*
G02*
X242739600Y-151312801I0J249999D01*
G01*
X242739600Y-150412799D01*
G75*
G02*
X242989599Y-150162800I249999J0D01*
G01*
X243689601Y-150162800D01*
G75*
G02*
X243939600Y-150412799I0J-249999D01*
G01*
G37*
%TD.AperFunction*%
%TO.P,R36,2*%
%TO.N,VCC*%
%TA.AperFunction,SMDPad,CuDef*%
G36*
G01*
X241939600Y-150412799D02*
X241939600Y-151312801D01*
G75*
G02*
X241689601Y-151562800I-249999J0D01*
G01*
X240989599Y-151562800D01*
G75*
G02*
X240739600Y-151312801I0J249999D01*
G01*
X240739600Y-150412799D01*
G75*
G02*
X240989599Y-150162800I249999J0D01*
G01*
X241689601Y-150162800D01*
G75*
G02*
X241939600Y-150412799I0J-249999D01*
G01*
G37*
%TD.AperFunction*%
%TD*%
%TO.P,R37,2*%
%TO.N,VCC*%
%TA.AperFunction,SMDPad,CuDef*%
G36*
G01*
X241939600Y-135412799D02*
X241939600Y-136312801D01*
G75*
G02*
X241689601Y-136562800I-249999J0D01*
G01*
X240989599Y-136562800D01*
G75*
G02*
X240739600Y-136312801I0J249999D01*
G01*
X240739600Y-135412799D01*
G75*
G02*
X240989599Y-135162800I249999J0D01*
G01*
X241689601Y-135162800D01*
G75*
G02*
X241939600Y-135412799I0J-249999D01*
G01*
G37*
%TD.AperFunction*%
%TO.P,R37,1*%
%TO.N,Net-(C11-Pad1)*%
%TA.AperFunction,SMDPad,CuDef*%
G36*
G01*
X243939600Y-135412799D02*
X243939600Y-136312801D01*
G75*
G02*
X243689601Y-136562800I-249999J0D01*
G01*
X242989599Y-136562800D01*
G75*
G02*
X242739600Y-136312801I0J249999D01*
G01*
X242739600Y-135412799D01*
G75*
G02*
X242989599Y-135162800I249999J0D01*
G01*
X243689601Y-135162800D01*
G75*
G02*
X243939600Y-135412799I0J-249999D01*
G01*
G37*
%TD.AperFunction*%
%TD*%
%TO.P,R38,1*%
%TO.N,Net-(C12-Pad1)*%
%TA.AperFunction,SMDPad,CuDef*%
G36*
G01*
X244939600Y-122412799D02*
X244939600Y-123312801D01*
G75*
G02*
X244689601Y-123562800I-249999J0D01*
G01*
X243989599Y-123562800D01*
G75*
G02*
X243739600Y-123312801I0J249999D01*
G01*
X243739600Y-122412799D01*
G75*
G02*
X243989599Y-122162800I249999J0D01*
G01*
X244689601Y-122162800D01*
G75*
G02*
X244939600Y-122412799I0J-249999D01*
G01*
G37*
%TD.AperFunction*%
%TO.P,R38,2*%
%TO.N,VCC*%
%TA.AperFunction,SMDPad,CuDef*%
G36*
G01*
X242939600Y-122412799D02*
X242939600Y-123312801D01*
G75*
G02*
X242689601Y-123562800I-249999J0D01*
G01*
X241989599Y-123562800D01*
G75*
G02*
X241739600Y-123312801I0J249999D01*
G01*
X241739600Y-122412799D01*
G75*
G02*
X241989599Y-122162800I249999J0D01*
G01*
X242689601Y-122162800D01*
G75*
G02*
X242939600Y-122412799I0J-249999D01*
G01*
G37*
%TD.AperFunction*%
%TD*%
%TO.P,R39,2*%
%TO.N,Net-(C9-Pad1)*%
%TA.AperFunction,SMDPad,CuDef*%
G36*
G01*
X243239600Y-169812801D02*
X243239600Y-168912799D01*
G75*
G02*
X243489599Y-168662800I249999J0D01*
G01*
X244189601Y-168662800D01*
G75*
G02*
X244439600Y-168912799I0J-249999D01*
G01*
X244439600Y-169812801D01*
G75*
G02*
X244189601Y-170062800I-249999J0D01*
G01*
X243489599Y-170062800D01*
G75*
G02*
X243239600Y-169812801I0J249999D01*
G01*
G37*
%TD.AperFunction*%
%TO.P,R39,1*%
%TO.N,IN1*%
%TA.AperFunction,SMDPad,CuDef*%
G36*
G01*
X241239600Y-169812801D02*
X241239600Y-168912799D01*
G75*
G02*
X241489599Y-168662800I249999J0D01*
G01*
X242189601Y-168662800D01*
G75*
G02*
X242439600Y-168912799I0J-249999D01*
G01*
X242439600Y-169812801D01*
G75*
G02*
X242189601Y-170062800I-249999J0D01*
G01*
X241489599Y-170062800D01*
G75*
G02*
X241239600Y-169812801I0J249999D01*
G01*
G37*
%TD.AperFunction*%
%TD*%
%TO.P,R40,2*%
%TO.N,Net-(C10-Pad1)*%
%TA.AperFunction,SMDPad,CuDef*%
G36*
G01*
X242739600Y-155312801D02*
X242739600Y-154412799D01*
G75*
G02*
X242989599Y-154162800I249999J0D01*
G01*
X243689601Y-154162800D01*
G75*
G02*
X243939600Y-154412799I0J-249999D01*
G01*
X243939600Y-155312801D01*
G75*
G02*
X243689601Y-155562800I-249999J0D01*
G01*
X242989599Y-155562800D01*
G75*
G02*
X242739600Y-155312801I0J249999D01*
G01*
G37*
%TD.AperFunction*%
%TO.P,R40,1*%
%TO.N,IN3*%
%TA.AperFunction,SMDPad,CuDef*%
G36*
G01*
X240739600Y-155312801D02*
X240739600Y-154412799D01*
G75*
G02*
X240989599Y-154162800I249999J0D01*
G01*
X241689601Y-154162800D01*
G75*
G02*
X241939600Y-154412799I0J-249999D01*
G01*
X241939600Y-155312801D01*
G75*
G02*
X241689601Y-155562800I-249999J0D01*
G01*
X240989599Y-155562800D01*
G75*
G02*
X240739600Y-155312801I0J249999D01*
G01*
G37*
%TD.AperFunction*%
%TD*%
%TO.P,R41,1*%
%TO.N,IN2*%
%TA.AperFunction,SMDPad,CuDef*%
G36*
G01*
X240739600Y-140812801D02*
X240739600Y-139912799D01*
G75*
G02*
X240989599Y-139662800I249999J0D01*
G01*
X241689601Y-139662800D01*
G75*
G02*
X241939600Y-139912799I0J-249999D01*
G01*
X241939600Y-140812801D01*
G75*
G02*
X241689601Y-141062800I-249999J0D01*
G01*
X240989599Y-141062800D01*
G75*
G02*
X240739600Y-140812801I0J249999D01*
G01*
G37*
%TD.AperFunction*%
%TO.P,R41,2*%
%TO.N,Net-(C11-Pad1)*%
%TA.AperFunction,SMDPad,CuDef*%
G36*
G01*
X242739600Y-140812801D02*
X242739600Y-139912799D01*
G75*
G02*
X242989599Y-139662800I249999J0D01*
G01*
X243689601Y-139662800D01*
G75*
G02*
X243939600Y-139912799I0J-249999D01*
G01*
X243939600Y-140812801D01*
G75*
G02*
X243689601Y-141062800I-249999J0D01*
G01*
X242989599Y-141062800D01*
G75*
G02*
X242739600Y-140812801I0J249999D01*
G01*
G37*
%TD.AperFunction*%
%TD*%
%TO.P,R42,1*%
%TO.N,IN4*%
%TA.AperFunction,SMDPad,CuDef*%
G36*
G01*
X241739600Y-127812801D02*
X241739600Y-126912799D01*
G75*
G02*
X241989599Y-126662800I249999J0D01*
G01*
X242689601Y-126662800D01*
G75*
G02*
X242939600Y-126912799I0J-249999D01*
G01*
X242939600Y-127812801D01*
G75*
G02*
X242689601Y-128062800I-249999J0D01*
G01*
X241989599Y-128062800D01*
G75*
G02*
X241739600Y-127812801I0J249999D01*
G01*
G37*
%TD.AperFunction*%
%TO.P,R42,2*%
%TO.N,Net-(C12-Pad1)*%
%TA.AperFunction,SMDPad,CuDef*%
G36*
G01*
X243739600Y-127812801D02*
X243739600Y-126912799D01*
G75*
G02*
X243989599Y-126662800I249999J0D01*
G01*
X244689601Y-126662800D01*
G75*
G02*
X244939600Y-126912799I0J-249999D01*
G01*
X244939600Y-127812801D01*
G75*
G02*
X244689601Y-128062800I-249999J0D01*
G01*
X243989599Y-128062800D01*
G75*
G02*
X243739600Y-127812801I0J249999D01*
G01*
G37*
%TD.AperFunction*%
%TD*%
%TO.P,R43,1*%
%TO.N,Net-(C13-Pad1)*%
%TA.AperFunction,SMDPad,CuDef*%
G36*
G01*
X249289601Y-110462800D02*
X248389599Y-110462800D01*
G75*
G02*
X248139600Y-110212801I0J249999D01*
G01*
X248139600Y-109512799D01*
G75*
G02*
X248389599Y-109262800I249999J0D01*
G01*
X249289601Y-109262800D01*
G75*
G02*
X249539600Y-109512799I0J-249999D01*
G01*
X249539600Y-110212801D01*
G75*
G02*
X249289601Y-110462800I-249999J0D01*
G01*
G37*
%TD.AperFunction*%
%TO.P,R43,2*%
%TO.N,Net-(D35-Pad1)*%
%TA.AperFunction,SMDPad,CuDef*%
G36*
G01*
X249289601Y-108462800D02*
X248389599Y-108462800D01*
G75*
G02*
X248139600Y-108212801I0J249999D01*
G01*
X248139600Y-107512799D01*
G75*
G02*
X248389599Y-107262800I249999J0D01*
G01*
X249289601Y-107262800D01*
G75*
G02*
X249539600Y-107512799I0J-249999D01*
G01*
X249539600Y-108212801D01*
G75*
G02*
X249289601Y-108462800I-249999J0D01*
G01*
G37*
%TD.AperFunction*%
%TD*%
%TO.P,R44,1*%
%TO.N,Net-(C14-Pad1)*%
%TA.AperFunction,SMDPad,CuDef*%
G36*
G01*
X249289601Y-97462800D02*
X248389599Y-97462800D01*
G75*
G02*
X248139600Y-97212801I0J249999D01*
G01*
X248139600Y-96512799D01*
G75*
G02*
X248389599Y-96262800I249999J0D01*
G01*
X249289601Y-96262800D01*
G75*
G02*
X249539600Y-96512799I0J-249999D01*
G01*
X249539600Y-97212801D01*
G75*
G02*
X249289601Y-97462800I-249999J0D01*
G01*
G37*
%TD.AperFunction*%
%TO.P,R44,2*%
%TO.N,Net-(D36-Pad1)*%
%TA.AperFunction,SMDPad,CuDef*%
G36*
G01*
X249289601Y-95462800D02*
X248389599Y-95462800D01*
G75*
G02*
X248139600Y-95212801I0J249999D01*
G01*
X248139600Y-94512799D01*
G75*
G02*
X248389599Y-94262800I249999J0D01*
G01*
X249289601Y-94262800D01*
G75*
G02*
X249539600Y-94512799I0J-249999D01*
G01*
X249539600Y-95212801D01*
G75*
G02*
X249289601Y-95462800I-249999J0D01*
G01*
G37*
%TD.AperFunction*%
%TD*%
%TO.P,R45,1*%
%TO.N,Net-(C15-Pad1)*%
%TA.AperFunction,SMDPad,CuDef*%
G36*
G01*
X249289601Y-85462800D02*
X248389599Y-85462800D01*
G75*
G02*
X248139600Y-85212801I0J249999D01*
G01*
X248139600Y-84512799D01*
G75*
G02*
X248389599Y-84262800I249999J0D01*
G01*
X249289601Y-84262800D01*
G75*
G02*
X249539600Y-84512799I0J-249999D01*
G01*
X249539600Y-85212801D01*
G75*
G02*
X249289601Y-85462800I-249999J0D01*
G01*
G37*
%TD.AperFunction*%
%TO.P,R45,2*%
%TO.N,Net-(D37-Pad1)*%
%TA.AperFunction,SMDPad,CuDef*%
G36*
G01*
X249289601Y-83462800D02*
X248389599Y-83462800D01*
G75*
G02*
X248139600Y-83212801I0J249999D01*
G01*
X248139600Y-82512799D01*
G75*
G02*
X248389599Y-82262800I249999J0D01*
G01*
X249289601Y-82262800D01*
G75*
G02*
X249539600Y-82512799I0J-249999D01*
G01*
X249539600Y-83212801D01*
G75*
G02*
X249289601Y-83462800I-249999J0D01*
G01*
G37*
%TD.AperFunction*%
%TD*%
%TO.P,R46,2*%
%TO.N,Net-(D38-Pad1)*%
%TA.AperFunction,SMDPad,CuDef*%
G36*
G01*
X249789601Y-70462800D02*
X248889599Y-70462800D01*
G75*
G02*
X248639600Y-70212801I0J249999D01*
G01*
X248639600Y-69512799D01*
G75*
G02*
X248889599Y-69262800I249999J0D01*
G01*
X249789601Y-69262800D01*
G75*
G02*
X250039600Y-69512799I0J-249999D01*
G01*
X250039600Y-70212801D01*
G75*
G02*
X249789601Y-70462800I-249999J0D01*
G01*
G37*
%TD.AperFunction*%
%TO.P,R46,1*%
%TO.N,Net-(C16-Pad1)*%
%TA.AperFunction,SMDPad,CuDef*%
G36*
G01*
X249789601Y-72462800D02*
X248889599Y-72462800D01*
G75*
G02*
X248639600Y-72212801I0J249999D01*
G01*
X248639600Y-71512799D01*
G75*
G02*
X248889599Y-71262800I249999J0D01*
G01*
X249789601Y-71262800D01*
G75*
G02*
X250039600Y-71512799I0J-249999D01*
G01*
X250039600Y-72212801D01*
G75*
G02*
X249789601Y-72462800I-249999J0D01*
G01*
G37*
%TD.AperFunction*%
%TD*%
%TO.P,R47,1*%
%TO.N,Net-(C13-Pad1)*%
%TA.AperFunction,SMDPad,CuDef*%
G36*
G01*
X245439600Y-109412799D02*
X245439600Y-110312801D01*
G75*
G02*
X245189601Y-110562800I-249999J0D01*
G01*
X244489599Y-110562800D01*
G75*
G02*
X244239600Y-110312801I0J249999D01*
G01*
X244239600Y-109412799D01*
G75*
G02*
X244489599Y-109162800I249999J0D01*
G01*
X245189601Y-109162800D01*
G75*
G02*
X245439600Y-109412799I0J-249999D01*
G01*
G37*
%TD.AperFunction*%
%TO.P,R47,2*%
%TO.N,VCC*%
%TA.AperFunction,SMDPad,CuDef*%
G36*
G01*
X243439600Y-109412799D02*
X243439600Y-110312801D01*
G75*
G02*
X243189601Y-110562800I-249999J0D01*
G01*
X242489599Y-110562800D01*
G75*
G02*
X242239600Y-110312801I0J249999D01*
G01*
X242239600Y-109412799D01*
G75*
G02*
X242489599Y-109162800I249999J0D01*
G01*
X243189601Y-109162800D01*
G75*
G02*
X243439600Y-109412799I0J-249999D01*
G01*
G37*
%TD.AperFunction*%
%TD*%
%TO.P,R48,1*%
%TO.N,Net-(C14-Pad1)*%
%TA.AperFunction,SMDPad,CuDef*%
G36*
G01*
X245439600Y-92912799D02*
X245439600Y-93812801D01*
G75*
G02*
X245189601Y-94062800I-249999J0D01*
G01*
X244489599Y-94062800D01*
G75*
G02*
X244239600Y-93812801I0J249999D01*
G01*
X244239600Y-92912799D01*
G75*
G02*
X244489599Y-92662800I249999J0D01*
G01*
X245189601Y-92662800D01*
G75*
G02*
X245439600Y-92912799I0J-249999D01*
G01*
G37*
%TD.AperFunction*%
%TO.P,R48,2*%
%TO.N,VCC*%
%TA.AperFunction,SMDPad,CuDef*%
G36*
G01*
X243439600Y-92912799D02*
X243439600Y-93812801D01*
G75*
G02*
X243189601Y-94062800I-249999J0D01*
G01*
X242489599Y-94062800D01*
G75*
G02*
X242239600Y-93812801I0J249999D01*
G01*
X242239600Y-92912799D01*
G75*
G02*
X242489599Y-92662800I249999J0D01*
G01*
X243189601Y-92662800D01*
G75*
G02*
X243439600Y-92912799I0J-249999D01*
G01*
G37*
%TD.AperFunction*%
%TD*%
%TO.P,R49,1*%
%TO.N,Net-(C15-Pad1)*%
%TA.AperFunction,SMDPad,CuDef*%
G36*
G01*
X245439600Y-84412799D02*
X245439600Y-85312801D01*
G75*
G02*
X245189601Y-85562800I-249999J0D01*
G01*
X244489599Y-85562800D01*
G75*
G02*
X244239600Y-85312801I0J249999D01*
G01*
X244239600Y-84412799D01*
G75*
G02*
X244489599Y-84162800I249999J0D01*
G01*
X245189601Y-84162800D01*
G75*
G02*
X245439600Y-84412799I0J-249999D01*
G01*
G37*
%TD.AperFunction*%
%TO.P,R49,2*%
%TO.N,VCC*%
%TA.AperFunction,SMDPad,CuDef*%
G36*
G01*
X243439600Y-84412799D02*
X243439600Y-85312801D01*
G75*
G02*
X243189601Y-85562800I-249999J0D01*
G01*
X242489599Y-85562800D01*
G75*
G02*
X242239600Y-85312801I0J249999D01*
G01*
X242239600Y-84412799D01*
G75*
G02*
X242489599Y-84162800I249999J0D01*
G01*
X243189601Y-84162800D01*
G75*
G02*
X243439600Y-84412799I0J-249999D01*
G01*
G37*
%TD.AperFunction*%
%TD*%
%TO.P,R50,2*%
%TO.N,VCC*%
%TA.AperFunction,SMDPad,CuDef*%
G36*
G01*
X244439600Y-71412799D02*
X244439600Y-72312801D01*
G75*
G02*
X244189601Y-72562800I-249999J0D01*
G01*
X243489599Y-72562800D01*
G75*
G02*
X243239600Y-72312801I0J249999D01*
G01*
X243239600Y-71412799D01*
G75*
G02*
X243489599Y-71162800I249999J0D01*
G01*
X244189601Y-71162800D01*
G75*
G02*
X244439600Y-71412799I0J-249999D01*
G01*
G37*
%TD.AperFunction*%
%TO.P,R50,1*%
%TO.N,Net-(C16-Pad1)*%
%TA.AperFunction,SMDPad,CuDef*%
G36*
G01*
X246439600Y-71412799D02*
X246439600Y-72312801D01*
G75*
G02*
X246189601Y-72562800I-249999J0D01*
G01*
X245489599Y-72562800D01*
G75*
G02*
X245239600Y-72312801I0J249999D01*
G01*
X245239600Y-71412799D01*
G75*
G02*
X245489599Y-71162800I249999J0D01*
G01*
X246189601Y-71162800D01*
G75*
G02*
X246439600Y-71412799I0J-249999D01*
G01*
G37*
%TD.AperFunction*%
%TD*%
%TO.P,R51,2*%
%TO.N,Net-(C13-Pad1)*%
%TA.AperFunction,SMDPad,CuDef*%
G36*
G01*
X244239600Y-113812801D02*
X244239600Y-112912799D01*
G75*
G02*
X244489599Y-112662800I249999J0D01*
G01*
X245189601Y-112662800D01*
G75*
G02*
X245439600Y-112912799I0J-249999D01*
G01*
X245439600Y-113812801D01*
G75*
G02*
X245189601Y-114062800I-249999J0D01*
G01*
X244489599Y-114062800D01*
G75*
G02*
X244239600Y-113812801I0J249999D01*
G01*
G37*
%TD.AperFunction*%
%TO.P,R51,1*%
%TO.N,IN5*%
%TA.AperFunction,SMDPad,CuDef*%
G36*
G01*
X242239600Y-113812801D02*
X242239600Y-112912799D01*
G75*
G02*
X242489599Y-112662800I249999J0D01*
G01*
X243189601Y-112662800D01*
G75*
G02*
X243439600Y-112912799I0J-249999D01*
G01*
X243439600Y-113812801D01*
G75*
G02*
X243189601Y-114062800I-249999J0D01*
G01*
X242489599Y-114062800D01*
G75*
G02*
X242239600Y-113812801I0J249999D01*
G01*
G37*
%TD.AperFunction*%
%TD*%
%TO.P,R52,2*%
%TO.N,Net-(C14-Pad1)*%
%TA.AperFunction,SMDPad,CuDef*%
G36*
G01*
X244239600Y-97312801D02*
X244239600Y-96412799D01*
G75*
G02*
X244489599Y-96162800I249999J0D01*
G01*
X245189601Y-96162800D01*
G75*
G02*
X245439600Y-96412799I0J-249999D01*
G01*
X245439600Y-97312801D01*
G75*
G02*
X245189601Y-97562800I-249999J0D01*
G01*
X244489599Y-97562800D01*
G75*
G02*
X244239600Y-97312801I0J249999D01*
G01*
G37*
%TD.AperFunction*%
%TO.P,R52,1*%
%TO.N,IN7*%
%TA.AperFunction,SMDPad,CuDef*%
G36*
G01*
X242239600Y-97312801D02*
X242239600Y-96412799D01*
G75*
G02*
X242489599Y-96162800I249999J0D01*
G01*
X243189601Y-96162800D01*
G75*
G02*
X243439600Y-96412799I0J-249999D01*
G01*
X243439600Y-97312801D01*
G75*
G02*
X243189601Y-97562800I-249999J0D01*
G01*
X242489599Y-97562800D01*
G75*
G02*
X242239600Y-97312801I0J249999D01*
G01*
G37*
%TD.AperFunction*%
%TD*%
%TO.P,R53,2*%
%TO.N,Net-(C15-Pad1)*%
%TA.AperFunction,SMDPad,CuDef*%
G36*
G01*
X244239600Y-89312801D02*
X244239600Y-88412799D01*
G75*
G02*
X244489599Y-88162800I249999J0D01*
G01*
X245189601Y-88162800D01*
G75*
G02*
X245439600Y-88412799I0J-249999D01*
G01*
X245439600Y-89312801D01*
G75*
G02*
X245189601Y-89562800I-249999J0D01*
G01*
X244489599Y-89562800D01*
G75*
G02*
X244239600Y-89312801I0J249999D01*
G01*
G37*
%TD.AperFunction*%
%TO.P,R53,1*%
%TO.N,IN6*%
%TA.AperFunction,SMDPad,CuDef*%
G36*
G01*
X242239600Y-89312801D02*
X242239600Y-88412799D01*
G75*
G02*
X242489599Y-88162800I249999J0D01*
G01*
X243189601Y-88162800D01*
G75*
G02*
X243439600Y-88412799I0J-249999D01*
G01*
X243439600Y-89312801D01*
G75*
G02*
X243189601Y-89562800I-249999J0D01*
G01*
X242489599Y-89562800D01*
G75*
G02*
X242239600Y-89312801I0J249999D01*
G01*
G37*
%TD.AperFunction*%
%TD*%
%TO.P,R54,1*%
%TO.N,IN8*%
%TA.AperFunction,SMDPad,CuDef*%
G36*
G01*
X243239600Y-76812801D02*
X243239600Y-75912799D01*
G75*
G02*
X243489599Y-75662800I249999J0D01*
G01*
X244189601Y-75662800D01*
G75*
G02*
X244439600Y-75912799I0J-249999D01*
G01*
X244439600Y-76812801D01*
G75*
G02*
X244189601Y-77062800I-249999J0D01*
G01*
X243489599Y-77062800D01*
G75*
G02*
X243239600Y-76812801I0J249999D01*
G01*
G37*
%TD.AperFunction*%
%TO.P,R54,2*%
%TO.N,Net-(C16-Pad1)*%
%TA.AperFunction,SMDPad,CuDef*%
G36*
G01*
X245239600Y-76812801D02*
X245239600Y-75912799D01*
G75*
G02*
X245489599Y-75662800I249999J0D01*
G01*
X246189601Y-75662800D01*
G75*
G02*
X246439600Y-75912799I0J-249999D01*
G01*
X246439600Y-76812801D01*
G75*
G02*
X246189601Y-77062800I-249999J0D01*
G01*
X245489599Y-77062800D01*
G75*
G02*
X245239600Y-76812801I0J249999D01*
G01*
G37*
%TD.AperFunction*%
%TD*%
%TO.P,R55,1*%
%TO.N,AN1*%
%TA.AperFunction,SMDPad,CuDef*%
G36*
G01*
X129450001Y-45600000D02*
X128549999Y-45600000D01*
G75*
G02*
X128300000Y-45350001I0J249999D01*
G01*
X128300000Y-44649999D01*
G75*
G02*
X128549999Y-44400000I249999J0D01*
G01*
X129450001Y-44400000D01*
G75*
G02*
X129700000Y-44649999I0J-249999D01*
G01*
X129700000Y-45350001D01*
G75*
G02*
X129450001Y-45600000I-249999J0D01*
G01*
G37*
%TD.AperFunction*%
%TO.P,R55,2*%
%TO.N,Net-(D39-Pad1)*%
%TA.AperFunction,SMDPad,CuDef*%
G36*
G01*
X129450001Y-43600000D02*
X128549999Y-43600000D01*
G75*
G02*
X128300000Y-43350001I0J249999D01*
G01*
X128300000Y-42649999D01*
G75*
G02*
X128549999Y-42400000I249999J0D01*
G01*
X129450001Y-42400000D01*
G75*
G02*
X129700000Y-42649999I0J-249999D01*
G01*
X129700000Y-43350001D01*
G75*
G02*
X129450001Y-43600000I-249999J0D01*
G01*
G37*
%TD.AperFunction*%
%TD*%
%TO.P,R56,1*%
%TO.N,AN2*%
%TA.AperFunction,SMDPad,CuDef*%
G36*
G01*
X143450001Y-45600000D02*
X142549999Y-45600000D01*
G75*
G02*
X142300000Y-45350001I0J249999D01*
G01*
X142300000Y-44649999D01*
G75*
G02*
X142549999Y-44400000I249999J0D01*
G01*
X143450001Y-44400000D01*
G75*
G02*
X143700000Y-44649999I0J-249999D01*
G01*
X143700000Y-45350001D01*
G75*
G02*
X143450001Y-45600000I-249999J0D01*
G01*
G37*
%TD.AperFunction*%
%TO.P,R56,2*%
%TO.N,Net-(D40-Pad1)*%
%TA.AperFunction,SMDPad,CuDef*%
G36*
G01*
X143450001Y-43600000D02*
X142549999Y-43600000D01*
G75*
G02*
X142300000Y-43350001I0J249999D01*
G01*
X142300000Y-42649999D01*
G75*
G02*
X142549999Y-42400000I249999J0D01*
G01*
X143450001Y-42400000D01*
G75*
G02*
X143700000Y-42649999I0J-249999D01*
G01*
X143700000Y-43350001D01*
G75*
G02*
X143450001Y-43600000I-249999J0D01*
G01*
G37*
%TD.AperFunction*%
%TD*%
%TO.P,R57,2*%
%TO.N,GND*%
%TA.AperFunction,SMDPad,CuDef*%
G36*
G01*
X135450001Y-43600000D02*
X134549999Y-43600000D01*
G75*
G02*
X134300000Y-43350001I0J249999D01*
G01*
X134300000Y-42649999D01*
G75*
G02*
X134549999Y-42400000I249999J0D01*
G01*
X135450001Y-42400000D01*
G75*
G02*
X135700000Y-42649999I0J-249999D01*
G01*
X135700000Y-43350001D01*
G75*
G02*
X135450001Y-43600000I-249999J0D01*
G01*
G37*
%TD.AperFunction*%
%TO.P,R57,1*%
%TO.N,AN1*%
%TA.AperFunction,SMDPad,CuDef*%
G36*
G01*
X135450001Y-45600000D02*
X134549999Y-45600000D01*
G75*
G02*
X134300000Y-45350001I0J249999D01*
G01*
X134300000Y-44649999D01*
G75*
G02*
X134549999Y-44400000I249999J0D01*
G01*
X135450001Y-44400000D01*
G75*
G02*
X135700000Y-44649999I0J-249999D01*
G01*
X135700000Y-45350001D01*
G75*
G02*
X135450001Y-45600000I-249999J0D01*
G01*
G37*
%TD.AperFunction*%
%TD*%
%TO.P,R58,2*%
%TO.N,GND*%
%TA.AperFunction,SMDPad,CuDef*%
G36*
G01*
X148950001Y-43600000D02*
X148049999Y-43600000D01*
G75*
G02*
X147800000Y-43350001I0J249999D01*
G01*
X147800000Y-42649999D01*
G75*
G02*
X148049999Y-42400000I249999J0D01*
G01*
X148950001Y-42400000D01*
G75*
G02*
X149200000Y-42649999I0J-249999D01*
G01*
X149200000Y-43350001D01*
G75*
G02*
X148950001Y-43600000I-249999J0D01*
G01*
G37*
%TD.AperFunction*%
%TO.P,R58,1*%
%TO.N,AN2*%
%TA.AperFunction,SMDPad,CuDef*%
G36*
G01*
X148950001Y-45600000D02*
X148049999Y-45600000D01*
G75*
G02*
X147800000Y-45350001I0J249999D01*
G01*
X147800000Y-44649999D01*
G75*
G02*
X148049999Y-44400000I249999J0D01*
G01*
X148950001Y-44400000D01*
G75*
G02*
X149200000Y-44649999I0J-249999D01*
G01*
X149200000Y-45350001D01*
G75*
G02*
X148950001Y-45600000I-249999J0D01*
G01*
G37*
%TD.AperFunction*%
%TD*%
%TO.P,R59,1*%
%TO.N,AN3*%
%TA.AperFunction,SMDPad,CuDef*%
G36*
G01*
X156950001Y-46100000D02*
X156049999Y-46100000D01*
G75*
G02*
X155800000Y-45850001I0J249999D01*
G01*
X155800000Y-45149999D01*
G75*
G02*
X156049999Y-44900000I249999J0D01*
G01*
X156950001Y-44900000D01*
G75*
G02*
X157200000Y-45149999I0J-249999D01*
G01*
X157200000Y-45850001D01*
G75*
G02*
X156950001Y-46100000I-249999J0D01*
G01*
G37*
%TD.AperFunction*%
%TO.P,R59,2*%
%TO.N,Net-(D41-Pad1)*%
%TA.AperFunction,SMDPad,CuDef*%
G36*
G01*
X156950001Y-44100000D02*
X156049999Y-44100000D01*
G75*
G02*
X155800000Y-43850001I0J249999D01*
G01*
X155800000Y-43149999D01*
G75*
G02*
X156049999Y-42900000I249999J0D01*
G01*
X156950001Y-42900000D01*
G75*
G02*
X157200000Y-43149999I0J-249999D01*
G01*
X157200000Y-43850001D01*
G75*
G02*
X156950001Y-44100000I-249999J0D01*
G01*
G37*
%TD.AperFunction*%
%TD*%
%TO.P,R60,1*%
%TO.N,AN4*%
%TA.AperFunction,SMDPad,CuDef*%
G36*
G01*
X172450001Y-45600000D02*
X171549999Y-45600000D01*
G75*
G02*
X171300000Y-45350001I0J249999D01*
G01*
X171300000Y-44649999D01*
G75*
G02*
X171549999Y-44400000I249999J0D01*
G01*
X172450001Y-44400000D01*
G75*
G02*
X172700000Y-44649999I0J-249999D01*
G01*
X172700000Y-45350001D01*
G75*
G02*
X172450001Y-45600000I-249999J0D01*
G01*
G37*
%TD.AperFunction*%
%TO.P,R60,2*%
%TO.N,Net-(D42-Pad1)*%
%TA.AperFunction,SMDPad,CuDef*%
G36*
G01*
X172450001Y-43600000D02*
X171549999Y-43600000D01*
G75*
G02*
X171300000Y-43350001I0J249999D01*
G01*
X171300000Y-42649999D01*
G75*
G02*
X171549999Y-42400000I249999J0D01*
G01*
X172450001Y-42400000D01*
G75*
G02*
X172700000Y-42649999I0J-249999D01*
G01*
X172700000Y-43350001D01*
G75*
G02*
X172450001Y-43600000I-249999J0D01*
G01*
G37*
%TD.AperFunction*%
%TD*%
%TO.P,R61,2*%
%TO.N,GND*%
%TA.AperFunction,SMDPad,CuDef*%
G36*
G01*
X161950001Y-44100000D02*
X161049999Y-44100000D01*
G75*
G02*
X160800000Y-43850001I0J249999D01*
G01*
X160800000Y-43149999D01*
G75*
G02*
X161049999Y-42900000I249999J0D01*
G01*
X161950001Y-42900000D01*
G75*
G02*
X162200000Y-43149999I0J-249999D01*
G01*
X162200000Y-43850001D01*
G75*
G02*
X161950001Y-44100000I-249999J0D01*
G01*
G37*
%TD.AperFunction*%
%TO.P,R61,1*%
%TO.N,AN3*%
%TA.AperFunction,SMDPad,CuDef*%
G36*
G01*
X161950001Y-46100000D02*
X161049999Y-46100000D01*
G75*
G02*
X160800000Y-45850001I0J249999D01*
G01*
X160800000Y-45149999D01*
G75*
G02*
X161049999Y-44900000I249999J0D01*
G01*
X161950001Y-44900000D01*
G75*
G02*
X162200000Y-45149999I0J-249999D01*
G01*
X162200000Y-45850001D01*
G75*
G02*
X161950001Y-46100000I-249999J0D01*
G01*
G37*
%TD.AperFunction*%
%TD*%
%TO.P,R62,2*%
%TO.N,GND*%
%TA.AperFunction,SMDPad,CuDef*%
G36*
G01*
X177950001Y-43600000D02*
X177049999Y-43600000D01*
G75*
G02*
X176800000Y-43350001I0J249999D01*
G01*
X176800000Y-42649999D01*
G75*
G02*
X177049999Y-42400000I249999J0D01*
G01*
X177950001Y-42400000D01*
G75*
G02*
X178200000Y-42649999I0J-249999D01*
G01*
X178200000Y-43350001D01*
G75*
G02*
X177950001Y-43600000I-249999J0D01*
G01*
G37*
%TD.AperFunction*%
%TO.P,R62,1*%
%TO.N,AN4*%
%TA.AperFunction,SMDPad,CuDef*%
G36*
G01*
X177950001Y-45600000D02*
X177049999Y-45600000D01*
G75*
G02*
X176800000Y-45350001I0J249999D01*
G01*
X176800000Y-44649999D01*
G75*
G02*
X177049999Y-44400000I249999J0D01*
G01*
X177950001Y-44400000D01*
G75*
G02*
X178200000Y-44649999I0J-249999D01*
G01*
X178200000Y-45350001D01*
G75*
G02*
X177950001Y-45600000I-249999J0D01*
G01*
G37*
%TD.AperFunction*%
%TD*%
%TO.P,R63,2*%
%TO.N,C2*%
%TA.AperFunction,SMDPad,CuDef*%
G36*
G01*
X101400000Y-46450001D02*
X101400000Y-45549999D01*
G75*
G02*
X101649999Y-45300000I249999J0D01*
G01*
X102350001Y-45300000D01*
G75*
G02*
X102600000Y-45549999I0J-249999D01*
G01*
X102600000Y-46450001D01*
G75*
G02*
X102350001Y-46700000I-249999J0D01*
G01*
X101649999Y-46700000D01*
G75*
G02*
X101400000Y-46450001I0J249999D01*
G01*
G37*
%TD.AperFunction*%
%TO.P,R63,1*%
%TO.N,Net-(Q9-Pad2)*%
%TA.AperFunction,SMDPad,CuDef*%
G36*
G01*
X99400000Y-46450001D02*
X99400000Y-45549999D01*
G75*
G02*
X99649999Y-45300000I249999J0D01*
G01*
X100350001Y-45300000D01*
G75*
G02*
X100600000Y-45549999I0J-249999D01*
G01*
X100600000Y-46450001D01*
G75*
G02*
X100350001Y-46700000I-249999J0D01*
G01*
X99649999Y-46700000D01*
G75*
G02*
X99400000Y-46450001I0J249999D01*
G01*
G37*
%TD.AperFunction*%
%TD*%
%TO.P,R64,2*%
%TO.N,C1*%
%TA.AperFunction,SMDPad,CuDef*%
G36*
G01*
X86549999Y-51400000D02*
X87450001Y-51400000D01*
G75*
G02*
X87700000Y-51649999I0J-249999D01*
G01*
X87700000Y-52350001D01*
G75*
G02*
X87450001Y-52600000I-249999J0D01*
G01*
X86549999Y-52600000D01*
G75*
G02*
X86300000Y-52350001I0J249999D01*
G01*
X86300000Y-51649999D01*
G75*
G02*
X86549999Y-51400000I249999J0D01*
G01*
G37*
%TD.AperFunction*%
%TO.P,R64,1*%
%TO.N,Net-(Q10-Pad2)*%
%TA.AperFunction,SMDPad,CuDef*%
G36*
G01*
X86549999Y-49400000D02*
X87450001Y-49400000D01*
G75*
G02*
X87700000Y-49649999I0J-249999D01*
G01*
X87700000Y-50350001D01*
G75*
G02*
X87450001Y-50600000I-249999J0D01*
G01*
X86549999Y-50600000D01*
G75*
G02*
X86300000Y-50350001I0J249999D01*
G01*
X86300000Y-49649999D01*
G75*
G02*
X86549999Y-49400000I249999J0D01*
G01*
G37*
%TD.AperFunction*%
%TD*%
%TO.P,R65,1*%
%TO.N,Net-(Q9-Pad2)*%
%TA.AperFunction,SMDPad,CuDef*%
G36*
G01*
X96049999Y-48900000D02*
X96950001Y-48900000D01*
G75*
G02*
X97200000Y-49149999I0J-249999D01*
G01*
X97200000Y-49850001D01*
G75*
G02*
X96950001Y-50100000I-249999J0D01*
G01*
X96049999Y-50100000D01*
G75*
G02*
X95800000Y-49850001I0J249999D01*
G01*
X95800000Y-49149999D01*
G75*
G02*
X96049999Y-48900000I249999J0D01*
G01*
G37*
%TD.AperFunction*%
%TO.P,R65,2*%
%TO.N,GND*%
%TA.AperFunction,SMDPad,CuDef*%
G36*
G01*
X96049999Y-50900000D02*
X96950001Y-50900000D01*
G75*
G02*
X97200000Y-51149999I0J-249999D01*
G01*
X97200000Y-51850001D01*
G75*
G02*
X96950001Y-52100000I-249999J0D01*
G01*
X96049999Y-52100000D01*
G75*
G02*
X95800000Y-51850001I0J249999D01*
G01*
X95800000Y-51149999D01*
G75*
G02*
X96049999Y-50900000I249999J0D01*
G01*
G37*
%TD.AperFunction*%
%TD*%
%TO.P,R66,1*%
%TO.N,Net-(Q10-Pad2)*%
%TA.AperFunction,SMDPad,CuDef*%
G36*
G01*
X89900000Y-46450001D02*
X89900000Y-45549999D01*
G75*
G02*
X90149999Y-45300000I249999J0D01*
G01*
X90850001Y-45300000D01*
G75*
G02*
X91100000Y-45549999I0J-249999D01*
G01*
X91100000Y-46450001D01*
G75*
G02*
X90850001Y-46700000I-249999J0D01*
G01*
X90149999Y-46700000D01*
G75*
G02*
X89900000Y-46450001I0J249999D01*
G01*
G37*
%TD.AperFunction*%
%TO.P,R66,2*%
%TO.N,GND*%
%TA.AperFunction,SMDPad,CuDef*%
G36*
G01*
X91900000Y-46450001D02*
X91900000Y-45549999D01*
G75*
G02*
X92149999Y-45300000I249999J0D01*
G01*
X92850001Y-45300000D01*
G75*
G02*
X93100000Y-45549999I0J-249999D01*
G01*
X93100000Y-46450001D01*
G75*
G02*
X92850001Y-46700000I-249999J0D01*
G01*
X92149999Y-46700000D01*
G75*
G02*
X91900000Y-46450001I0J249999D01*
G01*
G37*
%TD.AperFunction*%
%TD*%
%TO.P,R67,1*%
%TO.N,Net-(Q11-Pad2)*%
%TA.AperFunction,SMDPad,CuDef*%
G36*
G01*
X105549999Y-48900000D02*
X106450001Y-48900000D01*
G75*
G02*
X106700000Y-49149999I0J-249999D01*
G01*
X106700000Y-49850001D01*
G75*
G02*
X106450001Y-50100000I-249999J0D01*
G01*
X105549999Y-50100000D01*
G75*
G02*
X105300000Y-49850001I0J249999D01*
G01*
X105300000Y-49149999D01*
G75*
G02*
X105549999Y-48900000I249999J0D01*
G01*
G37*
%TD.AperFunction*%
%TO.P,R67,2*%
%TO.N,GND*%
%TA.AperFunction,SMDPad,CuDef*%
G36*
G01*
X105549999Y-50900000D02*
X106450001Y-50900000D01*
G75*
G02*
X106700000Y-51149999I0J-249999D01*
G01*
X106700000Y-51850001D01*
G75*
G02*
X106450001Y-52100000I-249999J0D01*
G01*
X105549999Y-52100000D01*
G75*
G02*
X105300000Y-51850001I0J249999D01*
G01*
X105300000Y-51149999D01*
G75*
G02*
X105549999Y-50900000I249999J0D01*
G01*
G37*
%TD.AperFunction*%
%TD*%
%TO.P,R68,1*%
%TO.N,Net-(Q12-Pad2)*%
%TA.AperFunction,SMDPad,CuDef*%
G36*
G01*
X115049999Y-48900000D02*
X115950001Y-48900000D01*
G75*
G02*
X116200000Y-49149999I0J-249999D01*
G01*
X116200000Y-49850001D01*
G75*
G02*
X115950001Y-50100000I-249999J0D01*
G01*
X115049999Y-50100000D01*
G75*
G02*
X114800000Y-49850001I0J249999D01*
G01*
X114800000Y-49149999D01*
G75*
G02*
X115049999Y-48900000I249999J0D01*
G01*
G37*
%TD.AperFunction*%
%TO.P,R68,2*%
%TO.N,GND*%
%TA.AperFunction,SMDPad,CuDef*%
G36*
G01*
X115049999Y-50900000D02*
X115950001Y-50900000D01*
G75*
G02*
X116200000Y-51149999I0J-249999D01*
G01*
X116200000Y-51850001D01*
G75*
G02*
X115950001Y-52100000I-249999J0D01*
G01*
X115049999Y-52100000D01*
G75*
G02*
X114800000Y-51850001I0J249999D01*
G01*
X114800000Y-51149999D01*
G75*
G02*
X115049999Y-50900000I249999J0D01*
G01*
G37*
%TD.AperFunction*%
%TD*%
%TO.P,R69,2*%
%TO.N,C3*%
%TA.AperFunction,SMDPad,CuDef*%
G36*
G01*
X110400000Y-46450001D02*
X110400000Y-45549999D01*
G75*
G02*
X110649999Y-45300000I249999J0D01*
G01*
X111350001Y-45300000D01*
G75*
G02*
X111600000Y-45549999I0J-249999D01*
G01*
X111600000Y-46450001D01*
G75*
G02*
X111350001Y-46700000I-249999J0D01*
G01*
X110649999Y-46700000D01*
G75*
G02*
X110400000Y-46450001I0J249999D01*
G01*
G37*
%TD.AperFunction*%
%TO.P,R69,1*%
%TO.N,Net-(Q11-Pad2)*%
%TA.AperFunction,SMDPad,CuDef*%
G36*
G01*
X108400000Y-46450001D02*
X108400000Y-45549999D01*
G75*
G02*
X108649999Y-45300000I249999J0D01*
G01*
X109350001Y-45300000D01*
G75*
G02*
X109600000Y-45549999I0J-249999D01*
G01*
X109600000Y-46450001D01*
G75*
G02*
X109350001Y-46700000I-249999J0D01*
G01*
X108649999Y-46700000D01*
G75*
G02*
X108400000Y-46450001I0J249999D01*
G01*
G37*
%TD.AperFunction*%
%TD*%
%TO.P,R70,2*%
%TO.N,C4*%
%TA.AperFunction,SMDPad,CuDef*%
G36*
G01*
X120900000Y-46450001D02*
X120900000Y-45549999D01*
G75*
G02*
X121149999Y-45300000I249999J0D01*
G01*
X121850001Y-45300000D01*
G75*
G02*
X122100000Y-45549999I0J-249999D01*
G01*
X122100000Y-46450001D01*
G75*
G02*
X121850001Y-46700000I-249999J0D01*
G01*
X121149999Y-46700000D01*
G75*
G02*
X120900000Y-46450001I0J249999D01*
G01*
G37*
%TD.AperFunction*%
%TO.P,R70,1*%
%TO.N,Net-(Q12-Pad2)*%
%TA.AperFunction,SMDPad,CuDef*%
G36*
G01*
X118900000Y-46450001D02*
X118900000Y-45549999D01*
G75*
G02*
X119149999Y-45300000I249999J0D01*
G01*
X119850001Y-45300000D01*
G75*
G02*
X120100000Y-45549999I0J-249999D01*
G01*
X120100000Y-46450001D01*
G75*
G02*
X119850001Y-46700000I-249999J0D01*
G01*
X119149999Y-46700000D01*
G75*
G02*
X118900000Y-46450001I0J249999D01*
G01*
G37*
%TD.AperFunction*%
%TD*%
%TO.P,U1,8*%
%TO.N,Net-(C3-Pad1)*%
%TA.AperFunction,SMDPad,CuDef*%
G36*
G01*
X95000000Y-110745000D02*
X95000000Y-110445000D01*
G75*
G02*
X95150000Y-110295000I150000J0D01*
G01*
X96800000Y-110295000D01*
G75*
G02*
X96950000Y-110445000I0J-150000D01*
G01*
X96950000Y-110745000D01*
G75*
G02*
X96800000Y-110895000I-150000J0D01*
G01*
X95150000Y-110895000D01*
G75*
G02*
X95000000Y-110745000I0J150000D01*
G01*
G37*
%TD.AperFunction*%
%TO.P,U1,7*%
%TO.N,Net-(R3-Pad2)*%
%TA.AperFunction,SMDPad,CuDef*%
G36*
G01*
X95000000Y-112015000D02*
X95000000Y-111715000D01*
G75*
G02*
X95150000Y-111565000I150000J0D01*
G01*
X96800000Y-111565000D01*
G75*
G02*
X96950000Y-111715000I0J-150000D01*
G01*
X96950000Y-112015000D01*
G75*
G02*
X96800000Y-112165000I-150000J0D01*
G01*
X95150000Y-112165000D01*
G75*
G02*
X95000000Y-112015000I0J150000D01*
G01*
G37*
%TD.AperFunction*%
%TO.P,U1,6*%
%TO.N,GND*%
%TA.AperFunction,SMDPad,CuDef*%
G36*
G01*
X95000000Y-113285000D02*
X95000000Y-112985000D01*
G75*
G02*
X95150000Y-112835000I150000J0D01*
G01*
X96800000Y-112835000D01*
G75*
G02*
X96950000Y-112985000I0J-150000D01*
G01*
X96950000Y-113285000D01*
G75*
G02*
X96800000Y-113435000I-150000J0D01*
G01*
X95150000Y-113435000D01*
G75*
G02*
X95000000Y-113285000I0J150000D01*
G01*
G37*
%TD.AperFunction*%
%TO.P,U1,5*%
%TO.N,Net-(R1-Pad2)*%
%TA.AperFunction,SMDPad,CuDef*%
G36*
G01*
X95000000Y-114555000D02*
X95000000Y-114255000D01*
G75*
G02*
X95150000Y-114105000I150000J0D01*
G01*
X96800000Y-114105000D01*
G75*
G02*
X96950000Y-114255000I0J-150000D01*
G01*
X96950000Y-114555000D01*
G75*
G02*
X96800000Y-114705000I-150000J0D01*
G01*
X95150000Y-114705000D01*
G75*
G02*
X95000000Y-114555000I0J150000D01*
G01*
G37*
%TD.AperFunction*%
%TO.P,U1,4*%
%TO.N,Net-(C5-Pad1)*%
%TA.AperFunction,SMDPad,CuDef*%
G36*
G01*
X90050000Y-114555000D02*
X90050000Y-114255000D01*
G75*
G02*
X90200000Y-114105000I150000J0D01*
G01*
X91850000Y-114105000D01*
G75*
G02*
X92000000Y-114255000I0J-150000D01*
G01*
X92000000Y-114555000D01*
G75*
G02*
X91850000Y-114705000I-150000J0D01*
G01*
X90200000Y-114705000D01*
G75*
G02*
X90050000Y-114555000I0J150000D01*
G01*
G37*
%TD.AperFunction*%
%TO.P,U1,3*%
%TO.N,Net-(C4-Pad2)*%
%TA.AperFunction,SMDPad,CuDef*%
G36*
G01*
X90050000Y-113285000D02*
X90050000Y-112985000D01*
G75*
G02*
X90200000Y-112835000I150000J0D01*
G01*
X91850000Y-112835000D01*
G75*
G02*
X92000000Y-112985000I0J-150000D01*
G01*
X92000000Y-113285000D01*
G75*
G02*
X91850000Y-113435000I-150000J0D01*
G01*
X90200000Y-113435000D01*
G75*
G02*
X90050000Y-113285000I0J150000D01*
G01*
G37*
%TD.AperFunction*%
%TO.P,U1,2*%
%TO.N,+12V*%
%TA.AperFunction,SMDPad,CuDef*%
G36*
G01*
X90050000Y-112015000D02*
X90050000Y-111715000D01*
G75*
G02*
X90200000Y-111565000I150000J0D01*
G01*
X91850000Y-111565000D01*
G75*
G02*
X92000000Y-111715000I0J-150000D01*
G01*
X92000000Y-112015000D01*
G75*
G02*
X91850000Y-112165000I-150000J0D01*
G01*
X90200000Y-112165000D01*
G75*
G02*
X90050000Y-112015000I0J150000D01*
G01*
G37*
%TD.AperFunction*%
%TO.P,U1,1*%
%TO.N,Net-(C4-Pad1)*%
%TA.AperFunction,SMDPad,CuDef*%
G36*
G01*
X90050000Y-110745000D02*
X90050000Y-110445000D01*
G75*
G02*
X90200000Y-110295000I150000J0D01*
G01*
X91850000Y-110295000D01*
G75*
G02*
X92000000Y-110445000I0J-150000D01*
G01*
X92000000Y-110745000D01*
G75*
G02*
X91850000Y-110895000I-150000J0D01*
G01*
X90200000Y-110895000D01*
G75*
G02*
X90050000Y-110745000I0J150000D01*
G01*
G37*
%TD.AperFunction*%
%TD*%
D16*
%TO.P,U2,1*%
%TO.N,/Logique/Vpp*%
X140500000Y-117500000D03*
D17*
%TO.P,U2,21*%
%TO.N,IN3*%
X188760000Y-102260000D03*
%TO.P,U2,2*%
%TO.N,Rel1*%
X143040000Y-117500000D03*
%TO.P,U2,22*%
%TO.N,IN4*%
X186220000Y-102260000D03*
%TO.P,U2,3*%
%TO.N,Rel2*%
X145580000Y-117500000D03*
%TO.P,U2,23*%
%TO.N,Net-(J3-Pad3)*%
X183680000Y-102260000D03*
%TO.P,U2,4*%
%TO.N,Rel3*%
X148120000Y-117500000D03*
%TO.P,U2,24*%
%TO.N,GPIO4*%
X181140000Y-102260000D03*
%TO.P,U2,5*%
%TO.N,Rel4*%
X150660000Y-117500000D03*
%TO.P,U2,25*%
%TO.N,Net-(J4-Pad3)*%
X178600000Y-102260000D03*
%TO.P,U2,6*%
%TO.N,Rel5*%
X153200000Y-117500000D03*
%TO.P,U2,26*%
%TO.N,Net-(J4-Pad4)*%
X176060000Y-102260000D03*
%TO.P,U2,7*%
%TO.N,Rel6*%
X155740000Y-117500000D03*
%TO.P,U2,27*%
%TO.N,IN5*%
X173520000Y-102260000D03*
%TO.P,U2,8*%
%TO.N,C4*%
X158280000Y-117500000D03*
%TO.P,U2,28*%
%TO.N,IN6*%
X170980000Y-102260000D03*
%TO.P,U2,9*%
%TO.N,C3*%
X160820000Y-117500000D03*
%TO.P,U2,29*%
%TO.N,IN7*%
X168440000Y-102260000D03*
%TO.P,U2,10*%
%TO.N,C2*%
X163360000Y-117500000D03*
%TO.P,U2,30*%
%TO.N,IN8*%
X165900000Y-102260000D03*
%TO.P,U2,11*%
%TO.N,VCC*%
X165900000Y-117500000D03*
%TO.P,U2,31*%
%TO.N,GND*%
X163360000Y-102260000D03*
%TO.P,U2,12*%
X168440000Y-117500000D03*
%TO.P,U2,32*%
%TO.N,VCC*%
X160820000Y-102260000D03*
%TO.P,U2,13*%
%TO.N,Rel8*%
X170980000Y-117500000D03*
%TO.P,U2,33*%
%TO.N,AN1*%
X158280000Y-102260000D03*
%TO.P,U2,14*%
%TO.N,Rel7*%
X173520000Y-117500000D03*
%TO.P,U2,34*%
%TO.N,AN2*%
X155740000Y-102260000D03*
%TO.P,U2,15*%
%TO.N,GPIO1*%
X176060000Y-117500000D03*
%TO.P,U2,35*%
%TO.N,AN3*%
X153200000Y-102260000D03*
%TO.P,U2,16*%
%TO.N,GPIO2*%
X178600000Y-117500000D03*
%TO.P,U2,36*%
%TO.N,AN4*%
X150660000Y-102260000D03*
%TO.P,U2,17*%
%TO.N,GPIO3*%
X181140000Y-117500000D03*
%TO.P,U2,37*%
%TO.N,Net-(R74-Pad2)*%
X148120000Y-102260000D03*
%TO.P,U2,18*%
%TO.N,Net-(J3-Pad4)*%
X183680000Y-117500000D03*
%TO.P,U2,38*%
%TO.N,C1*%
X145580000Y-102260000D03*
%TO.P,U2,19*%
%TO.N,IN1*%
X186220000Y-117500000D03*
%TO.P,U2,39*%
%TO.N,Net-(J2-Pad1)*%
X143040000Y-102260000D03*
%TO.P,U2,20*%
%TO.N,IN2*%
X188760000Y-117500000D03*
%TO.P,U2,40*%
%TO.N,Net-(J2-Pad2)*%
X140500000Y-102260000D03*
%TD*%
D18*
%TO.P,K1,11*%
%TO.N,Net-(J5-Pad2)*%
X98000000Y-186600000D03*
%TO.P,K1,A1*%
%TO.N,+12V*%
X104000000Y-188600000D03*
%TO.P,K1,12*%
%TO.N,Net-(J5-Pad3)*%
X104000000Y-200800000D03*
%TO.P,K1,14*%
%TO.N,Net-(J5-Pad1)*%
X92000000Y-200800000D03*
%TO.P,K1,A2*%
%TO.N,Net-(D7-Pad1)*%
X92000000Y-188600000D03*
%TD*%
%TO.P,K2,11*%
%TO.N,Net-(J6-Pad2)*%
X120000000Y-186500000D03*
%TO.P,K2,A1*%
%TO.N,+12V*%
X126000000Y-188500000D03*
%TO.P,K2,12*%
%TO.N,Net-(J6-Pad3)*%
X126000000Y-200700000D03*
%TO.P,K2,14*%
%TO.N,Net-(J6-Pad1)*%
X114000000Y-200700000D03*
%TO.P,K2,A2*%
%TO.N,Net-(D9-Pad1)*%
X114000000Y-188500000D03*
%TD*%
%TO.P,K3,11*%
%TO.N,Net-(J7-Pad2)*%
X142000000Y-186500000D03*
%TO.P,K3,A1*%
%TO.N,+12V*%
X148000000Y-188500000D03*
%TO.P,K3,12*%
%TO.N,Net-(J7-Pad3)*%
X148000000Y-200700000D03*
%TO.P,K3,14*%
%TO.N,Net-(J7-Pad1)*%
X136000000Y-200700000D03*
%TO.P,K3,A2*%
%TO.N,Net-(D11-Pad1)*%
X136000000Y-188500000D03*
%TD*%
%TO.P,K4,A2*%
%TO.N,Net-(D14-Pad1)*%
X156000000Y-188500000D03*
%TO.P,K4,14*%
%TO.N,Net-(J8-Pad1)*%
X156000000Y-200700000D03*
%TO.P,K4,12*%
%TO.N,Net-(J8-Pad3)*%
X168000000Y-200700000D03*
%TO.P,K4,A1*%
%TO.N,+12V*%
X168000000Y-188500000D03*
%TO.P,K4,11*%
%TO.N,Net-(J8-Pad2)*%
X162000000Y-186500000D03*
%TD*%
%TO.P,K5,A2*%
%TO.N,Net-(D16-Pad1)*%
X177000000Y-188500000D03*
%TO.P,K5,14*%
%TO.N,Net-(J9-Pad1)*%
X177000000Y-200700000D03*
%TO.P,K5,12*%
%TO.N,Net-(J9-Pad3)*%
X189000000Y-200700000D03*
%TO.P,K5,A1*%
%TO.N,+12V*%
X189000000Y-188500000D03*
%TO.P,K5,11*%
%TO.N,Net-(J9-Pad2)*%
X183000000Y-186500000D03*
%TD*%
%TO.P,K6,A2*%
%TO.N,Net-(D18-Pad1)*%
X197000000Y-188500000D03*
%TO.P,K6,14*%
%TO.N,Net-(J10-Pad1)*%
X197000000Y-200700000D03*
%TO.P,K6,12*%
%TO.N,Net-(J10-Pad3)*%
X209000000Y-200700000D03*
%TO.P,K6,A1*%
%TO.N,+12V*%
X209000000Y-188500000D03*
%TO.P,K6,11*%
%TO.N,Net-(J10-Pad2)*%
X203000000Y-186500000D03*
%TD*%
%TO.P,K7,A2*%
%TO.N,Net-(D20-Pad1)*%
X217000000Y-188500000D03*
%TO.P,K7,14*%
%TO.N,Net-(J11-Pad1)*%
X217000000Y-200700000D03*
%TO.P,K7,12*%
%TO.N,Net-(J11-Pad3)*%
X229000000Y-200700000D03*
%TO.P,K7,A1*%
%TO.N,+12V*%
X229000000Y-188500000D03*
%TO.P,K7,11*%
%TO.N,Net-(J11-Pad2)*%
X223000000Y-186500000D03*
%TD*%
%TO.P,K8,11*%
%TO.N,Net-(J12-Pad2)*%
X243000000Y-186500000D03*
%TO.P,K8,A1*%
%TO.N,+12V*%
X249000000Y-188500000D03*
%TO.P,K8,12*%
%TO.N,Net-(J12-Pad3)*%
X249000000Y-200700000D03*
%TO.P,K8,14*%
%TO.N,Net-(J12-Pad1)*%
X237000000Y-200700000D03*
%TO.P,K8,A2*%
%TO.N,Net-(D22-Pad1)*%
X237000000Y-188500000D03*
%TD*%
D19*
%TO.P,L1,1*%
%TO.N,Net-(C4-Pad2)*%
X81000000Y-135450000D03*
%TO.P,L1,2*%
%TO.N,Net-(C5-Pad1)*%
X81000000Y-125550000D03*
%TD*%
%TO.P,C1,1*%
%TO.N,+12V*%
%TA.AperFunction,SMDPad,CuDef*%
G36*
G01*
X84662500Y-97449600D02*
X84662500Y-98550400D01*
G75*
G02*
X84412900Y-98800000I-249600J0D01*
G01*
X80987100Y-98800000D01*
G75*
G02*
X80737500Y-98550400I0J249600D01*
G01*
X80737500Y-97449600D01*
G75*
G02*
X80987100Y-97200000I249600J0D01*
G01*
X84412900Y-97200000D01*
G75*
G02*
X84662500Y-97449600I0J-249600D01*
G01*
G37*
%TD.AperFunction*%
%TO.P,C1,2*%
%TO.N,GND*%
%TA.AperFunction,SMDPad,CuDef*%
G36*
G01*
X78262500Y-97449600D02*
X78262500Y-98550400D01*
G75*
G02*
X78012900Y-98800000I-249600J0D01*
G01*
X74587100Y-98800000D01*
G75*
G02*
X74337500Y-98550400I0J249600D01*
G01*
X74337500Y-97449600D01*
G75*
G02*
X74587100Y-97200000I249600J0D01*
G01*
X78012900Y-97200000D01*
G75*
G02*
X78262500Y-97449600I0J-249600D01*
G01*
G37*
%TD.AperFunction*%
%TD*%
%TO.P,C5,2*%
%TO.N,GND*%
%TA.AperFunction,SMDPad,CuDef*%
G36*
G01*
X115050400Y-115262500D02*
X113949600Y-115262500D01*
G75*
G02*
X113700000Y-115012900I0J249600D01*
G01*
X113700000Y-111587100D01*
G75*
G02*
X113949600Y-111337500I249600J0D01*
G01*
X115050400Y-111337500D01*
G75*
G02*
X115300000Y-111587100I0J-249600D01*
G01*
X115300000Y-115012900D01*
G75*
G02*
X115050400Y-115262500I-249600J0D01*
G01*
G37*
%TD.AperFunction*%
%TO.P,C5,1*%
%TO.N,Net-(C5-Pad1)*%
%TA.AperFunction,SMDPad,CuDef*%
G36*
G01*
X115050400Y-121662500D02*
X113949600Y-121662500D01*
G75*
G02*
X113700000Y-121412900I0J249600D01*
G01*
X113700000Y-117987100D01*
G75*
G02*
X113949600Y-117737500I249600J0D01*
G01*
X115050400Y-117737500D01*
G75*
G02*
X115300000Y-117987100I0J-249600D01*
G01*
X115300000Y-121412900D01*
G75*
G02*
X115050400Y-121662500I-249600J0D01*
G01*
G37*
%TD.AperFunction*%
%TD*%
D20*
%TO.P,Q1,3*%
%TO.N,Net-(D7-Pad1)*%
X87500000Y-169500000D03*
%TO.P,Q1,1*%
%TO.N,GND*%
X86550000Y-167500000D03*
%TO.P,Q1,2*%
%TO.N,Net-(Q1-Pad2)*%
X88450000Y-167500000D03*
%TD*%
%TO.P,Q2,3*%
%TO.N,Net-(D9-Pad1)*%
X110500000Y-169500000D03*
%TO.P,Q2,1*%
%TO.N,GND*%
X109550000Y-167500000D03*
%TO.P,Q2,2*%
%TO.N,Net-(Q2-Pad2)*%
X111450000Y-167500000D03*
%TD*%
%TO.P,Q3,2*%
%TO.N,Net-(Q3-Pad2)*%
X132450000Y-167500000D03*
%TO.P,Q3,1*%
%TO.N,GND*%
X130550000Y-167500000D03*
%TO.P,Q3,3*%
%TO.N,Net-(D11-Pad1)*%
X131500000Y-169500000D03*
%TD*%
%TO.P,Q4,2*%
%TO.N,Net-(Q4-Pad2)*%
X153450000Y-167500000D03*
%TO.P,Q4,1*%
%TO.N,GND*%
X151550000Y-167500000D03*
%TO.P,Q4,3*%
%TO.N,Net-(D14-Pad1)*%
X152500000Y-169500000D03*
%TD*%
%TO.P,Q5,3*%
%TO.N,Net-(D16-Pad1)*%
X174500000Y-169500000D03*
%TO.P,Q5,1*%
%TO.N,GND*%
X173550000Y-167500000D03*
%TO.P,Q5,2*%
%TO.N,Net-(Q5-Pad2)*%
X175450000Y-167500000D03*
%TD*%
%TO.P,Q6,2*%
%TO.N,Net-(Q6-Pad2)*%
X195450000Y-167500000D03*
%TO.P,Q6,1*%
%TO.N,GND*%
X193550000Y-167500000D03*
%TO.P,Q6,3*%
%TO.N,Net-(D18-Pad1)*%
X194500000Y-169500000D03*
%TD*%
%TO.P,Q7,2*%
%TO.N,Net-(Q7-Pad2)*%
X212450000Y-167500000D03*
%TO.P,Q7,1*%
%TO.N,GND*%
X210550000Y-167500000D03*
%TO.P,Q7,3*%
%TO.N,Net-(D20-Pad1)*%
X211500000Y-169500000D03*
%TD*%
%TO.P,Q8,2*%
%TO.N,Net-(Q8-Pad2)*%
X233450000Y-167500000D03*
%TO.P,Q8,1*%
%TO.N,GND*%
X231550000Y-167500000D03*
%TO.P,Q8,3*%
%TO.N,Net-(D22-Pad1)*%
X232500000Y-169500000D03*
%TD*%
D21*
%TO.P,Q9,3*%
%TO.N,Net-(J25-Pad3)*%
X102000000Y-50500000D03*
%TO.P,Q9,1*%
%TO.N,GND*%
X100000000Y-51450000D03*
%TO.P,Q9,2*%
%TO.N,Net-(Q9-Pad2)*%
X100000000Y-49550000D03*
%TD*%
%TO.P,Q10,2*%
%TO.N,Net-(Q10-Pad2)*%
X90500000Y-49550000D03*
%TO.P,Q10,1*%
%TO.N,GND*%
X90500000Y-51450000D03*
%TO.P,Q10,3*%
%TO.N,Net-(J25-Pad4)*%
X92500000Y-50500000D03*
%TD*%
%TO.P,Q11,2*%
%TO.N,Net-(Q11-Pad2)*%
X109000000Y-49500000D03*
%TO.P,Q11,1*%
%TO.N,GND*%
X109000000Y-51400000D03*
%TO.P,Q11,3*%
%TO.N,Net-(J25-Pad1)*%
X111000000Y-50450000D03*
%TD*%
%TO.P,Q12,2*%
%TO.N,Net-(Q12-Pad2)*%
X119000000Y-49550000D03*
%TO.P,Q12,1*%
%TO.N,GND*%
X119000000Y-51450000D03*
%TO.P,Q12,3*%
%TO.N,Net-(J25-Pad2)*%
X121000000Y-50500000D03*
%TD*%
D13*
%TO.P,D1,2*%
%TO.N,+12V*%
X72500000Y-42200000D03*
%TO.P,D1,1*%
%TO.N,Net-(D1-Pad1)*%
X72500000Y-36800000D03*
%TD*%
D12*
%TO.P,D3,1*%
%TO.N,GND*%
X76300000Y-118500000D03*
%TO.P,D3,2*%
%TO.N,Net-(C4-Pad2)*%
X81700000Y-118500000D03*
%TD*%
%TO.P,D4,1*%
%TO.N,Net-(C5-Pad1)*%
X102400000Y-104000000D03*
%TO.P,D4,2*%
%TO.N,Net-(C4-Pad1)*%
X97000000Y-104000000D03*
%TD*%
%TO.P,D7,2*%
%TO.N,+12V*%
X101700000Y-181500000D03*
%TO.P,D7,1*%
%TO.N,Net-(D7-Pad1)*%
X96300000Y-181500000D03*
%TD*%
%TO.P,D9,2*%
%TO.N,+12V*%
X123400000Y-180500000D03*
%TO.P,D9,1*%
%TO.N,Net-(D9-Pad1)*%
X118000000Y-180500000D03*
%TD*%
%TO.P,D11,1*%
%TO.N,Net-(D11-Pad1)*%
X140300000Y-180500000D03*
%TO.P,D11,2*%
%TO.N,+12V*%
X145700000Y-180500000D03*
%TD*%
D13*
%TO.P,D13,1*%
%TO.N,+12V*%
X84500000Y-42200000D03*
%TO.P,D13,2*%
%TO.N,Net-(D13-Pad2)*%
X84500000Y-36800000D03*
%TD*%
%TO.P,D16,2*%
%TO.N,+12V*%
X183000000Y-182200000D03*
%TO.P,D16,1*%
%TO.N,Net-(D16-Pad1)*%
X183000000Y-176800000D03*
%TD*%
D12*
%TO.P,D18,2*%
%TO.N,+12V*%
X205700000Y-180500000D03*
%TO.P,D18,1*%
%TO.N,Net-(D18-Pad1)*%
X200300000Y-180500000D03*
%TD*%
%TO.P,D20,1*%
%TO.N,Net-(D20-Pad1)*%
X224700000Y-180500000D03*
%TO.P,D20,2*%
%TO.N,+12V*%
X219300000Y-180500000D03*
%TD*%
D13*
%TO.P,D22,2*%
%TO.N,+12V*%
X242500000Y-175800000D03*
%TO.P,D22,1*%
%TO.N,Net-(D22-Pad1)*%
X242500000Y-181200000D03*
%TD*%
%TO.P,D27,2*%
%TO.N,Net-(D23-Pad1)*%
X255339600Y-164562800D03*
%TO.P,D27,1*%
%TO.N,Net-(D27-Pad1)*%
X255339600Y-159162800D03*
%TD*%
%TO.P,D28,1*%
%TO.N,Net-(D28-Pad1)*%
X254839600Y-145662800D03*
%TO.P,D28,2*%
%TO.N,Net-(D24-Pad1)*%
X254839600Y-151062800D03*
%TD*%
%TO.P,D29,1*%
%TO.N,Net-(D29-Pad1)*%
X254839600Y-133462800D03*
%TO.P,D29,2*%
%TO.N,Net-(D25-Pad1)*%
X254839600Y-138862800D03*
%TD*%
%TO.P,D30,1*%
%TO.N,Net-(D30-Pad1)*%
X254839600Y-120662800D03*
%TO.P,D30,2*%
%TO.N,Net-(D26-Pad1)*%
X254839600Y-126062800D03*
%TD*%
%TO.P,D35,2*%
%TO.N,Net-(D31-Pad1)*%
X254839600Y-113062800D03*
%TO.P,D35,1*%
%TO.N,Net-(D35-Pad1)*%
X254839600Y-107662800D03*
%TD*%
%TO.P,D36,1*%
%TO.N,Net-(D36-Pad1)*%
X254839600Y-94962800D03*
%TO.P,D36,2*%
%TO.N,Net-(D32-Pad1)*%
X254839600Y-100362800D03*
%TD*%
%TO.P,D37,2*%
%TO.N,Net-(D33-Pad1)*%
X254839600Y-88262800D03*
%TO.P,D37,1*%
%TO.N,Net-(D37-Pad1)*%
X254839600Y-82862800D03*
%TD*%
%TO.P,D38,2*%
%TO.N,Net-(D34-Pad1)*%
X254839600Y-75062800D03*
%TO.P,D38,1*%
%TO.N,Net-(D38-Pad1)*%
X254839600Y-69662800D03*
%TD*%
%TO.P,D5,2*%
%TO.N,VCC*%
%TA.AperFunction,SMDPad,CuDef*%
G36*
G01*
X109950001Y-100050000D02*
X109049999Y-100050000D01*
G75*
G02*
X108800000Y-99800001I0J249999D01*
G01*
X108800000Y-99149999D01*
G75*
G02*
X109049999Y-98900000I249999J0D01*
G01*
X109950001Y-98900000D01*
G75*
G02*
X110200000Y-99149999I0J-249999D01*
G01*
X110200000Y-99800001D01*
G75*
G02*
X109950001Y-100050000I-249999J0D01*
G01*
G37*
%TD.AperFunction*%
%TO.P,D5,1*%
%TO.N,Net-(D5-Pad1)*%
%TA.AperFunction,SMDPad,CuDef*%
G36*
G01*
X109950001Y-102100000D02*
X109049999Y-102100000D01*
G75*
G02*
X108800000Y-101850001I0J249999D01*
G01*
X108800000Y-101199999D01*
G75*
G02*
X109049999Y-100950000I249999J0D01*
G01*
X109950001Y-100950000D01*
G75*
G02*
X110200000Y-101199999I0J-249999D01*
G01*
X110200000Y-101850001D01*
G75*
G02*
X109950001Y-102100000I-249999J0D01*
G01*
G37*
%TD.AperFunction*%
%TD*%
%TO.P,D6,1*%
%TO.N,Net-(D6-Pad1)*%
%TA.AperFunction,SMDPad,CuDef*%
G36*
G01*
X84550001Y-175800000D02*
X83649999Y-175800000D01*
G75*
G02*
X83400000Y-175550001I0J249999D01*
G01*
X83400000Y-174899999D01*
G75*
G02*
X83649999Y-174650000I249999J0D01*
G01*
X84550001Y-174650000D01*
G75*
G02*
X84800000Y-174899999I0J-249999D01*
G01*
X84800000Y-175550001D01*
G75*
G02*
X84550001Y-175800000I-249999J0D01*
G01*
G37*
%TD.AperFunction*%
%TO.P,D6,2*%
%TO.N,+12V*%
%TA.AperFunction,SMDPad,CuDef*%
G36*
G01*
X84550001Y-173750000D02*
X83649999Y-173750000D01*
G75*
G02*
X83400000Y-173500001I0J249999D01*
G01*
X83400000Y-172849999D01*
G75*
G02*
X83649999Y-172600000I249999J0D01*
G01*
X84550001Y-172600000D01*
G75*
G02*
X84800000Y-172849999I0J-249999D01*
G01*
X84800000Y-173500001D01*
G75*
G02*
X84550001Y-173750000I-249999J0D01*
G01*
G37*
%TD.AperFunction*%
%TD*%
%TO.P,D8,2*%
%TO.N,+12V*%
%TA.AperFunction,SMDPad,CuDef*%
G36*
G01*
X108450001Y-174050000D02*
X107549999Y-174050000D01*
G75*
G02*
X107300000Y-173800001I0J249999D01*
G01*
X107300000Y-173149999D01*
G75*
G02*
X107549999Y-172900000I249999J0D01*
G01*
X108450001Y-172900000D01*
G75*
G02*
X108700000Y-173149999I0J-249999D01*
G01*
X108700000Y-173800001D01*
G75*
G02*
X108450001Y-174050000I-249999J0D01*
G01*
G37*
%TD.AperFunction*%
%TO.P,D8,1*%
%TO.N,Net-(D8-Pad1)*%
%TA.AperFunction,SMDPad,CuDef*%
G36*
G01*
X108450001Y-176100000D02*
X107549999Y-176100000D01*
G75*
G02*
X107300000Y-175850001I0J249999D01*
G01*
X107300000Y-175199999D01*
G75*
G02*
X107549999Y-174950000I249999J0D01*
G01*
X108450001Y-174950000D01*
G75*
G02*
X108700000Y-175199999I0J-249999D01*
G01*
X108700000Y-175850001D01*
G75*
G02*
X108450001Y-176100000I-249999J0D01*
G01*
G37*
%TD.AperFunction*%
%TD*%
%TO.P,D10,2*%
%TO.N,+12V*%
%TA.AperFunction,SMDPad,CuDef*%
G36*
G01*
X130450001Y-174050000D02*
X129549999Y-174050000D01*
G75*
G02*
X129300000Y-173800001I0J249999D01*
G01*
X129300000Y-173149999D01*
G75*
G02*
X129549999Y-172900000I249999J0D01*
G01*
X130450001Y-172900000D01*
G75*
G02*
X130700000Y-173149999I0J-249999D01*
G01*
X130700000Y-173800001D01*
G75*
G02*
X130450001Y-174050000I-249999J0D01*
G01*
G37*
%TD.AperFunction*%
%TO.P,D10,1*%
%TO.N,Net-(D10-Pad1)*%
%TA.AperFunction,SMDPad,CuDef*%
G36*
G01*
X130450001Y-176100000D02*
X129549999Y-176100000D01*
G75*
G02*
X129300000Y-175850001I0J249999D01*
G01*
X129300000Y-175199999D01*
G75*
G02*
X129549999Y-174950000I249999J0D01*
G01*
X130450001Y-174950000D01*
G75*
G02*
X130700000Y-175199999I0J-249999D01*
G01*
X130700000Y-175850001D01*
G75*
G02*
X130450001Y-176100000I-249999J0D01*
G01*
G37*
%TD.AperFunction*%
%TD*%
%TO.P,D12,1*%
%TO.N,Net-(D12-Pad1)*%
%TA.AperFunction,SMDPad,CuDef*%
G36*
G01*
X151450001Y-176100000D02*
X150549999Y-176100000D01*
G75*
G02*
X150300000Y-175850001I0J249999D01*
G01*
X150300000Y-175199999D01*
G75*
G02*
X150549999Y-174950000I249999J0D01*
G01*
X151450001Y-174950000D01*
G75*
G02*
X151700000Y-175199999I0J-249999D01*
G01*
X151700000Y-175850001D01*
G75*
G02*
X151450001Y-176100000I-249999J0D01*
G01*
G37*
%TD.AperFunction*%
%TO.P,D12,2*%
%TO.N,+12V*%
%TA.AperFunction,SMDPad,CuDef*%
G36*
G01*
X151450001Y-174050000D02*
X150549999Y-174050000D01*
G75*
G02*
X150300000Y-173800001I0J249999D01*
G01*
X150300000Y-173149999D01*
G75*
G02*
X150549999Y-172900000I249999J0D01*
G01*
X151450001Y-172900000D01*
G75*
G02*
X151700000Y-173149999I0J-249999D01*
G01*
X151700000Y-173800001D01*
G75*
G02*
X151450001Y-174050000I-249999J0D01*
G01*
G37*
%TD.AperFunction*%
%TD*%
%TO.P,D15,1*%
%TO.N,Net-(D15-Pad1)*%
%TA.AperFunction,SMDPad,CuDef*%
G36*
G01*
X170450001Y-176100000D02*
X169549999Y-176100000D01*
G75*
G02*
X169300000Y-175850001I0J249999D01*
G01*
X169300000Y-175199999D01*
G75*
G02*
X169549999Y-174950000I249999J0D01*
G01*
X170450001Y-174950000D01*
G75*
G02*
X170700000Y-175199999I0J-249999D01*
G01*
X170700000Y-175850001D01*
G75*
G02*
X170450001Y-176100000I-249999J0D01*
G01*
G37*
%TD.AperFunction*%
%TO.P,D15,2*%
%TO.N,+12V*%
%TA.AperFunction,SMDPad,CuDef*%
G36*
G01*
X170450001Y-174050000D02*
X169549999Y-174050000D01*
G75*
G02*
X169300000Y-173800001I0J249999D01*
G01*
X169300000Y-173149999D01*
G75*
G02*
X169549999Y-172900000I249999J0D01*
G01*
X170450001Y-172900000D01*
G75*
G02*
X170700000Y-173149999I0J-249999D01*
G01*
X170700000Y-173800001D01*
G75*
G02*
X170450001Y-174050000I-249999J0D01*
G01*
G37*
%TD.AperFunction*%
%TD*%
%TO.P,D17,1*%
%TO.N,Net-(D17-Pad1)*%
%TA.AperFunction,SMDPad,CuDef*%
G36*
G01*
X190450001Y-176100000D02*
X189549999Y-176100000D01*
G75*
G02*
X189300000Y-175850001I0J249999D01*
G01*
X189300000Y-175199999D01*
G75*
G02*
X189549999Y-174950000I249999J0D01*
G01*
X190450001Y-174950000D01*
G75*
G02*
X190700000Y-175199999I0J-249999D01*
G01*
X190700000Y-175850001D01*
G75*
G02*
X190450001Y-176100000I-249999J0D01*
G01*
G37*
%TD.AperFunction*%
%TO.P,D17,2*%
%TO.N,+12V*%
%TA.AperFunction,SMDPad,CuDef*%
G36*
G01*
X190450001Y-174050000D02*
X189549999Y-174050000D01*
G75*
G02*
X189300000Y-173800001I0J249999D01*
G01*
X189300000Y-173149999D01*
G75*
G02*
X189549999Y-172900000I249999J0D01*
G01*
X190450001Y-172900000D01*
G75*
G02*
X190700000Y-173149999I0J-249999D01*
G01*
X190700000Y-173800001D01*
G75*
G02*
X190450001Y-174050000I-249999J0D01*
G01*
G37*
%TD.AperFunction*%
%TD*%
%TO.P,D19,2*%
%TO.N,+12V*%
%TA.AperFunction,SMDPad,CuDef*%
G36*
G01*
X209450001Y-174050000D02*
X208549999Y-174050000D01*
G75*
G02*
X208300000Y-173800001I0J249999D01*
G01*
X208300000Y-173149999D01*
G75*
G02*
X208549999Y-172900000I249999J0D01*
G01*
X209450001Y-172900000D01*
G75*
G02*
X209700000Y-173149999I0J-249999D01*
G01*
X209700000Y-173800001D01*
G75*
G02*
X209450001Y-174050000I-249999J0D01*
G01*
G37*
%TD.AperFunction*%
%TO.P,D19,1*%
%TO.N,Net-(D19-Pad1)*%
%TA.AperFunction,SMDPad,CuDef*%
G36*
G01*
X209450001Y-176100000D02*
X208549999Y-176100000D01*
G75*
G02*
X208300000Y-175850001I0J249999D01*
G01*
X208300000Y-175199999D01*
G75*
G02*
X208549999Y-174950000I249999J0D01*
G01*
X209450001Y-174950000D01*
G75*
G02*
X209700000Y-175199999I0J-249999D01*
G01*
X209700000Y-175850001D01*
G75*
G02*
X209450001Y-176100000I-249999J0D01*
G01*
G37*
%TD.AperFunction*%
%TD*%
%TO.P,D21,2*%
%TO.N,+12V*%
%TA.AperFunction,SMDPad,CuDef*%
G36*
G01*
X229450001Y-174050000D02*
X228549999Y-174050000D01*
G75*
G02*
X228300000Y-173800001I0J249999D01*
G01*
X228300000Y-173149999D01*
G75*
G02*
X228549999Y-172900000I249999J0D01*
G01*
X229450001Y-172900000D01*
G75*
G02*
X229700000Y-173149999I0J-249999D01*
G01*
X229700000Y-173800001D01*
G75*
G02*
X229450001Y-174050000I-249999J0D01*
G01*
G37*
%TD.AperFunction*%
%TO.P,D21,1*%
%TO.N,Net-(D21-Pad1)*%
%TA.AperFunction,SMDPad,CuDef*%
G36*
G01*
X229450001Y-176100000D02*
X228549999Y-176100000D01*
G75*
G02*
X228300000Y-175850001I0J249999D01*
G01*
X228300000Y-175199999D01*
G75*
G02*
X228549999Y-174950000I249999J0D01*
G01*
X229450001Y-174950000D01*
G75*
G02*
X229700000Y-175199999I0J-249999D01*
G01*
X229700000Y-175850001D01*
G75*
G02*
X229450001Y-176100000I-249999J0D01*
G01*
G37*
%TD.AperFunction*%
%TD*%
%TO.P,C17,1*%
%TO.N,Net-(C17-Pad1)*%
%TA.AperFunction,SMDPad,CuDef*%
G36*
G01*
X232163199Y-146253400D02*
X233063201Y-146253400D01*
G75*
G02*
X233313200Y-146503399I0J-249999D01*
G01*
X233313200Y-147203401D01*
G75*
G02*
X233063201Y-147453400I-249999J0D01*
G01*
X232163199Y-147453400D01*
G75*
G02*
X231913200Y-147203401I0J249999D01*
G01*
X231913200Y-146503399D01*
G75*
G02*
X232163199Y-146253400I249999J0D01*
G01*
G37*
%TD.AperFunction*%
%TO.P,C17,2*%
%TO.N,GND*%
%TA.AperFunction,SMDPad,CuDef*%
G36*
G01*
X232163199Y-148253400D02*
X233063201Y-148253400D01*
G75*
G02*
X233313200Y-148503399I0J-249999D01*
G01*
X233313200Y-149203401D01*
G75*
G02*
X233063201Y-149453400I-249999J0D01*
G01*
X232163199Y-149453400D01*
G75*
G02*
X231913200Y-149203401I0J249999D01*
G01*
X231913200Y-148503399D01*
G75*
G02*
X232163199Y-148253400I249999J0D01*
G01*
G37*
%TD.AperFunction*%
%TD*%
%TO.P,C18,1*%
%TO.N,Net-(C18-Pad1)*%
%TA.AperFunction,SMDPad,CuDef*%
G36*
G01*
X208907801Y-126314000D02*
X208007799Y-126314000D01*
G75*
G02*
X207757800Y-126064001I0J249999D01*
G01*
X207757800Y-125363999D01*
G75*
G02*
X208007799Y-125114000I249999J0D01*
G01*
X208907801Y-125114000D01*
G75*
G02*
X209157800Y-125363999I0J-249999D01*
G01*
X209157800Y-126064001D01*
G75*
G02*
X208907801Y-126314000I-249999J0D01*
G01*
G37*
%TD.AperFunction*%
%TO.P,C18,2*%
%TO.N,GND*%
%TA.AperFunction,SMDPad,CuDef*%
G36*
G01*
X208907801Y-124314000D02*
X208007799Y-124314000D01*
G75*
G02*
X207757800Y-124064001I0J249999D01*
G01*
X207757800Y-123363999D01*
G75*
G02*
X208007799Y-123114000I249999J0D01*
G01*
X208907801Y-123114000D01*
G75*
G02*
X209157800Y-123363999I0J-249999D01*
G01*
X209157800Y-124064001D01*
G75*
G02*
X208907801Y-124314000I-249999J0D01*
G01*
G37*
%TD.AperFunction*%
%TD*%
%TO.P,C19,2*%
%TO.N,GND*%
%TA.AperFunction,SMDPad,CuDef*%
G36*
G01*
X232493399Y-125088600D02*
X233393401Y-125088600D01*
G75*
G02*
X233643400Y-125338599I0J-249999D01*
G01*
X233643400Y-126038601D01*
G75*
G02*
X233393401Y-126288600I-249999J0D01*
G01*
X232493399Y-126288600D01*
G75*
G02*
X232243400Y-126038601I0J249999D01*
G01*
X232243400Y-125338599D01*
G75*
G02*
X232493399Y-125088600I249999J0D01*
G01*
G37*
%TD.AperFunction*%
%TO.P,C19,1*%
%TO.N,Net-(C19-Pad1)*%
%TA.AperFunction,SMDPad,CuDef*%
G36*
G01*
X232493399Y-123088600D02*
X233393401Y-123088600D01*
G75*
G02*
X233643400Y-123338599I0J-249999D01*
G01*
X233643400Y-124038601D01*
G75*
G02*
X233393401Y-124288600I-249999J0D01*
G01*
X232493399Y-124288600D01*
G75*
G02*
X232243400Y-124038601I0J249999D01*
G01*
X232243400Y-123338599D01*
G75*
G02*
X232493399Y-123088600I249999J0D01*
G01*
G37*
%TD.AperFunction*%
%TD*%
%TO.P,C20,2*%
%TO.N,GND*%
%TA.AperFunction,SMDPad,CuDef*%
G36*
G01*
X209592199Y-149724400D02*
X210492201Y-149724400D01*
G75*
G02*
X210742200Y-149974399I0J-249999D01*
G01*
X210742200Y-150674401D01*
G75*
G02*
X210492201Y-150924400I-249999J0D01*
G01*
X209592199Y-150924400D01*
G75*
G02*
X209342200Y-150674401I0J249999D01*
G01*
X209342200Y-149974399D01*
G75*
G02*
X209592199Y-149724400I249999J0D01*
G01*
G37*
%TD.AperFunction*%
%TO.P,C20,1*%
%TO.N,Net-(C20-Pad1)*%
%TA.AperFunction,SMDPad,CuDef*%
G36*
G01*
X209592199Y-147724400D02*
X210492201Y-147724400D01*
G75*
G02*
X210742200Y-147974399I0J-249999D01*
G01*
X210742200Y-148674401D01*
G75*
G02*
X210492201Y-148924400I-249999J0D01*
G01*
X209592199Y-148924400D01*
G75*
G02*
X209342200Y-148674401I0J249999D01*
G01*
X209342200Y-147974399D01*
G75*
G02*
X209592199Y-147724400I249999J0D01*
G01*
G37*
%TD.AperFunction*%
%TD*%
%TO.P,D43,1*%
%TO.N,Net-(D43-Pad1)*%
%TA.AperFunction,SMDPad,CuDef*%
G36*
G01*
X166201000Y-82455599D02*
X166201000Y-83355601D01*
G75*
G02*
X165951001Y-83605600I-249999J0D01*
G01*
X165300999Y-83605600D01*
G75*
G02*
X165051000Y-83355601I0J249999D01*
G01*
X165051000Y-82455599D01*
G75*
G02*
X165300999Y-82205600I249999J0D01*
G01*
X165951001Y-82205600D01*
G75*
G02*
X166201000Y-82455599I0J-249999D01*
G01*
G37*
%TD.AperFunction*%
%TO.P,D43,2*%
%TO.N,Net-(D43-Pad2)*%
%TA.AperFunction,SMDPad,CuDef*%
G36*
G01*
X164151000Y-82455599D02*
X164151000Y-83355601D01*
G75*
G02*
X163901001Y-83605600I-249999J0D01*
G01*
X163250999Y-83605600D01*
G75*
G02*
X163001000Y-83355601I0J249999D01*
G01*
X163001000Y-82455599D01*
G75*
G02*
X163250999Y-82205600I249999J0D01*
G01*
X163901001Y-82205600D01*
G75*
G02*
X164151000Y-82455599I0J-249999D01*
G01*
G37*
%TD.AperFunction*%
%TD*%
%TO.P,D44,1*%
%TO.N,Net-(D44-Pad1)*%
X256362200Y-61200800D03*
%TO.P,D44,2*%
%TO.N,Net-(D44-Pad2)*%
X256362200Y-55800800D03*
%TD*%
%TO.P,D45,1*%
%TO.N,Net-(D45-Pad1)*%
X247853200Y-61183000D03*
%TO.P,D45,2*%
%TO.N,Net-(D45-Pad2)*%
X247853200Y-55783000D03*
%TD*%
%TO.P,D46,2*%
%TO.N,GND*%
X255727200Y-42882800D03*
%TO.P,D46,1*%
%TO.N,Net-(D44-Pad2)*%
X255727200Y-37482800D03*
%TD*%
%TO.P,D47,2*%
%TO.N,GND*%
X247853200Y-42882800D03*
%TO.P,D47,1*%
%TO.N,Net-(D45-Pad2)*%
X247853200Y-37482800D03*
%TD*%
%TO.P,D48,2*%
%TO.N,Net-(D48-Pad2)*%
X239445800Y-37338000D03*
%TO.P,D48,1*%
%TO.N,+12V*%
X239445800Y-42738000D03*
%TD*%
%TO.P,D49,1*%
%TO.N,Net-(D49-Pad1)*%
X263474200Y-37449800D03*
%TO.P,D49,2*%
%TO.N,GND*%
X263474200Y-42849800D03*
%TD*%
%TO.P,D50,1*%
%TO.N,Net-(D50-Pad1)*%
X271373600Y-37406600D03*
%TO.P,D50,2*%
%TO.N,GND*%
X271373600Y-42806600D03*
%TD*%
%TO.P,D51,1*%
%TO.N,Net-(D51-Pad1)*%
X263575800Y-61716400D03*
%TO.P,D51,2*%
%TO.N,Net-(D49-Pad1)*%
X263575800Y-56316400D03*
%TD*%
%TO.P,D52,2*%
%TO.N,Net-(D50-Pad1)*%
X271551400Y-55808400D03*
%TO.P,D52,1*%
%TO.N,Net-(D52-Pad1)*%
X271551400Y-61208400D03*
%TD*%
D14*
%TO.P,J26,4*%
%TO.N,Net-(D45-Pad2)*%
X248000000Y-27000000D03*
D15*
%TO.P,J26,1*%
%TO.N,Net-(D50-Pad1)*%
X263000000Y-27000000D03*
D14*
%TO.P,J26,2*%
%TO.N,Net-(D49-Pad1)*%
X258000000Y-27000000D03*
%TO.P,J26,3*%
%TO.N,Net-(D44-Pad2)*%
X253000000Y-27000000D03*
%TO.P,J26,5*%
%TO.N,Net-(D48-Pad2)*%
X243000000Y-27000000D03*
%TD*%
D22*
%TO.P,JP1,1*%
%TO.N,Net-(D43-Pad1)*%
X166954200Y-75234800D03*
D23*
%TO.P,JP1,2*%
%TO.N,Net-(BZ1-Pad2)*%
X169494200Y-75234800D03*
%TD*%
D22*
%TO.P,JP2,1*%
%TO.N,Net-(JP2-Pad1)*%
X224891600Y-137464800D03*
D23*
%TO.P,JP2,2*%
%TO.N,GPIO3*%
X224891600Y-140004800D03*
%TO.P,JP2,3*%
%TO.N,Net-(JP2-Pad3)*%
X224891600Y-142544800D03*
%TD*%
%TO.P,JP3,3*%
%TO.N,Net-(JP3-Pad3)*%
X208420000Y-111000000D03*
%TO.P,JP3,2*%
%TO.N,GPIO4*%
X210960000Y-111000000D03*
D22*
%TO.P,JP3,1*%
%TO.N,Net-(JP3-Pad1)*%
X213500000Y-111000000D03*
%TD*%
%TO.P,JP4,1*%
%TO.N,Net-(JP4-Pad1)*%
X215315800Y-137287000D03*
D23*
%TO.P,JP4,2*%
%TO.N,GPIO1*%
X215315800Y-139827000D03*
%TO.P,JP4,3*%
%TO.N,Net-(JP4-Pad3)*%
X215315800Y-142367000D03*
%TD*%
%TO.P,JP5,3*%
%TO.N,Net-(JP5-Pad3)*%
X208420000Y-103500000D03*
%TO.P,JP5,2*%
%TO.N,GPIO2*%
X210960000Y-103500000D03*
D22*
%TO.P,JP5,1*%
%TO.N,Net-(JP5-Pad1)*%
X213500000Y-103500000D03*
%TD*%
D20*
%TO.P,Q13,3*%
%TO.N,Net-(D43-Pad1)*%
X163093400Y-87782400D03*
%TO.P,Q13,1*%
%TO.N,Net-(Q13-Pad1)*%
X164043400Y-89782400D03*
%TO.P,Q13,2*%
%TO.N,GND*%
X162143400Y-89782400D03*
%TD*%
D21*
%TO.P,Q14,3*%
%TO.N,Net-(D45-Pad2)*%
X233537000Y-52222400D03*
%TO.P,Q14,1*%
%TO.N,GND*%
X231537000Y-53172400D03*
%TO.P,Q14,2*%
%TO.N,Net-(Q14-Pad2)*%
X231537000Y-51272400D03*
%TD*%
%TO.P,Q15,3*%
%TO.N,Net-(D44-Pad2)*%
X233410000Y-60858400D03*
%TO.P,Q15,1*%
%TO.N,GND*%
X231410000Y-61808400D03*
%TO.P,Q15,2*%
%TO.N,Net-(Q15-Pad2)*%
X231410000Y-59908400D03*
%TD*%
%TO.P,Q16,2*%
%TO.N,Net-(Q16-Pad2)*%
X231410000Y-67782400D03*
%TO.P,Q16,1*%
%TO.N,GND*%
X231410000Y-69682400D03*
%TO.P,Q16,3*%
%TO.N,Net-(D49-Pad1)*%
X233410000Y-68732400D03*
%TD*%
%TO.P,Q17,2*%
%TO.N,Net-(Q17-Pad2)*%
X231283000Y-75504000D03*
%TO.P,Q17,1*%
%TO.N,GND*%
X231283000Y-77404000D03*
%TO.P,Q17,3*%
%TO.N,Net-(D50-Pad1)*%
X233283000Y-76454000D03*
%TD*%
%TO.P,R71,1*%
%TO.N,VCC*%
%TA.AperFunction,SMDPad,CuDef*%
G36*
G01*
X157632600Y-83355601D02*
X157632600Y-82455599D01*
G75*
G02*
X157882599Y-82205600I249999J0D01*
G01*
X158582601Y-82205600D01*
G75*
G02*
X158832600Y-82455599I0J-249999D01*
G01*
X158832600Y-83355601D01*
G75*
G02*
X158582601Y-83605600I-249999J0D01*
G01*
X157882599Y-83605600D01*
G75*
G02*
X157632600Y-83355601I0J249999D01*
G01*
G37*
%TD.AperFunction*%
%TO.P,R71,2*%
%TO.N,Net-(D43-Pad2)*%
%TA.AperFunction,SMDPad,CuDef*%
G36*
G01*
X159632600Y-83355601D02*
X159632600Y-82455599D01*
G75*
G02*
X159882599Y-82205600I249999J0D01*
G01*
X160582601Y-82205600D01*
G75*
G02*
X160832600Y-82455599I0J-249999D01*
G01*
X160832600Y-83355601D01*
G75*
G02*
X160582601Y-83605600I-249999J0D01*
G01*
X159882599Y-83605600D01*
G75*
G02*
X159632600Y-83355601I0J249999D01*
G01*
G37*
%TD.AperFunction*%
%TD*%
%TO.P,R72,2*%
%TO.N,Net-(BZ1-Pad1)*%
%TA.AperFunction,SMDPad,CuDef*%
G36*
G01*
X163442600Y-94277601D02*
X163442600Y-93377599D01*
G75*
G02*
X163692599Y-93127600I249999J0D01*
G01*
X164392601Y-93127600D01*
G75*
G02*
X164642600Y-93377599I0J-249999D01*
G01*
X164642600Y-94277601D01*
G75*
G02*
X164392601Y-94527600I-249999J0D01*
G01*
X163692599Y-94527600D01*
G75*
G02*
X163442600Y-94277601I0J249999D01*
G01*
G37*
%TD.AperFunction*%
%TO.P,R72,1*%
%TO.N,VCC*%
%TA.AperFunction,SMDPad,CuDef*%
G36*
G01*
X161442600Y-94277601D02*
X161442600Y-93377599D01*
G75*
G02*
X161692599Y-93127600I249999J0D01*
G01*
X162392601Y-93127600D01*
G75*
G02*
X162642600Y-93377599I0J-249999D01*
G01*
X162642600Y-94277601D01*
G75*
G02*
X162392601Y-94527600I-249999J0D01*
G01*
X161692599Y-94527600D01*
G75*
G02*
X161442600Y-94277601I0J249999D01*
G01*
G37*
%TD.AperFunction*%
%TD*%
%TO.P,R73,1*%
%TO.N,Net-(Q13-Pad1)*%
%TA.AperFunction,SMDPad,CuDef*%
G36*
G01*
X176587999Y-88722400D02*
X177488001Y-88722400D01*
G75*
G02*
X177738000Y-88972399I0J-249999D01*
G01*
X177738000Y-89672401D01*
G75*
G02*
X177488001Y-89922400I-249999J0D01*
G01*
X176587999Y-89922400D01*
G75*
G02*
X176338000Y-89672401I0J249999D01*
G01*
X176338000Y-88972399D01*
G75*
G02*
X176587999Y-88722400I249999J0D01*
G01*
G37*
%TD.AperFunction*%
%TO.P,R73,2*%
%TO.N,GND*%
%TA.AperFunction,SMDPad,CuDef*%
G36*
G01*
X176587999Y-90722400D02*
X177488001Y-90722400D01*
G75*
G02*
X177738000Y-90972399I0J-249999D01*
G01*
X177738000Y-91672401D01*
G75*
G02*
X177488001Y-91922400I-249999J0D01*
G01*
X176587999Y-91922400D01*
G75*
G02*
X176338000Y-91672401I0J249999D01*
G01*
X176338000Y-90972399D01*
G75*
G02*
X176587999Y-90722400I249999J0D01*
G01*
G37*
%TD.AperFunction*%
%TD*%
%TO.P,R74,2*%
%TO.N,Net-(R74-Pad2)*%
%TA.AperFunction,SMDPad,CuDef*%
G36*
G01*
X168049999Y-91400000D02*
X168950001Y-91400000D01*
G75*
G02*
X169200000Y-91649999I0J-249999D01*
G01*
X169200000Y-92350001D01*
G75*
G02*
X168950001Y-92600000I-249999J0D01*
G01*
X168049999Y-92600000D01*
G75*
G02*
X167800000Y-92350001I0J249999D01*
G01*
X167800000Y-91649999D01*
G75*
G02*
X168049999Y-91400000I249999J0D01*
G01*
G37*
%TD.AperFunction*%
%TO.P,R74,1*%
%TO.N,Net-(Q13-Pad1)*%
%TA.AperFunction,SMDPad,CuDef*%
G36*
G01*
X168049999Y-89400000D02*
X168950001Y-89400000D01*
G75*
G02*
X169200000Y-89649999I0J-249999D01*
G01*
X169200000Y-90350001D01*
G75*
G02*
X168950001Y-90600000I-249999J0D01*
G01*
X168049999Y-90600000D01*
G75*
G02*
X167800000Y-90350001I0J249999D01*
G01*
X167800000Y-89649999D01*
G75*
G02*
X168049999Y-89400000I249999J0D01*
G01*
G37*
%TD.AperFunction*%
%TD*%
%TO.P,R75,1*%
%TO.N,Net-(JP2-Pad3)*%
%TA.AperFunction,SMDPad,CuDef*%
G36*
G01*
X229581400Y-143020201D02*
X229581400Y-142120199D01*
G75*
G02*
X229831399Y-141870200I249999J0D01*
G01*
X230531401Y-141870200D01*
G75*
G02*
X230781400Y-142120199I0J-249999D01*
G01*
X230781400Y-143020201D01*
G75*
G02*
X230531401Y-143270200I-249999J0D01*
G01*
X229831399Y-143270200D01*
G75*
G02*
X229581400Y-143020201I0J249999D01*
G01*
G37*
%TD.AperFunction*%
%TO.P,R75,2*%
%TO.N,Net-(C17-Pad1)*%
%TA.AperFunction,SMDPad,CuDef*%
G36*
G01*
X231581400Y-143020201D02*
X231581400Y-142120199D01*
G75*
G02*
X231831399Y-141870200I249999J0D01*
G01*
X232531401Y-141870200D01*
G75*
G02*
X232781400Y-142120199I0J-249999D01*
G01*
X232781400Y-143020201D01*
G75*
G02*
X232531401Y-143270200I-249999J0D01*
G01*
X231831399Y-143270200D01*
G75*
G02*
X231581400Y-143020201I0J249999D01*
G01*
G37*
%TD.AperFunction*%
%TD*%
%TO.P,R76,2*%
%TO.N,Net-(C18-Pad1)*%
%TA.AperFunction,SMDPad,CuDef*%
G36*
G01*
X209772200Y-119450001D02*
X209772200Y-118549999D01*
G75*
G02*
X210022199Y-118300000I249999J0D01*
G01*
X210722201Y-118300000D01*
G75*
G02*
X210972200Y-118549999I0J-249999D01*
G01*
X210972200Y-119450001D01*
G75*
G02*
X210722201Y-119700000I-249999J0D01*
G01*
X210022199Y-119700000D01*
G75*
G02*
X209772200Y-119450001I0J249999D01*
G01*
G37*
%TD.AperFunction*%
%TO.P,R76,1*%
%TO.N,Net-(JP3-Pad3)*%
%TA.AperFunction,SMDPad,CuDef*%
G36*
G01*
X207772200Y-119450001D02*
X207772200Y-118549999D01*
G75*
G02*
X208022199Y-118300000I249999J0D01*
G01*
X208722201Y-118300000D01*
G75*
G02*
X208972200Y-118549999I0J-249999D01*
G01*
X208972200Y-119450001D01*
G75*
G02*
X208722201Y-119700000I-249999J0D01*
G01*
X208022199Y-119700000D01*
G75*
G02*
X207772200Y-119450001I0J249999D01*
G01*
G37*
%TD.AperFunction*%
%TD*%
%TO.P,R77,2*%
%TO.N,VCC*%
%TA.AperFunction,SMDPad,CuDef*%
G36*
G01*
X236934200Y-142817001D02*
X236934200Y-141916999D01*
G75*
G02*
X237184199Y-141667000I249999J0D01*
G01*
X237884201Y-141667000D01*
G75*
G02*
X238134200Y-141916999I0J-249999D01*
G01*
X238134200Y-142817001D01*
G75*
G02*
X237884201Y-143067000I-249999J0D01*
G01*
X237184199Y-143067000D01*
G75*
G02*
X236934200Y-142817001I0J249999D01*
G01*
G37*
%TD.AperFunction*%
%TO.P,R77,1*%
%TO.N,Net-(C17-Pad1)*%
%TA.AperFunction,SMDPad,CuDef*%
G36*
G01*
X234934200Y-142817001D02*
X234934200Y-141916999D01*
G75*
G02*
X235184199Y-141667000I249999J0D01*
G01*
X235884201Y-141667000D01*
G75*
G02*
X236134200Y-141916999I0J-249999D01*
G01*
X236134200Y-142817001D01*
G75*
G02*
X235884201Y-143067000I-249999J0D01*
G01*
X235184199Y-143067000D01*
G75*
G02*
X234934200Y-142817001I0J249999D01*
G01*
G37*
%TD.AperFunction*%
%TD*%
%TO.P,R78,2*%
%TO.N,VCC*%
%TA.AperFunction,SMDPad,CuDef*%
G36*
G01*
X203638999Y-125114000D02*
X204539001Y-125114000D01*
G75*
G02*
X204789000Y-125363999I0J-249999D01*
G01*
X204789000Y-126064001D01*
G75*
G02*
X204539001Y-126314000I-249999J0D01*
G01*
X203638999Y-126314000D01*
G75*
G02*
X203389000Y-126064001I0J249999D01*
G01*
X203389000Y-125363999D01*
G75*
G02*
X203638999Y-125114000I249999J0D01*
G01*
G37*
%TD.AperFunction*%
%TO.P,R78,1*%
%TO.N,Net-(C18-Pad1)*%
%TA.AperFunction,SMDPad,CuDef*%
G36*
G01*
X203638999Y-123114000D02*
X204539001Y-123114000D01*
G75*
G02*
X204789000Y-123363999I0J-249999D01*
G01*
X204789000Y-124064001D01*
G75*
G02*
X204539001Y-124314000I-249999J0D01*
G01*
X203638999Y-124314000D01*
G75*
G02*
X203389000Y-124064001I0J249999D01*
G01*
X203389000Y-123363999D01*
G75*
G02*
X203638999Y-123114000I249999J0D01*
G01*
G37*
%TD.AperFunction*%
%TD*%
%TO.P,R79,2*%
%TO.N,Net-(D44-Pad1)*%
%TA.AperFunction,SMDPad,CuDef*%
G36*
G01*
X236966200Y-137991001D02*
X236966200Y-137090999D01*
G75*
G02*
X237216199Y-136841000I249999J0D01*
G01*
X237916201Y-136841000D01*
G75*
G02*
X238166200Y-137090999I0J-249999D01*
G01*
X238166200Y-137991001D01*
G75*
G02*
X237916201Y-138241000I-249999J0D01*
G01*
X237216199Y-138241000D01*
G75*
G02*
X236966200Y-137991001I0J249999D01*
G01*
G37*
%TD.AperFunction*%
%TO.P,R79,1*%
%TO.N,Net-(C17-Pad1)*%
%TA.AperFunction,SMDPad,CuDef*%
G36*
G01*
X234966200Y-137991001D02*
X234966200Y-137090999D01*
G75*
G02*
X235216199Y-136841000I249999J0D01*
G01*
X235916201Y-136841000D01*
G75*
G02*
X236166200Y-137090999I0J-249999D01*
G01*
X236166200Y-137991001D01*
G75*
G02*
X235916201Y-138241000I-249999J0D01*
G01*
X235216199Y-138241000D01*
G75*
G02*
X234966200Y-137991001I0J249999D01*
G01*
G37*
%TD.AperFunction*%
%TD*%
%TO.P,R80,2*%
%TO.N,Net-(D45-Pad1)*%
%TA.AperFunction,SMDPad,CuDef*%
G36*
G01*
X215318800Y-126510201D02*
X215318800Y-125610199D01*
G75*
G02*
X215568799Y-125360200I249999J0D01*
G01*
X216268801Y-125360200D01*
G75*
G02*
X216518800Y-125610199I0J-249999D01*
G01*
X216518800Y-126510201D01*
G75*
G02*
X216268801Y-126760200I-249999J0D01*
G01*
X215568799Y-126760200D01*
G75*
G02*
X215318800Y-126510201I0J249999D01*
G01*
G37*
%TD.AperFunction*%
%TO.P,R80,1*%
%TO.N,Net-(C18-Pad1)*%
%TA.AperFunction,SMDPad,CuDef*%
G36*
G01*
X213318800Y-126510201D02*
X213318800Y-125610199D01*
G75*
G02*
X213568799Y-125360200I249999J0D01*
G01*
X214268801Y-125360200D01*
G75*
G02*
X214518800Y-125610199I0J-249999D01*
G01*
X214518800Y-126510201D01*
G75*
G02*
X214268801Y-126760200I-249999J0D01*
G01*
X213568799Y-126760200D01*
G75*
G02*
X213318800Y-126510201I0J249999D01*
G01*
G37*
%TD.AperFunction*%
%TD*%
%TO.P,R81,2*%
%TO.N,Net-(JP3-Pad1)*%
%TA.AperFunction,SMDPad,CuDef*%
G36*
G01*
X220494400Y-50629399D02*
X220494400Y-51529401D01*
G75*
G02*
X220244401Y-51779400I-249999J0D01*
G01*
X219544399Y-51779400D01*
G75*
G02*
X219294400Y-51529401I0J249999D01*
G01*
X219294400Y-50629399D01*
G75*
G02*
X219544399Y-50379400I249999J0D01*
G01*
X220244401Y-50379400D01*
G75*
G02*
X220494400Y-50629399I0J-249999D01*
G01*
G37*
%TD.AperFunction*%
%TO.P,R81,1*%
%TO.N,Net-(Q14-Pad2)*%
%TA.AperFunction,SMDPad,CuDef*%
G36*
G01*
X222494400Y-50629399D02*
X222494400Y-51529401D01*
G75*
G02*
X222244401Y-51779400I-249999J0D01*
G01*
X221544399Y-51779400D01*
G75*
G02*
X221294400Y-51529401I0J249999D01*
G01*
X221294400Y-50629399D01*
G75*
G02*
X221544399Y-50379400I249999J0D01*
G01*
X222244401Y-50379400D01*
G75*
G02*
X222494400Y-50629399I0J-249999D01*
G01*
G37*
%TD.AperFunction*%
%TD*%
%TO.P,R82,1*%
%TO.N,Net-(Q14-Pad2)*%
%TA.AperFunction,SMDPad,CuDef*%
G36*
G01*
X225914799Y-50622400D02*
X226814801Y-50622400D01*
G75*
G02*
X227064800Y-50872399I0J-249999D01*
G01*
X227064800Y-51572401D01*
G75*
G02*
X226814801Y-51822400I-249999J0D01*
G01*
X225914799Y-51822400D01*
G75*
G02*
X225664800Y-51572401I0J249999D01*
G01*
X225664800Y-50872399D01*
G75*
G02*
X225914799Y-50622400I249999J0D01*
G01*
G37*
%TD.AperFunction*%
%TO.P,R82,2*%
%TO.N,GND*%
%TA.AperFunction,SMDPad,CuDef*%
G36*
G01*
X225914799Y-52622400D02*
X226814801Y-52622400D01*
G75*
G02*
X227064800Y-52872399I0J-249999D01*
G01*
X227064800Y-53572401D01*
G75*
G02*
X226814801Y-53822400I-249999J0D01*
G01*
X225914799Y-53822400D01*
G75*
G02*
X225664800Y-53572401I0J249999D01*
G01*
X225664800Y-52872399D01*
G75*
G02*
X225914799Y-52622400I249999J0D01*
G01*
G37*
%TD.AperFunction*%
%TD*%
%TO.P,R83,1*%
%TO.N,Net-(Q15-Pad2)*%
%TA.AperFunction,SMDPad,CuDef*%
G36*
G01*
X223002400Y-59443199D02*
X223002400Y-60343201D01*
G75*
G02*
X222752401Y-60593200I-249999J0D01*
G01*
X222052399Y-60593200D01*
G75*
G02*
X221802400Y-60343201I0J249999D01*
G01*
X221802400Y-59443199D01*
G75*
G02*
X222052399Y-59193200I249999J0D01*
G01*
X222752401Y-59193200D01*
G75*
G02*
X223002400Y-59443199I0J-249999D01*
G01*
G37*
%TD.AperFunction*%
%TO.P,R83,2*%
%TO.N,Net-(JP2-Pad1)*%
%TA.AperFunction,SMDPad,CuDef*%
G36*
G01*
X221002400Y-59443199D02*
X221002400Y-60343201D01*
G75*
G02*
X220752401Y-60593200I-249999J0D01*
G01*
X220052399Y-60593200D01*
G75*
G02*
X219802400Y-60343201I0J249999D01*
G01*
X219802400Y-59443199D01*
G75*
G02*
X220052399Y-59193200I249999J0D01*
G01*
X220752401Y-59193200D01*
G75*
G02*
X221002400Y-59443199I0J-249999D01*
G01*
G37*
%TD.AperFunction*%
%TD*%
%TO.P,R84,1*%
%TO.N,Net-(Q15-Pad2)*%
%TA.AperFunction,SMDPad,CuDef*%
G36*
G01*
X226168799Y-59309200D02*
X227068801Y-59309200D01*
G75*
G02*
X227318800Y-59559199I0J-249999D01*
G01*
X227318800Y-60259201D01*
G75*
G02*
X227068801Y-60509200I-249999J0D01*
G01*
X226168799Y-60509200D01*
G75*
G02*
X225918800Y-60259201I0J249999D01*
G01*
X225918800Y-59559199D01*
G75*
G02*
X226168799Y-59309200I249999J0D01*
G01*
G37*
%TD.AperFunction*%
%TO.P,R84,2*%
%TO.N,GND*%
%TA.AperFunction,SMDPad,CuDef*%
G36*
G01*
X226168799Y-61309200D02*
X227068801Y-61309200D01*
G75*
G02*
X227318800Y-61559199I0J-249999D01*
G01*
X227318800Y-62259201D01*
G75*
G02*
X227068801Y-62509200I-249999J0D01*
G01*
X226168799Y-62509200D01*
G75*
G02*
X225918800Y-62259201I0J249999D01*
G01*
X225918800Y-61559199D01*
G75*
G02*
X226168799Y-61309200I249999J0D01*
G01*
G37*
%TD.AperFunction*%
%TD*%
%TO.P,R85,2*%
%TO.N,GND*%
%TA.AperFunction,SMDPad,CuDef*%
G36*
G01*
X226219599Y-69377000D02*
X227119601Y-69377000D01*
G75*
G02*
X227369600Y-69626999I0J-249999D01*
G01*
X227369600Y-70327001D01*
G75*
G02*
X227119601Y-70577000I-249999J0D01*
G01*
X226219599Y-70577000D01*
G75*
G02*
X225969600Y-70327001I0J249999D01*
G01*
X225969600Y-69626999D01*
G75*
G02*
X226219599Y-69377000I249999J0D01*
G01*
G37*
%TD.AperFunction*%
%TO.P,R85,1*%
%TO.N,Net-(Q16-Pad2)*%
%TA.AperFunction,SMDPad,CuDef*%
G36*
G01*
X226219599Y-67377000D02*
X227119601Y-67377000D01*
G75*
G02*
X227369600Y-67626999I0J-249999D01*
G01*
X227369600Y-68327001D01*
G75*
G02*
X227119601Y-68577000I-249999J0D01*
G01*
X226219599Y-68577000D01*
G75*
G02*
X225969600Y-68327001I0J249999D01*
G01*
X225969600Y-67626999D01*
G75*
G02*
X226219599Y-67377000I249999J0D01*
G01*
G37*
%TD.AperFunction*%
%TD*%
%TO.P,R87,2*%
%TO.N,GND*%
%TA.AperFunction,SMDPad,CuDef*%
G36*
G01*
X226346599Y-77022400D02*
X227246601Y-77022400D01*
G75*
G02*
X227496600Y-77272399I0J-249999D01*
G01*
X227496600Y-77972401D01*
G75*
G02*
X227246601Y-78222400I-249999J0D01*
G01*
X226346599Y-78222400D01*
G75*
G02*
X226096600Y-77972401I0J249999D01*
G01*
X226096600Y-77272399D01*
G75*
G02*
X226346599Y-77022400I249999J0D01*
G01*
G37*
%TD.AperFunction*%
%TO.P,R87,1*%
%TO.N,Net-(Q17-Pad2)*%
%TA.AperFunction,SMDPad,CuDef*%
G36*
G01*
X226346599Y-75022400D02*
X227246601Y-75022400D01*
G75*
G02*
X227496600Y-75272399I0J-249999D01*
G01*
X227496600Y-75972401D01*
G75*
G02*
X227246601Y-76222400I-249999J0D01*
G01*
X226346599Y-76222400D01*
G75*
G02*
X226096600Y-75972401I0J249999D01*
G01*
X226096600Y-75272399D01*
G75*
G02*
X226346599Y-75022400I249999J0D01*
G01*
G37*
%TD.AperFunction*%
%TD*%
%TO.P,R88,1*%
%TO.N,Net-(Q17-Pad2)*%
%TA.AperFunction,SMDPad,CuDef*%
G36*
G01*
X222808600Y-75114999D02*
X222808600Y-76015001D01*
G75*
G02*
X222558601Y-76265000I-249999J0D01*
G01*
X221858599Y-76265000D01*
G75*
G02*
X221608600Y-76015001I0J249999D01*
G01*
X221608600Y-75114999D01*
G75*
G02*
X221858599Y-74865000I249999J0D01*
G01*
X222558601Y-74865000D01*
G75*
G02*
X222808600Y-75114999I0J-249999D01*
G01*
G37*
%TD.AperFunction*%
%TO.P,R88,2*%
%TO.N,Net-(JP4-Pad1)*%
%TA.AperFunction,SMDPad,CuDef*%
G36*
G01*
X220808600Y-75114999D02*
X220808600Y-76015001D01*
G75*
G02*
X220558601Y-76265000I-249999J0D01*
G01*
X219858599Y-76265000D01*
G75*
G02*
X219608600Y-76015001I0J249999D01*
G01*
X219608600Y-75114999D01*
G75*
G02*
X219858599Y-74865000I249999J0D01*
G01*
X220558601Y-74865000D01*
G75*
G02*
X220808600Y-75114999I0J-249999D01*
G01*
G37*
%TD.AperFunction*%
%TD*%
%TO.P,R89,2*%
%TO.N,Net-(D51-Pad1)*%
%TA.AperFunction,SMDPad,CuDef*%
G36*
G01*
X236670001Y-113036400D02*
X235769999Y-113036400D01*
G75*
G02*
X235520000Y-112786401I0J249999D01*
G01*
X235520000Y-112086399D01*
G75*
G02*
X235769999Y-111836400I249999J0D01*
G01*
X236670001Y-111836400D01*
G75*
G02*
X236920000Y-112086399I0J-249999D01*
G01*
X236920000Y-112786401D01*
G75*
G02*
X236670001Y-113036400I-249999J0D01*
G01*
G37*
%TD.AperFunction*%
%TO.P,R89,1*%
%TO.N,Net-(C19-Pad1)*%
%TA.AperFunction,SMDPad,CuDef*%
G36*
G01*
X236670001Y-115036400D02*
X235769999Y-115036400D01*
G75*
G02*
X235520000Y-114786401I0J249999D01*
G01*
X235520000Y-114086399D01*
G75*
G02*
X235769999Y-113836400I249999J0D01*
G01*
X236670001Y-113836400D01*
G75*
G02*
X236920000Y-114086399I0J-249999D01*
G01*
X236920000Y-114786401D01*
G75*
G02*
X236670001Y-115036400I-249999J0D01*
G01*
G37*
%TD.AperFunction*%
%TD*%
%TO.P,R90,1*%
%TO.N,Net-(C19-Pad1)*%
%TA.AperFunction,SMDPad,CuDef*%
G36*
G01*
X235601200Y-119601401D02*
X235601200Y-118701399D01*
G75*
G02*
X235851199Y-118451400I249999J0D01*
G01*
X236551201Y-118451400D01*
G75*
G02*
X236801200Y-118701399I0J-249999D01*
G01*
X236801200Y-119601401D01*
G75*
G02*
X236551201Y-119851400I-249999J0D01*
G01*
X235851199Y-119851400D01*
G75*
G02*
X235601200Y-119601401I0J249999D01*
G01*
G37*
%TD.AperFunction*%
%TO.P,R90,2*%
%TO.N,VCC*%
%TA.AperFunction,SMDPad,CuDef*%
G36*
G01*
X237601200Y-119601401D02*
X237601200Y-118701399D01*
G75*
G02*
X237851199Y-118451400I249999J0D01*
G01*
X238551201Y-118451400D01*
G75*
G02*
X238801200Y-118701399I0J-249999D01*
G01*
X238801200Y-119601401D01*
G75*
G02*
X238551201Y-119851400I-249999J0D01*
G01*
X237851199Y-119851400D01*
G75*
G02*
X237601200Y-119601401I0J249999D01*
G01*
G37*
%TD.AperFunction*%
%TD*%
%TO.P,R91,1*%
%TO.N,Net-(C20-Pad1)*%
%TA.AperFunction,SMDPad,CuDef*%
G36*
G01*
X213757200Y-149370201D02*
X213757200Y-148470199D01*
G75*
G02*
X214007199Y-148220200I249999J0D01*
G01*
X214707201Y-148220200D01*
G75*
G02*
X214957200Y-148470199I0J-249999D01*
G01*
X214957200Y-149370201D01*
G75*
G02*
X214707201Y-149620200I-249999J0D01*
G01*
X214007199Y-149620200D01*
G75*
G02*
X213757200Y-149370201I0J249999D01*
G01*
G37*
%TD.AperFunction*%
%TO.P,R91,2*%
%TO.N,Net-(D52-Pad1)*%
%TA.AperFunction,SMDPad,CuDef*%
G36*
G01*
X215757200Y-149370201D02*
X215757200Y-148470199D01*
G75*
G02*
X216007199Y-148220200I249999J0D01*
G01*
X216707201Y-148220200D01*
G75*
G02*
X216957200Y-148470199I0J-249999D01*
G01*
X216957200Y-149370201D01*
G75*
G02*
X216707201Y-149620200I-249999J0D01*
G01*
X216007199Y-149620200D01*
G75*
G02*
X215757200Y-149370201I0J249999D01*
G01*
G37*
%TD.AperFunction*%
%TD*%
%TO.P,R92,1*%
%TO.N,Net-(JP5-Pad3)*%
%TA.AperFunction,SMDPad,CuDef*%
G36*
G01*
X230175000Y-119576001D02*
X230175000Y-118675999D01*
G75*
G02*
X230424999Y-118426000I249999J0D01*
G01*
X231125001Y-118426000D01*
G75*
G02*
X231375000Y-118675999I0J-249999D01*
G01*
X231375000Y-119576001D01*
G75*
G02*
X231125001Y-119826000I-249999J0D01*
G01*
X230424999Y-119826000D01*
G75*
G02*
X230175000Y-119576001I0J249999D01*
G01*
G37*
%TD.AperFunction*%
%TO.P,R92,2*%
%TO.N,Net-(C19-Pad1)*%
%TA.AperFunction,SMDPad,CuDef*%
G36*
G01*
X232175000Y-119576001D02*
X232175000Y-118675999D01*
G75*
G02*
X232424999Y-118426000I249999J0D01*
G01*
X233125001Y-118426000D01*
G75*
G02*
X233375000Y-118675999I0J-249999D01*
G01*
X233375000Y-119576001D01*
G75*
G02*
X233125001Y-119826000I-249999J0D01*
G01*
X232424999Y-119826000D01*
G75*
G02*
X232175000Y-119576001I0J249999D01*
G01*
G37*
%TD.AperFunction*%
%TD*%
%TO.P,R93,1*%
%TO.N,Net-(C20-Pad1)*%
%TA.AperFunction,SMDPad,CuDef*%
G36*
G01*
X204539001Y-149164600D02*
X203638999Y-149164600D01*
G75*
G02*
X203389000Y-148914601I0J249999D01*
G01*
X203389000Y-148214599D01*
G75*
G02*
X203638999Y-147964600I249999J0D01*
G01*
X204539001Y-147964600D01*
G75*
G02*
X204789000Y-148214599I0J-249999D01*
G01*
X204789000Y-148914601D01*
G75*
G02*
X204539001Y-149164600I-249999J0D01*
G01*
G37*
%TD.AperFunction*%
%TO.P,R93,2*%
%TO.N,VCC*%
%TA.AperFunction,SMDPad,CuDef*%
G36*
G01*
X204539001Y-147164600D02*
X203638999Y-147164600D01*
G75*
G02*
X203389000Y-146914601I0J249999D01*
G01*
X203389000Y-146214599D01*
G75*
G02*
X203638999Y-145964600I249999J0D01*
G01*
X204539001Y-145964600D01*
G75*
G02*
X204789000Y-146214599I0J-249999D01*
G01*
X204789000Y-146914601D01*
G75*
G02*
X204539001Y-147164600I-249999J0D01*
G01*
G37*
%TD.AperFunction*%
%TD*%
%TO.P,R94,2*%
%TO.N,Net-(C20-Pad1)*%
%TA.AperFunction,SMDPad,CuDef*%
G36*
G01*
X208981600Y-141916999D02*
X208981600Y-142817001D01*
G75*
G02*
X208731601Y-143067000I-249999J0D01*
G01*
X208031599Y-143067000D01*
G75*
G02*
X207781600Y-142817001I0J249999D01*
G01*
X207781600Y-141916999D01*
G75*
G02*
X208031599Y-141667000I249999J0D01*
G01*
X208731601Y-141667000D01*
G75*
G02*
X208981600Y-141916999I0J-249999D01*
G01*
G37*
%TD.AperFunction*%
%TO.P,R94,1*%
%TO.N,Net-(JP4-Pad3)*%
%TA.AperFunction,SMDPad,CuDef*%
G36*
G01*
X210981600Y-141916999D02*
X210981600Y-142817001D01*
G75*
G02*
X210731601Y-143067000I-249999J0D01*
G01*
X210031599Y-143067000D01*
G75*
G02*
X209781600Y-142817001I0J249999D01*
G01*
X209781600Y-141916999D01*
G75*
G02*
X210031599Y-141667000I249999J0D01*
G01*
X210731601Y-141667000D01*
G75*
G02*
X210981600Y-141916999I0J-249999D01*
G01*
G37*
%TD.AperFunction*%
%TD*%
%TO.P,R86,1*%
%TO.N,Net-(Q16-Pad2)*%
%TA.AperFunction,SMDPad,CuDef*%
G36*
G01*
X223100000Y-67549999D02*
X223100000Y-68450001D01*
G75*
G02*
X222850001Y-68700000I-249999J0D01*
G01*
X222149999Y-68700000D01*
G75*
G02*
X221900000Y-68450001I0J249999D01*
G01*
X221900000Y-67549999D01*
G75*
G02*
X222149999Y-67300000I249999J0D01*
G01*
X222850001Y-67300000D01*
G75*
G02*
X223100000Y-67549999I0J-249999D01*
G01*
G37*
%TD.AperFunction*%
%TO.P,R86,2*%
%TO.N,Net-(JP5-Pad1)*%
%TA.AperFunction,SMDPad,CuDef*%
G36*
G01*
X221100000Y-67549999D02*
X221100000Y-68450001D01*
G75*
G02*
X220850001Y-68700000I-249999J0D01*
G01*
X220149999Y-68700000D01*
G75*
G02*
X219900000Y-68450001I0J249999D01*
G01*
X219900000Y-67549999D01*
G75*
G02*
X220149999Y-67300000I249999J0D01*
G01*
X220850001Y-67300000D01*
G75*
G02*
X221100000Y-67549999I0J-249999D01*
G01*
G37*
%TD.AperFunction*%
%TD*%
%TO.P,R95,1*%
%TO.N,VCC*%
%TA.AperFunction,SMDPad,CuDef*%
G36*
G01*
X120650000Y-126975000D02*
X120650000Y-128225000D01*
G75*
G02*
X120400000Y-128475000I-250000J0D01*
G01*
X119600000Y-128475000D01*
G75*
G02*
X119350000Y-128225000I0J250000D01*
G01*
X119350000Y-126975000D01*
G75*
G02*
X119600000Y-126725000I250000J0D01*
G01*
X120400000Y-126725000D01*
G75*
G02*
X120650000Y-126975000I0J-250000D01*
G01*
G37*
%TD.AperFunction*%
%TO.P,R95,2*%
%TO.N,Net-(C5-Pad1)*%
%TA.AperFunction,SMDPad,CuDef*%
G36*
G01*
X117550000Y-126975000D02*
X117550000Y-128225000D01*
G75*
G02*
X117300000Y-128475000I-250000J0D01*
G01*
X116500000Y-128475000D01*
G75*
G02*
X116250000Y-128225000I0J250000D01*
G01*
X116250000Y-126975000D01*
G75*
G02*
X116500000Y-126725000I250000J0D01*
G01*
X117300000Y-126725000D01*
G75*
G02*
X117550000Y-126975000I0J-250000D01*
G01*
G37*
%TD.AperFunction*%
%TD*%
D14*
%TO.P,J27,2*%
%TO.N,VCC*%
X75200000Y-188900000D03*
D15*
%TO.P,J27,1*%
%TO.N,GND*%
X75200000Y-183900000D03*
%TD*%
D22*
%TO.P,J2,1*%
%TO.N,Net-(J2-Pad1)*%
X129500000Y-104960000D03*
D23*
%TO.P,J2,2*%
%TO.N,Net-(J2-Pad2)*%
X129500000Y-107500000D03*
%TO.P,J2,3*%
%TO.N,GND*%
X129500000Y-110040000D03*
%TO.P,J2,4*%
%TO.N,VCC*%
X129500000Y-112580000D03*
%TO.P,J2,5*%
%TO.N,/Logique/Vpp*%
X129500000Y-115120000D03*
%TD*%
D24*
%TO.P,BZ1,1*%
%TO.N,Net-(BZ1-Pad1)*%
X191148400Y-75030800D03*
%TO.P,BZ1,2*%
%TO.N,Net-(BZ1-Pad2)*%
X176848400Y-75030800D03*
%TD*%
D25*
%TO.N,GND*%
X93000000Y-53500000D03*
X77000000Y-53500000D03*
X100000000Y-53500000D03*
X104000000Y-53500000D03*
X92500000Y-43500000D03*
X115500000Y-54500000D03*
X252500000Y-47500000D03*
X260500000Y-47500000D03*
X268500000Y-47500000D03*
X269000000Y-93000000D03*
X270000000Y-119000000D03*
X269500000Y-131500000D03*
X269000000Y-106000000D03*
X269000000Y-144000000D03*
X268562800Y-157062800D03*
X269000000Y-170500000D03*
X119000000Y-54500000D03*
X105500000Y-110500000D03*
X102750000Y-112250000D03*
X76300000Y-103300000D03*
X76000000Y-108000000D03*
X76000000Y-113500000D03*
X108000000Y-111000000D03*
X113000000Y-108500000D03*
X125000000Y-111000000D03*
X177038000Y-93462000D03*
X159217600Y-89782400D03*
X226669600Y-71330400D03*
X231500000Y-71500000D03*
X226796600Y-79203400D03*
X231000000Y-79000000D03*
X247500000Y-79500000D03*
X226364800Y-54864800D03*
X231500000Y-55000000D03*
X226618800Y-63881200D03*
X231500000Y-64000000D03*
X84000000Y-164000000D03*
X149000000Y-163500000D03*
X149000000Y-167500000D03*
X127500000Y-164000000D03*
X127500000Y-167500000D03*
X170500000Y-164500000D03*
X170500000Y-167500000D03*
X191000000Y-164000000D03*
X191000000Y-167500000D03*
X208000000Y-164000000D03*
X208000000Y-167500000D03*
X227500000Y-163500000D03*
X227500000Y-167500000D03*
X248839600Y-130339600D03*
X232943400Y-128443400D03*
X249000000Y-168000000D03*
X232613200Y-151886800D03*
X245000000Y-143500000D03*
X247839600Y-154839600D03*
X105500000Y-163500000D03*
X105500000Y-167500000D03*
X208457800Y-122042200D03*
X176000000Y-131500000D03*
X170000000Y-125000000D03*
X206500000Y-152000000D03*
X250500000Y-92000000D03*
X248839600Y-104339600D03*
X248839600Y-116839600D03*
D26*
%TO.N,+12V*%
X110500000Y-173500000D03*
X123500000Y-174500000D03*
X132500000Y-173500000D03*
X145700000Y-173800000D03*
X154500000Y-173500000D03*
X166500000Y-174000000D03*
X173000000Y-174000000D03*
X179500000Y-182500000D03*
X179500000Y-175000000D03*
X192975000Y-173475000D03*
X200000000Y-175000000D03*
X232500000Y-175000000D03*
X238000000Y-175000000D03*
X212000000Y-176500000D03*
X217500000Y-175500000D03*
X208500000Y-180500000D03*
X89500000Y-176000000D03*
X100000000Y-176000000D03*
X224000000Y-168500000D03*
X224500000Y-92500000D03*
X211500000Y-85500000D03*
X234500000Y-43000000D03*
%TO.N,Net-(C4-Pad2)*%
X86865000Y-113135000D03*
X86865000Y-109865000D03*
D25*
%TO.N,VCC*%
X155594400Y-82905600D03*
X159000000Y-94000000D03*
X237534200Y-144965800D03*
X241339600Y-148160400D03*
X241839600Y-162160400D03*
X204089000Y-144089000D03*
X166500000Y-125000000D03*
X160500000Y-127500000D03*
X206000000Y-128000000D03*
X238500000Y-123000000D03*
X242839600Y-106660400D03*
X240637200Y-71862800D03*
X241025000Y-84862800D03*
X238137200Y-93362800D03*
X241339600Y-133160400D03*
X126200000Y-127600000D03*
X115175000Y-99475000D03*
D26*
X123000000Y-127600000D03*
X124350000Y-127600000D03*
%TO.N,/Logique/Vpp*%
X155000000Y-125000000D03*
X140500000Y-121500000D03*
%TO.N,Net-(D20-Pad1)*%
X215000000Y-177000000D03*
X224000000Y-177500000D03*
%TO.N,Net-(J3-Pad4)*%
X204500000Y-112500000D03*
X206500000Y-93000000D03*
X206500000Y-83000000D03*
X217500000Y-37000000D03*
%TO.N,Net-(J3-Pad3)*%
X238500000Y-51000000D03*
X239000000Y-74500000D03*
%TO.N,Net-(J4-Pad3)*%
X177500000Y-100000000D03*
X199500000Y-32000000D03*
%TO.N,Net-(J4-Pad4)*%
X177000000Y-104000000D03*
X194000000Y-35500000D03*
%TO.N,Net-(J25-Pad2)*%
X117000000Y-34500000D03*
X112500000Y-34500000D03*
%TO.N,Net-(R1-Pad2)*%
X79500000Y-113000000D03*
X83500000Y-107500000D03*
X93000000Y-108500000D03*
%TO.N,Net-(R3-Pad2)*%
X94200000Y-117600000D03*
X94200000Y-113600000D03*
%TO.N,Rel8*%
X177000000Y-123000000D03*
X171000000Y-122000000D03*
%TO.N,IN1*%
X220500000Y-145000000D03*
X214500000Y-132500000D03*
%TO.N,IN3*%
X192260000Y-102260000D03*
X198500000Y-108500000D03*
X206000000Y-115000000D03*
X224512653Y-146487347D03*
%TO.N,IN4*%
X187500000Y-104000000D03*
X196012653Y-108512653D03*
X196012653Y-113487347D03*
X216500000Y-130000000D03*
%TO.N,IN6*%
X202500000Y-98500000D03*
X239500000Y-89000000D03*
%TO.N,AN1*%
X156000000Y-89000000D03*
X138000000Y-51000000D03*
%TO.N,AN2*%
X151500000Y-81500000D03*
X154000000Y-85500000D03*
%TO.N,AN4*%
X150500000Y-72000000D03*
X157000000Y-61000000D03*
%TO.N,C2*%
X137500000Y-108000000D03*
X116500000Y-61500000D03*
X115000000Y-43500000D03*
X102000000Y-43500000D03*
%TO.N,C3*%
X137000000Y-109500000D03*
X112500000Y-48000000D03*
%TO.N,C4*%
X135000000Y-110000000D03*
X133000000Y-90000000D03*
X126000000Y-49000000D03*
X123000000Y-49000000D03*
%TO.N,Net-(BZ1-Pad1)*%
X166827600Y-93827600D03*
X185000000Y-75500000D03*
%TO.N,Net-(D44-Pad1)*%
X256362200Y-64362200D03*
X244000000Y-65000000D03*
X236500000Y-65000000D03*
X236500000Y-84000000D03*
X233000000Y-96000000D03*
X232737042Y-104262347D03*
X241000000Y-119500000D03*
X237000000Y-134000000D03*
%TO.N,Net-(D44-Pad2)*%
X242000000Y-56500000D03*
X256500000Y-52000000D03*
X252000000Y-39500000D03*
%TO.N,Net-(D45-Pad1)*%
X229000000Y-106500000D03*
X242000000Y-62500000D03*
%TO.N,Net-(D49-Pad1)*%
X267000000Y-50500000D03*
X267000000Y-39000000D03*
%TO.N,Net-(D51-Pad1)*%
X263000000Y-65500000D03*
X258500000Y-78000000D03*
X258500000Y-87000000D03*
X236000000Y-109500000D03*
%TO.N,Net-(D52-Pad1)*%
X220012653Y-136987347D03*
X220000000Y-125000000D03*
X229725000Y-104987347D03*
X272000000Y-67500000D03*
%TO.N,Net-(JP2-Pad1)*%
X215000000Y-65000000D03*
X225500000Y-88000000D03*
X225500000Y-96000000D03*
X225500000Y-133500000D03*
%TO.N,GPIO4*%
X201000000Y-108000000D03*
X179947347Y-99675010D03*
%TO.N,Net-(JP3-Pad1)*%
X214500000Y-80775000D03*
X216000000Y-87500000D03*
X216000000Y-95500000D03*
X216000000Y-108000000D03*
%TO.N,Net-(JP4-Pad1)*%
X219000000Y-135500000D03*
X219000000Y-125000000D03*
X219000000Y-101000000D03*
X217500000Y-78000000D03*
%TO.N,Net-(JP5-Pad1)*%
X210000000Y-80000000D03*
X209500000Y-87500000D03*
X214000000Y-96000000D03*
X214000000Y-101000000D03*
%TO.N,Net-(R74-Pad2)*%
X157500000Y-98500000D03*
X149500000Y-98500000D03*
%TO.N,Net-(C5-Pad1)*%
X103200000Y-117500000D03*
X103700000Y-107800000D03*
%TD*%
D27*
%TO.N,GND*%
X77200000Y-49500000D02*
X77200000Y-53300000D01*
X90650001Y-51600001D02*
X90650001Y-52650001D01*
X90500000Y-51450000D02*
X90650001Y-51600001D01*
X90650001Y-52650001D02*
X91500000Y-53500000D01*
X94500000Y-53500000D02*
X96500000Y-51500000D01*
X96500000Y-51500000D02*
X96500000Y-52500000D01*
X96500000Y-52500000D02*
X97500000Y-53500000D01*
X97500000Y-53500000D02*
X99500000Y-53500000D01*
X100000000Y-51450000D02*
X100000000Y-53000000D01*
X106000000Y-51500000D02*
X106000000Y-52500000D01*
X106000000Y-52500000D02*
X105000000Y-53500000D01*
X109000000Y-51400000D02*
X109000000Y-52500000D01*
X108000000Y-53500000D02*
X105000000Y-53500000D01*
X109000000Y-52500000D02*
X108000000Y-53500000D01*
X91500000Y-53500000D02*
X93000000Y-53500000D01*
X93000000Y-53500000D02*
X94500000Y-53500000D01*
X77200000Y-53300000D02*
X77000000Y-53500000D01*
X100000000Y-53500000D02*
X99750000Y-53250000D01*
X99750000Y-53250000D02*
X99500000Y-53500000D01*
X100000000Y-53000000D02*
X99750000Y-53250000D01*
X100000000Y-53500000D02*
X99500000Y-53500000D01*
X105000000Y-53500000D02*
X104000000Y-53500000D01*
X104000000Y-53500000D02*
X100000000Y-53500000D01*
X92500000Y-46000000D02*
X92500000Y-43500000D01*
X115500000Y-51500000D02*
X115500000Y-54000000D01*
X115500000Y-54000000D02*
X115500000Y-54500000D01*
X148200000Y-27200000D02*
X148000000Y-27000000D01*
X148200000Y-37500000D02*
X148200000Y-27200000D01*
X161700000Y-27200000D02*
X161500000Y-27000000D01*
X161700000Y-37500000D02*
X161700000Y-27200000D01*
X134200000Y-27200000D02*
X134000000Y-27000000D01*
X134200000Y-37500000D02*
X134200000Y-27200000D01*
X177200000Y-27700000D02*
X176500000Y-27000000D01*
X177200000Y-38000000D02*
X177200000Y-27700000D01*
X247853200Y-42882800D02*
X247853200Y-44353200D01*
X247853200Y-44353200D02*
X251000000Y-47500000D01*
X255727200Y-45772800D02*
X255727200Y-42882800D01*
X254000000Y-47500000D02*
X255727200Y-45772800D01*
X255727200Y-45772800D02*
X255727200Y-46227200D01*
X255727200Y-46227200D02*
X257000000Y-47500000D01*
X263474200Y-46025800D02*
X263474200Y-42849800D01*
X262000000Y-47500000D02*
X263474200Y-46025800D01*
X263474200Y-42849800D02*
X263474200Y-45974200D01*
X263474200Y-45974200D02*
X265000000Y-47500000D01*
X270500000Y-43680200D02*
X271373600Y-42806600D01*
X270500000Y-47500000D02*
X270500000Y-43680200D01*
X251000000Y-47500000D02*
X252500000Y-47500000D01*
X252500000Y-47500000D02*
X254000000Y-47500000D01*
X260000000Y-47500000D02*
X260500000Y-47500000D01*
X257000000Y-47500000D02*
X260000000Y-47500000D01*
X260000000Y-47500000D02*
X262000000Y-47500000D01*
X265000000Y-47500000D02*
X268500000Y-47500000D01*
X268500000Y-47500000D02*
X270500000Y-47500000D01*
X273139600Y-93062800D02*
X273839600Y-92362800D01*
X268937200Y-93062800D02*
X269000000Y-93000000D01*
X268562800Y-93062800D02*
X268937200Y-93062800D01*
X264839600Y-93062800D02*
X268562800Y-93062800D01*
X268562800Y-93062800D02*
X273139600Y-93062800D01*
X273139600Y-119062800D02*
X273839600Y-118362800D01*
X269937200Y-119062800D02*
X270000000Y-119000000D01*
X264839600Y-119062800D02*
X269937200Y-119062800D01*
X269937200Y-119062800D02*
X273139600Y-119062800D01*
X273639600Y-131562800D02*
X273839600Y-131362800D01*
X269437200Y-131562800D02*
X269500000Y-131500000D01*
X264839600Y-131562800D02*
X269437200Y-131562800D01*
X269437200Y-131562800D02*
X273639600Y-131562800D01*
X273139600Y-106062800D02*
X273839600Y-105362800D01*
X269062800Y-106062800D02*
X269000000Y-106000000D01*
X269437200Y-106062800D02*
X269062800Y-106062800D01*
X264839600Y-106062800D02*
X269437200Y-106062800D01*
X269437200Y-106062800D02*
X273139600Y-106062800D01*
X273539600Y-144062800D02*
X273839600Y-144362800D01*
X269062800Y-144062800D02*
X269000000Y-144000000D01*
X264839600Y-144062800D02*
X269062800Y-144062800D01*
X269062800Y-144062800D02*
X273539600Y-144062800D01*
X272437200Y-157062800D02*
X268562800Y-157062800D01*
X264839600Y-157062800D02*
X268562800Y-157062800D01*
X273639600Y-170562800D02*
X273839600Y-170362800D01*
X269062800Y-170562800D02*
X269000000Y-170500000D01*
X269562800Y-170562800D02*
X269062800Y-170562800D01*
X264839600Y-170562800D02*
X269562800Y-170562800D01*
X269562800Y-170562800D02*
X273639600Y-170562800D01*
X134200000Y-42200000D02*
X135000000Y-43000000D01*
X134200000Y-37500000D02*
X134200000Y-42200000D01*
X148200000Y-42700000D02*
X148500000Y-43000000D01*
X148200000Y-37500000D02*
X148200000Y-42700000D01*
X161700000Y-43300000D02*
X161500000Y-43500000D01*
X161700000Y-37500000D02*
X161700000Y-43300000D01*
X177200000Y-42700000D02*
X177500000Y-43000000D01*
X177200000Y-38000000D02*
X177200000Y-42700000D01*
X118950000Y-51500000D02*
X119000000Y-51450000D01*
X115500000Y-51500000D02*
X118950000Y-51500000D01*
X119000000Y-51450000D02*
X119000000Y-54500000D01*
X105500000Y-113500000D02*
X105500000Y-110500000D01*
X96950000Y-113135000D02*
X97085000Y-113000000D01*
X95975000Y-113135000D02*
X96950000Y-113135000D01*
X97085000Y-113000000D02*
X101500000Y-113000000D01*
X101500000Y-113000000D02*
X101500000Y-110500000D01*
X101500000Y-113000000D02*
X102000000Y-113000000D01*
X103000000Y-112000000D02*
X103000000Y-110500000D01*
X103000000Y-110500000D02*
X105500000Y-110500000D01*
X101500000Y-110500000D02*
X103000000Y-110500000D01*
X101500000Y-110500000D02*
X102500000Y-111500000D01*
X102500000Y-111500000D02*
X102000000Y-112000000D01*
X102500000Y-112000000D02*
X102750000Y-112250000D01*
X102000000Y-112000000D02*
X102500000Y-112000000D01*
X102750000Y-112250000D02*
X103000000Y-112000000D01*
X102000000Y-113000000D02*
X102750000Y-112250000D01*
X76300000Y-103300000D02*
X78500000Y-105500000D01*
X76300000Y-98000000D02*
X76300000Y-103300000D01*
X76000000Y-108000000D02*
X76000000Y-110500000D01*
X78500000Y-105500000D02*
X76000000Y-108000000D01*
X76000000Y-118200000D02*
X76300000Y-118500000D01*
X76000000Y-110500000D02*
X76000000Y-113500000D01*
X76000000Y-113500000D02*
X76000000Y-118200000D01*
X114500000Y-109000000D02*
X114500000Y-113300000D01*
X114000000Y-108500000D02*
X114500000Y-109000000D01*
X109500000Y-109500000D02*
X109500000Y-108500000D01*
X105500000Y-113500000D02*
X108000000Y-111000000D01*
X108000000Y-111000000D02*
X109500000Y-109500000D01*
X109500000Y-108500000D02*
X113000000Y-108500000D01*
X113000000Y-108500000D02*
X114000000Y-108500000D01*
X129500000Y-110040000D02*
X125960000Y-110040000D01*
X125960000Y-110040000D02*
X125000000Y-111000000D01*
X125000000Y-111000000D02*
X123500000Y-112500000D01*
X177038000Y-91322400D02*
X177038000Y-93462000D01*
X162143400Y-89782400D02*
X159217600Y-89782400D01*
X226669600Y-69977000D02*
X226669600Y-71330400D01*
X231410000Y-69682400D02*
X231410000Y-71410000D01*
X231410000Y-71410000D02*
X231500000Y-71500000D01*
X226796600Y-77622400D02*
X226796600Y-79203400D01*
X231283000Y-78717000D02*
X231000000Y-79000000D01*
X231283000Y-77404000D02*
X231283000Y-78717000D01*
X273139600Y-80062800D02*
X273839600Y-79362800D01*
X264839600Y-80062800D02*
X273139600Y-80062800D01*
X249339600Y-77362800D02*
X249339600Y-77660400D01*
X249339600Y-77660400D02*
X247500000Y-79500000D01*
X226364800Y-53222400D02*
X226364800Y-54864800D01*
X231537000Y-53172400D02*
X231537000Y-54963000D01*
X231537000Y-54963000D02*
X231500000Y-55000000D01*
X226618800Y-61909200D02*
X226618800Y-63881200D01*
X231410000Y-63910000D02*
X231500000Y-64000000D01*
X231410000Y-61808400D02*
X231410000Y-63910000D01*
X86550000Y-164050000D02*
X86500000Y-164000000D01*
X86550000Y-167500000D02*
X86550000Y-164050000D01*
X86500000Y-164000000D02*
X84000000Y-164000000D01*
X109500000Y-167450000D02*
X109550000Y-167500000D01*
X151500000Y-163500000D02*
X149000000Y-163500000D01*
X151550000Y-167500000D02*
X149000000Y-167500000D01*
X130500000Y-164000000D02*
X127500000Y-164000000D01*
X130550000Y-167500000D02*
X127500000Y-167500000D01*
X173500000Y-164500000D02*
X170500000Y-164500000D01*
X173550000Y-167500000D02*
X170500000Y-167500000D01*
X193500000Y-164000000D02*
X191000000Y-164000000D01*
X193550000Y-167500000D02*
X191000000Y-167500000D01*
X210500000Y-164000000D02*
X208000000Y-164000000D01*
X210550000Y-167500000D02*
X208000000Y-167500000D01*
X230000000Y-163500000D02*
X227500000Y-163500000D01*
X231550000Y-167500000D02*
X227500000Y-167500000D01*
X248839600Y-128362800D02*
X248839600Y-130339600D01*
X232943400Y-125688600D02*
X232943400Y-128443400D01*
X249000000Y-165000000D02*
X249000000Y-168000000D01*
X232613200Y-148853400D02*
X232613200Y-151886800D01*
X247839600Y-141362800D02*
X247137200Y-141362800D01*
X247137200Y-141362800D02*
X245000000Y-143500000D01*
X247839600Y-152862800D02*
X247839600Y-154839600D01*
X109500000Y-163500000D02*
X105500000Y-163500000D01*
X109550000Y-167500000D02*
X105500000Y-167500000D01*
X208457800Y-123714000D02*
X208457800Y-122042200D01*
X170000000Y-136000000D02*
X168500000Y-137500000D01*
X170000000Y-131500000D02*
X170000000Y-136000000D01*
X170000000Y-131500000D02*
X176000000Y-131500000D01*
X168500000Y-122000000D02*
X168500000Y-123500000D01*
X168500000Y-123500000D02*
X170000000Y-125000000D01*
X210042200Y-150324400D02*
X208175600Y-150324400D01*
X208175600Y-150324400D02*
X206500000Y-152000000D01*
X248839600Y-89862800D02*
X248839600Y-90339600D01*
X248839600Y-90339600D02*
X250500000Y-92000000D01*
X248839600Y-102362800D02*
X248839600Y-104339600D01*
X248839600Y-115362800D02*
X248839600Y-116839600D01*
D28*
%TO.N,+12V*%
X72500000Y-42200000D02*
X84500000Y-42200000D01*
X72500000Y-48800000D02*
X71800000Y-49500000D01*
X72500000Y-42200000D02*
X72500000Y-48800000D01*
D29*
X82700000Y-103300000D02*
X80500000Y-105500000D01*
X82700000Y-98000000D02*
X82700000Y-103300000D01*
X80500000Y-109274999D02*
X81725001Y-110500000D01*
X80500000Y-105500000D02*
X80500000Y-109274999D01*
X81725001Y-110500000D02*
X81725001Y-111725001D01*
X81725001Y-111725001D02*
X82000000Y-112000000D01*
X90890000Y-112000000D02*
X91025000Y-111865000D01*
X82000000Y-112000000D02*
X90890000Y-112000000D01*
D28*
X71800000Y-49500000D02*
X71800000Y-67800000D01*
X71800000Y-67800000D02*
X82700000Y-78700000D01*
D29*
X130000000Y-173475000D02*
X124525000Y-173475000D01*
X123400000Y-174600000D02*
X123400000Y-180500000D01*
X124525000Y-173475000D02*
X123400000Y-174600000D01*
X123400000Y-185900000D02*
X126000000Y-188500000D01*
X123400000Y-180500000D02*
X123400000Y-185900000D01*
X151000000Y-173475000D02*
X146025000Y-173475000D01*
X145700000Y-173800000D02*
X145700000Y-180500000D01*
X146025000Y-173475000D02*
X145700000Y-173800000D01*
X219300000Y-180500000D02*
X219300000Y-175700000D01*
X221525000Y-173475000D02*
X229000000Y-173475000D01*
X101700000Y-186300000D02*
X104000000Y-188600000D01*
X101700000Y-181500000D02*
X101700000Y-186300000D01*
D28*
X82700000Y-88200000D02*
X75300000Y-88200000D01*
X82700000Y-78700000D02*
X82700000Y-88200000D01*
X82700000Y-88200000D02*
X82700000Y-98000000D01*
X75300000Y-88200000D02*
X71000000Y-92500000D01*
X71000000Y-152000000D02*
X76500000Y-157500000D01*
X71000000Y-92500000D02*
X71000000Y-152000000D01*
X76500000Y-157500000D02*
X76500000Y-169000000D01*
D29*
X103525000Y-173475000D02*
X108000000Y-173475000D01*
X101700000Y-175300000D02*
X103525000Y-173475000D01*
X108000000Y-173475000D02*
X110475000Y-173475000D01*
X110475000Y-173475000D02*
X110500000Y-173500000D01*
X130000000Y-173475000D02*
X132475000Y-173475000D01*
X132475000Y-173475000D02*
X132500000Y-173500000D01*
X170000000Y-173475000D02*
X167525000Y-173475000D01*
X166700000Y-174300000D02*
X166700000Y-180500000D01*
X167525000Y-173475000D02*
X166700000Y-174300000D01*
X151000000Y-173475000D02*
X154475000Y-173475000D01*
X154475000Y-173475000D02*
X154500000Y-173500000D01*
X166700000Y-187200000D02*
X168000000Y-188500000D01*
X166700000Y-180500000D02*
X166700000Y-187200000D01*
X183000000Y-182500000D02*
X189000000Y-188500000D01*
X183000000Y-182200000D02*
X183000000Y-182500000D01*
X170000000Y-173475000D02*
X172475000Y-173475000D01*
X172475000Y-173475000D02*
X173000000Y-174000000D01*
X179800000Y-182200000D02*
X179500000Y-182500000D01*
X183000000Y-182200000D02*
X179800000Y-182200000D01*
X181025000Y-173475000D02*
X179500000Y-175000000D01*
X190000000Y-173475000D02*
X181025000Y-173475000D01*
X190000000Y-173475000D02*
X192975000Y-173475000D01*
X201525000Y-173475000D02*
X200000000Y-175000000D01*
X209000000Y-173475000D02*
X201525000Y-173475000D01*
X242500000Y-175800000D02*
X245800000Y-175800000D01*
X249000000Y-179000000D02*
X249000000Y-188500000D01*
X245800000Y-175800000D02*
X249000000Y-179000000D01*
X229000000Y-173475000D02*
X230975000Y-173475000D01*
X230975000Y-173475000D02*
X232500000Y-175000000D01*
X238800000Y-175800000D02*
X238000000Y-175000000D01*
X242500000Y-175800000D02*
X238800000Y-175800000D01*
X209000000Y-173475000D02*
X209000000Y-173500000D01*
X209000000Y-173500000D02*
X212000000Y-176500000D01*
X219300000Y-180500000D02*
X219300000Y-177800000D01*
X217500000Y-175500000D02*
X219500000Y-175500000D01*
X219500000Y-175500000D02*
X221525000Y-173475000D01*
X219300000Y-175700000D02*
X219500000Y-175500000D01*
X219300000Y-180500000D02*
X219300000Y-181800000D01*
X219300000Y-181800000D02*
X221000000Y-183500000D01*
X221000000Y-183500000D02*
X228500000Y-183500000D01*
X229000000Y-184000000D02*
X229000000Y-188500000D01*
X228500000Y-183500000D02*
X229000000Y-184000000D01*
X145700000Y-186200000D02*
X148000000Y-188500000D01*
X145700000Y-180500000D02*
X145700000Y-186200000D01*
X205700000Y-180500000D02*
X206500000Y-180500000D01*
X209000000Y-183000000D02*
X209000000Y-188500000D01*
X206500000Y-180500000D02*
X209000000Y-183000000D01*
X205700000Y-180500000D02*
X208500000Y-180500000D01*
X101500000Y-176000000D02*
X101700000Y-176200000D01*
X100000000Y-176000000D02*
X101500000Y-176000000D01*
X101700000Y-176200000D02*
X101700000Y-175300000D01*
X101700000Y-181500000D02*
X101700000Y-176200000D01*
X229000000Y-173475000D02*
X228975000Y-173475000D01*
X228975000Y-173475000D02*
X224000000Y-168500000D01*
X224500000Y-92500000D02*
X217500000Y-85500000D01*
X217500000Y-85500000D02*
X211500000Y-85500000D01*
X239183800Y-43000000D02*
X239445800Y-42738000D01*
X234500000Y-43000000D02*
X239183800Y-43000000D01*
D28*
X76500000Y-169000000D02*
X76500000Y-169500000D01*
X76500000Y-169500000D02*
X79500000Y-172500000D01*
D29*
X86675000Y-173175000D02*
X89500000Y-176000000D01*
X84100000Y-173175000D02*
X86675000Y-173175000D01*
X83425000Y-172500000D02*
X84100000Y-173175000D01*
X79500000Y-172500000D02*
X83425000Y-172500000D01*
%TO.N,Net-(C3-Pad1)*%
X99405000Y-110595000D02*
X99500000Y-110500000D01*
X95975000Y-110595000D02*
X99405000Y-110595000D01*
%TO.N,Net-(C4-Pad1)*%
X90500000Y-105500000D02*
X90500000Y-107000000D01*
X91025000Y-107525000D02*
X91025000Y-110595000D01*
X90500000Y-107000000D02*
X91025000Y-107525000D01*
X95800000Y-105500000D02*
X96800000Y-104500000D01*
X90500000Y-105500000D02*
X95800000Y-105500000D01*
%TO.N,Net-(C4-Pad2)*%
X81700000Y-118500000D02*
X81700000Y-118300000D01*
X86865000Y-113135000D02*
X91025000Y-113135000D01*
X81700000Y-118300000D02*
X86865000Y-113135000D01*
X78200000Y-122000000D02*
X81700000Y-118500000D01*
X75500000Y-123000000D02*
X76500000Y-122000000D01*
X75500000Y-131000000D02*
X75500000Y-123000000D01*
X76500000Y-122000000D02*
X78200000Y-122000000D01*
X79950000Y-135450000D02*
X75500000Y-131000000D01*
X81000000Y-135450000D02*
X79950000Y-135450000D01*
X86865000Y-107135000D02*
X88500000Y-105500000D01*
X86865000Y-109865000D02*
X86865000Y-107135000D01*
D27*
%TO.N,VCC*%
X158232600Y-82905600D02*
X155594400Y-82905600D01*
X159172400Y-93827600D02*
X159000000Y-94000000D01*
X162042600Y-93827600D02*
X159172400Y-93827600D01*
X238201200Y-119151400D02*
X238628200Y-119151400D01*
X237534200Y-142367000D02*
X237534200Y-144965800D01*
X241339600Y-150862800D02*
X241339600Y-148160400D01*
X241839600Y-164862800D02*
X241839600Y-162160400D01*
X204089000Y-146564600D02*
X204089000Y-144089000D01*
X166500000Y-122000000D02*
X166500000Y-125000000D01*
X160500000Y-129500000D02*
X160500000Y-127500000D01*
X204089000Y-125714000D02*
X204089000Y-126089000D01*
X204089000Y-126089000D02*
X206000000Y-128000000D01*
X240238400Y-120761600D02*
X240238400Y-121261600D01*
X238628200Y-119151400D02*
X240238400Y-120761600D01*
X240238400Y-120761600D02*
X242339600Y-122862800D01*
X240238400Y-121261600D02*
X238500000Y-123000000D01*
X242839600Y-109862800D02*
X242839600Y-106660400D01*
X243839600Y-71862800D02*
X240637200Y-71862800D01*
X242839600Y-84862800D02*
X241137200Y-84862800D01*
X241137200Y-84862800D02*
X241025000Y-84862800D01*
X242839600Y-93362800D02*
X238137200Y-93362800D01*
X241339600Y-135862800D02*
X241339600Y-133160400D01*
X120000000Y-127600000D02*
X123000000Y-127600000D01*
X109500000Y-99475000D02*
X115175000Y-99475000D01*
X123000000Y-127600000D02*
X124350000Y-127600000D01*
X124350000Y-127600000D02*
X126200000Y-127600000D01*
D29*
%TO.N,/Logique/Vpp*%
X138120000Y-115120000D02*
X140500000Y-117500000D01*
X129500000Y-115120000D02*
X138120000Y-115120000D01*
X165000000Y-136000000D02*
X166500000Y-137500000D01*
X165000000Y-131500000D02*
X165000000Y-136000000D01*
X160500000Y-131500000D02*
X165000000Y-131500000D01*
X160500000Y-131500000D02*
X155000000Y-126000000D01*
X155000000Y-126000000D02*
X155000000Y-125000000D01*
X140500000Y-117500000D02*
X140500000Y-121500000D01*
%TO.N,Net-(C9-Pad1)*%
X243839600Y-164862800D02*
X243839600Y-168339600D01*
X243839600Y-168339600D02*
X243839600Y-169362800D01*
X246862800Y-164862800D02*
X247000000Y-165000000D01*
X243839600Y-164862800D02*
X246862800Y-164862800D01*
X248339600Y-160862800D02*
X247137200Y-160862800D01*
X247000000Y-161000000D02*
X247000000Y-165000000D01*
X247137200Y-160862800D02*
X247000000Y-161000000D01*
%TO.N,Net-(C10-Pad1)*%
X243339600Y-150862800D02*
X247839600Y-150862800D01*
X243339600Y-150862800D02*
X243339600Y-154862800D01*
X247839600Y-147862800D02*
X247839600Y-150862800D01*
%TO.N,Net-(C11-Pad1)*%
X247839600Y-135862800D02*
X243339600Y-135862800D01*
X243339600Y-135862800D02*
X243339600Y-140362800D01*
X247839600Y-135862800D02*
X247839600Y-139362800D01*
%TO.N,Net-(C12-Pad1)*%
X248339600Y-122862800D02*
X248839600Y-122362800D01*
X244339600Y-122862800D02*
X248339600Y-122862800D01*
X244339600Y-122862800D02*
X244339600Y-127362800D01*
X248839600Y-122362800D02*
X248839600Y-126362800D01*
%TO.N,Net-(C13-Pad1)*%
X248839600Y-109862800D02*
X244839600Y-109862800D01*
X244839600Y-109862800D02*
X244839600Y-113362800D01*
X248839600Y-109862800D02*
X248839600Y-113362800D01*
%TO.N,Net-(C14-Pad1)*%
X248839600Y-96862800D02*
X248839600Y-100362800D01*
X244839600Y-96862800D02*
X248839600Y-96862800D01*
X244839600Y-93362800D02*
X244839600Y-96862800D01*
%TO.N,Net-(C15-Pad1)*%
X248839600Y-87862800D02*
X248839600Y-84862800D01*
X248839600Y-84862800D02*
X244839600Y-84862800D01*
X244839600Y-84862800D02*
X244839600Y-88862800D01*
%TO.N,Net-(C16-Pad1)*%
X245839600Y-71862800D02*
X249339600Y-71862800D01*
X249339600Y-71862800D02*
X249339600Y-75362800D01*
X245839600Y-76362800D02*
X246637200Y-76362800D01*
X247637200Y-75362800D02*
X249339600Y-75362800D01*
X246637200Y-76362800D02*
X247637200Y-75362800D01*
D28*
%TO.N,Net-(D1-Pad1)*%
X85500000Y-27500000D02*
X76000000Y-27500000D01*
X72500000Y-31000000D02*
X72500000Y-36800000D01*
X76000000Y-27500000D02*
X72500000Y-31000000D01*
D29*
%TO.N,Net-(D5-Pad1)*%
X109500000Y-101525000D02*
X109500000Y-106500000D01*
%TO.N,Net-(D6-Pad1)*%
X84725000Y-175225000D02*
X90000000Y-180500000D01*
X84100000Y-175225000D02*
X84725000Y-175225000D01*
%TO.N,Net-(D7-Pad1)*%
X95300000Y-180500000D02*
X96300000Y-181500000D01*
X92000000Y-180500000D02*
X95300000Y-180500000D01*
X92000000Y-180500000D02*
X92000000Y-188600000D01*
X87500000Y-169500000D02*
X87500000Y-170500000D01*
X92000000Y-175000000D02*
X92000000Y-180500000D01*
X87500000Y-170500000D02*
X92000000Y-175000000D01*
%TO.N,Net-(D8-Pad1)*%
X108000000Y-175525000D02*
X108000000Y-179000000D01*
X109500000Y-180500000D02*
X112000000Y-180500000D01*
X108000000Y-179000000D02*
X109500000Y-180500000D01*
%TO.N,Net-(D9-Pad1)*%
X110500000Y-169500000D02*
X110500000Y-170500000D01*
X114000000Y-174000000D02*
X114000000Y-180500000D01*
X110500000Y-170500000D02*
X114000000Y-174000000D01*
X114000000Y-180500000D02*
X118000000Y-180500000D01*
X114000000Y-180500000D02*
X114000000Y-188500000D01*
%TO.N,Net-(D10-Pad1)*%
X130000000Y-175525000D02*
X130000000Y-179000000D01*
X131500000Y-180500000D02*
X134000000Y-180500000D01*
X130000000Y-179000000D02*
X131500000Y-180500000D01*
%TO.N,Net-(D11-Pad1)*%
X136000000Y-180500000D02*
X136000000Y-188500000D01*
X131500000Y-169500000D02*
X131500000Y-170000000D01*
X136000000Y-174500000D02*
X136000000Y-180500000D01*
X131500000Y-170000000D02*
X136000000Y-174500000D01*
X140300000Y-180500000D02*
X136000000Y-180500000D01*
%TO.N,Net-(D12-Pad1)*%
X152025000Y-175525000D02*
X156000000Y-179500000D01*
X151000000Y-175525000D02*
X152025000Y-175525000D01*
%TO.N,Net-(D14-Pad1)*%
X160300000Y-181500000D02*
X161300000Y-180500000D01*
X158000000Y-181500000D02*
X158000000Y-172500000D01*
X156000000Y-181500000D02*
X158000000Y-181500000D01*
X158000000Y-181500000D02*
X160300000Y-181500000D01*
X155000000Y-169500000D02*
X152500000Y-169500000D01*
X158000000Y-172500000D02*
X155000000Y-169500000D01*
X156000000Y-181500000D02*
X156000000Y-188500000D01*
%TO.N,Net-(D15-Pad1)*%
X170000000Y-177000000D02*
X173000000Y-180000000D01*
X170000000Y-175525000D02*
X170000000Y-177000000D01*
%TO.N,Net-(D16-Pad1)*%
X174500000Y-179500000D02*
X175000000Y-180000000D01*
X174500000Y-169500000D02*
X174500000Y-179500000D01*
X175000000Y-186500000D02*
X177000000Y-188500000D01*
X175000000Y-180000000D02*
X175000000Y-186500000D01*
X175000000Y-180000000D02*
X175000000Y-179000000D01*
X177200000Y-176800000D02*
X183000000Y-176800000D01*
X175000000Y-179000000D02*
X177200000Y-176800000D01*
%TO.N,Net-(D17-Pad1)*%
X190000000Y-177500000D02*
X193000000Y-180500000D01*
X190000000Y-175525000D02*
X190000000Y-177500000D01*
%TO.N,Net-(D18-Pad1)*%
X200000000Y-180200000D02*
X200300000Y-180500000D01*
X200300000Y-180500000D02*
X200300000Y-180800000D01*
X194500000Y-180000000D02*
X195000000Y-180500000D01*
X194500000Y-169500000D02*
X194500000Y-180000000D01*
X195000000Y-186500000D02*
X197000000Y-188500000D01*
X195000000Y-180500000D02*
X195000000Y-186500000D01*
X200300000Y-180500000D02*
X195000000Y-180500000D01*
%TO.N,Net-(D19-Pad1)*%
X209000000Y-175525000D02*
X209000000Y-177000000D01*
X209000000Y-177000000D02*
X212500000Y-180500000D01*
X212500000Y-180500000D02*
X213000000Y-180500000D01*
%TO.N,Net-(D20-Pad1)*%
X211500000Y-169500000D02*
X211500000Y-172500000D01*
X211500000Y-172500000D02*
X215000000Y-176000000D01*
X215000000Y-186500000D02*
X217000000Y-188500000D01*
X215000000Y-180500000D02*
X215000000Y-186500000D01*
X215000000Y-176000000D02*
X215000000Y-177000000D01*
X215000000Y-177000000D02*
X215000000Y-180500000D01*
X224700000Y-178200000D02*
X224700000Y-180500000D01*
X224000000Y-177500000D02*
X224700000Y-178200000D01*
%TO.N,Net-(D21-Pad1)*%
X229000000Y-175525000D02*
X229000000Y-177000000D01*
X229000000Y-177000000D02*
X232500000Y-180500000D01*
%TO.N,Net-(D22-Pad1)*%
X241800000Y-180500000D02*
X242500000Y-181200000D01*
X234500000Y-180500000D02*
X241800000Y-180500000D01*
X234500000Y-186000000D02*
X237000000Y-188500000D01*
X234500000Y-180500000D02*
X234500000Y-186000000D01*
X232500000Y-169500000D02*
X232500000Y-171500000D01*
X234500000Y-173500000D02*
X234500000Y-180500000D01*
X232500000Y-171500000D02*
X234500000Y-173500000D01*
%TO.N,Net-(D23-Pad1)*%
X262324602Y-164562800D02*
X262924602Y-165162800D01*
X262924602Y-165162800D02*
X264839600Y-165162800D01*
X255339600Y-164562800D02*
X262324602Y-164562800D01*
X273639600Y-165162800D02*
X273839600Y-165362800D01*
X264839600Y-165162800D02*
X273639600Y-165162800D01*
%TO.N,Net-(D24-Pad1)*%
X264239600Y-151062800D02*
X264839600Y-151662800D01*
X254839600Y-151062800D02*
X264239600Y-151062800D01*
X273139600Y-151662800D02*
X273839600Y-152362800D01*
X264839600Y-151662800D02*
X273139600Y-151662800D01*
%TO.N,Net-(D25-Pad1)*%
X264639600Y-138862800D02*
X264839600Y-138662800D01*
X254839600Y-138862800D02*
X264639600Y-138862800D01*
X273139600Y-138662800D02*
X273839600Y-139362800D01*
X264839600Y-138662800D02*
X273139600Y-138662800D01*
%TO.N,Net-(D26-Pad1)*%
X273639600Y-126162800D02*
X273839600Y-126362800D01*
X264839600Y-126162800D02*
X273639600Y-126162800D01*
X264739600Y-126062800D02*
X264839600Y-126162800D01*
X254839600Y-126062800D02*
X264739600Y-126062800D01*
%TO.N,Net-(D31-Pad1)*%
X273539600Y-113662800D02*
X273839600Y-113362800D01*
X264839600Y-113662800D02*
X273539600Y-113662800D01*
X255439600Y-113662800D02*
X254839600Y-113062800D01*
X264839600Y-113662800D02*
X255439600Y-113662800D01*
%TO.N,Net-(D32-Pad1)*%
X264839600Y-100662800D02*
X272337200Y-100662800D01*
X272637200Y-100362800D02*
X273839600Y-100362800D01*
X272337200Y-100662800D02*
X272637200Y-100362800D01*
X264539600Y-100362800D02*
X264839600Y-100662800D01*
X254839600Y-100362800D02*
X264539600Y-100362800D01*
%TO.N,Net-(D33-Pad1)*%
X273539600Y-87662800D02*
X273839600Y-87362800D01*
X264839600Y-87662800D02*
X273539600Y-87662800D01*
X264239600Y-88262800D02*
X264839600Y-87662800D01*
X254839600Y-88262800D02*
X264239600Y-88262800D01*
%TO.N,Net-(D34-Pad1)*%
X273539600Y-74662800D02*
X273839600Y-74362800D01*
X264839600Y-74662800D02*
X273539600Y-74662800D01*
X264439600Y-75062800D02*
X264839600Y-74662800D01*
X254839600Y-75062800D02*
X264439600Y-75062800D01*
%TO.N,Net-(D39-Pad1)*%
X129000000Y-37300000D02*
X128800000Y-37500000D01*
X129000000Y-27000000D02*
X129000000Y-37300000D01*
X128800000Y-42800000D02*
X129000000Y-43000000D01*
X128800000Y-37500000D02*
X128800000Y-42800000D01*
%TO.N,Net-(D40-Pad1)*%
X143000000Y-37300000D02*
X142800000Y-37500000D01*
X143000000Y-27000000D02*
X143000000Y-37300000D01*
X143000000Y-37700000D02*
X142800000Y-37500000D01*
X143000000Y-43000000D02*
X143000000Y-37700000D01*
%TO.N,Net-(D41-Pad1)*%
X156500000Y-37300000D02*
X156300000Y-37500000D01*
X156500000Y-27000000D02*
X156500000Y-37300000D01*
X156300000Y-43300000D02*
X156500000Y-43500000D01*
X156300000Y-37500000D02*
X156300000Y-43300000D01*
%TO.N,Net-(D42-Pad1)*%
X171500000Y-37700000D02*
X171800000Y-38000000D01*
X171500000Y-27000000D02*
X171500000Y-37700000D01*
X171800000Y-42800000D02*
X172000000Y-43000000D01*
X171800000Y-38000000D02*
X171800000Y-42800000D01*
%TO.N,Net-(J2-Pad2)*%
X140500000Y-102260000D02*
X140500000Y-103000000D01*
X136000000Y-107500000D02*
X129500000Y-107500000D01*
X140500000Y-103000000D02*
X136000000Y-107500000D01*
%TO.N,Net-(J2-Pad1)*%
X143040000Y-102260000D02*
X143040000Y-99040000D01*
X143040000Y-99040000D02*
X141500000Y-97500000D01*
X136960000Y-97500000D02*
X129500000Y-104960000D01*
X141500000Y-97500000D02*
X136960000Y-97500000D01*
%TO.N,Net-(J3-Pad4)*%
X183680000Y-117500000D02*
X183680000Y-115320000D01*
X183680000Y-115320000D02*
X184500000Y-114500000D01*
X184500000Y-114500000D02*
X202500000Y-114500000D01*
X202500000Y-114500000D02*
X204500000Y-112500000D01*
X206500000Y-93000000D02*
X206500000Y-83000000D01*
X217500000Y-37000000D02*
X217500000Y-27000000D01*
%TO.N,Net-(J3-Pad3)*%
X222500000Y-27000000D02*
X222500000Y-45000000D01*
X222500000Y-45000000D02*
X227000000Y-49500000D01*
X227000000Y-49500000D02*
X237000000Y-49500000D01*
X237000000Y-49500000D02*
X238500000Y-51000000D01*
X207500000Y-45000000D02*
X215300000Y-45000000D01*
X184274999Y-68225001D02*
X207500000Y-45000000D01*
X222500000Y-45000000D02*
X215300000Y-45000000D01*
X215300000Y-45000000D02*
X214426998Y-45000000D01*
X172105010Y-103125994D02*
X171445994Y-103785010D01*
X180370010Y-98950010D02*
X174686400Y-98950010D01*
X183680000Y-102260000D02*
X180370010Y-98950010D01*
X172105010Y-101531400D02*
X172105010Y-103125994D01*
X179813600Y-95049990D02*
X184274999Y-90588591D01*
X171445994Y-103785010D02*
X165434006Y-103785010D01*
X174686400Y-98950010D02*
X172105010Y-101531400D01*
X165434006Y-103785010D02*
X164774990Y-103125994D01*
X164774990Y-103125994D02*
X164774990Y-101394006D01*
X184274999Y-90588591D02*
X184274999Y-68225001D01*
X164774990Y-101394006D02*
X171119006Y-95049990D01*
X171119006Y-95049990D02*
X179813600Y-95049990D01*
%TO.N,Net-(J4-Pad3)*%
X178600000Y-102260000D02*
X178600000Y-101600000D01*
X177500000Y-100500000D02*
X177500000Y-100000000D01*
X178600000Y-101600000D02*
X177500000Y-100500000D01*
X199500000Y-32000000D02*
X199500000Y-27000000D01*
%TO.N,Net-(J4-Pad4)*%
X176060000Y-102260000D02*
X176060000Y-103060000D01*
X176060000Y-103060000D02*
X177000000Y-104000000D01*
X194500000Y-35000000D02*
X194000000Y-35500000D01*
X194500000Y-27000000D02*
X194500000Y-35000000D01*
D28*
%TO.N,Net-(J5-Pad3)*%
X104000000Y-211500000D02*
X103000000Y-212500000D01*
X104000000Y-200800000D02*
X104000000Y-211500000D01*
%TO.N,Net-(J5-Pad2)*%
X98000000Y-186600000D02*
X98000000Y-212500000D01*
%TO.N,Net-(J5-Pad1)*%
X92000000Y-211500000D02*
X93000000Y-212500000D01*
X92000000Y-200800000D02*
X92000000Y-211500000D01*
%TO.N,Net-(J6-Pad3)*%
X126000000Y-200700000D02*
X126000000Y-212500000D01*
%TO.N,Net-(J6-Pad2)*%
X120000000Y-211500000D02*
X121000000Y-212500000D01*
X120000000Y-186500000D02*
X120000000Y-211500000D01*
%TO.N,Net-(J6-Pad1)*%
X114000000Y-210500000D02*
X116000000Y-212500000D01*
X114000000Y-200700000D02*
X114000000Y-210500000D01*
%TO.N,Net-(J7-Pad3)*%
X148000000Y-211500000D02*
X147000000Y-212500000D01*
X148000000Y-200700000D02*
X148000000Y-211500000D01*
%TO.N,Net-(J7-Pad2)*%
X142000000Y-186500000D02*
X142000000Y-212500000D01*
%TO.N,Net-(J7-Pad1)*%
X136000000Y-211500000D02*
X137000000Y-212500000D01*
X136000000Y-200700000D02*
X136000000Y-211500000D01*
%TO.N,Net-(J8-Pad1)*%
X156000000Y-210500000D02*
X158000000Y-212500000D01*
X156000000Y-200700000D02*
X156000000Y-210500000D01*
%TO.N,Net-(J8-Pad2)*%
X162000000Y-211500000D02*
X163000000Y-212500000D01*
X162000000Y-186500000D02*
X162000000Y-211500000D01*
%TO.N,Net-(J8-Pad3)*%
X168000000Y-200700000D02*
X168000000Y-211500000D01*
%TO.N,Net-(J9-Pad3)*%
X189000000Y-211500000D02*
X188000000Y-212500000D01*
X189000000Y-200700000D02*
X189000000Y-211500000D01*
%TO.N,Net-(J9-Pad2)*%
X183000000Y-186500000D02*
X183000000Y-212500000D01*
%TO.N,Net-(J9-Pad1)*%
X177000000Y-211500000D02*
X178000000Y-212500000D01*
X177000000Y-200700000D02*
X177000000Y-211500000D01*
%TO.N,Net-(J10-Pad1)*%
X197000000Y-211500000D02*
X198000000Y-212500000D01*
X197000000Y-200700000D02*
X197000000Y-211500000D01*
%TO.N,Net-(J10-Pad2)*%
X203000000Y-186500000D02*
X203000000Y-212500000D01*
%TO.N,Net-(J10-Pad3)*%
X209000000Y-211500000D02*
X208000000Y-212500000D01*
X209000000Y-200700000D02*
X209000000Y-211500000D01*
%TO.N,Net-(J11-Pad1)*%
X217000000Y-211500000D02*
X218000000Y-212500000D01*
X217000000Y-200700000D02*
X217000000Y-211500000D01*
%TO.N,Net-(J11-Pad2)*%
X223000000Y-186500000D02*
X223000000Y-212500000D01*
%TO.N,Net-(J11-Pad3)*%
X229000000Y-211500000D02*
X228000000Y-212500000D01*
X229000000Y-200700000D02*
X229000000Y-211500000D01*
%TO.N,Net-(J12-Pad1)*%
X237000000Y-211500000D02*
X238000000Y-212500000D01*
X237000000Y-200700000D02*
X237000000Y-211500000D01*
%TO.N,Net-(J12-Pad2)*%
X243000000Y-186500000D02*
X243000000Y-212500000D01*
%TO.N,Net-(J12-Pad3)*%
X249000000Y-211500000D02*
X248000000Y-212500000D01*
X249000000Y-200700000D02*
X249000000Y-211500000D01*
D29*
%TO.N,Net-(J25-Pad4)*%
X92500000Y-50500000D02*
X92500000Y-49000000D01*
X92500000Y-49000000D02*
X95500000Y-46000000D01*
X95500000Y-46000000D02*
X95500000Y-37500000D01*
X95500000Y-37500000D02*
X102500000Y-30500000D01*
X102500000Y-30500000D02*
X102500000Y-27500000D01*
%TO.N,Net-(J25-Pad2)*%
X121000000Y-50500000D02*
X123500000Y-50500000D01*
X123500000Y-50500000D02*
X124500000Y-49500000D01*
X124500000Y-47386810D02*
X117000000Y-39886810D01*
X124500000Y-49500000D02*
X124500000Y-47386810D01*
X117000000Y-39886810D02*
X117000000Y-34500000D01*
X112500000Y-34500000D02*
X112500000Y-27500000D01*
%TO.N,Net-(J25-Pad3)*%
X104000000Y-48500000D02*
X104000000Y-31000000D01*
X104000000Y-31000000D02*
X107500000Y-27500000D01*
X102000000Y-50500000D02*
X104000000Y-48500000D01*
%TO.N,Net-(Q1-Pad2)*%
X88500000Y-158500000D02*
X88500000Y-164000000D01*
X88500000Y-167450000D02*
X88450000Y-167500000D01*
X88500000Y-164000000D02*
X88500000Y-167450000D01*
%TO.N,Net-(Q2-Pad2)*%
X111500000Y-167450000D02*
X111450000Y-167500000D01*
X111500000Y-163500000D02*
X111500000Y-167450000D01*
X111500000Y-159000000D02*
X111500000Y-163500000D01*
%TO.N,Net-(Q3-Pad2)*%
X132500000Y-159500000D02*
X132500000Y-164000000D01*
X132500000Y-167450000D02*
X132450000Y-167500000D01*
X132500000Y-164000000D02*
X132500000Y-167450000D01*
%TO.N,Net-(Q4-Pad2)*%
X153500000Y-159500000D02*
X153500000Y-163500000D01*
X153500000Y-167450000D02*
X153450000Y-167500000D01*
X153500000Y-163500000D02*
X153500000Y-167450000D01*
%TO.N,Net-(Q5-Pad2)*%
X175500000Y-159000000D02*
X175500000Y-164500000D01*
X175500000Y-167450000D02*
X175450000Y-167500000D01*
X175500000Y-164500000D02*
X175500000Y-167450000D01*
%TO.N,Net-(Q6-Pad2)*%
X195500000Y-159500000D02*
X195500000Y-164000000D01*
X195500000Y-167450000D02*
X195450000Y-167500000D01*
X195500000Y-164000000D02*
X195500000Y-167450000D01*
%TO.N,Net-(Q7-Pad2)*%
X212500000Y-159500000D02*
X212500000Y-164000000D01*
X212500000Y-167450000D02*
X212450000Y-167500000D01*
X212500000Y-164000000D02*
X212500000Y-167450000D01*
%TO.N,Net-(Q8-Pad2)*%
X232000000Y-163500000D02*
X233500000Y-165000000D01*
X233450000Y-165050000D02*
X233450000Y-167500000D01*
X233500000Y-165000000D02*
X233450000Y-165050000D01*
X231500000Y-159500000D02*
X231500000Y-161000000D01*
X232000000Y-161500000D02*
X232000000Y-163500000D01*
X231500000Y-161000000D02*
X232000000Y-161500000D01*
%TO.N,Net-(Q9-Pad2)*%
X99950000Y-49500000D02*
X100000000Y-49550000D01*
X96500000Y-49500000D02*
X99950000Y-49500000D01*
X100000000Y-46000000D02*
X100000000Y-49550000D01*
%TO.N,Net-(Q10-Pad2)*%
X90050000Y-50000000D02*
X90500000Y-49550000D01*
X87000000Y-50000000D02*
X90050000Y-50000000D01*
X90500000Y-46000000D02*
X90500000Y-49550000D01*
%TO.N,Net-(Q11-Pad2)*%
X106000000Y-49500000D02*
X109000000Y-49500000D01*
X109000000Y-46000000D02*
X109000000Y-49500000D01*
%TO.N,Net-(Q12-Pad2)*%
X118950000Y-49500000D02*
X119000000Y-49550000D01*
X115500000Y-49500000D02*
X118950000Y-49500000D01*
X119500000Y-49050000D02*
X119000000Y-49550000D01*
X119500000Y-46000000D02*
X119500000Y-49050000D01*
%TO.N,Net-(R1-Pad2)*%
X78000000Y-110500000D02*
X78000000Y-112500000D01*
X78000000Y-112500000D02*
X78500000Y-113000000D01*
X78500000Y-113000000D02*
X79500000Y-113000000D01*
X83500000Y-110274999D02*
X83725001Y-110500000D01*
X83500000Y-107500000D02*
X83500000Y-110274999D01*
X93000000Y-108500000D02*
X93000000Y-114000000D01*
X93000000Y-114000000D02*
X93500000Y-114500000D01*
X93500000Y-114500000D02*
X95500000Y-114500000D01*
%TO.N,Net-(R3-Pad2)*%
X100500000Y-115500000D02*
X105500000Y-115500000D01*
X95840000Y-112000000D02*
X95975000Y-111865000D01*
X100500000Y-115500000D02*
X99300000Y-115500000D01*
X99300000Y-115500000D02*
X97200000Y-117600000D01*
X97200000Y-117600000D02*
X94400000Y-117600000D01*
X94400000Y-117600000D02*
X94200000Y-117600000D01*
X95369315Y-111865000D02*
X95975000Y-111865000D01*
X94200000Y-113034315D02*
X95369315Y-111865000D01*
X94200000Y-113600000D02*
X94200000Y-113034315D01*
%TO.N,Rel1*%
X90500000Y-158500000D02*
X108000000Y-158500000D01*
X143040000Y-123460000D02*
X143040000Y-117500000D01*
X108000000Y-158500000D02*
X143040000Y-123460000D01*
%TO.N,Rel2*%
X145580000Y-117500000D02*
X145580000Y-130920000D01*
X117500000Y-159000000D02*
X113500000Y-159000000D01*
X145580000Y-130920000D02*
X117500000Y-159000000D01*
%TO.N,Rel3*%
X148120000Y-117500000D02*
X148120000Y-139380000D01*
X134500000Y-153000000D02*
X134500000Y-159500000D01*
X148120000Y-139380000D02*
X134500000Y-153000000D01*
%TO.N,Rel4*%
X150660000Y-117500000D02*
X150660000Y-147160000D01*
X155500000Y-152000000D02*
X155500000Y-159500000D01*
X150660000Y-147160000D02*
X155500000Y-152000000D01*
%TO.N,Rel5*%
X153200000Y-117500000D02*
X153200000Y-141700000D01*
X153200000Y-141700000D02*
X163500000Y-152000000D01*
X163500000Y-152000000D02*
X175000000Y-152000000D01*
X177500000Y-154500000D02*
X177500000Y-159000000D01*
X175000000Y-152000000D02*
X177500000Y-154500000D01*
%TO.N,Rel6*%
X197500000Y-157500000D02*
X197500000Y-159500000D01*
X192500000Y-152500000D02*
X197500000Y-157500000D01*
X184500000Y-152500000D02*
X192500000Y-152500000D01*
X180500000Y-148500000D02*
X184500000Y-152500000D01*
X175000000Y-126500000D02*
X180500000Y-132000000D01*
X164000000Y-126500000D02*
X175000000Y-126500000D01*
X180500000Y-132000000D02*
X180500000Y-148500000D01*
X156500000Y-121000000D02*
X158500000Y-121000000D01*
X158500000Y-121000000D02*
X164000000Y-126500000D01*
X155740000Y-120240000D02*
X156500000Y-121000000D01*
X155740000Y-117500000D02*
X155740000Y-120240000D01*
%TO.N,Rel7*%
X193500000Y-151000000D02*
X198000000Y-155500000D01*
X182500000Y-148000000D02*
X185500000Y-151000000D01*
X214500000Y-158000000D02*
X214500000Y-159500000D01*
X212000000Y-155500000D02*
X214500000Y-158000000D01*
X182500000Y-132000000D02*
X182500000Y-148000000D01*
X173520000Y-123020000D02*
X182500000Y-132000000D01*
X198000000Y-155500000D02*
X212000000Y-155500000D01*
X185500000Y-151000000D02*
X193500000Y-151000000D01*
X173520000Y-117500000D02*
X173520000Y-123020000D01*
%TO.N,Rel8*%
X171000000Y-117520000D02*
X170980000Y-117500000D01*
X171000000Y-122000000D02*
X171000000Y-117520000D01*
X233500000Y-157500000D02*
X233500000Y-159500000D01*
X230000000Y-154000000D02*
X233500000Y-157500000D01*
X198500000Y-154000000D02*
X230000000Y-154000000D01*
X194000000Y-149500000D02*
X198500000Y-154000000D01*
X185500000Y-149500000D02*
X194000000Y-149500000D01*
X184000000Y-148000000D02*
X185500000Y-149500000D01*
X184000000Y-131000000D02*
X184000000Y-148000000D01*
X177000000Y-124000000D02*
X184000000Y-131000000D01*
X177000000Y-123000000D02*
X177000000Y-124000000D01*
%TO.N,IN1*%
X241839600Y-169362800D02*
X241839600Y-169339600D01*
X241839600Y-169339600D02*
X236000000Y-163500000D01*
X236000000Y-163500000D02*
X236000000Y-159000000D01*
X236000000Y-159000000D02*
X236000000Y-157500000D01*
X235500000Y-157000000D02*
X234000000Y-157000000D01*
X236000000Y-157500000D02*
X235500000Y-157000000D01*
X234000000Y-157000000D02*
X228500000Y-151500000D01*
X228500000Y-151500000D02*
X222000000Y-145000000D01*
X222000000Y-145000000D02*
X221000000Y-145000000D01*
X221000000Y-145000000D02*
X220500000Y-145000000D01*
X214500000Y-132500000D02*
X196500000Y-132500000D01*
X186220000Y-122220000D02*
X186220000Y-117500000D01*
X196500000Y-132500000D02*
X186220000Y-122220000D01*
%TO.N,IN3*%
X188760000Y-102260000D02*
X192260000Y-102260000D01*
X198500000Y-108500000D02*
X201000000Y-111000000D01*
X201000000Y-111000000D02*
X204073002Y-111000000D01*
X204073002Y-111000000D02*
X205500000Y-111000000D01*
X205500000Y-111000000D02*
X206000000Y-111500000D01*
X206000000Y-111500000D02*
X206000000Y-115000000D01*
X233862800Y-154862800D02*
X241339600Y-154862800D01*
X225487347Y-146487347D02*
X233862800Y-154862800D01*
X224512653Y-146487347D02*
X225487347Y-146487347D01*
%TO.N,IN2*%
X239500000Y-138523200D02*
X241339600Y-140362800D01*
X239500000Y-133000000D02*
X239500000Y-138523200D01*
X201274999Y-131774999D02*
X238274999Y-131774999D01*
X238274999Y-131774999D02*
X239500000Y-133000000D01*
X188760000Y-119260000D02*
X201274999Y-131774999D01*
X188760000Y-117500000D02*
X188760000Y-119260000D01*
%TO.N,IN4*%
X186220000Y-102260000D02*
X186220000Y-102720000D01*
X186220000Y-102720000D02*
X187500000Y-104000000D01*
X196012653Y-108512653D02*
X196012653Y-113487347D01*
X239702400Y-130000000D02*
X242339600Y-127362800D01*
X216500000Y-130000000D02*
X239702400Y-130000000D01*
%TO.N,IN5*%
X242839600Y-113362800D02*
X237476800Y-108000000D01*
X237476800Y-108000000D02*
X237476800Y-107976800D01*
X237476800Y-107976800D02*
X228500000Y-99000000D01*
X228274999Y-99225001D02*
X199274999Y-99225001D01*
X228500000Y-99000000D02*
X228274999Y-99225001D01*
X199274999Y-99225001D02*
X193500000Y-105000000D01*
X176260000Y-105000000D02*
X173520000Y-102260000D01*
X193500000Y-105000000D02*
X176260000Y-105000000D01*
%TO.N,IN7*%
X168440000Y-102260000D02*
X168740000Y-102260000D01*
X174137200Y-96862800D02*
X242839600Y-96862800D01*
X168740000Y-102260000D02*
X174137200Y-96862800D01*
%TO.N,IN6*%
X170980000Y-102260000D02*
X170980000Y-102020000D01*
X170980000Y-102020000D02*
X174500000Y-98500000D01*
X174500000Y-98500000D02*
X200000000Y-98500000D01*
X200000000Y-98500000D02*
X202500000Y-98500000D01*
X242702400Y-89000000D02*
X242839600Y-88862800D01*
X239500000Y-89000000D02*
X242702400Y-89000000D01*
%TO.N,IN8*%
X165900000Y-102260000D02*
X172660000Y-95500000D01*
X172660000Y-95500000D02*
X180000000Y-95500000D01*
X180000000Y-95500000D02*
X186000000Y-89500000D01*
X186000000Y-89500000D02*
X186000000Y-84000000D01*
X186000000Y-84000000D02*
X188500000Y-81500000D01*
X243839600Y-78125970D02*
X243839600Y-76362800D01*
X240465570Y-81500000D02*
X243839600Y-78125970D01*
X188500000Y-81500000D02*
X240465570Y-81500000D01*
%TO.N,AN1*%
X129000000Y-45000000D02*
X135000000Y-45000000D01*
X158280000Y-100353002D02*
X156000000Y-98073002D01*
X158280000Y-102260000D02*
X158280000Y-100353002D01*
X156000000Y-98073002D02*
X156000000Y-89000000D01*
X138000000Y-48000000D02*
X135000000Y-45000000D01*
X138000000Y-51000000D02*
X138000000Y-48000000D01*
%TO.N,AN2*%
X143000000Y-45000000D02*
X148500000Y-45000000D01*
X148500000Y-45000000D02*
X148500000Y-64500000D01*
X148500000Y-64500000D02*
X151500000Y-67500000D01*
X151500000Y-67500000D02*
X151500000Y-81500000D01*
X154399999Y-85899999D02*
X154399999Y-97399999D01*
X154000000Y-85500000D02*
X154399999Y-85899999D01*
X155740000Y-98740000D02*
X155740000Y-102260000D01*
X154399999Y-97399999D02*
X155740000Y-98740000D01*
%TO.N,AN3*%
X156500000Y-45500000D02*
X161500000Y-45500000D01*
X153200000Y-102260000D02*
X153200000Y-52300000D01*
X156500000Y-49000000D02*
X156500000Y-45500000D01*
X153200000Y-52300000D02*
X156500000Y-49000000D01*
%TO.N,AN4*%
X172000000Y-45000000D02*
X177500000Y-45000000D01*
X150660000Y-102260000D02*
X150660000Y-72160000D01*
X150660000Y-72160000D02*
X150500000Y-72000000D01*
X172000000Y-46000000D02*
X172000000Y-45000000D01*
X157000000Y-61000000D02*
X172000000Y-46000000D01*
%TO.N,C2*%
X163360000Y-117500000D02*
X163360000Y-114860000D01*
X163360000Y-114860000D02*
X156500000Y-108000000D01*
X156500000Y-108000000D02*
X137500000Y-108000000D01*
X116500000Y-61500000D02*
X114000000Y-59000000D01*
X114000000Y-59000000D02*
X114000000Y-44500000D01*
X114000000Y-44500000D02*
X115000000Y-43500000D01*
X102000000Y-43500000D02*
X102000000Y-46000000D01*
%TO.N,C1*%
X145580000Y-102260000D02*
X145580000Y-99580000D01*
X145580000Y-99580000D02*
X139000000Y-93000000D01*
X139000000Y-93000000D02*
X117000000Y-93000000D01*
X117000000Y-93000000D02*
X95500000Y-71500000D01*
X95500000Y-71500000D02*
X89000000Y-71500000D01*
X87000000Y-69500000D02*
X87000000Y-52000000D01*
X89000000Y-71500000D02*
X87000000Y-69500000D01*
%TO.N,C3*%
X160820000Y-117500000D02*
X152820000Y-109500000D01*
X152820000Y-109500000D02*
X137000000Y-109500000D01*
X111000000Y-46500000D02*
X111000000Y-46000000D01*
X112500000Y-48000000D02*
X111000000Y-46500000D01*
%TO.N,C4*%
X158280000Y-117500000D02*
X158000000Y-117500000D01*
X158000000Y-117500000D02*
X152500000Y-112000000D01*
X137000000Y-112000000D02*
X135000000Y-110000000D01*
X152500000Y-112000000D02*
X137000000Y-112000000D01*
X133000000Y-90000000D02*
X126500000Y-83500000D01*
X126500000Y-83500000D02*
X126500000Y-49500000D01*
X126500000Y-49500000D02*
X126000000Y-49000000D01*
X123000000Y-47500000D02*
X121500000Y-46000000D01*
X123000000Y-49000000D02*
X123000000Y-47500000D01*
%TO.N,Net-(J25-Pad1)*%
X111000000Y-50450000D02*
X112050000Y-50450000D01*
X112050000Y-50450000D02*
X113500000Y-49000000D01*
X113500000Y-31500000D02*
X117500000Y-27500000D01*
X113500000Y-49000000D02*
X113500000Y-31500000D01*
%TO.N,Net-(D27-Pad1)*%
X255039600Y-158862800D02*
X255339600Y-159162800D01*
X248339600Y-158862800D02*
X255039600Y-158862800D01*
%TO.N,Net-(D28-Pad1)*%
X254639600Y-145862800D02*
X254839600Y-145662800D01*
X247839600Y-145862800D02*
X254639600Y-145862800D01*
%TO.N,Net-(D29-Pad1)*%
X254439600Y-133862800D02*
X254839600Y-133462800D01*
X247839600Y-133862800D02*
X254439600Y-133862800D01*
%TO.N,Net-(D30-Pad1)*%
X254539600Y-120362800D02*
X254839600Y-120662800D01*
X248839600Y-120362800D02*
X254539600Y-120362800D01*
%TO.N,Net-(D35-Pad1)*%
X254639600Y-107862800D02*
X254839600Y-107662800D01*
X248839600Y-107862800D02*
X254639600Y-107862800D01*
%TO.N,Net-(D36-Pad1)*%
X254739600Y-94862800D02*
X254839600Y-94962800D01*
X248839600Y-94862800D02*
X254739600Y-94862800D01*
%TO.N,Net-(D37-Pad1)*%
X248839600Y-82862800D02*
X254839600Y-82862800D01*
%TO.N,Net-(D38-Pad1)*%
X254639600Y-69862800D02*
X254839600Y-69662800D01*
X249339600Y-69862800D02*
X254639600Y-69862800D01*
%TO.N,Net-(D13-Pad2)*%
X97500000Y-27500000D02*
X97500000Y-33000000D01*
X93700000Y-36800000D02*
X84500000Y-36800000D01*
X97500000Y-33000000D02*
X93700000Y-36800000D01*
%TO.N,Net-(BZ1-Pad2)*%
X177194400Y-75234800D02*
X177448400Y-74980800D01*
X169494200Y-75234800D02*
X177194400Y-75234800D01*
X177448400Y-74980800D02*
X179319200Y-74980800D01*
X181100000Y-73200000D02*
X181100000Y-69900000D01*
X179319200Y-74980800D02*
X181100000Y-73200000D01*
%TO.N,Net-(BZ1-Pad1)*%
X164042600Y-93827600D02*
X166827600Y-93827600D01*
X185519200Y-74980800D02*
X190648400Y-74980800D01*
X185000000Y-75500000D02*
X185519200Y-74980800D01*
X190648400Y-74980800D02*
X189580800Y-74980800D01*
X187600000Y-73000000D02*
X187600000Y-69900000D01*
X189580800Y-74980800D02*
X187600000Y-73000000D01*
%TO.N,Net-(C17-Pad1)*%
X235331000Y-142570200D02*
X235534200Y-142367000D01*
X232181400Y-142570200D02*
X235331000Y-142570200D01*
X235566200Y-142335000D02*
X235534200Y-142367000D01*
X235566200Y-137541000D02*
X235566200Y-142335000D01*
X232181400Y-146421600D02*
X232613200Y-146853400D01*
X232181400Y-142570200D02*
X232181400Y-146421600D01*
%TO.N,Net-(C18-Pad1)*%
X208530400Y-125714000D02*
X208457800Y-125714000D01*
X210372200Y-123872200D02*
X208530400Y-125714000D01*
X210372200Y-119000000D02*
X210372200Y-123872200D01*
X204089000Y-123714000D02*
X205714000Y-123714000D01*
X207714000Y-125714000D02*
X208457800Y-125714000D01*
X205714000Y-123714000D02*
X207714000Y-125714000D01*
X211730800Y-123872200D02*
X213918800Y-126060200D01*
X210372200Y-123872200D02*
X211730800Y-123872200D01*
%TO.N,Net-(C19-Pad1)*%
X232775000Y-123520200D02*
X232943400Y-123688600D01*
X232775000Y-119126000D02*
X232775000Y-123520200D01*
X236175800Y-119126000D02*
X236201200Y-119151400D01*
X232775000Y-119126000D02*
X236175800Y-119126000D01*
X236220000Y-119132600D02*
X236201200Y-119151400D01*
X236220000Y-114436400D02*
X236220000Y-119132600D01*
%TO.N,Net-(C20-Pad1)*%
X210153200Y-148435400D02*
X210042200Y-148324400D01*
X214112600Y-148675600D02*
X214357200Y-148920200D01*
X208381600Y-146663800D02*
X210042200Y-148324400D01*
X208381600Y-142367000D02*
X208381600Y-146663800D01*
X208381600Y-146663800D02*
X208336200Y-146663800D01*
X206435400Y-148564600D02*
X204089000Y-148564600D01*
X208336200Y-146663800D02*
X206435400Y-148564600D01*
X213761400Y-148324400D02*
X214357200Y-148920200D01*
X210042200Y-148324400D02*
X213761400Y-148324400D01*
%TO.N,Net-(D43-Pad1)*%
X166954200Y-75234800D02*
X166954200Y-79545800D01*
X165626000Y-80874000D02*
X165626000Y-82905600D01*
X166954200Y-79545800D02*
X165626000Y-80874000D01*
X165626000Y-82905600D02*
X165626000Y-85874000D01*
X163717600Y-87782400D02*
X163093400Y-87782400D01*
X165626000Y-85874000D02*
X163717600Y-87782400D01*
%TO.N,Net-(D43-Pad2)*%
X163576000Y-82905600D02*
X160232600Y-82905600D01*
%TO.N,Net-(D44-Pad1)*%
X256362200Y-61200800D02*
X256362200Y-64362200D01*
X244000000Y-65000000D02*
X236500000Y-65000000D01*
X236500000Y-65000000D02*
X236500000Y-65500000D01*
X236500000Y-84000000D02*
X235500000Y-84000000D01*
X235500000Y-84000000D02*
X233000000Y-86500000D01*
X233000000Y-86500000D02*
X233000000Y-96000000D01*
X232737042Y-104262347D02*
X241000000Y-112525305D01*
X241000000Y-112525305D02*
X241000000Y-119500000D01*
X237000000Y-136974800D02*
X237566200Y-137541000D01*
X237000000Y-134000000D02*
X237000000Y-136974800D01*
%TO.N,Net-(D44-Pad2)*%
X253000000Y-27000000D02*
X253000000Y-29500000D01*
X255727200Y-32227200D02*
X255727200Y-37482800D01*
X253000000Y-29500000D02*
X255727200Y-32227200D01*
X233410000Y-60858400D02*
X237641600Y-60858400D01*
X237641600Y-60858400D02*
X242000000Y-56500000D01*
X256362200Y-52137800D02*
X256500000Y-52000000D01*
X256362200Y-55800800D02*
X256362200Y-52137800D01*
X253710000Y-39500000D02*
X255727200Y-37482800D01*
X252000000Y-39500000D02*
X253710000Y-39500000D01*
%TO.N,Net-(D45-Pad1)*%
X215918800Y-126060200D02*
X228939800Y-126060200D01*
X228939800Y-126060200D02*
X229000000Y-126000000D01*
X229000000Y-126000000D02*
X229000000Y-106500000D01*
X242000000Y-62500000D02*
X242000000Y-61500000D01*
X242317000Y-61183000D02*
X247853200Y-61183000D01*
X242000000Y-61500000D02*
X242317000Y-61183000D01*
%TO.N,Net-(D45-Pad2)*%
X248000000Y-37336000D02*
X247853200Y-37482800D01*
X248000000Y-27000000D02*
X248000000Y-37336000D01*
X247853200Y-37482800D02*
X246017200Y-37482800D01*
X246017200Y-37482800D02*
X245000000Y-38500000D01*
X245000000Y-38500000D02*
X245000000Y-52929800D01*
X244292600Y-52222400D02*
X245035100Y-52964900D01*
X233537000Y-52222400D02*
X244292600Y-52222400D01*
X245035100Y-52964900D02*
X247853200Y-55783000D01*
X245000000Y-52929800D02*
X245035100Y-52964900D01*
%TO.N,Net-(D48-Pad2)*%
X243000000Y-33783800D02*
X239445800Y-37338000D01*
X243000000Y-27000000D02*
X243000000Y-33783800D01*
%TO.N,Net-(D49-Pad1)*%
X258000000Y-27000000D02*
X258000000Y-30500000D01*
X263474200Y-35974200D02*
X263474200Y-37449800D01*
X258000000Y-30500000D02*
X263474200Y-35974200D01*
X263575800Y-56316400D02*
X263575800Y-54424200D01*
X267000000Y-51000000D02*
X267000000Y-50500000D01*
X263575800Y-54424200D02*
X267000000Y-51000000D01*
X265024400Y-39000000D02*
X263474200Y-37449800D01*
X267000000Y-39000000D02*
X265024400Y-39000000D01*
X233410000Y-68732400D02*
X243267600Y-68732400D01*
X243267600Y-68732400D02*
X246500000Y-65500000D01*
X246500000Y-65500000D02*
X258000000Y-65500000D01*
X258000000Y-65500000D02*
X260000000Y-63500000D01*
X260000000Y-59892200D02*
X263575800Y-56316400D01*
X260000000Y-63500000D02*
X260000000Y-59892200D01*
%TO.N,Net-(D50-Pad1)*%
X263000000Y-27000000D02*
X266500000Y-27000000D01*
X271373600Y-31873600D02*
X271373600Y-37406600D01*
X266500000Y-27000000D02*
X271373600Y-31873600D01*
X271373600Y-37406600D02*
X274406600Y-37406600D01*
X274406600Y-37406600D02*
X276000000Y-39000000D01*
X276000000Y-51359800D02*
X271551400Y-55808400D01*
X276000000Y-39000000D02*
X276000000Y-51359800D01*
X233283000Y-76454000D02*
X233283000Y-75717000D01*
X233283000Y-75717000D02*
X239000000Y-70000000D01*
X239000000Y-70000000D02*
X243500000Y-70000000D01*
X243500000Y-70000000D02*
X247000000Y-66500000D01*
X247000000Y-66500000D02*
X264500000Y-66500000D01*
X264500000Y-66500000D02*
X267500000Y-63500000D01*
X267500000Y-59859800D02*
X271551400Y-55808400D01*
X267500000Y-63500000D02*
X267500000Y-59859800D01*
%TO.N,Net-(D51-Pad1)*%
X263575800Y-61716400D02*
X263575800Y-64924200D01*
X263575800Y-64924200D02*
X263000000Y-65500000D01*
X258500000Y-78000000D02*
X258500000Y-87000000D01*
X236000000Y-112216400D02*
X236220000Y-112436400D01*
X236000000Y-109500000D02*
X236000000Y-112216400D01*
%TO.N,Net-(D52-Pad1)*%
X216357200Y-148920200D02*
X216357200Y-147642800D01*
X216357200Y-147642800D02*
X218000000Y-146000000D01*
X218000000Y-146000000D02*
X218000000Y-139000000D01*
X218000000Y-139000000D02*
X220012653Y-136987347D01*
X220000000Y-125000000D02*
X220000000Y-107000000D01*
X220000000Y-107000000D02*
X220000000Y-106500000D01*
X220000000Y-106500000D02*
X221500000Y-105000000D01*
X229712347Y-105000000D02*
X229725000Y-104987347D01*
X221500000Y-105000000D02*
X229712347Y-105000000D01*
X272000000Y-61657000D02*
X271551400Y-61208400D01*
X272000000Y-67500000D02*
X272000000Y-61657000D01*
%TO.N,Net-(JP2-Pad1)*%
X220402400Y-59893200D02*
X219106800Y-59893200D01*
X219106800Y-59893200D02*
X215000000Y-64000000D01*
X215000000Y-64000000D02*
X215000000Y-65000000D01*
X225500000Y-88000000D02*
X225500000Y-96000000D01*
X225500000Y-136856400D02*
X224891600Y-137464800D01*
X225500000Y-133500000D02*
X225500000Y-136856400D01*
%TO.N,GPIO3*%
X224891600Y-140004800D02*
X218886800Y-134000000D01*
X218886800Y-134000000D02*
X195500000Y-134000000D01*
X195500000Y-134000000D02*
X187500000Y-126000000D01*
X187500000Y-126000000D02*
X183500000Y-126000000D01*
X181140000Y-123640000D02*
X181140000Y-117500000D01*
X183500000Y-126000000D02*
X181140000Y-123640000D01*
%TO.N,Net-(JP2-Pad3)*%
X230156000Y-142544800D02*
X230181400Y-142570200D01*
X224891600Y-142544800D02*
X230156000Y-142544800D01*
%TO.N,Net-(JP3-Pad3)*%
X208420000Y-118952200D02*
X208372200Y-119000000D01*
X208420000Y-111000000D02*
X208420000Y-118952200D01*
%TO.N,GPIO4*%
X210960000Y-111000000D02*
X210960000Y-109460000D01*
X210960000Y-109460000D02*
X209500000Y-108000000D01*
X209500000Y-108000000D02*
X201000000Y-108000000D01*
X179947347Y-101067347D02*
X181140000Y-102260000D01*
X179947347Y-99675010D02*
X179947347Y-101067347D01*
%TO.N,Net-(JP3-Pad1)*%
X219894400Y-51079400D02*
X212420600Y-51079400D01*
X206000000Y-57500000D02*
X206000000Y-81049990D01*
X212420600Y-51079400D02*
X206000000Y-57500000D01*
X214450010Y-81049990D02*
X214450010Y-80824990D01*
X206000000Y-81049990D02*
X214450010Y-81049990D01*
X214450010Y-80824990D02*
X214500000Y-80775000D01*
X216000000Y-87500000D02*
X216000000Y-95500000D01*
X213500000Y-110500000D02*
X213500000Y-111000000D01*
X216000000Y-108000000D02*
X213500000Y-110500000D01*
%TO.N,Net-(JP4-Pad1)*%
X215315800Y-137287000D02*
X217213000Y-137287000D01*
X217213000Y-137287000D02*
X219000000Y-135500000D01*
X219000000Y-125000000D02*
X219000000Y-101000000D01*
X219935000Y-75565000D02*
X220208600Y-75565000D01*
X217500000Y-78000000D02*
X219935000Y-75565000D01*
%TO.N,GPIO1*%
X215315800Y-139827000D02*
X199327000Y-139827000D01*
X199327000Y-139827000D02*
X186500000Y-127000000D01*
X186500000Y-127000000D02*
X183500000Y-127000000D01*
X176060000Y-119560000D02*
X176060000Y-117500000D01*
X183500000Y-127000000D02*
X176060000Y-119560000D01*
%TO.N,Net-(JP4-Pad3)*%
X210381600Y-142367000D02*
X215315800Y-142367000D01*
%TO.N,Net-(JP5-Pad3)*%
X230648000Y-118999000D02*
X230775000Y-119126000D01*
X208420000Y-103500000D02*
X212000000Y-99920000D01*
X212000000Y-99920000D02*
X225920000Y-99920000D01*
X225920000Y-99920000D02*
X230500000Y-104500000D01*
X230500000Y-118851000D02*
X230775000Y-119126000D01*
X230500000Y-104500000D02*
X230500000Y-118851000D01*
%TO.N,GPIO2*%
X210960000Y-103500000D02*
X210960000Y-105540000D01*
X210960000Y-105540000D02*
X209500000Y-107000000D01*
X209500000Y-107000000D02*
X196500000Y-107000000D01*
X196500000Y-107000000D02*
X190500000Y-113000000D01*
X183100000Y-113000000D02*
X178600000Y-117500000D01*
X190500000Y-113000000D02*
X183100000Y-113000000D01*
%TO.N,Net-(JP5-Pad1)*%
X220500000Y-68000000D02*
X212000000Y-68000000D01*
X212000000Y-68000000D02*
X210000000Y-70000000D01*
X210000000Y-70000000D02*
X210000000Y-80000000D01*
X209500000Y-87500000D02*
X209500000Y-91000000D01*
X214000000Y-95500000D02*
X214000000Y-96000000D01*
X209500000Y-91000000D02*
X214000000Y-95500000D01*
X214000000Y-103000000D02*
X213500000Y-103500000D01*
X214000000Y-101000000D02*
X214000000Y-103000000D01*
%TO.N,Net-(Q13-Pad1)*%
X168282400Y-89782400D02*
X168500000Y-90000000D01*
X164043400Y-89782400D02*
X168282400Y-89782400D01*
X176360400Y-90000000D02*
X177038000Y-89322400D01*
X168500000Y-90000000D02*
X176360400Y-90000000D01*
%TO.N,Net-(Q14-Pad2)*%
X226221800Y-51079400D02*
X226364800Y-51222400D01*
X221894400Y-51079400D02*
X226221800Y-51079400D01*
X231487000Y-51222400D02*
X231537000Y-51272400D01*
X226364800Y-51222400D02*
X231487000Y-51222400D01*
%TO.N,Net-(Q15-Pad2)*%
X226602800Y-59893200D02*
X226618800Y-59909200D01*
X222402400Y-59893200D02*
X226602800Y-59893200D01*
X231409200Y-59909200D02*
X231410000Y-59908400D01*
X226618800Y-59909200D02*
X231409200Y-59909200D01*
%TO.N,Net-(Q16-Pad2)*%
X226650800Y-67995800D02*
X226669600Y-67977000D01*
X222132400Y-67995800D02*
X226650800Y-67995800D01*
X231215400Y-67977000D02*
X231410000Y-67782400D01*
X226669600Y-67977000D02*
X231215400Y-67977000D01*
%TO.N,Net-(Q17-Pad2)*%
X226739200Y-75565000D02*
X226796600Y-75622400D01*
X222208600Y-75565000D02*
X226739200Y-75565000D01*
X231164600Y-75622400D02*
X231283000Y-75504000D01*
X226796600Y-75622400D02*
X231164600Y-75622400D01*
%TO.N,Net-(R74-Pad2)*%
X168500000Y-92000000D02*
X168500000Y-95000000D01*
X168500000Y-95000000D02*
X165000000Y-98500000D01*
X165000000Y-98500000D02*
X157500000Y-98500000D01*
X149500000Y-98500000D02*
X148500000Y-98500000D01*
X148120000Y-98880000D02*
X148120000Y-102260000D01*
X148500000Y-98500000D02*
X148120000Y-98880000D01*
D27*
%TO.N,Net-(C5-Pad1)*%
X81000000Y-125550000D02*
X85950000Y-125550000D01*
X85950000Y-125550000D02*
X91000000Y-120500000D01*
X100500000Y-117500000D02*
X100500000Y-120500000D01*
X91000000Y-120500000D02*
X91000000Y-117500000D01*
X91000000Y-117500000D02*
X91000000Y-115000000D01*
X86000000Y-125500000D02*
X85950000Y-125550000D01*
X91000000Y-117500000D02*
X91000000Y-119500000D01*
X91000000Y-117500000D02*
X88500000Y-117500000D01*
X86000000Y-125000000D02*
X86000000Y-124000000D01*
X86000000Y-125000000D02*
X86000000Y-125500000D01*
X86000000Y-124000000D02*
X86000000Y-123500000D01*
X86500000Y-124000000D02*
X86000000Y-124000000D01*
X86000000Y-122500000D02*
X86000000Y-125000000D01*
X86000000Y-120000000D02*
X86000000Y-121500000D01*
X86000000Y-121500000D02*
X86000000Y-122500000D01*
X88500000Y-117500000D02*
X89000000Y-118000000D01*
X87250000Y-119750000D02*
X87250000Y-120250000D01*
X89000000Y-118000000D02*
X87250000Y-119750000D01*
X87250000Y-120250000D02*
X89500000Y-118000000D01*
X86000000Y-121500000D02*
X87250000Y-120250000D01*
X86750000Y-119750000D02*
X87250000Y-120250000D01*
X86250000Y-119750000D02*
X86750000Y-119750000D01*
X88500000Y-117500000D02*
X86250000Y-119750000D01*
X86250000Y-119750000D02*
X86000000Y-120000000D01*
X113700000Y-120500000D02*
X114500000Y-119700000D01*
X109500000Y-120500000D02*
X113700000Y-120500000D01*
X100500000Y-120500000D02*
X98000000Y-120500000D01*
X88750000Y-119750000D02*
X88500000Y-119500000D01*
X88750000Y-119750000D02*
X90500000Y-118000000D01*
X87000000Y-121500000D02*
X87500000Y-122000000D01*
X86000000Y-123500000D02*
X87500000Y-122000000D01*
X86000000Y-122500000D02*
X87000000Y-121500000D01*
X87500000Y-122000000D02*
X90000000Y-119500000D01*
X87000000Y-121500000D02*
X88750000Y-119750000D01*
X90500000Y-119000000D02*
X90000000Y-119500000D01*
X90500000Y-118000000D02*
X90500000Y-119000000D01*
X90500000Y-119000000D02*
X90500000Y-120000000D01*
X90500000Y-120000000D02*
X89250000Y-121250000D01*
X89250000Y-121250000D02*
X89000000Y-121000000D01*
X89250000Y-121250000D02*
X86500000Y-124000000D01*
X100500000Y-120500000D02*
X104500000Y-120500000D01*
X104500000Y-120500000D02*
X109500000Y-120500000D01*
X98000000Y-120500000D02*
X93500000Y-120500000D01*
X93500000Y-120500000D02*
X91000000Y-120500000D01*
X91025000Y-114975000D02*
X91000000Y-115000000D01*
X91025000Y-114405000D02*
X91025000Y-114975000D01*
X114500000Y-125200000D02*
X116900000Y-127600000D01*
X114500000Y-119700000D02*
X114500000Y-125200000D01*
D29*
X100500000Y-117500000D02*
X103200000Y-117500000D01*
X103700000Y-106000000D02*
X102783370Y-105083370D01*
X103700000Y-107800000D02*
X103700000Y-106000000D01*
X118300000Y-119700000D02*
X123500000Y-114500000D01*
X114500000Y-119700000D02*
X118300000Y-119700000D01*
%TD*%
M02*
