%TF.GenerationSoftware,KiCad,Pcbnew,(5.1.10)-1*%
%TF.CreationDate,2022-01-12T07:46:51+01:00*%
%TF.ProjectId,automate,6175746f-6d61-4746-952e-6b696361645f,rev?*%
%TF.SameCoordinates,Original*%
%TF.FileFunction,Soldermask,Top*%
%TF.FilePolarity,Negative*%
%FSLAX46Y46*%
G04 Gerber Fmt 4.6, Leading zero omitted, Abs format (unit mm)*
G04 Created by KiCad (PCBNEW (5.1.10)-1) date 2022-01-12 07:46:51*
%MOMM*%
%LPD*%
G01*
G04 APERTURE LIST*
%ADD10C,2.000000*%
%ADD11R,2.000000X2.000000*%
%ADD12C,3.200000*%
%ADD13R,3.500000X2.300000*%
%ADD14R,2.300000X3.500000*%
%ADD15C,2.500000*%
%ADD16R,2.500000X2.500000*%
%ADD17R,1.600000X2.400000*%
%ADD18O,1.600000X2.400000*%
%ADD19C,3.000000*%
%ADD20R,5.400000X2.900000*%
%ADD21R,0.800000X0.900000*%
%ADD22R,0.900000X0.800000*%
%ADD23R,1.700000X1.700000*%
%ADD24O,1.700000X1.700000*%
%ADD25R,2.200000X3.000000*%
G04 APERTURE END LIST*
D10*
%TO.C,BZ2*%
X181100000Y-69900000D03*
D11*
X187600000Y-69900000D03*
%TD*%
D10*
%TO.C,SW1*%
X170000000Y-131500000D03*
X165000000Y-131500000D03*
%TD*%
D12*
%TO.C,REF\u002A\u002A*%
X192500000Y-142000000D03*
%TD*%
%TO.C,REF\u002A\u002A*%
X192500000Y-87000000D03*
%TD*%
%TO.C,REF\u002A\u002A*%
X100500000Y-142000000D03*
%TD*%
%TO.C,REF\u002A\u002A*%
X100500000Y-87000000D03*
%TD*%
%TO.C,REF\u002A\u002A*%
X278000000Y-24500000D03*
%TD*%
%TO.C,REF\u002A\u002A*%
X278500000Y-216000000D03*
%TD*%
%TO.C,REF\u002A\u002A*%
X70000000Y-215000000D03*
%TD*%
%TO.C,REF\u002A\u002A*%
X70000000Y-25000000D03*
%TD*%
%TO.C,C2*%
G36*
G01*
X79100000Y-105049999D02*
X79100000Y-105950001D01*
G75*
G02*
X78850001Y-106200000I-249999J0D01*
G01*
X78149999Y-106200000D01*
G75*
G02*
X77900000Y-105950001I0J249999D01*
G01*
X77900000Y-105049999D01*
G75*
G02*
X78149999Y-104800000I249999J0D01*
G01*
X78850001Y-104800000D01*
G75*
G02*
X79100000Y-105049999I0J-249999D01*
G01*
G37*
G36*
G01*
X81100000Y-105049999D02*
X81100000Y-105950001D01*
G75*
G02*
X80850001Y-106200000I-249999J0D01*
G01*
X80149999Y-106200000D01*
G75*
G02*
X79900000Y-105950001I0J249999D01*
G01*
X79900000Y-105049999D01*
G75*
G02*
X80149999Y-104800000I249999J0D01*
G01*
X80850001Y-104800000D01*
G75*
G02*
X81100000Y-105049999I0J-249999D01*
G01*
G37*
%TD*%
%TO.C,C3*%
G36*
G01*
X98900000Y-110950001D02*
X98900000Y-110049999D01*
G75*
G02*
X99149999Y-109800000I249999J0D01*
G01*
X99850001Y-109800000D01*
G75*
G02*
X100100000Y-110049999I0J-249999D01*
G01*
X100100000Y-110950001D01*
G75*
G02*
X99850001Y-111200000I-249999J0D01*
G01*
X99149999Y-111200000D01*
G75*
G02*
X98900000Y-110950001I0J249999D01*
G01*
G37*
G36*
G01*
X100900000Y-110950001D02*
X100900000Y-110049999D01*
G75*
G02*
X101149999Y-109800000I249999J0D01*
G01*
X101850001Y-109800000D01*
G75*
G02*
X102100000Y-110049999I0J-249999D01*
G01*
X102100000Y-110950001D01*
G75*
G02*
X101850001Y-111200000I-249999J0D01*
G01*
X101149999Y-111200000D01*
G75*
G02*
X100900000Y-110950001I0J249999D01*
G01*
G37*
%TD*%
%TO.C,C4*%
G36*
G01*
X89100000Y-105049999D02*
X89100000Y-105950001D01*
G75*
G02*
X88850001Y-106200000I-249999J0D01*
G01*
X88149999Y-106200000D01*
G75*
G02*
X87900000Y-105950001I0J249999D01*
G01*
X87900000Y-105049999D01*
G75*
G02*
X88149999Y-104800000I249999J0D01*
G01*
X88850001Y-104800000D01*
G75*
G02*
X89100000Y-105049999I0J-249999D01*
G01*
G37*
G36*
G01*
X91100000Y-105049999D02*
X91100000Y-105950001D01*
G75*
G02*
X90850001Y-106200000I-249999J0D01*
G01*
X90149999Y-106200000D01*
G75*
G02*
X89900000Y-105950001I0J249999D01*
G01*
X89900000Y-105049999D01*
G75*
G02*
X90149999Y-104800000I249999J0D01*
G01*
X90850001Y-104800000D01*
G75*
G02*
X91100000Y-105049999I0J-249999D01*
G01*
G37*
%TD*%
%TO.C,C6*%
G36*
G01*
X123950001Y-115100000D02*
X123049999Y-115100000D01*
G75*
G02*
X122800000Y-114850001I0J249999D01*
G01*
X122800000Y-114149999D01*
G75*
G02*
X123049999Y-113900000I249999J0D01*
G01*
X123950001Y-113900000D01*
G75*
G02*
X124200000Y-114149999I0J-249999D01*
G01*
X124200000Y-114850001D01*
G75*
G02*
X123950001Y-115100000I-249999J0D01*
G01*
G37*
G36*
G01*
X123950001Y-113100000D02*
X123049999Y-113100000D01*
G75*
G02*
X122800000Y-112850001I0J249999D01*
G01*
X122800000Y-112149999D01*
G75*
G02*
X123049999Y-111900000I249999J0D01*
G01*
X123950001Y-111900000D01*
G75*
G02*
X124200000Y-112149999I0J-249999D01*
G01*
X124200000Y-112850001D01*
G75*
G02*
X123950001Y-113100000I-249999J0D01*
G01*
G37*
%TD*%
%TO.C,C7*%
G36*
G01*
X167100000Y-121549999D02*
X167100000Y-122450001D01*
G75*
G02*
X166850001Y-122700000I-249999J0D01*
G01*
X166149999Y-122700000D01*
G75*
G02*
X165900000Y-122450001I0J249999D01*
G01*
X165900000Y-121549999D01*
G75*
G02*
X166149999Y-121300000I249999J0D01*
G01*
X166850001Y-121300000D01*
G75*
G02*
X167100000Y-121549999I0J-249999D01*
G01*
G37*
G36*
G01*
X169100000Y-121549999D02*
X169100000Y-122450001D01*
G75*
G02*
X168850001Y-122700000I-249999J0D01*
G01*
X168149999Y-122700000D01*
G75*
G02*
X167900000Y-122450001I0J249999D01*
G01*
X167900000Y-121549999D01*
G75*
G02*
X168149999Y-121300000I249999J0D01*
G01*
X168850001Y-121300000D01*
G75*
G02*
X169100000Y-121549999I0J-249999D01*
G01*
G37*
%TD*%
%TO.C,C8*%
G36*
G01*
X167900000Y-137950001D02*
X167900000Y-137049999D01*
G75*
G02*
X168149999Y-136800000I249999J0D01*
G01*
X168850001Y-136800000D01*
G75*
G02*
X169100000Y-137049999I0J-249999D01*
G01*
X169100000Y-137950001D01*
G75*
G02*
X168850001Y-138200000I-249999J0D01*
G01*
X168149999Y-138200000D01*
G75*
G02*
X167900000Y-137950001I0J249999D01*
G01*
G37*
G36*
G01*
X165900000Y-137950001D02*
X165900000Y-137049999D01*
G75*
G02*
X166149999Y-136800000I249999J0D01*
G01*
X166850001Y-136800000D01*
G75*
G02*
X167100000Y-137049999I0J-249999D01*
G01*
X167100000Y-137950001D01*
G75*
G02*
X166850001Y-138200000I-249999J0D01*
G01*
X166149999Y-138200000D01*
G75*
G02*
X165900000Y-137950001I0J249999D01*
G01*
G37*
%TD*%
%TO.C,C9*%
G36*
G01*
X246400000Y-165450001D02*
X246400000Y-164549999D01*
G75*
G02*
X246649999Y-164300000I249999J0D01*
G01*
X247350001Y-164300000D01*
G75*
G02*
X247600000Y-164549999I0J-249999D01*
G01*
X247600000Y-165450001D01*
G75*
G02*
X247350001Y-165700000I-249999J0D01*
G01*
X246649999Y-165700000D01*
G75*
G02*
X246400000Y-165450001I0J249999D01*
G01*
G37*
G36*
G01*
X248400000Y-165450001D02*
X248400000Y-164549999D01*
G75*
G02*
X248649999Y-164300000I249999J0D01*
G01*
X249350001Y-164300000D01*
G75*
G02*
X249600000Y-164549999I0J-249999D01*
G01*
X249600000Y-165450001D01*
G75*
G02*
X249350001Y-165700000I-249999J0D01*
G01*
X248649999Y-165700000D01*
G75*
G02*
X248400000Y-165450001I0J249999D01*
G01*
G37*
%TD*%
%TO.C,C10*%
G36*
G01*
X247389599Y-150262800D02*
X248289601Y-150262800D01*
G75*
G02*
X248539600Y-150512799I0J-249999D01*
G01*
X248539600Y-151212801D01*
G75*
G02*
X248289601Y-151462800I-249999J0D01*
G01*
X247389599Y-151462800D01*
G75*
G02*
X247139600Y-151212801I0J249999D01*
G01*
X247139600Y-150512799D01*
G75*
G02*
X247389599Y-150262800I249999J0D01*
G01*
G37*
G36*
G01*
X247389599Y-152262800D02*
X248289601Y-152262800D01*
G75*
G02*
X248539600Y-152512799I0J-249999D01*
G01*
X248539600Y-153212801D01*
G75*
G02*
X248289601Y-153462800I-249999J0D01*
G01*
X247389599Y-153462800D01*
G75*
G02*
X247139600Y-153212801I0J249999D01*
G01*
X247139600Y-152512799D01*
G75*
G02*
X247389599Y-152262800I249999J0D01*
G01*
G37*
%TD*%
%TO.C,C11*%
G36*
G01*
X247389599Y-138762800D02*
X248289601Y-138762800D01*
G75*
G02*
X248539600Y-139012799I0J-249999D01*
G01*
X248539600Y-139712801D01*
G75*
G02*
X248289601Y-139962800I-249999J0D01*
G01*
X247389599Y-139962800D01*
G75*
G02*
X247139600Y-139712801I0J249999D01*
G01*
X247139600Y-139012799D01*
G75*
G02*
X247389599Y-138762800I249999J0D01*
G01*
G37*
G36*
G01*
X247389599Y-140762800D02*
X248289601Y-140762800D01*
G75*
G02*
X248539600Y-141012799I0J-249999D01*
G01*
X248539600Y-141712801D01*
G75*
G02*
X248289601Y-141962800I-249999J0D01*
G01*
X247389599Y-141962800D01*
G75*
G02*
X247139600Y-141712801I0J249999D01*
G01*
X247139600Y-141012799D01*
G75*
G02*
X247389599Y-140762800I249999J0D01*
G01*
G37*
%TD*%
%TO.C,C12*%
G36*
G01*
X248389599Y-127762800D02*
X249289601Y-127762800D01*
G75*
G02*
X249539600Y-128012799I0J-249999D01*
G01*
X249539600Y-128712801D01*
G75*
G02*
X249289601Y-128962800I-249999J0D01*
G01*
X248389599Y-128962800D01*
G75*
G02*
X248139600Y-128712801I0J249999D01*
G01*
X248139600Y-128012799D01*
G75*
G02*
X248389599Y-127762800I249999J0D01*
G01*
G37*
G36*
G01*
X248389599Y-125762800D02*
X249289601Y-125762800D01*
G75*
G02*
X249539600Y-126012799I0J-249999D01*
G01*
X249539600Y-126712801D01*
G75*
G02*
X249289601Y-126962800I-249999J0D01*
G01*
X248389599Y-126962800D01*
G75*
G02*
X248139600Y-126712801I0J249999D01*
G01*
X248139600Y-126012799D01*
G75*
G02*
X248389599Y-125762800I249999J0D01*
G01*
G37*
%TD*%
%TO.C,C13*%
G36*
G01*
X248389599Y-114762800D02*
X249289601Y-114762800D01*
G75*
G02*
X249539600Y-115012799I0J-249999D01*
G01*
X249539600Y-115712801D01*
G75*
G02*
X249289601Y-115962800I-249999J0D01*
G01*
X248389599Y-115962800D01*
G75*
G02*
X248139600Y-115712801I0J249999D01*
G01*
X248139600Y-115012799D01*
G75*
G02*
X248389599Y-114762800I249999J0D01*
G01*
G37*
G36*
G01*
X248389599Y-112762800D02*
X249289601Y-112762800D01*
G75*
G02*
X249539600Y-113012799I0J-249999D01*
G01*
X249539600Y-113712801D01*
G75*
G02*
X249289601Y-113962800I-249999J0D01*
G01*
X248389599Y-113962800D01*
G75*
G02*
X248139600Y-113712801I0J249999D01*
G01*
X248139600Y-113012799D01*
G75*
G02*
X248389599Y-112762800I249999J0D01*
G01*
G37*
%TD*%
%TO.C,C14*%
G36*
G01*
X248389599Y-101762800D02*
X249289601Y-101762800D01*
G75*
G02*
X249539600Y-102012799I0J-249999D01*
G01*
X249539600Y-102712801D01*
G75*
G02*
X249289601Y-102962800I-249999J0D01*
G01*
X248389599Y-102962800D01*
G75*
G02*
X248139600Y-102712801I0J249999D01*
G01*
X248139600Y-102012799D01*
G75*
G02*
X248389599Y-101762800I249999J0D01*
G01*
G37*
G36*
G01*
X248389599Y-99762800D02*
X249289601Y-99762800D01*
G75*
G02*
X249539600Y-100012799I0J-249999D01*
G01*
X249539600Y-100712801D01*
G75*
G02*
X249289601Y-100962800I-249999J0D01*
G01*
X248389599Y-100962800D01*
G75*
G02*
X248139600Y-100712801I0J249999D01*
G01*
X248139600Y-100012799D01*
G75*
G02*
X248389599Y-99762800I249999J0D01*
G01*
G37*
%TD*%
%TO.C,C15*%
G36*
G01*
X248389599Y-89262800D02*
X249289601Y-89262800D01*
G75*
G02*
X249539600Y-89512799I0J-249999D01*
G01*
X249539600Y-90212801D01*
G75*
G02*
X249289601Y-90462800I-249999J0D01*
G01*
X248389599Y-90462800D01*
G75*
G02*
X248139600Y-90212801I0J249999D01*
G01*
X248139600Y-89512799D01*
G75*
G02*
X248389599Y-89262800I249999J0D01*
G01*
G37*
G36*
G01*
X248389599Y-87262800D02*
X249289601Y-87262800D01*
G75*
G02*
X249539600Y-87512799I0J-249999D01*
G01*
X249539600Y-88212801D01*
G75*
G02*
X249289601Y-88462800I-249999J0D01*
G01*
X248389599Y-88462800D01*
G75*
G02*
X248139600Y-88212801I0J249999D01*
G01*
X248139600Y-87512799D01*
G75*
G02*
X248389599Y-87262800I249999J0D01*
G01*
G37*
%TD*%
%TO.C,C16*%
G36*
G01*
X248889599Y-74762800D02*
X249789601Y-74762800D01*
G75*
G02*
X250039600Y-75012799I0J-249999D01*
G01*
X250039600Y-75712801D01*
G75*
G02*
X249789601Y-75962800I-249999J0D01*
G01*
X248889599Y-75962800D01*
G75*
G02*
X248639600Y-75712801I0J249999D01*
G01*
X248639600Y-75012799D01*
G75*
G02*
X248889599Y-74762800I249999J0D01*
G01*
G37*
G36*
G01*
X248889599Y-76762800D02*
X249789601Y-76762800D01*
G75*
G02*
X250039600Y-77012799I0J-249999D01*
G01*
X250039600Y-77712801D01*
G75*
G02*
X249789601Y-77962800I-249999J0D01*
G01*
X248889599Y-77962800D01*
G75*
G02*
X248639600Y-77712801I0J249999D01*
G01*
X248639600Y-77012799D01*
G75*
G02*
X248889599Y-76762800I249999J0D01*
G01*
G37*
%TD*%
D13*
%TO.C,D2*%
X77200000Y-49500000D03*
X71800000Y-49500000D03*
%TD*%
%TO.C,D14*%
X161300000Y-180500000D03*
X166700000Y-180500000D03*
%TD*%
D14*
%TO.C,D23*%
X264839600Y-170562800D03*
X264839600Y-165162800D03*
%TD*%
%TO.C,D24*%
X264839600Y-157062800D03*
X264839600Y-151662800D03*
%TD*%
%TO.C,D25*%
X264839600Y-144062800D03*
X264839600Y-138662800D03*
%TD*%
%TO.C,D26*%
X264839600Y-126162800D03*
X264839600Y-131562800D03*
%TD*%
%TO.C,D31*%
X264839600Y-113662800D03*
X264839600Y-119062800D03*
%TD*%
%TO.C,D32*%
X264839600Y-106062800D03*
X264839600Y-100662800D03*
%TD*%
%TO.C,D33*%
X264839600Y-93062800D03*
X264839600Y-87662800D03*
%TD*%
%TO.C,D34*%
X264839600Y-74662800D03*
X264839600Y-80062800D03*
%TD*%
D13*
%TO.C,D39*%
X134200000Y-37500000D03*
X128800000Y-37500000D03*
%TD*%
%TO.C,D40*%
X148200000Y-37500000D03*
X142800000Y-37500000D03*
%TD*%
%TO.C,D41*%
X161700000Y-37500000D03*
X156300000Y-37500000D03*
%TD*%
%TO.C,D42*%
X171800000Y-38000000D03*
X177200000Y-38000000D03*
%TD*%
D15*
%TO.C,J1*%
X85500000Y-27500000D03*
D16*
X90500000Y-27500000D03*
%TD*%
D15*
%TO.C,J3*%
X217500000Y-27000000D03*
D16*
X232500000Y-27000000D03*
D15*
X227500000Y-27000000D03*
X222500000Y-27000000D03*
%TD*%
%TO.C,J4*%
X199500000Y-27000000D03*
X204500000Y-27000000D03*
D16*
X209500000Y-27000000D03*
D15*
X194500000Y-27000000D03*
%TD*%
D16*
%TO.C,J5*%
X93000000Y-212500000D03*
D15*
X98000000Y-212500000D03*
X103000000Y-212500000D03*
%TD*%
D16*
%TO.C,J6*%
X116000000Y-212500000D03*
D15*
X121000000Y-212500000D03*
X126000000Y-212500000D03*
%TD*%
D16*
%TO.C,J7*%
X137000000Y-212500000D03*
D15*
X142000000Y-212500000D03*
X147000000Y-212500000D03*
%TD*%
%TO.C,J8*%
X168000000Y-212500000D03*
X163000000Y-212500000D03*
D16*
X158000000Y-212500000D03*
%TD*%
%TO.C,J9*%
X178000000Y-212500000D03*
D15*
X183000000Y-212500000D03*
X188000000Y-212500000D03*
%TD*%
%TO.C,J10*%
X208000000Y-212500000D03*
X203000000Y-212500000D03*
D16*
X198000000Y-212500000D03*
%TD*%
D15*
%TO.C,J11*%
X228000000Y-212500000D03*
X223000000Y-212500000D03*
D16*
X218000000Y-212500000D03*
%TD*%
D15*
%TO.C,J12*%
X248000000Y-212500000D03*
X243000000Y-212500000D03*
D16*
X238000000Y-212500000D03*
%TD*%
D15*
%TO.C,J13*%
X273839600Y-165362800D03*
D16*
X273839600Y-170362800D03*
%TD*%
D15*
%TO.C,J14*%
X273839600Y-152362800D03*
D16*
X273839600Y-157362800D03*
%TD*%
D15*
%TO.C,J15*%
X273839600Y-139362800D03*
D16*
X273839600Y-144362800D03*
%TD*%
%TO.C,J16*%
X273839600Y-131362800D03*
D15*
X273839600Y-126362800D03*
%TD*%
%TO.C,J17*%
X273839600Y-113362800D03*
D16*
X273839600Y-118362800D03*
%TD*%
%TO.C,J18*%
X273839600Y-105362800D03*
D15*
X273839600Y-100362800D03*
%TD*%
D16*
%TO.C,J19*%
X273839600Y-92362800D03*
D15*
X273839600Y-87362800D03*
%TD*%
%TO.C,J20*%
X273839600Y-74362800D03*
D16*
X273839600Y-79362800D03*
%TD*%
%TO.C,J21*%
X134000000Y-27000000D03*
D15*
X129000000Y-27000000D03*
%TD*%
D16*
%TO.C,J22*%
X148000000Y-27000000D03*
D15*
X143000000Y-27000000D03*
%TD*%
D16*
%TO.C,J23*%
X161500000Y-27000000D03*
D15*
X156500000Y-27000000D03*
%TD*%
%TO.C,J24*%
X171500000Y-27000000D03*
D16*
X176500000Y-27000000D03*
%TD*%
D15*
%TO.C,J25*%
X102500000Y-27500000D03*
D16*
X117500000Y-27500000D03*
D15*
X112500000Y-27500000D03*
X107500000Y-27500000D03*
X97500000Y-27500000D03*
%TD*%
%TO.C,R1*%
G36*
G01*
X83125001Y-110950001D02*
X83125001Y-110049999D01*
G75*
G02*
X83375000Y-109800000I249999J0D01*
G01*
X84075002Y-109800000D01*
G75*
G02*
X84325001Y-110049999I0J-249999D01*
G01*
X84325001Y-110950001D01*
G75*
G02*
X84075002Y-111200000I-249999J0D01*
G01*
X83375000Y-111200000D01*
G75*
G02*
X83125001Y-110950001I0J249999D01*
G01*
G37*
G36*
G01*
X81125001Y-110950001D02*
X81125001Y-110049999D01*
G75*
G02*
X81375000Y-109800000I249999J0D01*
G01*
X82075002Y-109800000D01*
G75*
G02*
X82325001Y-110049999I0J-249999D01*
G01*
X82325001Y-110950001D01*
G75*
G02*
X82075002Y-111200000I-249999J0D01*
G01*
X81375000Y-111200000D01*
G75*
G02*
X81125001Y-110950001I0J249999D01*
G01*
G37*
%TD*%
%TO.C,R2*%
G36*
G01*
X78600000Y-110049999D02*
X78600000Y-110950001D01*
G75*
G02*
X78350001Y-111200000I-249999J0D01*
G01*
X77649999Y-111200000D01*
G75*
G02*
X77400000Y-110950001I0J249999D01*
G01*
X77400000Y-110049999D01*
G75*
G02*
X77649999Y-109800000I249999J0D01*
G01*
X78350001Y-109800000D01*
G75*
G02*
X78600000Y-110049999I0J-249999D01*
G01*
G37*
G36*
G01*
X76600000Y-110049999D02*
X76600000Y-110950001D01*
G75*
G02*
X76350001Y-111200000I-249999J0D01*
G01*
X75649999Y-111200000D01*
G75*
G02*
X75400000Y-110950001I0J249999D01*
G01*
X75400000Y-110049999D01*
G75*
G02*
X75649999Y-109800000I249999J0D01*
G01*
X76350001Y-109800000D01*
G75*
G02*
X76600000Y-110049999I0J-249999D01*
G01*
G37*
%TD*%
%TO.C,R3*%
G36*
G01*
X100950001Y-116100000D02*
X100049999Y-116100000D01*
G75*
G02*
X99800000Y-115850001I0J249999D01*
G01*
X99800000Y-115149999D01*
G75*
G02*
X100049999Y-114900000I249999J0D01*
G01*
X100950001Y-114900000D01*
G75*
G02*
X101200000Y-115149999I0J-249999D01*
G01*
X101200000Y-115850001D01*
G75*
G02*
X100950001Y-116100000I-249999J0D01*
G01*
G37*
G36*
G01*
X100950001Y-118100000D02*
X100049999Y-118100000D01*
G75*
G02*
X99800000Y-117850001I0J249999D01*
G01*
X99800000Y-117149999D01*
G75*
G02*
X100049999Y-116900000I249999J0D01*
G01*
X100950001Y-116900000D01*
G75*
G02*
X101200000Y-117149999I0J-249999D01*
G01*
X101200000Y-117850001D01*
G75*
G02*
X100950001Y-118100000I-249999J0D01*
G01*
G37*
%TD*%
%TO.C,R4*%
G36*
G01*
X105950001Y-114100000D02*
X105049999Y-114100000D01*
G75*
G02*
X104800000Y-113850001I0J249999D01*
G01*
X104800000Y-113149999D01*
G75*
G02*
X105049999Y-112900000I249999J0D01*
G01*
X105950001Y-112900000D01*
G75*
G02*
X106200000Y-113149999I0J-249999D01*
G01*
X106200000Y-113850001D01*
G75*
G02*
X105950001Y-114100000I-249999J0D01*
G01*
G37*
G36*
G01*
X105950001Y-116100000D02*
X105049999Y-116100000D01*
G75*
G02*
X104800000Y-115850001I0J249999D01*
G01*
X104800000Y-115149999D01*
G75*
G02*
X105049999Y-114900000I249999J0D01*
G01*
X105950001Y-114900000D01*
G75*
G02*
X106200000Y-115149999I0J-249999D01*
G01*
X106200000Y-115850001D01*
G75*
G02*
X105950001Y-116100000I-249999J0D01*
G01*
G37*
%TD*%
%TO.C,R5*%
G36*
G01*
X109049999Y-107900000D02*
X109950001Y-107900000D01*
G75*
G02*
X110200000Y-108149999I0J-249999D01*
G01*
X110200000Y-108850001D01*
G75*
G02*
X109950001Y-109100000I-249999J0D01*
G01*
X109049999Y-109100000D01*
G75*
G02*
X108800000Y-108850001I0J249999D01*
G01*
X108800000Y-108149999D01*
G75*
G02*
X109049999Y-107900000I249999J0D01*
G01*
G37*
G36*
G01*
X109049999Y-105900000D02*
X109950001Y-105900000D01*
G75*
G02*
X110200000Y-106149999I0J-249999D01*
G01*
X110200000Y-106850001D01*
G75*
G02*
X109950001Y-107100000I-249999J0D01*
G01*
X109049999Y-107100000D01*
G75*
G02*
X108800000Y-106850001I0J249999D01*
G01*
X108800000Y-106149999D01*
G75*
G02*
X109049999Y-105900000I249999J0D01*
G01*
G37*
%TD*%
%TO.C,R6*%
G36*
G01*
X160049999Y-130900000D02*
X160950001Y-130900000D01*
G75*
G02*
X161200000Y-131149999I0J-249999D01*
G01*
X161200000Y-131850001D01*
G75*
G02*
X160950001Y-132100000I-249999J0D01*
G01*
X160049999Y-132100000D01*
G75*
G02*
X159800000Y-131850001I0J249999D01*
G01*
X159800000Y-131149999D01*
G75*
G02*
X160049999Y-130900000I249999J0D01*
G01*
G37*
G36*
G01*
X160049999Y-128900000D02*
X160950001Y-128900000D01*
G75*
G02*
X161200000Y-129149999I0J-249999D01*
G01*
X161200000Y-129850001D01*
G75*
G02*
X160950001Y-130100000I-249999J0D01*
G01*
X160049999Y-130100000D01*
G75*
G02*
X159800000Y-129850001I0J249999D01*
G01*
X159800000Y-129149999D01*
G75*
G02*
X160049999Y-128900000I249999J0D01*
G01*
G37*
%TD*%
%TO.C,R7*%
G36*
G01*
X89400000Y-180950001D02*
X89400000Y-180049999D01*
G75*
G02*
X89649999Y-179800000I249999J0D01*
G01*
X90350001Y-179800000D01*
G75*
G02*
X90600000Y-180049999I0J-249999D01*
G01*
X90600000Y-180950001D01*
G75*
G02*
X90350001Y-181200000I-249999J0D01*
G01*
X89649999Y-181200000D01*
G75*
G02*
X89400000Y-180950001I0J249999D01*
G01*
G37*
G36*
G01*
X91400000Y-180950001D02*
X91400000Y-180049999D01*
G75*
G02*
X91649999Y-179800000I249999J0D01*
G01*
X92350001Y-179800000D01*
G75*
G02*
X92600000Y-180049999I0J-249999D01*
G01*
X92600000Y-180950001D01*
G75*
G02*
X92350001Y-181200000I-249999J0D01*
G01*
X91649999Y-181200000D01*
G75*
G02*
X91400000Y-180950001I0J249999D01*
G01*
G37*
%TD*%
%TO.C,R8*%
G36*
G01*
X87900000Y-158950001D02*
X87900000Y-158049999D01*
G75*
G02*
X88149999Y-157800000I249999J0D01*
G01*
X88850001Y-157800000D01*
G75*
G02*
X89100000Y-158049999I0J-249999D01*
G01*
X89100000Y-158950001D01*
G75*
G02*
X88850001Y-159200000I-249999J0D01*
G01*
X88149999Y-159200000D01*
G75*
G02*
X87900000Y-158950001I0J249999D01*
G01*
G37*
G36*
G01*
X89900000Y-158950001D02*
X89900000Y-158049999D01*
G75*
G02*
X90149999Y-157800000I249999J0D01*
G01*
X90850001Y-157800000D01*
G75*
G02*
X91100000Y-158049999I0J-249999D01*
G01*
X91100000Y-158950001D01*
G75*
G02*
X90850001Y-159200000I-249999J0D01*
G01*
X90149999Y-159200000D01*
G75*
G02*
X89900000Y-158950001I0J249999D01*
G01*
G37*
%TD*%
%TO.C,R9*%
G36*
G01*
X87900000Y-164450001D02*
X87900000Y-163549999D01*
G75*
G02*
X88149999Y-163300000I249999J0D01*
G01*
X88850001Y-163300000D01*
G75*
G02*
X89100000Y-163549999I0J-249999D01*
G01*
X89100000Y-164450001D01*
G75*
G02*
X88850001Y-164700000I-249999J0D01*
G01*
X88149999Y-164700000D01*
G75*
G02*
X87900000Y-164450001I0J249999D01*
G01*
G37*
G36*
G01*
X85900000Y-164450001D02*
X85900000Y-163549999D01*
G75*
G02*
X86149999Y-163300000I249999J0D01*
G01*
X86850001Y-163300000D01*
G75*
G02*
X87100000Y-163549999I0J-249999D01*
G01*
X87100000Y-164450001D01*
G75*
G02*
X86850001Y-164700000I-249999J0D01*
G01*
X86149999Y-164700000D01*
G75*
G02*
X85900000Y-164450001I0J249999D01*
G01*
G37*
%TD*%
%TO.C,R10*%
G36*
G01*
X113400000Y-180950001D02*
X113400000Y-180049999D01*
G75*
G02*
X113649999Y-179800000I249999J0D01*
G01*
X114350001Y-179800000D01*
G75*
G02*
X114600000Y-180049999I0J-249999D01*
G01*
X114600000Y-180950001D01*
G75*
G02*
X114350001Y-181200000I-249999J0D01*
G01*
X113649999Y-181200000D01*
G75*
G02*
X113400000Y-180950001I0J249999D01*
G01*
G37*
G36*
G01*
X111400000Y-180950001D02*
X111400000Y-180049999D01*
G75*
G02*
X111649999Y-179800000I249999J0D01*
G01*
X112350001Y-179800000D01*
G75*
G02*
X112600000Y-180049999I0J-249999D01*
G01*
X112600000Y-180950001D01*
G75*
G02*
X112350001Y-181200000I-249999J0D01*
G01*
X111649999Y-181200000D01*
G75*
G02*
X111400000Y-180950001I0J249999D01*
G01*
G37*
%TD*%
%TO.C,R11*%
G36*
G01*
X110900000Y-159450001D02*
X110900000Y-158549999D01*
G75*
G02*
X111149999Y-158300000I249999J0D01*
G01*
X111850001Y-158300000D01*
G75*
G02*
X112100000Y-158549999I0J-249999D01*
G01*
X112100000Y-159450001D01*
G75*
G02*
X111850001Y-159700000I-249999J0D01*
G01*
X111149999Y-159700000D01*
G75*
G02*
X110900000Y-159450001I0J249999D01*
G01*
G37*
G36*
G01*
X112900000Y-159450001D02*
X112900000Y-158549999D01*
G75*
G02*
X113149999Y-158300000I249999J0D01*
G01*
X113850001Y-158300000D01*
G75*
G02*
X114100000Y-158549999I0J-249999D01*
G01*
X114100000Y-159450001D01*
G75*
G02*
X113850001Y-159700000I-249999J0D01*
G01*
X113149999Y-159700000D01*
G75*
G02*
X112900000Y-159450001I0J249999D01*
G01*
G37*
%TD*%
%TO.C,R12*%
G36*
G01*
X108900000Y-163950001D02*
X108900000Y-163049999D01*
G75*
G02*
X109149999Y-162800000I249999J0D01*
G01*
X109850001Y-162800000D01*
G75*
G02*
X110100000Y-163049999I0J-249999D01*
G01*
X110100000Y-163950001D01*
G75*
G02*
X109850001Y-164200000I-249999J0D01*
G01*
X109149999Y-164200000D01*
G75*
G02*
X108900000Y-163950001I0J249999D01*
G01*
G37*
G36*
G01*
X110900000Y-163950001D02*
X110900000Y-163049999D01*
G75*
G02*
X111149999Y-162800000I249999J0D01*
G01*
X111850001Y-162800000D01*
G75*
G02*
X112100000Y-163049999I0J-249999D01*
G01*
X112100000Y-163950001D01*
G75*
G02*
X111850001Y-164200000I-249999J0D01*
G01*
X111149999Y-164200000D01*
G75*
G02*
X110900000Y-163950001I0J249999D01*
G01*
G37*
%TD*%
%TO.C,R13*%
G36*
G01*
X135400000Y-180950001D02*
X135400000Y-180049999D01*
G75*
G02*
X135649999Y-179800000I249999J0D01*
G01*
X136350001Y-179800000D01*
G75*
G02*
X136600000Y-180049999I0J-249999D01*
G01*
X136600000Y-180950001D01*
G75*
G02*
X136350001Y-181200000I-249999J0D01*
G01*
X135649999Y-181200000D01*
G75*
G02*
X135400000Y-180950001I0J249999D01*
G01*
G37*
G36*
G01*
X133400000Y-180950001D02*
X133400000Y-180049999D01*
G75*
G02*
X133649999Y-179800000I249999J0D01*
G01*
X134350001Y-179800000D01*
G75*
G02*
X134600000Y-180049999I0J-249999D01*
G01*
X134600000Y-180950001D01*
G75*
G02*
X134350001Y-181200000I-249999J0D01*
G01*
X133649999Y-181200000D01*
G75*
G02*
X133400000Y-180950001I0J249999D01*
G01*
G37*
%TD*%
%TO.C,R14*%
G36*
G01*
X131900000Y-159950001D02*
X131900000Y-159049999D01*
G75*
G02*
X132149999Y-158800000I249999J0D01*
G01*
X132850001Y-158800000D01*
G75*
G02*
X133100000Y-159049999I0J-249999D01*
G01*
X133100000Y-159950001D01*
G75*
G02*
X132850001Y-160200000I-249999J0D01*
G01*
X132149999Y-160200000D01*
G75*
G02*
X131900000Y-159950001I0J249999D01*
G01*
G37*
G36*
G01*
X133900000Y-159950001D02*
X133900000Y-159049999D01*
G75*
G02*
X134149999Y-158800000I249999J0D01*
G01*
X134850001Y-158800000D01*
G75*
G02*
X135100000Y-159049999I0J-249999D01*
G01*
X135100000Y-159950001D01*
G75*
G02*
X134850001Y-160200000I-249999J0D01*
G01*
X134149999Y-160200000D01*
G75*
G02*
X133900000Y-159950001I0J249999D01*
G01*
G37*
%TD*%
%TO.C,R15*%
G36*
G01*
X129900000Y-164450001D02*
X129900000Y-163549999D01*
G75*
G02*
X130149999Y-163300000I249999J0D01*
G01*
X130850001Y-163300000D01*
G75*
G02*
X131100000Y-163549999I0J-249999D01*
G01*
X131100000Y-164450001D01*
G75*
G02*
X130850001Y-164700000I-249999J0D01*
G01*
X130149999Y-164700000D01*
G75*
G02*
X129900000Y-164450001I0J249999D01*
G01*
G37*
G36*
G01*
X131900000Y-164450001D02*
X131900000Y-163549999D01*
G75*
G02*
X132149999Y-163300000I249999J0D01*
G01*
X132850001Y-163300000D01*
G75*
G02*
X133100000Y-163549999I0J-249999D01*
G01*
X133100000Y-164450001D01*
G75*
G02*
X132850001Y-164700000I-249999J0D01*
G01*
X132149999Y-164700000D01*
G75*
G02*
X131900000Y-164450001I0J249999D01*
G01*
G37*
%TD*%
%TO.C,R16*%
G36*
G01*
X155549999Y-178900000D02*
X156450001Y-178900000D01*
G75*
G02*
X156700000Y-179149999I0J-249999D01*
G01*
X156700000Y-179850001D01*
G75*
G02*
X156450001Y-180100000I-249999J0D01*
G01*
X155549999Y-180100000D01*
G75*
G02*
X155300000Y-179850001I0J249999D01*
G01*
X155300000Y-179149999D01*
G75*
G02*
X155549999Y-178900000I249999J0D01*
G01*
G37*
G36*
G01*
X155549999Y-180900000D02*
X156450001Y-180900000D01*
G75*
G02*
X156700000Y-181149999I0J-249999D01*
G01*
X156700000Y-181850001D01*
G75*
G02*
X156450001Y-182100000I-249999J0D01*
G01*
X155549999Y-182100000D01*
G75*
G02*
X155300000Y-181850001I0J249999D01*
G01*
X155300000Y-181149999D01*
G75*
G02*
X155549999Y-180900000I249999J0D01*
G01*
G37*
%TD*%
%TO.C,R17*%
G36*
G01*
X152900000Y-159950001D02*
X152900000Y-159049999D01*
G75*
G02*
X153149999Y-158800000I249999J0D01*
G01*
X153850001Y-158800000D01*
G75*
G02*
X154100000Y-159049999I0J-249999D01*
G01*
X154100000Y-159950001D01*
G75*
G02*
X153850001Y-160200000I-249999J0D01*
G01*
X153149999Y-160200000D01*
G75*
G02*
X152900000Y-159950001I0J249999D01*
G01*
G37*
G36*
G01*
X154900000Y-159950001D02*
X154900000Y-159049999D01*
G75*
G02*
X155149999Y-158800000I249999J0D01*
G01*
X155850001Y-158800000D01*
G75*
G02*
X156100000Y-159049999I0J-249999D01*
G01*
X156100000Y-159950001D01*
G75*
G02*
X155850001Y-160200000I-249999J0D01*
G01*
X155149999Y-160200000D01*
G75*
G02*
X154900000Y-159950001I0J249999D01*
G01*
G37*
%TD*%
%TO.C,R18*%
G36*
G01*
X152900000Y-163950001D02*
X152900000Y-163049999D01*
G75*
G02*
X153149999Y-162800000I249999J0D01*
G01*
X153850001Y-162800000D01*
G75*
G02*
X154100000Y-163049999I0J-249999D01*
G01*
X154100000Y-163950001D01*
G75*
G02*
X153850001Y-164200000I-249999J0D01*
G01*
X153149999Y-164200000D01*
G75*
G02*
X152900000Y-163950001I0J249999D01*
G01*
G37*
G36*
G01*
X150900000Y-163950001D02*
X150900000Y-163049999D01*
G75*
G02*
X151149999Y-162800000I249999J0D01*
G01*
X151850001Y-162800000D01*
G75*
G02*
X152100000Y-163049999I0J-249999D01*
G01*
X152100000Y-163950001D01*
G75*
G02*
X151850001Y-164200000I-249999J0D01*
G01*
X151149999Y-164200000D01*
G75*
G02*
X150900000Y-163950001I0J249999D01*
G01*
G37*
%TD*%
%TO.C,R19*%
G36*
G01*
X172400000Y-180450001D02*
X172400000Y-179549999D01*
G75*
G02*
X172649999Y-179300000I249999J0D01*
G01*
X173350001Y-179300000D01*
G75*
G02*
X173600000Y-179549999I0J-249999D01*
G01*
X173600000Y-180450001D01*
G75*
G02*
X173350001Y-180700000I-249999J0D01*
G01*
X172649999Y-180700000D01*
G75*
G02*
X172400000Y-180450001I0J249999D01*
G01*
G37*
G36*
G01*
X174400000Y-180450001D02*
X174400000Y-179549999D01*
G75*
G02*
X174649999Y-179300000I249999J0D01*
G01*
X175350001Y-179300000D01*
G75*
G02*
X175600000Y-179549999I0J-249999D01*
G01*
X175600000Y-180450001D01*
G75*
G02*
X175350001Y-180700000I-249999J0D01*
G01*
X174649999Y-180700000D01*
G75*
G02*
X174400000Y-180450001I0J249999D01*
G01*
G37*
%TD*%
%TO.C,R20*%
G36*
G01*
X174900000Y-159450001D02*
X174900000Y-158549999D01*
G75*
G02*
X175149999Y-158300000I249999J0D01*
G01*
X175850001Y-158300000D01*
G75*
G02*
X176100000Y-158549999I0J-249999D01*
G01*
X176100000Y-159450001D01*
G75*
G02*
X175850001Y-159700000I-249999J0D01*
G01*
X175149999Y-159700000D01*
G75*
G02*
X174900000Y-159450001I0J249999D01*
G01*
G37*
G36*
G01*
X176900000Y-159450001D02*
X176900000Y-158549999D01*
G75*
G02*
X177149999Y-158300000I249999J0D01*
G01*
X177850001Y-158300000D01*
G75*
G02*
X178100000Y-158549999I0J-249999D01*
G01*
X178100000Y-159450001D01*
G75*
G02*
X177850001Y-159700000I-249999J0D01*
G01*
X177149999Y-159700000D01*
G75*
G02*
X176900000Y-159450001I0J249999D01*
G01*
G37*
%TD*%
%TO.C,R21*%
G36*
G01*
X174900000Y-164950001D02*
X174900000Y-164049999D01*
G75*
G02*
X175149999Y-163800000I249999J0D01*
G01*
X175850001Y-163800000D01*
G75*
G02*
X176100000Y-164049999I0J-249999D01*
G01*
X176100000Y-164950001D01*
G75*
G02*
X175850001Y-165200000I-249999J0D01*
G01*
X175149999Y-165200000D01*
G75*
G02*
X174900000Y-164950001I0J249999D01*
G01*
G37*
G36*
G01*
X172900000Y-164950001D02*
X172900000Y-164049999D01*
G75*
G02*
X173149999Y-163800000I249999J0D01*
G01*
X173850001Y-163800000D01*
G75*
G02*
X174100000Y-164049999I0J-249999D01*
G01*
X174100000Y-164950001D01*
G75*
G02*
X173850001Y-165200000I-249999J0D01*
G01*
X173149999Y-165200000D01*
G75*
G02*
X172900000Y-164950001I0J249999D01*
G01*
G37*
%TD*%
%TO.C,R22*%
G36*
G01*
X194400000Y-180950001D02*
X194400000Y-180049999D01*
G75*
G02*
X194649999Y-179800000I249999J0D01*
G01*
X195350001Y-179800000D01*
G75*
G02*
X195600000Y-180049999I0J-249999D01*
G01*
X195600000Y-180950001D01*
G75*
G02*
X195350001Y-181200000I-249999J0D01*
G01*
X194649999Y-181200000D01*
G75*
G02*
X194400000Y-180950001I0J249999D01*
G01*
G37*
G36*
G01*
X192400000Y-180950001D02*
X192400000Y-180049999D01*
G75*
G02*
X192649999Y-179800000I249999J0D01*
G01*
X193350001Y-179800000D01*
G75*
G02*
X193600000Y-180049999I0J-249999D01*
G01*
X193600000Y-180950001D01*
G75*
G02*
X193350001Y-181200000I-249999J0D01*
G01*
X192649999Y-181200000D01*
G75*
G02*
X192400000Y-180950001I0J249999D01*
G01*
G37*
%TD*%
%TO.C,R23*%
G36*
G01*
X194900000Y-159950001D02*
X194900000Y-159049999D01*
G75*
G02*
X195149999Y-158800000I249999J0D01*
G01*
X195850001Y-158800000D01*
G75*
G02*
X196100000Y-159049999I0J-249999D01*
G01*
X196100000Y-159950001D01*
G75*
G02*
X195850001Y-160200000I-249999J0D01*
G01*
X195149999Y-160200000D01*
G75*
G02*
X194900000Y-159950001I0J249999D01*
G01*
G37*
G36*
G01*
X196900000Y-159950001D02*
X196900000Y-159049999D01*
G75*
G02*
X197149999Y-158800000I249999J0D01*
G01*
X197850001Y-158800000D01*
G75*
G02*
X198100000Y-159049999I0J-249999D01*
G01*
X198100000Y-159950001D01*
G75*
G02*
X197850001Y-160200000I-249999J0D01*
G01*
X197149999Y-160200000D01*
G75*
G02*
X196900000Y-159950001I0J249999D01*
G01*
G37*
%TD*%
%TO.C,R24*%
G36*
G01*
X194900000Y-164450001D02*
X194900000Y-163549999D01*
G75*
G02*
X195149999Y-163300000I249999J0D01*
G01*
X195850001Y-163300000D01*
G75*
G02*
X196100000Y-163549999I0J-249999D01*
G01*
X196100000Y-164450001D01*
G75*
G02*
X195850001Y-164700000I-249999J0D01*
G01*
X195149999Y-164700000D01*
G75*
G02*
X194900000Y-164450001I0J249999D01*
G01*
G37*
G36*
G01*
X192900000Y-164450001D02*
X192900000Y-163549999D01*
G75*
G02*
X193149999Y-163300000I249999J0D01*
G01*
X193850001Y-163300000D01*
G75*
G02*
X194100000Y-163549999I0J-249999D01*
G01*
X194100000Y-164450001D01*
G75*
G02*
X193850001Y-164700000I-249999J0D01*
G01*
X193149999Y-164700000D01*
G75*
G02*
X192900000Y-164450001I0J249999D01*
G01*
G37*
%TD*%
%TO.C,R25*%
G36*
G01*
X214400000Y-180950001D02*
X214400000Y-180049999D01*
G75*
G02*
X214649999Y-179800000I249999J0D01*
G01*
X215350001Y-179800000D01*
G75*
G02*
X215600000Y-180049999I0J-249999D01*
G01*
X215600000Y-180950001D01*
G75*
G02*
X215350001Y-181200000I-249999J0D01*
G01*
X214649999Y-181200000D01*
G75*
G02*
X214400000Y-180950001I0J249999D01*
G01*
G37*
G36*
G01*
X212400000Y-180950001D02*
X212400000Y-180049999D01*
G75*
G02*
X212649999Y-179800000I249999J0D01*
G01*
X213350001Y-179800000D01*
G75*
G02*
X213600000Y-180049999I0J-249999D01*
G01*
X213600000Y-180950001D01*
G75*
G02*
X213350001Y-181200000I-249999J0D01*
G01*
X212649999Y-181200000D01*
G75*
G02*
X212400000Y-180950001I0J249999D01*
G01*
G37*
%TD*%
%TO.C,R26*%
G36*
G01*
X213900000Y-159950001D02*
X213900000Y-159049999D01*
G75*
G02*
X214149999Y-158800000I249999J0D01*
G01*
X214850001Y-158800000D01*
G75*
G02*
X215100000Y-159049999I0J-249999D01*
G01*
X215100000Y-159950001D01*
G75*
G02*
X214850001Y-160200000I-249999J0D01*
G01*
X214149999Y-160200000D01*
G75*
G02*
X213900000Y-159950001I0J249999D01*
G01*
G37*
G36*
G01*
X211900000Y-159950001D02*
X211900000Y-159049999D01*
G75*
G02*
X212149999Y-158800000I249999J0D01*
G01*
X212850001Y-158800000D01*
G75*
G02*
X213100000Y-159049999I0J-249999D01*
G01*
X213100000Y-159950001D01*
G75*
G02*
X212850001Y-160200000I-249999J0D01*
G01*
X212149999Y-160200000D01*
G75*
G02*
X211900000Y-159950001I0J249999D01*
G01*
G37*
%TD*%
%TO.C,R27*%
G36*
G01*
X209900000Y-164450001D02*
X209900000Y-163549999D01*
G75*
G02*
X210149999Y-163300000I249999J0D01*
G01*
X210850001Y-163300000D01*
G75*
G02*
X211100000Y-163549999I0J-249999D01*
G01*
X211100000Y-164450001D01*
G75*
G02*
X210850001Y-164700000I-249999J0D01*
G01*
X210149999Y-164700000D01*
G75*
G02*
X209900000Y-164450001I0J249999D01*
G01*
G37*
G36*
G01*
X211900000Y-164450001D02*
X211900000Y-163549999D01*
G75*
G02*
X212149999Y-163300000I249999J0D01*
G01*
X212850001Y-163300000D01*
G75*
G02*
X213100000Y-163549999I0J-249999D01*
G01*
X213100000Y-164450001D01*
G75*
G02*
X212850001Y-164700000I-249999J0D01*
G01*
X212149999Y-164700000D01*
G75*
G02*
X211900000Y-164450001I0J249999D01*
G01*
G37*
%TD*%
%TO.C,R28*%
G36*
G01*
X231900000Y-180950001D02*
X231900000Y-180049999D01*
G75*
G02*
X232149999Y-179800000I249999J0D01*
G01*
X232850001Y-179800000D01*
G75*
G02*
X233100000Y-180049999I0J-249999D01*
G01*
X233100000Y-180950001D01*
G75*
G02*
X232850001Y-181200000I-249999J0D01*
G01*
X232149999Y-181200000D01*
G75*
G02*
X231900000Y-180950001I0J249999D01*
G01*
G37*
G36*
G01*
X233900000Y-180950001D02*
X233900000Y-180049999D01*
G75*
G02*
X234149999Y-179800000I249999J0D01*
G01*
X234850001Y-179800000D01*
G75*
G02*
X235100000Y-180049999I0J-249999D01*
G01*
X235100000Y-180950001D01*
G75*
G02*
X234850001Y-181200000I-249999J0D01*
G01*
X234149999Y-181200000D01*
G75*
G02*
X233900000Y-180950001I0J249999D01*
G01*
G37*
%TD*%
%TO.C,R29*%
G36*
G01*
X232900000Y-159950001D02*
X232900000Y-159049999D01*
G75*
G02*
X233149999Y-158800000I249999J0D01*
G01*
X233850001Y-158800000D01*
G75*
G02*
X234100000Y-159049999I0J-249999D01*
G01*
X234100000Y-159950001D01*
G75*
G02*
X233850001Y-160200000I-249999J0D01*
G01*
X233149999Y-160200000D01*
G75*
G02*
X232900000Y-159950001I0J249999D01*
G01*
G37*
G36*
G01*
X230900000Y-159950001D02*
X230900000Y-159049999D01*
G75*
G02*
X231149999Y-158800000I249999J0D01*
G01*
X231850001Y-158800000D01*
G75*
G02*
X232100000Y-159049999I0J-249999D01*
G01*
X232100000Y-159950001D01*
G75*
G02*
X231850001Y-160200000I-249999J0D01*
G01*
X231149999Y-160200000D01*
G75*
G02*
X230900000Y-159950001I0J249999D01*
G01*
G37*
%TD*%
%TO.C,R30*%
G36*
G01*
X231400000Y-163950001D02*
X231400000Y-163049999D01*
G75*
G02*
X231649999Y-162800000I249999J0D01*
G01*
X232350001Y-162800000D01*
G75*
G02*
X232600000Y-163049999I0J-249999D01*
G01*
X232600000Y-163950001D01*
G75*
G02*
X232350001Y-164200000I-249999J0D01*
G01*
X231649999Y-164200000D01*
G75*
G02*
X231400000Y-163950001I0J249999D01*
G01*
G37*
G36*
G01*
X229400000Y-163950001D02*
X229400000Y-163049999D01*
G75*
G02*
X229649999Y-162800000I249999J0D01*
G01*
X230350001Y-162800000D01*
G75*
G02*
X230600000Y-163049999I0J-249999D01*
G01*
X230600000Y-163950001D01*
G75*
G02*
X230350001Y-164200000I-249999J0D01*
G01*
X229649999Y-164200000D01*
G75*
G02*
X229400000Y-163950001I0J249999D01*
G01*
G37*
%TD*%
%TO.C,R31*%
G36*
G01*
X248789601Y-159462800D02*
X247889599Y-159462800D01*
G75*
G02*
X247639600Y-159212801I0J249999D01*
G01*
X247639600Y-158512799D01*
G75*
G02*
X247889599Y-158262800I249999J0D01*
G01*
X248789601Y-158262800D01*
G75*
G02*
X249039600Y-158512799I0J-249999D01*
G01*
X249039600Y-159212801D01*
G75*
G02*
X248789601Y-159462800I-249999J0D01*
G01*
G37*
G36*
G01*
X248789601Y-161462800D02*
X247889599Y-161462800D01*
G75*
G02*
X247639600Y-161212801I0J249999D01*
G01*
X247639600Y-160512799D01*
G75*
G02*
X247889599Y-160262800I249999J0D01*
G01*
X248789601Y-160262800D01*
G75*
G02*
X249039600Y-160512799I0J-249999D01*
G01*
X249039600Y-161212801D01*
G75*
G02*
X248789601Y-161462800I-249999J0D01*
G01*
G37*
%TD*%
%TO.C,R32*%
G36*
G01*
X248289601Y-148462800D02*
X247389599Y-148462800D01*
G75*
G02*
X247139600Y-148212801I0J249999D01*
G01*
X247139600Y-147512799D01*
G75*
G02*
X247389599Y-147262800I249999J0D01*
G01*
X248289601Y-147262800D01*
G75*
G02*
X248539600Y-147512799I0J-249999D01*
G01*
X248539600Y-148212801D01*
G75*
G02*
X248289601Y-148462800I-249999J0D01*
G01*
G37*
G36*
G01*
X248289601Y-146462800D02*
X247389599Y-146462800D01*
G75*
G02*
X247139600Y-146212801I0J249999D01*
G01*
X247139600Y-145512799D01*
G75*
G02*
X247389599Y-145262800I249999J0D01*
G01*
X248289601Y-145262800D01*
G75*
G02*
X248539600Y-145512799I0J-249999D01*
G01*
X248539600Y-146212801D01*
G75*
G02*
X248289601Y-146462800I-249999J0D01*
G01*
G37*
%TD*%
%TO.C,R33*%
G36*
G01*
X248289601Y-134462800D02*
X247389599Y-134462800D01*
G75*
G02*
X247139600Y-134212801I0J249999D01*
G01*
X247139600Y-133512799D01*
G75*
G02*
X247389599Y-133262800I249999J0D01*
G01*
X248289601Y-133262800D01*
G75*
G02*
X248539600Y-133512799I0J-249999D01*
G01*
X248539600Y-134212801D01*
G75*
G02*
X248289601Y-134462800I-249999J0D01*
G01*
G37*
G36*
G01*
X248289601Y-136462800D02*
X247389599Y-136462800D01*
G75*
G02*
X247139600Y-136212801I0J249999D01*
G01*
X247139600Y-135512799D01*
G75*
G02*
X247389599Y-135262800I249999J0D01*
G01*
X248289601Y-135262800D01*
G75*
G02*
X248539600Y-135512799I0J-249999D01*
G01*
X248539600Y-136212801D01*
G75*
G02*
X248289601Y-136462800I-249999J0D01*
G01*
G37*
%TD*%
%TO.C,R34*%
G36*
G01*
X242439600Y-164412799D02*
X242439600Y-165312801D01*
G75*
G02*
X242189601Y-165562800I-249999J0D01*
G01*
X241489599Y-165562800D01*
G75*
G02*
X241239600Y-165312801I0J249999D01*
G01*
X241239600Y-164412799D01*
G75*
G02*
X241489599Y-164162800I249999J0D01*
G01*
X242189601Y-164162800D01*
G75*
G02*
X242439600Y-164412799I0J-249999D01*
G01*
G37*
G36*
G01*
X244439600Y-164412799D02*
X244439600Y-165312801D01*
G75*
G02*
X244189601Y-165562800I-249999J0D01*
G01*
X243489599Y-165562800D01*
G75*
G02*
X243239600Y-165312801I0J249999D01*
G01*
X243239600Y-164412799D01*
G75*
G02*
X243489599Y-164162800I249999J0D01*
G01*
X244189601Y-164162800D01*
G75*
G02*
X244439600Y-164412799I0J-249999D01*
G01*
G37*
%TD*%
%TO.C,R35*%
G36*
G01*
X249289601Y-120962800D02*
X248389599Y-120962800D01*
G75*
G02*
X248139600Y-120712801I0J249999D01*
G01*
X248139600Y-120012799D01*
G75*
G02*
X248389599Y-119762800I249999J0D01*
G01*
X249289601Y-119762800D01*
G75*
G02*
X249539600Y-120012799I0J-249999D01*
G01*
X249539600Y-120712801D01*
G75*
G02*
X249289601Y-120962800I-249999J0D01*
G01*
G37*
G36*
G01*
X249289601Y-122962800D02*
X248389599Y-122962800D01*
G75*
G02*
X248139600Y-122712801I0J249999D01*
G01*
X248139600Y-122012799D01*
G75*
G02*
X248389599Y-121762800I249999J0D01*
G01*
X249289601Y-121762800D01*
G75*
G02*
X249539600Y-122012799I0J-249999D01*
G01*
X249539600Y-122712801D01*
G75*
G02*
X249289601Y-122962800I-249999J0D01*
G01*
G37*
%TD*%
%TO.C,R36*%
G36*
G01*
X243939600Y-150412799D02*
X243939600Y-151312801D01*
G75*
G02*
X243689601Y-151562800I-249999J0D01*
G01*
X242989599Y-151562800D01*
G75*
G02*
X242739600Y-151312801I0J249999D01*
G01*
X242739600Y-150412799D01*
G75*
G02*
X242989599Y-150162800I249999J0D01*
G01*
X243689601Y-150162800D01*
G75*
G02*
X243939600Y-150412799I0J-249999D01*
G01*
G37*
G36*
G01*
X241939600Y-150412799D02*
X241939600Y-151312801D01*
G75*
G02*
X241689601Y-151562800I-249999J0D01*
G01*
X240989599Y-151562800D01*
G75*
G02*
X240739600Y-151312801I0J249999D01*
G01*
X240739600Y-150412799D01*
G75*
G02*
X240989599Y-150162800I249999J0D01*
G01*
X241689601Y-150162800D01*
G75*
G02*
X241939600Y-150412799I0J-249999D01*
G01*
G37*
%TD*%
%TO.C,R37*%
G36*
G01*
X241939600Y-135412799D02*
X241939600Y-136312801D01*
G75*
G02*
X241689601Y-136562800I-249999J0D01*
G01*
X240989599Y-136562800D01*
G75*
G02*
X240739600Y-136312801I0J249999D01*
G01*
X240739600Y-135412799D01*
G75*
G02*
X240989599Y-135162800I249999J0D01*
G01*
X241689601Y-135162800D01*
G75*
G02*
X241939600Y-135412799I0J-249999D01*
G01*
G37*
G36*
G01*
X243939600Y-135412799D02*
X243939600Y-136312801D01*
G75*
G02*
X243689601Y-136562800I-249999J0D01*
G01*
X242989599Y-136562800D01*
G75*
G02*
X242739600Y-136312801I0J249999D01*
G01*
X242739600Y-135412799D01*
G75*
G02*
X242989599Y-135162800I249999J0D01*
G01*
X243689601Y-135162800D01*
G75*
G02*
X243939600Y-135412799I0J-249999D01*
G01*
G37*
%TD*%
%TO.C,R38*%
G36*
G01*
X244939600Y-122412799D02*
X244939600Y-123312801D01*
G75*
G02*
X244689601Y-123562800I-249999J0D01*
G01*
X243989599Y-123562800D01*
G75*
G02*
X243739600Y-123312801I0J249999D01*
G01*
X243739600Y-122412799D01*
G75*
G02*
X243989599Y-122162800I249999J0D01*
G01*
X244689601Y-122162800D01*
G75*
G02*
X244939600Y-122412799I0J-249999D01*
G01*
G37*
G36*
G01*
X242939600Y-122412799D02*
X242939600Y-123312801D01*
G75*
G02*
X242689601Y-123562800I-249999J0D01*
G01*
X241989599Y-123562800D01*
G75*
G02*
X241739600Y-123312801I0J249999D01*
G01*
X241739600Y-122412799D01*
G75*
G02*
X241989599Y-122162800I249999J0D01*
G01*
X242689601Y-122162800D01*
G75*
G02*
X242939600Y-122412799I0J-249999D01*
G01*
G37*
%TD*%
%TO.C,R39*%
G36*
G01*
X243239600Y-169812801D02*
X243239600Y-168912799D01*
G75*
G02*
X243489599Y-168662800I249999J0D01*
G01*
X244189601Y-168662800D01*
G75*
G02*
X244439600Y-168912799I0J-249999D01*
G01*
X244439600Y-169812801D01*
G75*
G02*
X244189601Y-170062800I-249999J0D01*
G01*
X243489599Y-170062800D01*
G75*
G02*
X243239600Y-169812801I0J249999D01*
G01*
G37*
G36*
G01*
X241239600Y-169812801D02*
X241239600Y-168912799D01*
G75*
G02*
X241489599Y-168662800I249999J0D01*
G01*
X242189601Y-168662800D01*
G75*
G02*
X242439600Y-168912799I0J-249999D01*
G01*
X242439600Y-169812801D01*
G75*
G02*
X242189601Y-170062800I-249999J0D01*
G01*
X241489599Y-170062800D01*
G75*
G02*
X241239600Y-169812801I0J249999D01*
G01*
G37*
%TD*%
%TO.C,R40*%
G36*
G01*
X242739600Y-155312801D02*
X242739600Y-154412799D01*
G75*
G02*
X242989599Y-154162800I249999J0D01*
G01*
X243689601Y-154162800D01*
G75*
G02*
X243939600Y-154412799I0J-249999D01*
G01*
X243939600Y-155312801D01*
G75*
G02*
X243689601Y-155562800I-249999J0D01*
G01*
X242989599Y-155562800D01*
G75*
G02*
X242739600Y-155312801I0J249999D01*
G01*
G37*
G36*
G01*
X240739600Y-155312801D02*
X240739600Y-154412799D01*
G75*
G02*
X240989599Y-154162800I249999J0D01*
G01*
X241689601Y-154162800D01*
G75*
G02*
X241939600Y-154412799I0J-249999D01*
G01*
X241939600Y-155312801D01*
G75*
G02*
X241689601Y-155562800I-249999J0D01*
G01*
X240989599Y-155562800D01*
G75*
G02*
X240739600Y-155312801I0J249999D01*
G01*
G37*
%TD*%
%TO.C,R41*%
G36*
G01*
X240739600Y-140812801D02*
X240739600Y-139912799D01*
G75*
G02*
X240989599Y-139662800I249999J0D01*
G01*
X241689601Y-139662800D01*
G75*
G02*
X241939600Y-139912799I0J-249999D01*
G01*
X241939600Y-140812801D01*
G75*
G02*
X241689601Y-141062800I-249999J0D01*
G01*
X240989599Y-141062800D01*
G75*
G02*
X240739600Y-140812801I0J249999D01*
G01*
G37*
G36*
G01*
X242739600Y-140812801D02*
X242739600Y-139912799D01*
G75*
G02*
X242989599Y-139662800I249999J0D01*
G01*
X243689601Y-139662800D01*
G75*
G02*
X243939600Y-139912799I0J-249999D01*
G01*
X243939600Y-140812801D01*
G75*
G02*
X243689601Y-141062800I-249999J0D01*
G01*
X242989599Y-141062800D01*
G75*
G02*
X242739600Y-140812801I0J249999D01*
G01*
G37*
%TD*%
%TO.C,R42*%
G36*
G01*
X241739600Y-127812801D02*
X241739600Y-126912799D01*
G75*
G02*
X241989599Y-126662800I249999J0D01*
G01*
X242689601Y-126662800D01*
G75*
G02*
X242939600Y-126912799I0J-249999D01*
G01*
X242939600Y-127812801D01*
G75*
G02*
X242689601Y-128062800I-249999J0D01*
G01*
X241989599Y-128062800D01*
G75*
G02*
X241739600Y-127812801I0J249999D01*
G01*
G37*
G36*
G01*
X243739600Y-127812801D02*
X243739600Y-126912799D01*
G75*
G02*
X243989599Y-126662800I249999J0D01*
G01*
X244689601Y-126662800D01*
G75*
G02*
X244939600Y-126912799I0J-249999D01*
G01*
X244939600Y-127812801D01*
G75*
G02*
X244689601Y-128062800I-249999J0D01*
G01*
X243989599Y-128062800D01*
G75*
G02*
X243739600Y-127812801I0J249999D01*
G01*
G37*
%TD*%
%TO.C,R43*%
G36*
G01*
X249289601Y-110462800D02*
X248389599Y-110462800D01*
G75*
G02*
X248139600Y-110212801I0J249999D01*
G01*
X248139600Y-109512799D01*
G75*
G02*
X248389599Y-109262800I249999J0D01*
G01*
X249289601Y-109262800D01*
G75*
G02*
X249539600Y-109512799I0J-249999D01*
G01*
X249539600Y-110212801D01*
G75*
G02*
X249289601Y-110462800I-249999J0D01*
G01*
G37*
G36*
G01*
X249289601Y-108462800D02*
X248389599Y-108462800D01*
G75*
G02*
X248139600Y-108212801I0J249999D01*
G01*
X248139600Y-107512799D01*
G75*
G02*
X248389599Y-107262800I249999J0D01*
G01*
X249289601Y-107262800D01*
G75*
G02*
X249539600Y-107512799I0J-249999D01*
G01*
X249539600Y-108212801D01*
G75*
G02*
X249289601Y-108462800I-249999J0D01*
G01*
G37*
%TD*%
%TO.C,R44*%
G36*
G01*
X249289601Y-97462800D02*
X248389599Y-97462800D01*
G75*
G02*
X248139600Y-97212801I0J249999D01*
G01*
X248139600Y-96512799D01*
G75*
G02*
X248389599Y-96262800I249999J0D01*
G01*
X249289601Y-96262800D01*
G75*
G02*
X249539600Y-96512799I0J-249999D01*
G01*
X249539600Y-97212801D01*
G75*
G02*
X249289601Y-97462800I-249999J0D01*
G01*
G37*
G36*
G01*
X249289601Y-95462800D02*
X248389599Y-95462800D01*
G75*
G02*
X248139600Y-95212801I0J249999D01*
G01*
X248139600Y-94512799D01*
G75*
G02*
X248389599Y-94262800I249999J0D01*
G01*
X249289601Y-94262800D01*
G75*
G02*
X249539600Y-94512799I0J-249999D01*
G01*
X249539600Y-95212801D01*
G75*
G02*
X249289601Y-95462800I-249999J0D01*
G01*
G37*
%TD*%
%TO.C,R45*%
G36*
G01*
X249289601Y-85462800D02*
X248389599Y-85462800D01*
G75*
G02*
X248139600Y-85212801I0J249999D01*
G01*
X248139600Y-84512799D01*
G75*
G02*
X248389599Y-84262800I249999J0D01*
G01*
X249289601Y-84262800D01*
G75*
G02*
X249539600Y-84512799I0J-249999D01*
G01*
X249539600Y-85212801D01*
G75*
G02*
X249289601Y-85462800I-249999J0D01*
G01*
G37*
G36*
G01*
X249289601Y-83462800D02*
X248389599Y-83462800D01*
G75*
G02*
X248139600Y-83212801I0J249999D01*
G01*
X248139600Y-82512799D01*
G75*
G02*
X248389599Y-82262800I249999J0D01*
G01*
X249289601Y-82262800D01*
G75*
G02*
X249539600Y-82512799I0J-249999D01*
G01*
X249539600Y-83212801D01*
G75*
G02*
X249289601Y-83462800I-249999J0D01*
G01*
G37*
%TD*%
%TO.C,R46*%
G36*
G01*
X249789601Y-70462800D02*
X248889599Y-70462800D01*
G75*
G02*
X248639600Y-70212801I0J249999D01*
G01*
X248639600Y-69512799D01*
G75*
G02*
X248889599Y-69262800I249999J0D01*
G01*
X249789601Y-69262800D01*
G75*
G02*
X250039600Y-69512799I0J-249999D01*
G01*
X250039600Y-70212801D01*
G75*
G02*
X249789601Y-70462800I-249999J0D01*
G01*
G37*
G36*
G01*
X249789601Y-72462800D02*
X248889599Y-72462800D01*
G75*
G02*
X248639600Y-72212801I0J249999D01*
G01*
X248639600Y-71512799D01*
G75*
G02*
X248889599Y-71262800I249999J0D01*
G01*
X249789601Y-71262800D01*
G75*
G02*
X250039600Y-71512799I0J-249999D01*
G01*
X250039600Y-72212801D01*
G75*
G02*
X249789601Y-72462800I-249999J0D01*
G01*
G37*
%TD*%
%TO.C,R47*%
G36*
G01*
X245439600Y-109412799D02*
X245439600Y-110312801D01*
G75*
G02*
X245189601Y-110562800I-249999J0D01*
G01*
X244489599Y-110562800D01*
G75*
G02*
X244239600Y-110312801I0J249999D01*
G01*
X244239600Y-109412799D01*
G75*
G02*
X244489599Y-109162800I249999J0D01*
G01*
X245189601Y-109162800D01*
G75*
G02*
X245439600Y-109412799I0J-249999D01*
G01*
G37*
G36*
G01*
X243439600Y-109412799D02*
X243439600Y-110312801D01*
G75*
G02*
X243189601Y-110562800I-249999J0D01*
G01*
X242489599Y-110562800D01*
G75*
G02*
X242239600Y-110312801I0J249999D01*
G01*
X242239600Y-109412799D01*
G75*
G02*
X242489599Y-109162800I249999J0D01*
G01*
X243189601Y-109162800D01*
G75*
G02*
X243439600Y-109412799I0J-249999D01*
G01*
G37*
%TD*%
%TO.C,R48*%
G36*
G01*
X245439600Y-92912799D02*
X245439600Y-93812801D01*
G75*
G02*
X245189601Y-94062800I-249999J0D01*
G01*
X244489599Y-94062800D01*
G75*
G02*
X244239600Y-93812801I0J249999D01*
G01*
X244239600Y-92912799D01*
G75*
G02*
X244489599Y-92662800I249999J0D01*
G01*
X245189601Y-92662800D01*
G75*
G02*
X245439600Y-92912799I0J-249999D01*
G01*
G37*
G36*
G01*
X243439600Y-92912799D02*
X243439600Y-93812801D01*
G75*
G02*
X243189601Y-94062800I-249999J0D01*
G01*
X242489599Y-94062800D01*
G75*
G02*
X242239600Y-93812801I0J249999D01*
G01*
X242239600Y-92912799D01*
G75*
G02*
X242489599Y-92662800I249999J0D01*
G01*
X243189601Y-92662800D01*
G75*
G02*
X243439600Y-92912799I0J-249999D01*
G01*
G37*
%TD*%
%TO.C,R49*%
G36*
G01*
X245439600Y-84412799D02*
X245439600Y-85312801D01*
G75*
G02*
X245189601Y-85562800I-249999J0D01*
G01*
X244489599Y-85562800D01*
G75*
G02*
X244239600Y-85312801I0J249999D01*
G01*
X244239600Y-84412799D01*
G75*
G02*
X244489599Y-84162800I249999J0D01*
G01*
X245189601Y-84162800D01*
G75*
G02*
X245439600Y-84412799I0J-249999D01*
G01*
G37*
G36*
G01*
X243439600Y-84412799D02*
X243439600Y-85312801D01*
G75*
G02*
X243189601Y-85562800I-249999J0D01*
G01*
X242489599Y-85562800D01*
G75*
G02*
X242239600Y-85312801I0J249999D01*
G01*
X242239600Y-84412799D01*
G75*
G02*
X242489599Y-84162800I249999J0D01*
G01*
X243189601Y-84162800D01*
G75*
G02*
X243439600Y-84412799I0J-249999D01*
G01*
G37*
%TD*%
%TO.C,R50*%
G36*
G01*
X244439600Y-71412799D02*
X244439600Y-72312801D01*
G75*
G02*
X244189601Y-72562800I-249999J0D01*
G01*
X243489599Y-72562800D01*
G75*
G02*
X243239600Y-72312801I0J249999D01*
G01*
X243239600Y-71412799D01*
G75*
G02*
X243489599Y-71162800I249999J0D01*
G01*
X244189601Y-71162800D01*
G75*
G02*
X244439600Y-71412799I0J-249999D01*
G01*
G37*
G36*
G01*
X246439600Y-71412799D02*
X246439600Y-72312801D01*
G75*
G02*
X246189601Y-72562800I-249999J0D01*
G01*
X245489599Y-72562800D01*
G75*
G02*
X245239600Y-72312801I0J249999D01*
G01*
X245239600Y-71412799D01*
G75*
G02*
X245489599Y-71162800I249999J0D01*
G01*
X246189601Y-71162800D01*
G75*
G02*
X246439600Y-71412799I0J-249999D01*
G01*
G37*
%TD*%
%TO.C,R51*%
G36*
G01*
X244239600Y-113812801D02*
X244239600Y-112912799D01*
G75*
G02*
X244489599Y-112662800I249999J0D01*
G01*
X245189601Y-112662800D01*
G75*
G02*
X245439600Y-112912799I0J-249999D01*
G01*
X245439600Y-113812801D01*
G75*
G02*
X245189601Y-114062800I-249999J0D01*
G01*
X244489599Y-114062800D01*
G75*
G02*
X244239600Y-113812801I0J249999D01*
G01*
G37*
G36*
G01*
X242239600Y-113812801D02*
X242239600Y-112912799D01*
G75*
G02*
X242489599Y-112662800I249999J0D01*
G01*
X243189601Y-112662800D01*
G75*
G02*
X243439600Y-112912799I0J-249999D01*
G01*
X243439600Y-113812801D01*
G75*
G02*
X243189601Y-114062800I-249999J0D01*
G01*
X242489599Y-114062800D01*
G75*
G02*
X242239600Y-113812801I0J249999D01*
G01*
G37*
%TD*%
%TO.C,R52*%
G36*
G01*
X244239600Y-97312801D02*
X244239600Y-96412799D01*
G75*
G02*
X244489599Y-96162800I249999J0D01*
G01*
X245189601Y-96162800D01*
G75*
G02*
X245439600Y-96412799I0J-249999D01*
G01*
X245439600Y-97312801D01*
G75*
G02*
X245189601Y-97562800I-249999J0D01*
G01*
X244489599Y-97562800D01*
G75*
G02*
X244239600Y-97312801I0J249999D01*
G01*
G37*
G36*
G01*
X242239600Y-97312801D02*
X242239600Y-96412799D01*
G75*
G02*
X242489599Y-96162800I249999J0D01*
G01*
X243189601Y-96162800D01*
G75*
G02*
X243439600Y-96412799I0J-249999D01*
G01*
X243439600Y-97312801D01*
G75*
G02*
X243189601Y-97562800I-249999J0D01*
G01*
X242489599Y-97562800D01*
G75*
G02*
X242239600Y-97312801I0J249999D01*
G01*
G37*
%TD*%
%TO.C,R53*%
G36*
G01*
X244239600Y-89312801D02*
X244239600Y-88412799D01*
G75*
G02*
X244489599Y-88162800I249999J0D01*
G01*
X245189601Y-88162800D01*
G75*
G02*
X245439600Y-88412799I0J-249999D01*
G01*
X245439600Y-89312801D01*
G75*
G02*
X245189601Y-89562800I-249999J0D01*
G01*
X244489599Y-89562800D01*
G75*
G02*
X244239600Y-89312801I0J249999D01*
G01*
G37*
G36*
G01*
X242239600Y-89312801D02*
X242239600Y-88412799D01*
G75*
G02*
X242489599Y-88162800I249999J0D01*
G01*
X243189601Y-88162800D01*
G75*
G02*
X243439600Y-88412799I0J-249999D01*
G01*
X243439600Y-89312801D01*
G75*
G02*
X243189601Y-89562800I-249999J0D01*
G01*
X242489599Y-89562800D01*
G75*
G02*
X242239600Y-89312801I0J249999D01*
G01*
G37*
%TD*%
%TO.C,R54*%
G36*
G01*
X243239600Y-76812801D02*
X243239600Y-75912799D01*
G75*
G02*
X243489599Y-75662800I249999J0D01*
G01*
X244189601Y-75662800D01*
G75*
G02*
X244439600Y-75912799I0J-249999D01*
G01*
X244439600Y-76812801D01*
G75*
G02*
X244189601Y-77062800I-249999J0D01*
G01*
X243489599Y-77062800D01*
G75*
G02*
X243239600Y-76812801I0J249999D01*
G01*
G37*
G36*
G01*
X245239600Y-76812801D02*
X245239600Y-75912799D01*
G75*
G02*
X245489599Y-75662800I249999J0D01*
G01*
X246189601Y-75662800D01*
G75*
G02*
X246439600Y-75912799I0J-249999D01*
G01*
X246439600Y-76812801D01*
G75*
G02*
X246189601Y-77062800I-249999J0D01*
G01*
X245489599Y-77062800D01*
G75*
G02*
X245239600Y-76812801I0J249999D01*
G01*
G37*
%TD*%
%TO.C,R55*%
G36*
G01*
X129450001Y-45600000D02*
X128549999Y-45600000D01*
G75*
G02*
X128300000Y-45350001I0J249999D01*
G01*
X128300000Y-44649999D01*
G75*
G02*
X128549999Y-44400000I249999J0D01*
G01*
X129450001Y-44400000D01*
G75*
G02*
X129700000Y-44649999I0J-249999D01*
G01*
X129700000Y-45350001D01*
G75*
G02*
X129450001Y-45600000I-249999J0D01*
G01*
G37*
G36*
G01*
X129450001Y-43600000D02*
X128549999Y-43600000D01*
G75*
G02*
X128300000Y-43350001I0J249999D01*
G01*
X128300000Y-42649999D01*
G75*
G02*
X128549999Y-42400000I249999J0D01*
G01*
X129450001Y-42400000D01*
G75*
G02*
X129700000Y-42649999I0J-249999D01*
G01*
X129700000Y-43350001D01*
G75*
G02*
X129450001Y-43600000I-249999J0D01*
G01*
G37*
%TD*%
%TO.C,R56*%
G36*
G01*
X143450001Y-45600000D02*
X142549999Y-45600000D01*
G75*
G02*
X142300000Y-45350001I0J249999D01*
G01*
X142300000Y-44649999D01*
G75*
G02*
X142549999Y-44400000I249999J0D01*
G01*
X143450001Y-44400000D01*
G75*
G02*
X143700000Y-44649999I0J-249999D01*
G01*
X143700000Y-45350001D01*
G75*
G02*
X143450001Y-45600000I-249999J0D01*
G01*
G37*
G36*
G01*
X143450001Y-43600000D02*
X142549999Y-43600000D01*
G75*
G02*
X142300000Y-43350001I0J249999D01*
G01*
X142300000Y-42649999D01*
G75*
G02*
X142549999Y-42400000I249999J0D01*
G01*
X143450001Y-42400000D01*
G75*
G02*
X143700000Y-42649999I0J-249999D01*
G01*
X143700000Y-43350001D01*
G75*
G02*
X143450001Y-43600000I-249999J0D01*
G01*
G37*
%TD*%
%TO.C,R57*%
G36*
G01*
X135450001Y-43600000D02*
X134549999Y-43600000D01*
G75*
G02*
X134300000Y-43350001I0J249999D01*
G01*
X134300000Y-42649999D01*
G75*
G02*
X134549999Y-42400000I249999J0D01*
G01*
X135450001Y-42400000D01*
G75*
G02*
X135700000Y-42649999I0J-249999D01*
G01*
X135700000Y-43350001D01*
G75*
G02*
X135450001Y-43600000I-249999J0D01*
G01*
G37*
G36*
G01*
X135450001Y-45600000D02*
X134549999Y-45600000D01*
G75*
G02*
X134300000Y-45350001I0J249999D01*
G01*
X134300000Y-44649999D01*
G75*
G02*
X134549999Y-44400000I249999J0D01*
G01*
X135450001Y-44400000D01*
G75*
G02*
X135700000Y-44649999I0J-249999D01*
G01*
X135700000Y-45350001D01*
G75*
G02*
X135450001Y-45600000I-249999J0D01*
G01*
G37*
%TD*%
%TO.C,R58*%
G36*
G01*
X148950001Y-43600000D02*
X148049999Y-43600000D01*
G75*
G02*
X147800000Y-43350001I0J249999D01*
G01*
X147800000Y-42649999D01*
G75*
G02*
X148049999Y-42400000I249999J0D01*
G01*
X148950001Y-42400000D01*
G75*
G02*
X149200000Y-42649999I0J-249999D01*
G01*
X149200000Y-43350001D01*
G75*
G02*
X148950001Y-43600000I-249999J0D01*
G01*
G37*
G36*
G01*
X148950001Y-45600000D02*
X148049999Y-45600000D01*
G75*
G02*
X147800000Y-45350001I0J249999D01*
G01*
X147800000Y-44649999D01*
G75*
G02*
X148049999Y-44400000I249999J0D01*
G01*
X148950001Y-44400000D01*
G75*
G02*
X149200000Y-44649999I0J-249999D01*
G01*
X149200000Y-45350001D01*
G75*
G02*
X148950001Y-45600000I-249999J0D01*
G01*
G37*
%TD*%
%TO.C,R59*%
G36*
G01*
X156950001Y-46100000D02*
X156049999Y-46100000D01*
G75*
G02*
X155800000Y-45850001I0J249999D01*
G01*
X155800000Y-45149999D01*
G75*
G02*
X156049999Y-44900000I249999J0D01*
G01*
X156950001Y-44900000D01*
G75*
G02*
X157200000Y-45149999I0J-249999D01*
G01*
X157200000Y-45850001D01*
G75*
G02*
X156950001Y-46100000I-249999J0D01*
G01*
G37*
G36*
G01*
X156950001Y-44100000D02*
X156049999Y-44100000D01*
G75*
G02*
X155800000Y-43850001I0J249999D01*
G01*
X155800000Y-43149999D01*
G75*
G02*
X156049999Y-42900000I249999J0D01*
G01*
X156950001Y-42900000D01*
G75*
G02*
X157200000Y-43149999I0J-249999D01*
G01*
X157200000Y-43850001D01*
G75*
G02*
X156950001Y-44100000I-249999J0D01*
G01*
G37*
%TD*%
%TO.C,R60*%
G36*
G01*
X172450001Y-45600000D02*
X171549999Y-45600000D01*
G75*
G02*
X171300000Y-45350001I0J249999D01*
G01*
X171300000Y-44649999D01*
G75*
G02*
X171549999Y-44400000I249999J0D01*
G01*
X172450001Y-44400000D01*
G75*
G02*
X172700000Y-44649999I0J-249999D01*
G01*
X172700000Y-45350001D01*
G75*
G02*
X172450001Y-45600000I-249999J0D01*
G01*
G37*
G36*
G01*
X172450001Y-43600000D02*
X171549999Y-43600000D01*
G75*
G02*
X171300000Y-43350001I0J249999D01*
G01*
X171300000Y-42649999D01*
G75*
G02*
X171549999Y-42400000I249999J0D01*
G01*
X172450001Y-42400000D01*
G75*
G02*
X172700000Y-42649999I0J-249999D01*
G01*
X172700000Y-43350001D01*
G75*
G02*
X172450001Y-43600000I-249999J0D01*
G01*
G37*
%TD*%
%TO.C,R61*%
G36*
G01*
X161950001Y-44100000D02*
X161049999Y-44100000D01*
G75*
G02*
X160800000Y-43850001I0J249999D01*
G01*
X160800000Y-43149999D01*
G75*
G02*
X161049999Y-42900000I249999J0D01*
G01*
X161950001Y-42900000D01*
G75*
G02*
X162200000Y-43149999I0J-249999D01*
G01*
X162200000Y-43850001D01*
G75*
G02*
X161950001Y-44100000I-249999J0D01*
G01*
G37*
G36*
G01*
X161950001Y-46100000D02*
X161049999Y-46100000D01*
G75*
G02*
X160800000Y-45850001I0J249999D01*
G01*
X160800000Y-45149999D01*
G75*
G02*
X161049999Y-44900000I249999J0D01*
G01*
X161950001Y-44900000D01*
G75*
G02*
X162200000Y-45149999I0J-249999D01*
G01*
X162200000Y-45850001D01*
G75*
G02*
X161950001Y-46100000I-249999J0D01*
G01*
G37*
%TD*%
%TO.C,R62*%
G36*
G01*
X177950001Y-43600000D02*
X177049999Y-43600000D01*
G75*
G02*
X176800000Y-43350001I0J249999D01*
G01*
X176800000Y-42649999D01*
G75*
G02*
X177049999Y-42400000I249999J0D01*
G01*
X177950001Y-42400000D01*
G75*
G02*
X178200000Y-42649999I0J-249999D01*
G01*
X178200000Y-43350001D01*
G75*
G02*
X177950001Y-43600000I-249999J0D01*
G01*
G37*
G36*
G01*
X177950001Y-45600000D02*
X177049999Y-45600000D01*
G75*
G02*
X176800000Y-45350001I0J249999D01*
G01*
X176800000Y-44649999D01*
G75*
G02*
X177049999Y-44400000I249999J0D01*
G01*
X177950001Y-44400000D01*
G75*
G02*
X178200000Y-44649999I0J-249999D01*
G01*
X178200000Y-45350001D01*
G75*
G02*
X177950001Y-45600000I-249999J0D01*
G01*
G37*
%TD*%
%TO.C,R63*%
G36*
G01*
X101400000Y-46450001D02*
X101400000Y-45549999D01*
G75*
G02*
X101649999Y-45300000I249999J0D01*
G01*
X102350001Y-45300000D01*
G75*
G02*
X102600000Y-45549999I0J-249999D01*
G01*
X102600000Y-46450001D01*
G75*
G02*
X102350001Y-46700000I-249999J0D01*
G01*
X101649999Y-46700000D01*
G75*
G02*
X101400000Y-46450001I0J249999D01*
G01*
G37*
G36*
G01*
X99400000Y-46450001D02*
X99400000Y-45549999D01*
G75*
G02*
X99649999Y-45300000I249999J0D01*
G01*
X100350001Y-45300000D01*
G75*
G02*
X100600000Y-45549999I0J-249999D01*
G01*
X100600000Y-46450001D01*
G75*
G02*
X100350001Y-46700000I-249999J0D01*
G01*
X99649999Y-46700000D01*
G75*
G02*
X99400000Y-46450001I0J249999D01*
G01*
G37*
%TD*%
%TO.C,R64*%
G36*
G01*
X86549999Y-51400000D02*
X87450001Y-51400000D01*
G75*
G02*
X87700000Y-51649999I0J-249999D01*
G01*
X87700000Y-52350001D01*
G75*
G02*
X87450001Y-52600000I-249999J0D01*
G01*
X86549999Y-52600000D01*
G75*
G02*
X86300000Y-52350001I0J249999D01*
G01*
X86300000Y-51649999D01*
G75*
G02*
X86549999Y-51400000I249999J0D01*
G01*
G37*
G36*
G01*
X86549999Y-49400000D02*
X87450001Y-49400000D01*
G75*
G02*
X87700000Y-49649999I0J-249999D01*
G01*
X87700000Y-50350001D01*
G75*
G02*
X87450001Y-50600000I-249999J0D01*
G01*
X86549999Y-50600000D01*
G75*
G02*
X86300000Y-50350001I0J249999D01*
G01*
X86300000Y-49649999D01*
G75*
G02*
X86549999Y-49400000I249999J0D01*
G01*
G37*
%TD*%
%TO.C,R65*%
G36*
G01*
X96049999Y-48900000D02*
X96950001Y-48900000D01*
G75*
G02*
X97200000Y-49149999I0J-249999D01*
G01*
X97200000Y-49850001D01*
G75*
G02*
X96950001Y-50100000I-249999J0D01*
G01*
X96049999Y-50100000D01*
G75*
G02*
X95800000Y-49850001I0J249999D01*
G01*
X95800000Y-49149999D01*
G75*
G02*
X96049999Y-48900000I249999J0D01*
G01*
G37*
G36*
G01*
X96049999Y-50900000D02*
X96950001Y-50900000D01*
G75*
G02*
X97200000Y-51149999I0J-249999D01*
G01*
X97200000Y-51850001D01*
G75*
G02*
X96950001Y-52100000I-249999J0D01*
G01*
X96049999Y-52100000D01*
G75*
G02*
X95800000Y-51850001I0J249999D01*
G01*
X95800000Y-51149999D01*
G75*
G02*
X96049999Y-50900000I249999J0D01*
G01*
G37*
%TD*%
%TO.C,R66*%
G36*
G01*
X89900000Y-46450001D02*
X89900000Y-45549999D01*
G75*
G02*
X90149999Y-45300000I249999J0D01*
G01*
X90850001Y-45300000D01*
G75*
G02*
X91100000Y-45549999I0J-249999D01*
G01*
X91100000Y-46450001D01*
G75*
G02*
X90850001Y-46700000I-249999J0D01*
G01*
X90149999Y-46700000D01*
G75*
G02*
X89900000Y-46450001I0J249999D01*
G01*
G37*
G36*
G01*
X91900000Y-46450001D02*
X91900000Y-45549999D01*
G75*
G02*
X92149999Y-45300000I249999J0D01*
G01*
X92850001Y-45300000D01*
G75*
G02*
X93100000Y-45549999I0J-249999D01*
G01*
X93100000Y-46450001D01*
G75*
G02*
X92850001Y-46700000I-249999J0D01*
G01*
X92149999Y-46700000D01*
G75*
G02*
X91900000Y-46450001I0J249999D01*
G01*
G37*
%TD*%
%TO.C,R67*%
G36*
G01*
X105549999Y-48900000D02*
X106450001Y-48900000D01*
G75*
G02*
X106700000Y-49149999I0J-249999D01*
G01*
X106700000Y-49850001D01*
G75*
G02*
X106450001Y-50100000I-249999J0D01*
G01*
X105549999Y-50100000D01*
G75*
G02*
X105300000Y-49850001I0J249999D01*
G01*
X105300000Y-49149999D01*
G75*
G02*
X105549999Y-48900000I249999J0D01*
G01*
G37*
G36*
G01*
X105549999Y-50900000D02*
X106450001Y-50900000D01*
G75*
G02*
X106700000Y-51149999I0J-249999D01*
G01*
X106700000Y-51850001D01*
G75*
G02*
X106450001Y-52100000I-249999J0D01*
G01*
X105549999Y-52100000D01*
G75*
G02*
X105300000Y-51850001I0J249999D01*
G01*
X105300000Y-51149999D01*
G75*
G02*
X105549999Y-50900000I249999J0D01*
G01*
G37*
%TD*%
%TO.C,R68*%
G36*
G01*
X115049999Y-48900000D02*
X115950001Y-48900000D01*
G75*
G02*
X116200000Y-49149999I0J-249999D01*
G01*
X116200000Y-49850001D01*
G75*
G02*
X115950001Y-50100000I-249999J0D01*
G01*
X115049999Y-50100000D01*
G75*
G02*
X114800000Y-49850001I0J249999D01*
G01*
X114800000Y-49149999D01*
G75*
G02*
X115049999Y-48900000I249999J0D01*
G01*
G37*
G36*
G01*
X115049999Y-50900000D02*
X115950001Y-50900000D01*
G75*
G02*
X116200000Y-51149999I0J-249999D01*
G01*
X116200000Y-51850001D01*
G75*
G02*
X115950001Y-52100000I-249999J0D01*
G01*
X115049999Y-52100000D01*
G75*
G02*
X114800000Y-51850001I0J249999D01*
G01*
X114800000Y-51149999D01*
G75*
G02*
X115049999Y-50900000I249999J0D01*
G01*
G37*
%TD*%
%TO.C,R69*%
G36*
G01*
X110400000Y-46450001D02*
X110400000Y-45549999D01*
G75*
G02*
X110649999Y-45300000I249999J0D01*
G01*
X111350001Y-45300000D01*
G75*
G02*
X111600000Y-45549999I0J-249999D01*
G01*
X111600000Y-46450001D01*
G75*
G02*
X111350001Y-46700000I-249999J0D01*
G01*
X110649999Y-46700000D01*
G75*
G02*
X110400000Y-46450001I0J249999D01*
G01*
G37*
G36*
G01*
X108400000Y-46450001D02*
X108400000Y-45549999D01*
G75*
G02*
X108649999Y-45300000I249999J0D01*
G01*
X109350001Y-45300000D01*
G75*
G02*
X109600000Y-45549999I0J-249999D01*
G01*
X109600000Y-46450001D01*
G75*
G02*
X109350001Y-46700000I-249999J0D01*
G01*
X108649999Y-46700000D01*
G75*
G02*
X108400000Y-46450001I0J249999D01*
G01*
G37*
%TD*%
%TO.C,R70*%
G36*
G01*
X120900000Y-46450001D02*
X120900000Y-45549999D01*
G75*
G02*
X121149999Y-45300000I249999J0D01*
G01*
X121850001Y-45300000D01*
G75*
G02*
X122100000Y-45549999I0J-249999D01*
G01*
X122100000Y-46450001D01*
G75*
G02*
X121850001Y-46700000I-249999J0D01*
G01*
X121149999Y-46700000D01*
G75*
G02*
X120900000Y-46450001I0J249999D01*
G01*
G37*
G36*
G01*
X118900000Y-46450001D02*
X118900000Y-45549999D01*
G75*
G02*
X119149999Y-45300000I249999J0D01*
G01*
X119850001Y-45300000D01*
G75*
G02*
X120100000Y-45549999I0J-249999D01*
G01*
X120100000Y-46450001D01*
G75*
G02*
X119850001Y-46700000I-249999J0D01*
G01*
X119149999Y-46700000D01*
G75*
G02*
X118900000Y-46450001I0J249999D01*
G01*
G37*
%TD*%
%TO.C,U1*%
G36*
G01*
X95000000Y-110745000D02*
X95000000Y-110445000D01*
G75*
G02*
X95150000Y-110295000I150000J0D01*
G01*
X96800000Y-110295000D01*
G75*
G02*
X96950000Y-110445000I0J-150000D01*
G01*
X96950000Y-110745000D01*
G75*
G02*
X96800000Y-110895000I-150000J0D01*
G01*
X95150000Y-110895000D01*
G75*
G02*
X95000000Y-110745000I0J150000D01*
G01*
G37*
G36*
G01*
X95000000Y-112015000D02*
X95000000Y-111715000D01*
G75*
G02*
X95150000Y-111565000I150000J0D01*
G01*
X96800000Y-111565000D01*
G75*
G02*
X96950000Y-111715000I0J-150000D01*
G01*
X96950000Y-112015000D01*
G75*
G02*
X96800000Y-112165000I-150000J0D01*
G01*
X95150000Y-112165000D01*
G75*
G02*
X95000000Y-112015000I0J150000D01*
G01*
G37*
G36*
G01*
X95000000Y-113285000D02*
X95000000Y-112985000D01*
G75*
G02*
X95150000Y-112835000I150000J0D01*
G01*
X96800000Y-112835000D01*
G75*
G02*
X96950000Y-112985000I0J-150000D01*
G01*
X96950000Y-113285000D01*
G75*
G02*
X96800000Y-113435000I-150000J0D01*
G01*
X95150000Y-113435000D01*
G75*
G02*
X95000000Y-113285000I0J150000D01*
G01*
G37*
G36*
G01*
X95000000Y-114555000D02*
X95000000Y-114255000D01*
G75*
G02*
X95150000Y-114105000I150000J0D01*
G01*
X96800000Y-114105000D01*
G75*
G02*
X96950000Y-114255000I0J-150000D01*
G01*
X96950000Y-114555000D01*
G75*
G02*
X96800000Y-114705000I-150000J0D01*
G01*
X95150000Y-114705000D01*
G75*
G02*
X95000000Y-114555000I0J150000D01*
G01*
G37*
G36*
G01*
X90050000Y-114555000D02*
X90050000Y-114255000D01*
G75*
G02*
X90200000Y-114105000I150000J0D01*
G01*
X91850000Y-114105000D01*
G75*
G02*
X92000000Y-114255000I0J-150000D01*
G01*
X92000000Y-114555000D01*
G75*
G02*
X91850000Y-114705000I-150000J0D01*
G01*
X90200000Y-114705000D01*
G75*
G02*
X90050000Y-114555000I0J150000D01*
G01*
G37*
G36*
G01*
X90050000Y-113285000D02*
X90050000Y-112985000D01*
G75*
G02*
X90200000Y-112835000I150000J0D01*
G01*
X91850000Y-112835000D01*
G75*
G02*
X92000000Y-112985000I0J-150000D01*
G01*
X92000000Y-113285000D01*
G75*
G02*
X91850000Y-113435000I-150000J0D01*
G01*
X90200000Y-113435000D01*
G75*
G02*
X90050000Y-113285000I0J150000D01*
G01*
G37*
G36*
G01*
X90050000Y-112015000D02*
X90050000Y-111715000D01*
G75*
G02*
X90200000Y-111565000I150000J0D01*
G01*
X91850000Y-111565000D01*
G75*
G02*
X92000000Y-111715000I0J-150000D01*
G01*
X92000000Y-112015000D01*
G75*
G02*
X91850000Y-112165000I-150000J0D01*
G01*
X90200000Y-112165000D01*
G75*
G02*
X90050000Y-112015000I0J150000D01*
G01*
G37*
G36*
G01*
X90050000Y-110745000D02*
X90050000Y-110445000D01*
G75*
G02*
X90200000Y-110295000I150000J0D01*
G01*
X91850000Y-110295000D01*
G75*
G02*
X92000000Y-110445000I0J-150000D01*
G01*
X92000000Y-110745000D01*
G75*
G02*
X91850000Y-110895000I-150000J0D01*
G01*
X90200000Y-110895000D01*
G75*
G02*
X90050000Y-110745000I0J150000D01*
G01*
G37*
%TD*%
D17*
%TO.C,U2*%
X140500000Y-117500000D03*
D18*
X188760000Y-102260000D03*
X143040000Y-117500000D03*
X186220000Y-102260000D03*
X145580000Y-117500000D03*
X183680000Y-102260000D03*
X148120000Y-117500000D03*
X181140000Y-102260000D03*
X150660000Y-117500000D03*
X178600000Y-102260000D03*
X153200000Y-117500000D03*
X176060000Y-102260000D03*
X155740000Y-117500000D03*
X173520000Y-102260000D03*
X158280000Y-117500000D03*
X170980000Y-102260000D03*
X160820000Y-117500000D03*
X168440000Y-102260000D03*
X163360000Y-117500000D03*
X165900000Y-102260000D03*
X165900000Y-117500000D03*
X163360000Y-102260000D03*
X168440000Y-117500000D03*
X160820000Y-102260000D03*
X170980000Y-117500000D03*
X158280000Y-102260000D03*
X173520000Y-117500000D03*
X155740000Y-102260000D03*
X176060000Y-117500000D03*
X153200000Y-102260000D03*
X178600000Y-117500000D03*
X150660000Y-102260000D03*
X181140000Y-117500000D03*
X148120000Y-102260000D03*
X183680000Y-117500000D03*
X145580000Y-102260000D03*
X186220000Y-117500000D03*
X143040000Y-102260000D03*
X188760000Y-117500000D03*
X140500000Y-102260000D03*
%TD*%
D19*
%TO.C,K1*%
X98000000Y-186600000D03*
X104000000Y-188600000D03*
X104000000Y-200800000D03*
X92000000Y-200800000D03*
X92000000Y-188600000D03*
%TD*%
%TO.C,K2*%
X120000000Y-186500000D03*
X126000000Y-188500000D03*
X126000000Y-200700000D03*
X114000000Y-200700000D03*
X114000000Y-188500000D03*
%TD*%
%TO.C,K3*%
X142000000Y-186500000D03*
X148000000Y-188500000D03*
X148000000Y-200700000D03*
X136000000Y-200700000D03*
X136000000Y-188500000D03*
%TD*%
%TO.C,K4*%
X156000000Y-188500000D03*
X156000000Y-200700000D03*
X168000000Y-200700000D03*
X168000000Y-188500000D03*
X162000000Y-186500000D03*
%TD*%
%TO.C,K5*%
X177000000Y-188500000D03*
X177000000Y-200700000D03*
X189000000Y-200700000D03*
X189000000Y-188500000D03*
X183000000Y-186500000D03*
%TD*%
%TO.C,K6*%
X197000000Y-188500000D03*
X197000000Y-200700000D03*
X209000000Y-200700000D03*
X209000000Y-188500000D03*
X203000000Y-186500000D03*
%TD*%
%TO.C,K7*%
X217000000Y-188500000D03*
X217000000Y-200700000D03*
X229000000Y-200700000D03*
X229000000Y-188500000D03*
X223000000Y-186500000D03*
%TD*%
%TO.C,K8*%
X243000000Y-186500000D03*
X249000000Y-188500000D03*
X249000000Y-200700000D03*
X237000000Y-200700000D03*
X237000000Y-188500000D03*
%TD*%
D20*
%TO.C,L1*%
X81000000Y-135450000D03*
X81000000Y-125550000D03*
%TD*%
%TO.C,C1*%
G36*
G01*
X84662500Y-97449600D02*
X84662500Y-98550400D01*
G75*
G02*
X84412900Y-98800000I-249600J0D01*
G01*
X80987100Y-98800000D01*
G75*
G02*
X80737500Y-98550400I0J249600D01*
G01*
X80737500Y-97449600D01*
G75*
G02*
X80987100Y-97200000I249600J0D01*
G01*
X84412900Y-97200000D01*
G75*
G02*
X84662500Y-97449600I0J-249600D01*
G01*
G37*
G36*
G01*
X78262500Y-97449600D02*
X78262500Y-98550400D01*
G75*
G02*
X78012900Y-98800000I-249600J0D01*
G01*
X74587100Y-98800000D01*
G75*
G02*
X74337500Y-98550400I0J249600D01*
G01*
X74337500Y-97449600D01*
G75*
G02*
X74587100Y-97200000I249600J0D01*
G01*
X78012900Y-97200000D01*
G75*
G02*
X78262500Y-97449600I0J-249600D01*
G01*
G37*
%TD*%
%TO.C,C5*%
G36*
G01*
X115050400Y-115262500D02*
X113949600Y-115262500D01*
G75*
G02*
X113700000Y-115012900I0J249600D01*
G01*
X113700000Y-111587100D01*
G75*
G02*
X113949600Y-111337500I249600J0D01*
G01*
X115050400Y-111337500D01*
G75*
G02*
X115300000Y-111587100I0J-249600D01*
G01*
X115300000Y-115012900D01*
G75*
G02*
X115050400Y-115262500I-249600J0D01*
G01*
G37*
G36*
G01*
X115050400Y-121662500D02*
X113949600Y-121662500D01*
G75*
G02*
X113700000Y-121412900I0J249600D01*
G01*
X113700000Y-117987100D01*
G75*
G02*
X113949600Y-117737500I249600J0D01*
G01*
X115050400Y-117737500D01*
G75*
G02*
X115300000Y-117987100I0J-249600D01*
G01*
X115300000Y-121412900D01*
G75*
G02*
X115050400Y-121662500I-249600J0D01*
G01*
G37*
%TD*%
D21*
%TO.C,Q1*%
X87500000Y-169500000D03*
X86550000Y-167500000D03*
X88450000Y-167500000D03*
%TD*%
%TO.C,Q2*%
X110500000Y-169500000D03*
X109550000Y-167500000D03*
X111450000Y-167500000D03*
%TD*%
%TO.C,Q3*%
X132450000Y-167500000D03*
X130550000Y-167500000D03*
X131500000Y-169500000D03*
%TD*%
%TO.C,Q4*%
X153450000Y-167500000D03*
X151550000Y-167500000D03*
X152500000Y-169500000D03*
%TD*%
%TO.C,Q5*%
X174500000Y-169500000D03*
X173550000Y-167500000D03*
X175450000Y-167500000D03*
%TD*%
%TO.C,Q6*%
X195450000Y-167500000D03*
X193550000Y-167500000D03*
X194500000Y-169500000D03*
%TD*%
%TO.C,Q7*%
X212450000Y-167500000D03*
X210550000Y-167500000D03*
X211500000Y-169500000D03*
%TD*%
%TO.C,Q8*%
X233450000Y-167500000D03*
X231550000Y-167500000D03*
X232500000Y-169500000D03*
%TD*%
D22*
%TO.C,Q9*%
X102000000Y-50500000D03*
X100000000Y-51450000D03*
X100000000Y-49550000D03*
%TD*%
%TO.C,Q10*%
X90500000Y-49550000D03*
X90500000Y-51450000D03*
X92500000Y-50500000D03*
%TD*%
%TO.C,Q11*%
X109000000Y-49500000D03*
X109000000Y-51400000D03*
X111000000Y-50450000D03*
%TD*%
%TO.C,Q12*%
X119000000Y-49550000D03*
X119000000Y-51450000D03*
X121000000Y-50500000D03*
%TD*%
D14*
%TO.C,D1*%
X72500000Y-42200000D03*
X72500000Y-36800000D03*
%TD*%
D13*
%TO.C,D3*%
X76300000Y-118500000D03*
X81700000Y-118500000D03*
%TD*%
%TO.C,D4*%
X102400000Y-104000000D03*
X97000000Y-104000000D03*
%TD*%
%TO.C,D7*%
X101700000Y-181500000D03*
X96300000Y-181500000D03*
%TD*%
%TO.C,D9*%
X123400000Y-180500000D03*
X118000000Y-180500000D03*
%TD*%
%TO.C,D11*%
X140300000Y-180500000D03*
X145700000Y-180500000D03*
%TD*%
D14*
%TO.C,D13*%
X84500000Y-42200000D03*
X84500000Y-36800000D03*
%TD*%
%TO.C,D16*%
X183000000Y-182200000D03*
X183000000Y-176800000D03*
%TD*%
D13*
%TO.C,D18*%
X205700000Y-180500000D03*
X200300000Y-180500000D03*
%TD*%
%TO.C,D20*%
X224700000Y-180500000D03*
X219300000Y-180500000D03*
%TD*%
D14*
%TO.C,D22*%
X242500000Y-175800000D03*
X242500000Y-181200000D03*
%TD*%
%TO.C,D27*%
X255339600Y-164562800D03*
X255339600Y-159162800D03*
%TD*%
%TO.C,D28*%
X254839600Y-145662800D03*
X254839600Y-151062800D03*
%TD*%
%TO.C,D29*%
X254839600Y-133462800D03*
X254839600Y-138862800D03*
%TD*%
%TO.C,D30*%
X254839600Y-120662800D03*
X254839600Y-126062800D03*
%TD*%
%TO.C,D35*%
X254839600Y-113062800D03*
X254839600Y-107662800D03*
%TD*%
%TO.C,D36*%
X254839600Y-94962800D03*
X254839600Y-100362800D03*
%TD*%
%TO.C,D37*%
X254839600Y-88262800D03*
X254839600Y-82862800D03*
%TD*%
%TO.C,D38*%
X254839600Y-75062800D03*
X254839600Y-69662800D03*
%TD*%
%TO.C,D5*%
G36*
G01*
X109950001Y-100050000D02*
X109049999Y-100050000D01*
G75*
G02*
X108800000Y-99800001I0J249999D01*
G01*
X108800000Y-99149999D01*
G75*
G02*
X109049999Y-98900000I249999J0D01*
G01*
X109950001Y-98900000D01*
G75*
G02*
X110200000Y-99149999I0J-249999D01*
G01*
X110200000Y-99800001D01*
G75*
G02*
X109950001Y-100050000I-249999J0D01*
G01*
G37*
G36*
G01*
X109950001Y-102100000D02*
X109049999Y-102100000D01*
G75*
G02*
X108800000Y-101850001I0J249999D01*
G01*
X108800000Y-101199999D01*
G75*
G02*
X109049999Y-100950000I249999J0D01*
G01*
X109950001Y-100950000D01*
G75*
G02*
X110200000Y-101199999I0J-249999D01*
G01*
X110200000Y-101850001D01*
G75*
G02*
X109950001Y-102100000I-249999J0D01*
G01*
G37*
%TD*%
%TO.C,D6*%
G36*
G01*
X84550001Y-175800000D02*
X83649999Y-175800000D01*
G75*
G02*
X83400000Y-175550001I0J249999D01*
G01*
X83400000Y-174899999D01*
G75*
G02*
X83649999Y-174650000I249999J0D01*
G01*
X84550001Y-174650000D01*
G75*
G02*
X84800000Y-174899999I0J-249999D01*
G01*
X84800000Y-175550001D01*
G75*
G02*
X84550001Y-175800000I-249999J0D01*
G01*
G37*
G36*
G01*
X84550001Y-173750000D02*
X83649999Y-173750000D01*
G75*
G02*
X83400000Y-173500001I0J249999D01*
G01*
X83400000Y-172849999D01*
G75*
G02*
X83649999Y-172600000I249999J0D01*
G01*
X84550001Y-172600000D01*
G75*
G02*
X84800000Y-172849999I0J-249999D01*
G01*
X84800000Y-173500001D01*
G75*
G02*
X84550001Y-173750000I-249999J0D01*
G01*
G37*
%TD*%
%TO.C,D8*%
G36*
G01*
X108450001Y-174050000D02*
X107549999Y-174050000D01*
G75*
G02*
X107300000Y-173800001I0J249999D01*
G01*
X107300000Y-173149999D01*
G75*
G02*
X107549999Y-172900000I249999J0D01*
G01*
X108450001Y-172900000D01*
G75*
G02*
X108700000Y-173149999I0J-249999D01*
G01*
X108700000Y-173800001D01*
G75*
G02*
X108450001Y-174050000I-249999J0D01*
G01*
G37*
G36*
G01*
X108450001Y-176100000D02*
X107549999Y-176100000D01*
G75*
G02*
X107300000Y-175850001I0J249999D01*
G01*
X107300000Y-175199999D01*
G75*
G02*
X107549999Y-174950000I249999J0D01*
G01*
X108450001Y-174950000D01*
G75*
G02*
X108700000Y-175199999I0J-249999D01*
G01*
X108700000Y-175850001D01*
G75*
G02*
X108450001Y-176100000I-249999J0D01*
G01*
G37*
%TD*%
%TO.C,D10*%
G36*
G01*
X130450001Y-174050000D02*
X129549999Y-174050000D01*
G75*
G02*
X129300000Y-173800001I0J249999D01*
G01*
X129300000Y-173149999D01*
G75*
G02*
X129549999Y-172900000I249999J0D01*
G01*
X130450001Y-172900000D01*
G75*
G02*
X130700000Y-173149999I0J-249999D01*
G01*
X130700000Y-173800001D01*
G75*
G02*
X130450001Y-174050000I-249999J0D01*
G01*
G37*
G36*
G01*
X130450001Y-176100000D02*
X129549999Y-176100000D01*
G75*
G02*
X129300000Y-175850001I0J249999D01*
G01*
X129300000Y-175199999D01*
G75*
G02*
X129549999Y-174950000I249999J0D01*
G01*
X130450001Y-174950000D01*
G75*
G02*
X130700000Y-175199999I0J-249999D01*
G01*
X130700000Y-175850001D01*
G75*
G02*
X130450001Y-176100000I-249999J0D01*
G01*
G37*
%TD*%
%TO.C,D12*%
G36*
G01*
X151450001Y-176100000D02*
X150549999Y-176100000D01*
G75*
G02*
X150300000Y-175850001I0J249999D01*
G01*
X150300000Y-175199999D01*
G75*
G02*
X150549999Y-174950000I249999J0D01*
G01*
X151450001Y-174950000D01*
G75*
G02*
X151700000Y-175199999I0J-249999D01*
G01*
X151700000Y-175850001D01*
G75*
G02*
X151450001Y-176100000I-249999J0D01*
G01*
G37*
G36*
G01*
X151450001Y-174050000D02*
X150549999Y-174050000D01*
G75*
G02*
X150300000Y-173800001I0J249999D01*
G01*
X150300000Y-173149999D01*
G75*
G02*
X150549999Y-172900000I249999J0D01*
G01*
X151450001Y-172900000D01*
G75*
G02*
X151700000Y-173149999I0J-249999D01*
G01*
X151700000Y-173800001D01*
G75*
G02*
X151450001Y-174050000I-249999J0D01*
G01*
G37*
%TD*%
%TO.C,D15*%
G36*
G01*
X170450001Y-176100000D02*
X169549999Y-176100000D01*
G75*
G02*
X169300000Y-175850001I0J249999D01*
G01*
X169300000Y-175199999D01*
G75*
G02*
X169549999Y-174950000I249999J0D01*
G01*
X170450001Y-174950000D01*
G75*
G02*
X170700000Y-175199999I0J-249999D01*
G01*
X170700000Y-175850001D01*
G75*
G02*
X170450001Y-176100000I-249999J0D01*
G01*
G37*
G36*
G01*
X170450001Y-174050000D02*
X169549999Y-174050000D01*
G75*
G02*
X169300000Y-173800001I0J249999D01*
G01*
X169300000Y-173149999D01*
G75*
G02*
X169549999Y-172900000I249999J0D01*
G01*
X170450001Y-172900000D01*
G75*
G02*
X170700000Y-173149999I0J-249999D01*
G01*
X170700000Y-173800001D01*
G75*
G02*
X170450001Y-174050000I-249999J0D01*
G01*
G37*
%TD*%
%TO.C,D17*%
G36*
G01*
X190450001Y-176100000D02*
X189549999Y-176100000D01*
G75*
G02*
X189300000Y-175850001I0J249999D01*
G01*
X189300000Y-175199999D01*
G75*
G02*
X189549999Y-174950000I249999J0D01*
G01*
X190450001Y-174950000D01*
G75*
G02*
X190700000Y-175199999I0J-249999D01*
G01*
X190700000Y-175850001D01*
G75*
G02*
X190450001Y-176100000I-249999J0D01*
G01*
G37*
G36*
G01*
X190450001Y-174050000D02*
X189549999Y-174050000D01*
G75*
G02*
X189300000Y-173800001I0J249999D01*
G01*
X189300000Y-173149999D01*
G75*
G02*
X189549999Y-172900000I249999J0D01*
G01*
X190450001Y-172900000D01*
G75*
G02*
X190700000Y-173149999I0J-249999D01*
G01*
X190700000Y-173800001D01*
G75*
G02*
X190450001Y-174050000I-249999J0D01*
G01*
G37*
%TD*%
%TO.C,D19*%
G36*
G01*
X209450001Y-174050000D02*
X208549999Y-174050000D01*
G75*
G02*
X208300000Y-173800001I0J249999D01*
G01*
X208300000Y-173149999D01*
G75*
G02*
X208549999Y-172900000I249999J0D01*
G01*
X209450001Y-172900000D01*
G75*
G02*
X209700000Y-173149999I0J-249999D01*
G01*
X209700000Y-173800001D01*
G75*
G02*
X209450001Y-174050000I-249999J0D01*
G01*
G37*
G36*
G01*
X209450001Y-176100000D02*
X208549999Y-176100000D01*
G75*
G02*
X208300000Y-175850001I0J249999D01*
G01*
X208300000Y-175199999D01*
G75*
G02*
X208549999Y-174950000I249999J0D01*
G01*
X209450001Y-174950000D01*
G75*
G02*
X209700000Y-175199999I0J-249999D01*
G01*
X209700000Y-175850001D01*
G75*
G02*
X209450001Y-176100000I-249999J0D01*
G01*
G37*
%TD*%
%TO.C,D21*%
G36*
G01*
X229450001Y-174050000D02*
X228549999Y-174050000D01*
G75*
G02*
X228300000Y-173800001I0J249999D01*
G01*
X228300000Y-173149999D01*
G75*
G02*
X228549999Y-172900000I249999J0D01*
G01*
X229450001Y-172900000D01*
G75*
G02*
X229700000Y-173149999I0J-249999D01*
G01*
X229700000Y-173800001D01*
G75*
G02*
X229450001Y-174050000I-249999J0D01*
G01*
G37*
G36*
G01*
X229450001Y-176100000D02*
X228549999Y-176100000D01*
G75*
G02*
X228300000Y-175850001I0J249999D01*
G01*
X228300000Y-175199999D01*
G75*
G02*
X228549999Y-174950000I249999J0D01*
G01*
X229450001Y-174950000D01*
G75*
G02*
X229700000Y-175199999I0J-249999D01*
G01*
X229700000Y-175850001D01*
G75*
G02*
X229450001Y-176100000I-249999J0D01*
G01*
G37*
%TD*%
%TO.C,C17*%
G36*
G01*
X232163199Y-146253400D02*
X233063201Y-146253400D01*
G75*
G02*
X233313200Y-146503399I0J-249999D01*
G01*
X233313200Y-147203401D01*
G75*
G02*
X233063201Y-147453400I-249999J0D01*
G01*
X232163199Y-147453400D01*
G75*
G02*
X231913200Y-147203401I0J249999D01*
G01*
X231913200Y-146503399D01*
G75*
G02*
X232163199Y-146253400I249999J0D01*
G01*
G37*
G36*
G01*
X232163199Y-148253400D02*
X233063201Y-148253400D01*
G75*
G02*
X233313200Y-148503399I0J-249999D01*
G01*
X233313200Y-149203401D01*
G75*
G02*
X233063201Y-149453400I-249999J0D01*
G01*
X232163199Y-149453400D01*
G75*
G02*
X231913200Y-149203401I0J249999D01*
G01*
X231913200Y-148503399D01*
G75*
G02*
X232163199Y-148253400I249999J0D01*
G01*
G37*
%TD*%
%TO.C,C18*%
G36*
G01*
X208907801Y-126314000D02*
X208007799Y-126314000D01*
G75*
G02*
X207757800Y-126064001I0J249999D01*
G01*
X207757800Y-125363999D01*
G75*
G02*
X208007799Y-125114000I249999J0D01*
G01*
X208907801Y-125114000D01*
G75*
G02*
X209157800Y-125363999I0J-249999D01*
G01*
X209157800Y-126064001D01*
G75*
G02*
X208907801Y-126314000I-249999J0D01*
G01*
G37*
G36*
G01*
X208907801Y-124314000D02*
X208007799Y-124314000D01*
G75*
G02*
X207757800Y-124064001I0J249999D01*
G01*
X207757800Y-123363999D01*
G75*
G02*
X208007799Y-123114000I249999J0D01*
G01*
X208907801Y-123114000D01*
G75*
G02*
X209157800Y-123363999I0J-249999D01*
G01*
X209157800Y-124064001D01*
G75*
G02*
X208907801Y-124314000I-249999J0D01*
G01*
G37*
%TD*%
%TO.C,C19*%
G36*
G01*
X232493399Y-125088600D02*
X233393401Y-125088600D01*
G75*
G02*
X233643400Y-125338599I0J-249999D01*
G01*
X233643400Y-126038601D01*
G75*
G02*
X233393401Y-126288600I-249999J0D01*
G01*
X232493399Y-126288600D01*
G75*
G02*
X232243400Y-126038601I0J249999D01*
G01*
X232243400Y-125338599D01*
G75*
G02*
X232493399Y-125088600I249999J0D01*
G01*
G37*
G36*
G01*
X232493399Y-123088600D02*
X233393401Y-123088600D01*
G75*
G02*
X233643400Y-123338599I0J-249999D01*
G01*
X233643400Y-124038601D01*
G75*
G02*
X233393401Y-124288600I-249999J0D01*
G01*
X232493399Y-124288600D01*
G75*
G02*
X232243400Y-124038601I0J249999D01*
G01*
X232243400Y-123338599D01*
G75*
G02*
X232493399Y-123088600I249999J0D01*
G01*
G37*
%TD*%
%TO.C,C20*%
G36*
G01*
X209592199Y-149724400D02*
X210492201Y-149724400D01*
G75*
G02*
X210742200Y-149974399I0J-249999D01*
G01*
X210742200Y-150674401D01*
G75*
G02*
X210492201Y-150924400I-249999J0D01*
G01*
X209592199Y-150924400D01*
G75*
G02*
X209342200Y-150674401I0J249999D01*
G01*
X209342200Y-149974399D01*
G75*
G02*
X209592199Y-149724400I249999J0D01*
G01*
G37*
G36*
G01*
X209592199Y-147724400D02*
X210492201Y-147724400D01*
G75*
G02*
X210742200Y-147974399I0J-249999D01*
G01*
X210742200Y-148674401D01*
G75*
G02*
X210492201Y-148924400I-249999J0D01*
G01*
X209592199Y-148924400D01*
G75*
G02*
X209342200Y-148674401I0J249999D01*
G01*
X209342200Y-147974399D01*
G75*
G02*
X209592199Y-147724400I249999J0D01*
G01*
G37*
%TD*%
%TO.C,D43*%
G36*
G01*
X166201000Y-82455599D02*
X166201000Y-83355601D01*
G75*
G02*
X165951001Y-83605600I-249999J0D01*
G01*
X165300999Y-83605600D01*
G75*
G02*
X165051000Y-83355601I0J249999D01*
G01*
X165051000Y-82455599D01*
G75*
G02*
X165300999Y-82205600I249999J0D01*
G01*
X165951001Y-82205600D01*
G75*
G02*
X166201000Y-82455599I0J-249999D01*
G01*
G37*
G36*
G01*
X164151000Y-82455599D02*
X164151000Y-83355601D01*
G75*
G02*
X163901001Y-83605600I-249999J0D01*
G01*
X163250999Y-83605600D01*
G75*
G02*
X163001000Y-83355601I0J249999D01*
G01*
X163001000Y-82455599D01*
G75*
G02*
X163250999Y-82205600I249999J0D01*
G01*
X163901001Y-82205600D01*
G75*
G02*
X164151000Y-82455599I0J-249999D01*
G01*
G37*
%TD*%
%TO.C,D44*%
X256362200Y-61200800D03*
X256362200Y-55800800D03*
%TD*%
%TO.C,D45*%
X247853200Y-61183000D03*
X247853200Y-55783000D03*
%TD*%
%TO.C,D46*%
X255727200Y-42882800D03*
X255727200Y-37482800D03*
%TD*%
%TO.C,D47*%
X247853200Y-42882800D03*
X247853200Y-37482800D03*
%TD*%
%TO.C,D48*%
X239445800Y-37338000D03*
X239445800Y-42738000D03*
%TD*%
%TO.C,D49*%
X263474200Y-37449800D03*
X263474200Y-42849800D03*
%TD*%
%TO.C,D50*%
X271373600Y-37406600D03*
X271373600Y-42806600D03*
%TD*%
%TO.C,D51*%
X263575800Y-61716400D03*
X263575800Y-56316400D03*
%TD*%
%TO.C,D52*%
X271551400Y-55808400D03*
X271551400Y-61208400D03*
%TD*%
D15*
%TO.C,J26*%
X248000000Y-27000000D03*
D16*
X263000000Y-27000000D03*
D15*
X258000000Y-27000000D03*
X253000000Y-27000000D03*
X243000000Y-27000000D03*
%TD*%
D23*
%TO.C,JP1*%
X166954200Y-75234800D03*
D24*
X169494200Y-75234800D03*
%TD*%
D23*
%TO.C,JP2*%
X224891600Y-137464800D03*
D24*
X224891600Y-140004800D03*
X224891600Y-142544800D03*
%TD*%
%TO.C,JP3*%
X208420000Y-111000000D03*
X210960000Y-111000000D03*
D23*
X213500000Y-111000000D03*
%TD*%
%TO.C,JP4*%
X215315800Y-137287000D03*
D24*
X215315800Y-139827000D03*
X215315800Y-142367000D03*
%TD*%
%TO.C,JP5*%
X208420000Y-103500000D03*
X210960000Y-103500000D03*
D23*
X213500000Y-103500000D03*
%TD*%
D21*
%TO.C,Q13*%
X163093400Y-87782400D03*
X164043400Y-89782400D03*
X162143400Y-89782400D03*
%TD*%
D22*
%TO.C,Q14*%
X233537000Y-52222400D03*
X231537000Y-53172400D03*
X231537000Y-51272400D03*
%TD*%
%TO.C,Q15*%
X233410000Y-60858400D03*
X231410000Y-61808400D03*
X231410000Y-59908400D03*
%TD*%
%TO.C,Q16*%
X231410000Y-67782400D03*
X231410000Y-69682400D03*
X233410000Y-68732400D03*
%TD*%
%TO.C,Q17*%
X231283000Y-75504000D03*
X231283000Y-77404000D03*
X233283000Y-76454000D03*
%TD*%
%TO.C,R71*%
G36*
G01*
X157632600Y-83355601D02*
X157632600Y-82455599D01*
G75*
G02*
X157882599Y-82205600I249999J0D01*
G01*
X158582601Y-82205600D01*
G75*
G02*
X158832600Y-82455599I0J-249999D01*
G01*
X158832600Y-83355601D01*
G75*
G02*
X158582601Y-83605600I-249999J0D01*
G01*
X157882599Y-83605600D01*
G75*
G02*
X157632600Y-83355601I0J249999D01*
G01*
G37*
G36*
G01*
X159632600Y-83355601D02*
X159632600Y-82455599D01*
G75*
G02*
X159882599Y-82205600I249999J0D01*
G01*
X160582601Y-82205600D01*
G75*
G02*
X160832600Y-82455599I0J-249999D01*
G01*
X160832600Y-83355601D01*
G75*
G02*
X160582601Y-83605600I-249999J0D01*
G01*
X159882599Y-83605600D01*
G75*
G02*
X159632600Y-83355601I0J249999D01*
G01*
G37*
%TD*%
%TO.C,R72*%
G36*
G01*
X163442600Y-94277601D02*
X163442600Y-93377599D01*
G75*
G02*
X163692599Y-93127600I249999J0D01*
G01*
X164392601Y-93127600D01*
G75*
G02*
X164642600Y-93377599I0J-249999D01*
G01*
X164642600Y-94277601D01*
G75*
G02*
X164392601Y-94527600I-249999J0D01*
G01*
X163692599Y-94527600D01*
G75*
G02*
X163442600Y-94277601I0J249999D01*
G01*
G37*
G36*
G01*
X161442600Y-94277601D02*
X161442600Y-93377599D01*
G75*
G02*
X161692599Y-93127600I249999J0D01*
G01*
X162392601Y-93127600D01*
G75*
G02*
X162642600Y-93377599I0J-249999D01*
G01*
X162642600Y-94277601D01*
G75*
G02*
X162392601Y-94527600I-249999J0D01*
G01*
X161692599Y-94527600D01*
G75*
G02*
X161442600Y-94277601I0J249999D01*
G01*
G37*
%TD*%
%TO.C,R73*%
G36*
G01*
X176587999Y-88722400D02*
X177488001Y-88722400D01*
G75*
G02*
X177738000Y-88972399I0J-249999D01*
G01*
X177738000Y-89672401D01*
G75*
G02*
X177488001Y-89922400I-249999J0D01*
G01*
X176587999Y-89922400D01*
G75*
G02*
X176338000Y-89672401I0J249999D01*
G01*
X176338000Y-88972399D01*
G75*
G02*
X176587999Y-88722400I249999J0D01*
G01*
G37*
G36*
G01*
X176587999Y-90722400D02*
X177488001Y-90722400D01*
G75*
G02*
X177738000Y-90972399I0J-249999D01*
G01*
X177738000Y-91672401D01*
G75*
G02*
X177488001Y-91922400I-249999J0D01*
G01*
X176587999Y-91922400D01*
G75*
G02*
X176338000Y-91672401I0J249999D01*
G01*
X176338000Y-90972399D01*
G75*
G02*
X176587999Y-90722400I249999J0D01*
G01*
G37*
%TD*%
%TO.C,R74*%
G36*
G01*
X168049999Y-91400000D02*
X168950001Y-91400000D01*
G75*
G02*
X169200000Y-91649999I0J-249999D01*
G01*
X169200000Y-92350001D01*
G75*
G02*
X168950001Y-92600000I-249999J0D01*
G01*
X168049999Y-92600000D01*
G75*
G02*
X167800000Y-92350001I0J249999D01*
G01*
X167800000Y-91649999D01*
G75*
G02*
X168049999Y-91400000I249999J0D01*
G01*
G37*
G36*
G01*
X168049999Y-89400000D02*
X168950001Y-89400000D01*
G75*
G02*
X169200000Y-89649999I0J-249999D01*
G01*
X169200000Y-90350001D01*
G75*
G02*
X168950001Y-90600000I-249999J0D01*
G01*
X168049999Y-90600000D01*
G75*
G02*
X167800000Y-90350001I0J249999D01*
G01*
X167800000Y-89649999D01*
G75*
G02*
X168049999Y-89400000I249999J0D01*
G01*
G37*
%TD*%
%TO.C,R75*%
G36*
G01*
X229581400Y-143020201D02*
X229581400Y-142120199D01*
G75*
G02*
X229831399Y-141870200I249999J0D01*
G01*
X230531401Y-141870200D01*
G75*
G02*
X230781400Y-142120199I0J-249999D01*
G01*
X230781400Y-143020201D01*
G75*
G02*
X230531401Y-143270200I-249999J0D01*
G01*
X229831399Y-143270200D01*
G75*
G02*
X229581400Y-143020201I0J249999D01*
G01*
G37*
G36*
G01*
X231581400Y-143020201D02*
X231581400Y-142120199D01*
G75*
G02*
X231831399Y-141870200I249999J0D01*
G01*
X232531401Y-141870200D01*
G75*
G02*
X232781400Y-142120199I0J-249999D01*
G01*
X232781400Y-143020201D01*
G75*
G02*
X232531401Y-143270200I-249999J0D01*
G01*
X231831399Y-143270200D01*
G75*
G02*
X231581400Y-143020201I0J249999D01*
G01*
G37*
%TD*%
%TO.C,R76*%
G36*
G01*
X209772200Y-119450001D02*
X209772200Y-118549999D01*
G75*
G02*
X210022199Y-118300000I249999J0D01*
G01*
X210722201Y-118300000D01*
G75*
G02*
X210972200Y-118549999I0J-249999D01*
G01*
X210972200Y-119450001D01*
G75*
G02*
X210722201Y-119700000I-249999J0D01*
G01*
X210022199Y-119700000D01*
G75*
G02*
X209772200Y-119450001I0J249999D01*
G01*
G37*
G36*
G01*
X207772200Y-119450001D02*
X207772200Y-118549999D01*
G75*
G02*
X208022199Y-118300000I249999J0D01*
G01*
X208722201Y-118300000D01*
G75*
G02*
X208972200Y-118549999I0J-249999D01*
G01*
X208972200Y-119450001D01*
G75*
G02*
X208722201Y-119700000I-249999J0D01*
G01*
X208022199Y-119700000D01*
G75*
G02*
X207772200Y-119450001I0J249999D01*
G01*
G37*
%TD*%
%TO.C,R77*%
G36*
G01*
X236934200Y-142817001D02*
X236934200Y-141916999D01*
G75*
G02*
X237184199Y-141667000I249999J0D01*
G01*
X237884201Y-141667000D01*
G75*
G02*
X238134200Y-141916999I0J-249999D01*
G01*
X238134200Y-142817001D01*
G75*
G02*
X237884201Y-143067000I-249999J0D01*
G01*
X237184199Y-143067000D01*
G75*
G02*
X236934200Y-142817001I0J249999D01*
G01*
G37*
G36*
G01*
X234934200Y-142817001D02*
X234934200Y-141916999D01*
G75*
G02*
X235184199Y-141667000I249999J0D01*
G01*
X235884201Y-141667000D01*
G75*
G02*
X236134200Y-141916999I0J-249999D01*
G01*
X236134200Y-142817001D01*
G75*
G02*
X235884201Y-143067000I-249999J0D01*
G01*
X235184199Y-143067000D01*
G75*
G02*
X234934200Y-142817001I0J249999D01*
G01*
G37*
%TD*%
%TO.C,R78*%
G36*
G01*
X203638999Y-125114000D02*
X204539001Y-125114000D01*
G75*
G02*
X204789000Y-125363999I0J-249999D01*
G01*
X204789000Y-126064001D01*
G75*
G02*
X204539001Y-126314000I-249999J0D01*
G01*
X203638999Y-126314000D01*
G75*
G02*
X203389000Y-126064001I0J249999D01*
G01*
X203389000Y-125363999D01*
G75*
G02*
X203638999Y-125114000I249999J0D01*
G01*
G37*
G36*
G01*
X203638999Y-123114000D02*
X204539001Y-123114000D01*
G75*
G02*
X204789000Y-123363999I0J-249999D01*
G01*
X204789000Y-124064001D01*
G75*
G02*
X204539001Y-124314000I-249999J0D01*
G01*
X203638999Y-124314000D01*
G75*
G02*
X203389000Y-124064001I0J249999D01*
G01*
X203389000Y-123363999D01*
G75*
G02*
X203638999Y-123114000I249999J0D01*
G01*
G37*
%TD*%
%TO.C,R79*%
G36*
G01*
X236966200Y-137991001D02*
X236966200Y-137090999D01*
G75*
G02*
X237216199Y-136841000I249999J0D01*
G01*
X237916201Y-136841000D01*
G75*
G02*
X238166200Y-137090999I0J-249999D01*
G01*
X238166200Y-137991001D01*
G75*
G02*
X237916201Y-138241000I-249999J0D01*
G01*
X237216199Y-138241000D01*
G75*
G02*
X236966200Y-137991001I0J249999D01*
G01*
G37*
G36*
G01*
X234966200Y-137991001D02*
X234966200Y-137090999D01*
G75*
G02*
X235216199Y-136841000I249999J0D01*
G01*
X235916201Y-136841000D01*
G75*
G02*
X236166200Y-137090999I0J-249999D01*
G01*
X236166200Y-137991001D01*
G75*
G02*
X235916201Y-138241000I-249999J0D01*
G01*
X235216199Y-138241000D01*
G75*
G02*
X234966200Y-137991001I0J249999D01*
G01*
G37*
%TD*%
%TO.C,R80*%
G36*
G01*
X215318800Y-126510201D02*
X215318800Y-125610199D01*
G75*
G02*
X215568799Y-125360200I249999J0D01*
G01*
X216268801Y-125360200D01*
G75*
G02*
X216518800Y-125610199I0J-249999D01*
G01*
X216518800Y-126510201D01*
G75*
G02*
X216268801Y-126760200I-249999J0D01*
G01*
X215568799Y-126760200D01*
G75*
G02*
X215318800Y-126510201I0J249999D01*
G01*
G37*
G36*
G01*
X213318800Y-126510201D02*
X213318800Y-125610199D01*
G75*
G02*
X213568799Y-125360200I249999J0D01*
G01*
X214268801Y-125360200D01*
G75*
G02*
X214518800Y-125610199I0J-249999D01*
G01*
X214518800Y-126510201D01*
G75*
G02*
X214268801Y-126760200I-249999J0D01*
G01*
X213568799Y-126760200D01*
G75*
G02*
X213318800Y-126510201I0J249999D01*
G01*
G37*
%TD*%
%TO.C,R81*%
G36*
G01*
X220494400Y-50629399D02*
X220494400Y-51529401D01*
G75*
G02*
X220244401Y-51779400I-249999J0D01*
G01*
X219544399Y-51779400D01*
G75*
G02*
X219294400Y-51529401I0J249999D01*
G01*
X219294400Y-50629399D01*
G75*
G02*
X219544399Y-50379400I249999J0D01*
G01*
X220244401Y-50379400D01*
G75*
G02*
X220494400Y-50629399I0J-249999D01*
G01*
G37*
G36*
G01*
X222494400Y-50629399D02*
X222494400Y-51529401D01*
G75*
G02*
X222244401Y-51779400I-249999J0D01*
G01*
X221544399Y-51779400D01*
G75*
G02*
X221294400Y-51529401I0J249999D01*
G01*
X221294400Y-50629399D01*
G75*
G02*
X221544399Y-50379400I249999J0D01*
G01*
X222244401Y-50379400D01*
G75*
G02*
X222494400Y-50629399I0J-249999D01*
G01*
G37*
%TD*%
%TO.C,R82*%
G36*
G01*
X225914799Y-50622400D02*
X226814801Y-50622400D01*
G75*
G02*
X227064800Y-50872399I0J-249999D01*
G01*
X227064800Y-51572401D01*
G75*
G02*
X226814801Y-51822400I-249999J0D01*
G01*
X225914799Y-51822400D01*
G75*
G02*
X225664800Y-51572401I0J249999D01*
G01*
X225664800Y-50872399D01*
G75*
G02*
X225914799Y-50622400I249999J0D01*
G01*
G37*
G36*
G01*
X225914799Y-52622400D02*
X226814801Y-52622400D01*
G75*
G02*
X227064800Y-52872399I0J-249999D01*
G01*
X227064800Y-53572401D01*
G75*
G02*
X226814801Y-53822400I-249999J0D01*
G01*
X225914799Y-53822400D01*
G75*
G02*
X225664800Y-53572401I0J249999D01*
G01*
X225664800Y-52872399D01*
G75*
G02*
X225914799Y-52622400I249999J0D01*
G01*
G37*
%TD*%
%TO.C,R83*%
G36*
G01*
X223002400Y-59443199D02*
X223002400Y-60343201D01*
G75*
G02*
X222752401Y-60593200I-249999J0D01*
G01*
X222052399Y-60593200D01*
G75*
G02*
X221802400Y-60343201I0J249999D01*
G01*
X221802400Y-59443199D01*
G75*
G02*
X222052399Y-59193200I249999J0D01*
G01*
X222752401Y-59193200D01*
G75*
G02*
X223002400Y-59443199I0J-249999D01*
G01*
G37*
G36*
G01*
X221002400Y-59443199D02*
X221002400Y-60343201D01*
G75*
G02*
X220752401Y-60593200I-249999J0D01*
G01*
X220052399Y-60593200D01*
G75*
G02*
X219802400Y-60343201I0J249999D01*
G01*
X219802400Y-59443199D01*
G75*
G02*
X220052399Y-59193200I249999J0D01*
G01*
X220752401Y-59193200D01*
G75*
G02*
X221002400Y-59443199I0J-249999D01*
G01*
G37*
%TD*%
%TO.C,R84*%
G36*
G01*
X226168799Y-59309200D02*
X227068801Y-59309200D01*
G75*
G02*
X227318800Y-59559199I0J-249999D01*
G01*
X227318800Y-60259201D01*
G75*
G02*
X227068801Y-60509200I-249999J0D01*
G01*
X226168799Y-60509200D01*
G75*
G02*
X225918800Y-60259201I0J249999D01*
G01*
X225918800Y-59559199D01*
G75*
G02*
X226168799Y-59309200I249999J0D01*
G01*
G37*
G36*
G01*
X226168799Y-61309200D02*
X227068801Y-61309200D01*
G75*
G02*
X227318800Y-61559199I0J-249999D01*
G01*
X227318800Y-62259201D01*
G75*
G02*
X227068801Y-62509200I-249999J0D01*
G01*
X226168799Y-62509200D01*
G75*
G02*
X225918800Y-62259201I0J249999D01*
G01*
X225918800Y-61559199D01*
G75*
G02*
X226168799Y-61309200I249999J0D01*
G01*
G37*
%TD*%
%TO.C,R85*%
G36*
G01*
X226219599Y-69377000D02*
X227119601Y-69377000D01*
G75*
G02*
X227369600Y-69626999I0J-249999D01*
G01*
X227369600Y-70327001D01*
G75*
G02*
X227119601Y-70577000I-249999J0D01*
G01*
X226219599Y-70577000D01*
G75*
G02*
X225969600Y-70327001I0J249999D01*
G01*
X225969600Y-69626999D01*
G75*
G02*
X226219599Y-69377000I249999J0D01*
G01*
G37*
G36*
G01*
X226219599Y-67377000D02*
X227119601Y-67377000D01*
G75*
G02*
X227369600Y-67626999I0J-249999D01*
G01*
X227369600Y-68327001D01*
G75*
G02*
X227119601Y-68577000I-249999J0D01*
G01*
X226219599Y-68577000D01*
G75*
G02*
X225969600Y-68327001I0J249999D01*
G01*
X225969600Y-67626999D01*
G75*
G02*
X226219599Y-67377000I249999J0D01*
G01*
G37*
%TD*%
%TO.C,R87*%
G36*
G01*
X226346599Y-77022400D02*
X227246601Y-77022400D01*
G75*
G02*
X227496600Y-77272399I0J-249999D01*
G01*
X227496600Y-77972401D01*
G75*
G02*
X227246601Y-78222400I-249999J0D01*
G01*
X226346599Y-78222400D01*
G75*
G02*
X226096600Y-77972401I0J249999D01*
G01*
X226096600Y-77272399D01*
G75*
G02*
X226346599Y-77022400I249999J0D01*
G01*
G37*
G36*
G01*
X226346599Y-75022400D02*
X227246601Y-75022400D01*
G75*
G02*
X227496600Y-75272399I0J-249999D01*
G01*
X227496600Y-75972401D01*
G75*
G02*
X227246601Y-76222400I-249999J0D01*
G01*
X226346599Y-76222400D01*
G75*
G02*
X226096600Y-75972401I0J249999D01*
G01*
X226096600Y-75272399D01*
G75*
G02*
X226346599Y-75022400I249999J0D01*
G01*
G37*
%TD*%
%TO.C,R88*%
G36*
G01*
X222808600Y-75114999D02*
X222808600Y-76015001D01*
G75*
G02*
X222558601Y-76265000I-249999J0D01*
G01*
X221858599Y-76265000D01*
G75*
G02*
X221608600Y-76015001I0J249999D01*
G01*
X221608600Y-75114999D01*
G75*
G02*
X221858599Y-74865000I249999J0D01*
G01*
X222558601Y-74865000D01*
G75*
G02*
X222808600Y-75114999I0J-249999D01*
G01*
G37*
G36*
G01*
X220808600Y-75114999D02*
X220808600Y-76015001D01*
G75*
G02*
X220558601Y-76265000I-249999J0D01*
G01*
X219858599Y-76265000D01*
G75*
G02*
X219608600Y-76015001I0J249999D01*
G01*
X219608600Y-75114999D01*
G75*
G02*
X219858599Y-74865000I249999J0D01*
G01*
X220558601Y-74865000D01*
G75*
G02*
X220808600Y-75114999I0J-249999D01*
G01*
G37*
%TD*%
%TO.C,R89*%
G36*
G01*
X236670001Y-113036400D02*
X235769999Y-113036400D01*
G75*
G02*
X235520000Y-112786401I0J249999D01*
G01*
X235520000Y-112086399D01*
G75*
G02*
X235769999Y-111836400I249999J0D01*
G01*
X236670001Y-111836400D01*
G75*
G02*
X236920000Y-112086399I0J-249999D01*
G01*
X236920000Y-112786401D01*
G75*
G02*
X236670001Y-113036400I-249999J0D01*
G01*
G37*
G36*
G01*
X236670001Y-115036400D02*
X235769999Y-115036400D01*
G75*
G02*
X235520000Y-114786401I0J249999D01*
G01*
X235520000Y-114086399D01*
G75*
G02*
X235769999Y-113836400I249999J0D01*
G01*
X236670001Y-113836400D01*
G75*
G02*
X236920000Y-114086399I0J-249999D01*
G01*
X236920000Y-114786401D01*
G75*
G02*
X236670001Y-115036400I-249999J0D01*
G01*
G37*
%TD*%
%TO.C,R90*%
G36*
G01*
X235601200Y-119601401D02*
X235601200Y-118701399D01*
G75*
G02*
X235851199Y-118451400I249999J0D01*
G01*
X236551201Y-118451400D01*
G75*
G02*
X236801200Y-118701399I0J-249999D01*
G01*
X236801200Y-119601401D01*
G75*
G02*
X236551201Y-119851400I-249999J0D01*
G01*
X235851199Y-119851400D01*
G75*
G02*
X235601200Y-119601401I0J249999D01*
G01*
G37*
G36*
G01*
X237601200Y-119601401D02*
X237601200Y-118701399D01*
G75*
G02*
X237851199Y-118451400I249999J0D01*
G01*
X238551201Y-118451400D01*
G75*
G02*
X238801200Y-118701399I0J-249999D01*
G01*
X238801200Y-119601401D01*
G75*
G02*
X238551201Y-119851400I-249999J0D01*
G01*
X237851199Y-119851400D01*
G75*
G02*
X237601200Y-119601401I0J249999D01*
G01*
G37*
%TD*%
%TO.C,R91*%
G36*
G01*
X213757200Y-149370201D02*
X213757200Y-148470199D01*
G75*
G02*
X214007199Y-148220200I249999J0D01*
G01*
X214707201Y-148220200D01*
G75*
G02*
X214957200Y-148470199I0J-249999D01*
G01*
X214957200Y-149370201D01*
G75*
G02*
X214707201Y-149620200I-249999J0D01*
G01*
X214007199Y-149620200D01*
G75*
G02*
X213757200Y-149370201I0J249999D01*
G01*
G37*
G36*
G01*
X215757200Y-149370201D02*
X215757200Y-148470199D01*
G75*
G02*
X216007199Y-148220200I249999J0D01*
G01*
X216707201Y-148220200D01*
G75*
G02*
X216957200Y-148470199I0J-249999D01*
G01*
X216957200Y-149370201D01*
G75*
G02*
X216707201Y-149620200I-249999J0D01*
G01*
X216007199Y-149620200D01*
G75*
G02*
X215757200Y-149370201I0J249999D01*
G01*
G37*
%TD*%
%TO.C,R92*%
G36*
G01*
X230175000Y-119576001D02*
X230175000Y-118675999D01*
G75*
G02*
X230424999Y-118426000I249999J0D01*
G01*
X231125001Y-118426000D01*
G75*
G02*
X231375000Y-118675999I0J-249999D01*
G01*
X231375000Y-119576001D01*
G75*
G02*
X231125001Y-119826000I-249999J0D01*
G01*
X230424999Y-119826000D01*
G75*
G02*
X230175000Y-119576001I0J249999D01*
G01*
G37*
G36*
G01*
X232175000Y-119576001D02*
X232175000Y-118675999D01*
G75*
G02*
X232424999Y-118426000I249999J0D01*
G01*
X233125001Y-118426000D01*
G75*
G02*
X233375000Y-118675999I0J-249999D01*
G01*
X233375000Y-119576001D01*
G75*
G02*
X233125001Y-119826000I-249999J0D01*
G01*
X232424999Y-119826000D01*
G75*
G02*
X232175000Y-119576001I0J249999D01*
G01*
G37*
%TD*%
%TO.C,R93*%
G36*
G01*
X204539001Y-149164600D02*
X203638999Y-149164600D01*
G75*
G02*
X203389000Y-148914601I0J249999D01*
G01*
X203389000Y-148214599D01*
G75*
G02*
X203638999Y-147964600I249999J0D01*
G01*
X204539001Y-147964600D01*
G75*
G02*
X204789000Y-148214599I0J-249999D01*
G01*
X204789000Y-148914601D01*
G75*
G02*
X204539001Y-149164600I-249999J0D01*
G01*
G37*
G36*
G01*
X204539001Y-147164600D02*
X203638999Y-147164600D01*
G75*
G02*
X203389000Y-146914601I0J249999D01*
G01*
X203389000Y-146214599D01*
G75*
G02*
X203638999Y-145964600I249999J0D01*
G01*
X204539001Y-145964600D01*
G75*
G02*
X204789000Y-146214599I0J-249999D01*
G01*
X204789000Y-146914601D01*
G75*
G02*
X204539001Y-147164600I-249999J0D01*
G01*
G37*
%TD*%
%TO.C,R94*%
G36*
G01*
X208981600Y-141916999D02*
X208981600Y-142817001D01*
G75*
G02*
X208731601Y-143067000I-249999J0D01*
G01*
X208031599Y-143067000D01*
G75*
G02*
X207781600Y-142817001I0J249999D01*
G01*
X207781600Y-141916999D01*
G75*
G02*
X208031599Y-141667000I249999J0D01*
G01*
X208731601Y-141667000D01*
G75*
G02*
X208981600Y-141916999I0J-249999D01*
G01*
G37*
G36*
G01*
X210981600Y-141916999D02*
X210981600Y-142817001D01*
G75*
G02*
X210731601Y-143067000I-249999J0D01*
G01*
X210031599Y-143067000D01*
G75*
G02*
X209781600Y-142817001I0J249999D01*
G01*
X209781600Y-141916999D01*
G75*
G02*
X210031599Y-141667000I249999J0D01*
G01*
X210731601Y-141667000D01*
G75*
G02*
X210981600Y-141916999I0J-249999D01*
G01*
G37*
%TD*%
%TO.C,R86*%
G36*
G01*
X223100000Y-67549999D02*
X223100000Y-68450001D01*
G75*
G02*
X222850001Y-68700000I-249999J0D01*
G01*
X222149999Y-68700000D01*
G75*
G02*
X221900000Y-68450001I0J249999D01*
G01*
X221900000Y-67549999D01*
G75*
G02*
X222149999Y-67300000I249999J0D01*
G01*
X222850001Y-67300000D01*
G75*
G02*
X223100000Y-67549999I0J-249999D01*
G01*
G37*
G36*
G01*
X221100000Y-67549999D02*
X221100000Y-68450001D01*
G75*
G02*
X220850001Y-68700000I-249999J0D01*
G01*
X220149999Y-68700000D01*
G75*
G02*
X219900000Y-68450001I0J249999D01*
G01*
X219900000Y-67549999D01*
G75*
G02*
X220149999Y-67300000I249999J0D01*
G01*
X220850001Y-67300000D01*
G75*
G02*
X221100000Y-67549999I0J-249999D01*
G01*
G37*
%TD*%
%TO.C,R95*%
G36*
G01*
X120650000Y-126975000D02*
X120650000Y-128225000D01*
G75*
G02*
X120400000Y-128475000I-250000J0D01*
G01*
X119600000Y-128475000D01*
G75*
G02*
X119350000Y-128225000I0J250000D01*
G01*
X119350000Y-126975000D01*
G75*
G02*
X119600000Y-126725000I250000J0D01*
G01*
X120400000Y-126725000D01*
G75*
G02*
X120650000Y-126975000I0J-250000D01*
G01*
G37*
G36*
G01*
X117550000Y-126975000D02*
X117550000Y-128225000D01*
G75*
G02*
X117300000Y-128475000I-250000J0D01*
G01*
X116500000Y-128475000D01*
G75*
G02*
X116250000Y-128225000I0J250000D01*
G01*
X116250000Y-126975000D01*
G75*
G02*
X116500000Y-126725000I250000J0D01*
G01*
X117300000Y-126725000D01*
G75*
G02*
X117550000Y-126975000I0J-250000D01*
G01*
G37*
%TD*%
D15*
%TO.C,J27*%
X75200000Y-188900000D03*
D16*
X75200000Y-183900000D03*
%TD*%
D23*
%TO.C,J2*%
X129500000Y-104960000D03*
D24*
X129500000Y-107500000D03*
X129500000Y-110040000D03*
X129500000Y-112580000D03*
X129500000Y-115120000D03*
%TD*%
D25*
%TO.C,BZ1*%
X191148400Y-75030800D03*
X176848400Y-75030800D03*
%TD*%
M02*
