%TF.GenerationSoftware,KiCad,Pcbnew,(5.1.10)-1*%
%TF.CreationDate,2022-01-12T07:46:51+01:00*%
%TF.ProjectId,automate,6175746f-6d61-4746-952e-6b696361645f,rev?*%
%TF.SameCoordinates,Original*%
%TF.FileFunction,Copper,L4,Bot*%
%TF.FilePolarity,Positive*%
%FSLAX46Y46*%
G04 Gerber Fmt 4.6, Leading zero omitted, Abs format (unit mm)*
G04 Created by KiCad (PCBNEW (5.1.10)-1) date 2022-01-12 07:46:51*
%MOMM*%
%LPD*%
G01*
G04 APERTURE LIST*
%TA.AperFunction,ComponentPad*%
%ADD10C,2.000000*%
%TD*%
%TA.AperFunction,ComponentPad*%
%ADD11R,2.000000X2.000000*%
%TD*%
%TA.AperFunction,ComponentPad*%
%ADD12C,2.500000*%
%TD*%
%TA.AperFunction,ComponentPad*%
%ADD13R,2.500000X2.500000*%
%TD*%
%TA.AperFunction,ComponentPad*%
%ADD14R,1.600000X2.400000*%
%TD*%
%TA.AperFunction,ComponentPad*%
%ADD15O,1.600000X2.400000*%
%TD*%
%TA.AperFunction,ComponentPad*%
%ADD16C,3.000000*%
%TD*%
%TA.AperFunction,ComponentPad*%
%ADD17R,1.700000X1.700000*%
%TD*%
%TA.AperFunction,ComponentPad*%
%ADD18O,1.700000X1.700000*%
%TD*%
%TA.AperFunction,ViaPad*%
%ADD19C,1.300000*%
%TD*%
%TA.AperFunction,ViaPad*%
%ADD20C,0.800000*%
%TD*%
%TA.AperFunction,Conductor*%
%ADD21C,0.250000*%
%TD*%
G04 APERTURE END LIST*
D10*
%TO.P,BZ2,2*%
%TO.N,Net-(BZ1-Pad2)*%
X181100000Y-69900000D03*
D11*
%TO.P,BZ2,1*%
%TO.N,Net-(BZ1-Pad1)*%
X187600000Y-69900000D03*
%TD*%
D10*
%TO.P,SW1,1*%
%TO.N,GND*%
X170000000Y-131500000D03*
%TO.P,SW1,2*%
%TO.N,/Logique/Vpp*%
X165000000Y-131500000D03*
%TD*%
D12*
%TO.P,J1,2*%
%TO.N,Net-(D1-Pad1)*%
X85500000Y-27500000D03*
D13*
%TO.P,J1,1*%
%TO.N,GND*%
X90500000Y-27500000D03*
%TD*%
D12*
%TO.P,J3,4*%
%TO.N,Net-(J3-Pad4)*%
X217500000Y-27000000D03*
D13*
%TO.P,J3,1*%
%TO.N,GND*%
X232500000Y-27000000D03*
D12*
%TO.P,J3,2*%
%TO.N,VCC*%
X227500000Y-27000000D03*
%TO.P,J3,3*%
%TO.N,Net-(J3-Pad3)*%
X222500000Y-27000000D03*
%TD*%
%TO.P,J4,3*%
%TO.N,Net-(J4-Pad3)*%
X199500000Y-27000000D03*
%TO.P,J4,2*%
%TO.N,VCC*%
X204500000Y-27000000D03*
D13*
%TO.P,J4,1*%
%TO.N,GND*%
X209500000Y-27000000D03*
D12*
%TO.P,J4,4*%
%TO.N,Net-(J4-Pad4)*%
X194500000Y-27000000D03*
%TD*%
D13*
%TO.P,J5,1*%
%TO.N,Net-(J5-Pad1)*%
X93000000Y-212500000D03*
D12*
%TO.P,J5,2*%
%TO.N,Net-(J5-Pad2)*%
X98000000Y-212500000D03*
%TO.P,J5,3*%
%TO.N,Net-(J5-Pad3)*%
X103000000Y-212500000D03*
%TD*%
D13*
%TO.P,J6,1*%
%TO.N,Net-(J6-Pad1)*%
X116000000Y-212500000D03*
D12*
%TO.P,J6,2*%
%TO.N,Net-(J6-Pad2)*%
X121000000Y-212500000D03*
%TO.P,J6,3*%
%TO.N,Net-(J6-Pad3)*%
X126000000Y-212500000D03*
%TD*%
D13*
%TO.P,J7,1*%
%TO.N,Net-(J7-Pad1)*%
X137000000Y-212500000D03*
D12*
%TO.P,J7,2*%
%TO.N,Net-(J7-Pad2)*%
X142000000Y-212500000D03*
%TO.P,J7,3*%
%TO.N,Net-(J7-Pad3)*%
X147000000Y-212500000D03*
%TD*%
%TO.P,J8,3*%
%TO.N,Net-(J8-Pad3)*%
X168000000Y-212500000D03*
%TO.P,J8,2*%
%TO.N,Net-(J8-Pad2)*%
X163000000Y-212500000D03*
D13*
%TO.P,J8,1*%
%TO.N,Net-(J8-Pad1)*%
X158000000Y-212500000D03*
%TD*%
%TO.P,J9,1*%
%TO.N,Net-(J9-Pad1)*%
X178000000Y-212500000D03*
D12*
%TO.P,J9,2*%
%TO.N,Net-(J9-Pad2)*%
X183000000Y-212500000D03*
%TO.P,J9,3*%
%TO.N,Net-(J9-Pad3)*%
X188000000Y-212500000D03*
%TD*%
%TO.P,J10,3*%
%TO.N,Net-(J10-Pad3)*%
X208000000Y-212500000D03*
%TO.P,J10,2*%
%TO.N,Net-(J10-Pad2)*%
X203000000Y-212500000D03*
D13*
%TO.P,J10,1*%
%TO.N,Net-(J10-Pad1)*%
X198000000Y-212500000D03*
%TD*%
D12*
%TO.P,J11,3*%
%TO.N,Net-(J11-Pad3)*%
X228000000Y-212500000D03*
%TO.P,J11,2*%
%TO.N,Net-(J11-Pad2)*%
X223000000Y-212500000D03*
D13*
%TO.P,J11,1*%
%TO.N,Net-(J11-Pad1)*%
X218000000Y-212500000D03*
%TD*%
D12*
%TO.P,J12,3*%
%TO.N,Net-(J12-Pad3)*%
X248000000Y-212500000D03*
%TO.P,J12,2*%
%TO.N,Net-(J12-Pad2)*%
X243000000Y-212500000D03*
D13*
%TO.P,J12,1*%
%TO.N,Net-(J12-Pad1)*%
X238000000Y-212500000D03*
%TD*%
D12*
%TO.P,J13,2*%
%TO.N,Net-(D23-Pad1)*%
X273839600Y-165362800D03*
D13*
%TO.P,J13,1*%
%TO.N,GND*%
X273839600Y-170362800D03*
%TD*%
D12*
%TO.P,J14,2*%
%TO.N,Net-(D24-Pad1)*%
X273839600Y-152362800D03*
D13*
%TO.P,J14,1*%
%TO.N,GND*%
X273839600Y-157362800D03*
%TD*%
D12*
%TO.P,J15,2*%
%TO.N,Net-(D25-Pad1)*%
X273839600Y-139362800D03*
D13*
%TO.P,J15,1*%
%TO.N,GND*%
X273839600Y-144362800D03*
%TD*%
%TO.P,J16,1*%
%TO.N,GND*%
X273839600Y-131362800D03*
D12*
%TO.P,J16,2*%
%TO.N,Net-(D26-Pad1)*%
X273839600Y-126362800D03*
%TD*%
%TO.P,J17,2*%
%TO.N,Net-(D31-Pad1)*%
X273839600Y-113362800D03*
D13*
%TO.P,J17,1*%
%TO.N,GND*%
X273839600Y-118362800D03*
%TD*%
%TO.P,J18,1*%
%TO.N,GND*%
X273839600Y-105362800D03*
D12*
%TO.P,J18,2*%
%TO.N,Net-(D32-Pad1)*%
X273839600Y-100362800D03*
%TD*%
D13*
%TO.P,J19,1*%
%TO.N,GND*%
X273839600Y-92362800D03*
D12*
%TO.P,J19,2*%
%TO.N,Net-(D33-Pad1)*%
X273839600Y-87362800D03*
%TD*%
%TO.P,J20,2*%
%TO.N,Net-(D34-Pad1)*%
X273839600Y-74362800D03*
D13*
%TO.P,J20,1*%
%TO.N,GND*%
X273839600Y-79362800D03*
%TD*%
%TO.P,J21,1*%
%TO.N,GND*%
X134000000Y-27000000D03*
D12*
%TO.P,J21,2*%
%TO.N,Net-(D39-Pad1)*%
X129000000Y-27000000D03*
%TD*%
D13*
%TO.P,J22,1*%
%TO.N,GND*%
X148000000Y-27000000D03*
D12*
%TO.P,J22,2*%
%TO.N,Net-(D40-Pad1)*%
X143000000Y-27000000D03*
%TD*%
D13*
%TO.P,J23,1*%
%TO.N,GND*%
X161500000Y-27000000D03*
D12*
%TO.P,J23,2*%
%TO.N,Net-(D41-Pad1)*%
X156500000Y-27000000D03*
%TD*%
%TO.P,J24,2*%
%TO.N,Net-(D42-Pad1)*%
X171500000Y-27000000D03*
D13*
%TO.P,J24,1*%
%TO.N,GND*%
X176500000Y-27000000D03*
%TD*%
D12*
%TO.P,J25,4*%
%TO.N,Net-(J25-Pad4)*%
X102500000Y-27500000D03*
D13*
%TO.P,J25,1*%
%TO.N,Net-(J25-Pad1)*%
X117500000Y-27500000D03*
D12*
%TO.P,J25,2*%
%TO.N,Net-(J25-Pad2)*%
X112500000Y-27500000D03*
%TO.P,J25,3*%
%TO.N,Net-(J25-Pad3)*%
X107500000Y-27500000D03*
%TO.P,J25,5*%
%TO.N,Net-(D13-Pad2)*%
X97500000Y-27500000D03*
%TD*%
D14*
%TO.P,U2,1*%
%TO.N,/Logique/Vpp*%
X140500000Y-117500000D03*
D15*
%TO.P,U2,21*%
%TO.N,IN3*%
X188760000Y-102260000D03*
%TO.P,U2,2*%
%TO.N,Rel1*%
X143040000Y-117500000D03*
%TO.P,U2,22*%
%TO.N,IN4*%
X186220000Y-102260000D03*
%TO.P,U2,3*%
%TO.N,Rel2*%
X145580000Y-117500000D03*
%TO.P,U2,23*%
%TO.N,Net-(J3-Pad3)*%
X183680000Y-102260000D03*
%TO.P,U2,4*%
%TO.N,Rel3*%
X148120000Y-117500000D03*
%TO.P,U2,24*%
%TO.N,GPIO4*%
X181140000Y-102260000D03*
%TO.P,U2,5*%
%TO.N,Rel4*%
X150660000Y-117500000D03*
%TO.P,U2,25*%
%TO.N,Net-(J4-Pad3)*%
X178600000Y-102260000D03*
%TO.P,U2,6*%
%TO.N,Rel5*%
X153200000Y-117500000D03*
%TO.P,U2,26*%
%TO.N,Net-(J4-Pad4)*%
X176060000Y-102260000D03*
%TO.P,U2,7*%
%TO.N,Rel6*%
X155740000Y-117500000D03*
%TO.P,U2,27*%
%TO.N,IN5*%
X173520000Y-102260000D03*
%TO.P,U2,8*%
%TO.N,C4*%
X158280000Y-117500000D03*
%TO.P,U2,28*%
%TO.N,IN6*%
X170980000Y-102260000D03*
%TO.P,U2,9*%
%TO.N,C3*%
X160820000Y-117500000D03*
%TO.P,U2,29*%
%TO.N,IN7*%
X168440000Y-102260000D03*
%TO.P,U2,10*%
%TO.N,C2*%
X163360000Y-117500000D03*
%TO.P,U2,30*%
%TO.N,IN8*%
X165900000Y-102260000D03*
%TO.P,U2,11*%
%TO.N,VCC*%
X165900000Y-117500000D03*
%TO.P,U2,31*%
%TO.N,GND*%
X163360000Y-102260000D03*
%TO.P,U2,12*%
X168440000Y-117500000D03*
%TO.P,U2,32*%
%TO.N,VCC*%
X160820000Y-102260000D03*
%TO.P,U2,13*%
%TO.N,Rel8*%
X170980000Y-117500000D03*
%TO.P,U2,33*%
%TO.N,AN1*%
X158280000Y-102260000D03*
%TO.P,U2,14*%
%TO.N,Rel7*%
X173520000Y-117500000D03*
%TO.P,U2,34*%
%TO.N,AN2*%
X155740000Y-102260000D03*
%TO.P,U2,15*%
%TO.N,GPIO1*%
X176060000Y-117500000D03*
%TO.P,U2,35*%
%TO.N,AN3*%
X153200000Y-102260000D03*
%TO.P,U2,16*%
%TO.N,GPIO2*%
X178600000Y-117500000D03*
%TO.P,U2,36*%
%TO.N,AN4*%
X150660000Y-102260000D03*
%TO.P,U2,17*%
%TO.N,GPIO3*%
X181140000Y-117500000D03*
%TO.P,U2,37*%
%TO.N,Net-(R74-Pad2)*%
X148120000Y-102260000D03*
%TO.P,U2,18*%
%TO.N,Net-(J3-Pad4)*%
X183680000Y-117500000D03*
%TO.P,U2,38*%
%TO.N,C1*%
X145580000Y-102260000D03*
%TO.P,U2,19*%
%TO.N,IN1*%
X186220000Y-117500000D03*
%TO.P,U2,39*%
%TO.N,Net-(J2-Pad1)*%
X143040000Y-102260000D03*
%TO.P,U2,20*%
%TO.N,IN2*%
X188760000Y-117500000D03*
%TO.P,U2,40*%
%TO.N,Net-(J2-Pad2)*%
X140500000Y-102260000D03*
%TD*%
D16*
%TO.P,K1,11*%
%TO.N,Net-(J5-Pad2)*%
X98000000Y-186600000D03*
%TO.P,K1,A1*%
%TO.N,+12V*%
X104000000Y-188600000D03*
%TO.P,K1,12*%
%TO.N,Net-(J5-Pad3)*%
X104000000Y-200800000D03*
%TO.P,K1,14*%
%TO.N,Net-(J5-Pad1)*%
X92000000Y-200800000D03*
%TO.P,K1,A2*%
%TO.N,Net-(D7-Pad1)*%
X92000000Y-188600000D03*
%TD*%
%TO.P,K2,11*%
%TO.N,Net-(J6-Pad2)*%
X120000000Y-186500000D03*
%TO.P,K2,A1*%
%TO.N,+12V*%
X126000000Y-188500000D03*
%TO.P,K2,12*%
%TO.N,Net-(J6-Pad3)*%
X126000000Y-200700000D03*
%TO.P,K2,14*%
%TO.N,Net-(J6-Pad1)*%
X114000000Y-200700000D03*
%TO.P,K2,A2*%
%TO.N,Net-(D9-Pad1)*%
X114000000Y-188500000D03*
%TD*%
%TO.P,K3,11*%
%TO.N,Net-(J7-Pad2)*%
X142000000Y-186500000D03*
%TO.P,K3,A1*%
%TO.N,+12V*%
X148000000Y-188500000D03*
%TO.P,K3,12*%
%TO.N,Net-(J7-Pad3)*%
X148000000Y-200700000D03*
%TO.P,K3,14*%
%TO.N,Net-(J7-Pad1)*%
X136000000Y-200700000D03*
%TO.P,K3,A2*%
%TO.N,Net-(D11-Pad1)*%
X136000000Y-188500000D03*
%TD*%
%TO.P,K4,A2*%
%TO.N,Net-(D14-Pad1)*%
X156000000Y-188500000D03*
%TO.P,K4,14*%
%TO.N,Net-(J8-Pad1)*%
X156000000Y-200700000D03*
%TO.P,K4,12*%
%TO.N,Net-(J8-Pad3)*%
X168000000Y-200700000D03*
%TO.P,K4,A1*%
%TO.N,+12V*%
X168000000Y-188500000D03*
%TO.P,K4,11*%
%TO.N,Net-(J8-Pad2)*%
X162000000Y-186500000D03*
%TD*%
%TO.P,K5,A2*%
%TO.N,Net-(D16-Pad1)*%
X177000000Y-188500000D03*
%TO.P,K5,14*%
%TO.N,Net-(J9-Pad1)*%
X177000000Y-200700000D03*
%TO.P,K5,12*%
%TO.N,Net-(J9-Pad3)*%
X189000000Y-200700000D03*
%TO.P,K5,A1*%
%TO.N,+12V*%
X189000000Y-188500000D03*
%TO.P,K5,11*%
%TO.N,Net-(J9-Pad2)*%
X183000000Y-186500000D03*
%TD*%
%TO.P,K6,A2*%
%TO.N,Net-(D18-Pad1)*%
X197000000Y-188500000D03*
%TO.P,K6,14*%
%TO.N,Net-(J10-Pad1)*%
X197000000Y-200700000D03*
%TO.P,K6,12*%
%TO.N,Net-(J10-Pad3)*%
X209000000Y-200700000D03*
%TO.P,K6,A1*%
%TO.N,+12V*%
X209000000Y-188500000D03*
%TO.P,K6,11*%
%TO.N,Net-(J10-Pad2)*%
X203000000Y-186500000D03*
%TD*%
%TO.P,K7,A2*%
%TO.N,Net-(D20-Pad1)*%
X217000000Y-188500000D03*
%TO.P,K7,14*%
%TO.N,Net-(J11-Pad1)*%
X217000000Y-200700000D03*
%TO.P,K7,12*%
%TO.N,Net-(J11-Pad3)*%
X229000000Y-200700000D03*
%TO.P,K7,A1*%
%TO.N,+12V*%
X229000000Y-188500000D03*
%TO.P,K7,11*%
%TO.N,Net-(J11-Pad2)*%
X223000000Y-186500000D03*
%TD*%
%TO.P,K8,11*%
%TO.N,Net-(J12-Pad2)*%
X243000000Y-186500000D03*
%TO.P,K8,A1*%
%TO.N,+12V*%
X249000000Y-188500000D03*
%TO.P,K8,12*%
%TO.N,Net-(J12-Pad3)*%
X249000000Y-200700000D03*
%TO.P,K8,14*%
%TO.N,Net-(J12-Pad1)*%
X237000000Y-200700000D03*
%TO.P,K8,A2*%
%TO.N,Net-(D22-Pad1)*%
X237000000Y-188500000D03*
%TD*%
D12*
%TO.P,J26,4*%
%TO.N,Net-(D45-Pad2)*%
X248000000Y-27000000D03*
D13*
%TO.P,J26,1*%
%TO.N,Net-(D50-Pad1)*%
X263000000Y-27000000D03*
D12*
%TO.P,J26,2*%
%TO.N,Net-(D49-Pad1)*%
X258000000Y-27000000D03*
%TO.P,J26,3*%
%TO.N,Net-(D44-Pad2)*%
X253000000Y-27000000D03*
%TO.P,J26,5*%
%TO.N,Net-(D48-Pad2)*%
X243000000Y-27000000D03*
%TD*%
D17*
%TO.P,JP1,1*%
%TO.N,Net-(D43-Pad1)*%
X166954200Y-75234800D03*
D18*
%TO.P,JP1,2*%
%TO.N,Net-(BZ1-Pad2)*%
X169494200Y-75234800D03*
%TD*%
D17*
%TO.P,JP2,1*%
%TO.N,Net-(JP2-Pad1)*%
X224891600Y-137464800D03*
D18*
%TO.P,JP2,2*%
%TO.N,GPIO3*%
X224891600Y-140004800D03*
%TO.P,JP2,3*%
%TO.N,Net-(JP2-Pad3)*%
X224891600Y-142544800D03*
%TD*%
%TO.P,JP3,3*%
%TO.N,Net-(JP3-Pad3)*%
X208420000Y-111000000D03*
%TO.P,JP3,2*%
%TO.N,GPIO4*%
X210960000Y-111000000D03*
D17*
%TO.P,JP3,1*%
%TO.N,Net-(JP3-Pad1)*%
X213500000Y-111000000D03*
%TD*%
%TO.P,JP4,1*%
%TO.N,Net-(JP4-Pad1)*%
X215315800Y-137287000D03*
D18*
%TO.P,JP4,2*%
%TO.N,GPIO1*%
X215315800Y-139827000D03*
%TO.P,JP4,3*%
%TO.N,Net-(JP4-Pad3)*%
X215315800Y-142367000D03*
%TD*%
%TO.P,JP5,3*%
%TO.N,Net-(JP5-Pad3)*%
X208420000Y-103500000D03*
%TO.P,JP5,2*%
%TO.N,GPIO2*%
X210960000Y-103500000D03*
D17*
%TO.P,JP5,1*%
%TO.N,Net-(JP5-Pad1)*%
X213500000Y-103500000D03*
%TD*%
D12*
%TO.P,J27,2*%
%TO.N,VCC*%
X75200000Y-188900000D03*
D13*
%TO.P,J27,1*%
%TO.N,GND*%
X75200000Y-183900000D03*
%TD*%
D17*
%TO.P,J2,1*%
%TO.N,Net-(J2-Pad1)*%
X129500000Y-104960000D03*
D18*
%TO.P,J2,2*%
%TO.N,Net-(J2-Pad2)*%
X129500000Y-107500000D03*
%TO.P,J2,3*%
%TO.N,GND*%
X129500000Y-110040000D03*
%TO.P,J2,4*%
%TO.N,VCC*%
X129500000Y-112580000D03*
%TO.P,J2,5*%
%TO.N,/Logique/Vpp*%
X129500000Y-115120000D03*
%TD*%
D19*
%TO.N,GND*%
X93000000Y-53500000D03*
X77000000Y-53500000D03*
X100000000Y-53500000D03*
X104000000Y-53500000D03*
X92500000Y-43500000D03*
X115500000Y-54500000D03*
X252500000Y-47500000D03*
X260500000Y-47500000D03*
X268500000Y-47500000D03*
X269000000Y-93000000D03*
X270000000Y-119000000D03*
X269500000Y-131500000D03*
X269000000Y-106000000D03*
X269000000Y-144000000D03*
X268562800Y-157062800D03*
X269000000Y-170500000D03*
X119000000Y-54500000D03*
X105500000Y-110500000D03*
X102750000Y-112250000D03*
X76300000Y-103300000D03*
X76000000Y-108000000D03*
X76000000Y-113500000D03*
X108000000Y-111000000D03*
X113000000Y-108500000D03*
X125000000Y-111000000D03*
X177038000Y-93462000D03*
X159217600Y-89782400D03*
X226669600Y-71330400D03*
X231500000Y-71500000D03*
X226796600Y-79203400D03*
X231000000Y-79000000D03*
X247500000Y-79500000D03*
X226364800Y-54864800D03*
X231500000Y-55000000D03*
X226618800Y-63881200D03*
X231500000Y-64000000D03*
X84000000Y-164000000D03*
X149000000Y-163500000D03*
X149000000Y-167500000D03*
X127500000Y-164000000D03*
X127500000Y-167500000D03*
X170500000Y-164500000D03*
X170500000Y-167500000D03*
X191000000Y-164000000D03*
X191000000Y-167500000D03*
X208000000Y-164000000D03*
X208000000Y-167500000D03*
X227500000Y-163500000D03*
X227500000Y-167500000D03*
X248839600Y-130339600D03*
X232943400Y-128443400D03*
X249000000Y-168000000D03*
X232613200Y-151886800D03*
X245000000Y-143500000D03*
X247839600Y-154839600D03*
X105500000Y-163500000D03*
X105500000Y-167500000D03*
X208457800Y-122042200D03*
X176000000Y-131500000D03*
X170000000Y-125000000D03*
X206500000Y-152000000D03*
X250500000Y-92000000D03*
X248839600Y-104339600D03*
X248839600Y-116839600D03*
D20*
%TO.N,+12V*%
X110500000Y-173500000D03*
X123500000Y-174500000D03*
X132500000Y-173500000D03*
X145700000Y-173800000D03*
X154500000Y-173500000D03*
X166500000Y-174000000D03*
X173000000Y-174000000D03*
X179500000Y-182500000D03*
X179500000Y-175000000D03*
X192975000Y-173475000D03*
X200000000Y-175000000D03*
X232500000Y-175000000D03*
X238000000Y-175000000D03*
X212000000Y-176500000D03*
X217500000Y-175500000D03*
X208500000Y-180500000D03*
X89500000Y-176000000D03*
X100000000Y-176000000D03*
X224000000Y-168500000D03*
X224500000Y-92500000D03*
X211500000Y-85500000D03*
X234500000Y-43000000D03*
%TO.N,Net-(C4-Pad2)*%
X86865000Y-113135000D03*
X86865000Y-109865000D03*
D19*
%TO.N,VCC*%
X155594400Y-82905600D03*
X159000000Y-94000000D03*
X237534200Y-144965800D03*
X241339600Y-148160400D03*
X241839600Y-162160400D03*
X204089000Y-144089000D03*
X166500000Y-125000000D03*
X160500000Y-127500000D03*
X206000000Y-128000000D03*
X238500000Y-123000000D03*
X242839600Y-106660400D03*
X240637200Y-71862800D03*
X241025000Y-84862800D03*
X238137200Y-93362800D03*
X241339600Y-133160400D03*
X126200000Y-127600000D03*
X115175000Y-99475000D03*
D20*
X123000000Y-127600000D03*
X124350000Y-127600000D03*
%TO.N,/Logique/Vpp*%
X155000000Y-125000000D03*
X140500000Y-121500000D03*
%TO.N,Net-(D20-Pad1)*%
X215000000Y-177000000D03*
X224000000Y-177500000D03*
%TO.N,Net-(J3-Pad4)*%
X204500000Y-112500000D03*
X206500000Y-93000000D03*
X206500000Y-83000000D03*
X217500000Y-37000000D03*
%TO.N,Net-(J3-Pad3)*%
X238500000Y-51000000D03*
X239000000Y-74500000D03*
%TO.N,Net-(J4-Pad3)*%
X177500000Y-100000000D03*
X199500000Y-32000000D03*
%TO.N,Net-(J4-Pad4)*%
X177000000Y-104000000D03*
X194000000Y-35500000D03*
%TO.N,Net-(J25-Pad2)*%
X117000000Y-34500000D03*
X112500000Y-34500000D03*
%TO.N,Net-(R1-Pad2)*%
X79500000Y-113000000D03*
X83500000Y-107500000D03*
X93000000Y-108500000D03*
%TO.N,Net-(R3-Pad2)*%
X94200000Y-117600000D03*
X94200000Y-113600000D03*
%TO.N,Rel8*%
X177000000Y-123000000D03*
X171000000Y-122000000D03*
%TO.N,IN1*%
X220500000Y-145000000D03*
X214500000Y-132500000D03*
%TO.N,IN3*%
X192260000Y-102260000D03*
X198500000Y-108500000D03*
X206000000Y-115000000D03*
X224512653Y-146487347D03*
%TO.N,IN4*%
X187500000Y-104000000D03*
X196012653Y-108512653D03*
X196012653Y-113487347D03*
X216500000Y-130000000D03*
%TO.N,IN6*%
X202500000Y-98500000D03*
X239500000Y-89000000D03*
%TO.N,AN1*%
X156000000Y-89000000D03*
X138000000Y-51000000D03*
%TO.N,AN2*%
X151500000Y-81500000D03*
X154000000Y-85500000D03*
%TO.N,AN4*%
X150500000Y-72000000D03*
X157000000Y-61000000D03*
%TO.N,C2*%
X137500000Y-108000000D03*
X116500000Y-61500000D03*
X115000000Y-43500000D03*
X102000000Y-43500000D03*
%TO.N,C3*%
X137000000Y-109500000D03*
X112500000Y-48000000D03*
%TO.N,C4*%
X135000000Y-110000000D03*
X133000000Y-90000000D03*
X126000000Y-49000000D03*
X123000000Y-49000000D03*
%TO.N,Net-(BZ1-Pad1)*%
X166827600Y-93827600D03*
X185000000Y-75500000D03*
%TO.N,Net-(D44-Pad1)*%
X256362200Y-64362200D03*
X244000000Y-65000000D03*
X236500000Y-65000000D03*
X236500000Y-84000000D03*
X233000000Y-96000000D03*
X232737042Y-104262347D03*
X241000000Y-119500000D03*
X237000000Y-134000000D03*
%TO.N,Net-(D44-Pad2)*%
X242000000Y-56500000D03*
X256500000Y-52000000D03*
X252000000Y-39500000D03*
%TO.N,Net-(D45-Pad1)*%
X229000000Y-106500000D03*
X242000000Y-62500000D03*
%TO.N,Net-(D49-Pad1)*%
X267000000Y-50500000D03*
X267000000Y-39000000D03*
%TO.N,Net-(D51-Pad1)*%
X263000000Y-65500000D03*
X258500000Y-78000000D03*
X258500000Y-87000000D03*
X236000000Y-109500000D03*
%TO.N,Net-(D52-Pad1)*%
X220012653Y-136987347D03*
X220000000Y-125000000D03*
X229725000Y-104987347D03*
X272000000Y-67500000D03*
%TO.N,Net-(JP2-Pad1)*%
X215000000Y-65000000D03*
X225500000Y-88000000D03*
X225500000Y-96000000D03*
X225500000Y-133500000D03*
%TO.N,GPIO4*%
X201000000Y-108000000D03*
X179947347Y-99675010D03*
%TO.N,Net-(JP3-Pad1)*%
X214500000Y-80775000D03*
X216000000Y-87500000D03*
X216000000Y-95500000D03*
X216000000Y-108000000D03*
%TO.N,Net-(JP4-Pad1)*%
X219000000Y-135500000D03*
X219000000Y-125000000D03*
X219000000Y-101000000D03*
X217500000Y-78000000D03*
%TO.N,Net-(JP5-Pad1)*%
X210000000Y-80000000D03*
X209500000Y-87500000D03*
X214000000Y-96000000D03*
X214000000Y-101000000D03*
%TO.N,Net-(R74-Pad2)*%
X157500000Y-98500000D03*
X149500000Y-98500000D03*
%TO.N,Net-(C5-Pad1)*%
X103200000Y-117500000D03*
X103700000Y-107800000D03*
%TD*%
D21*
%TO.N,+12V*%
X122500000Y-173500000D02*
X123500000Y-174500000D01*
X110500000Y-173500000D02*
X122500000Y-173500000D01*
X145400000Y-173500000D02*
X145700000Y-173800000D01*
X132500000Y-173500000D02*
X145400000Y-173500000D01*
X166000000Y-173500000D02*
X166500000Y-174000000D01*
X154500000Y-173500000D02*
X166000000Y-173500000D01*
X173000000Y-174000000D02*
X178500000Y-174000000D01*
X178500000Y-174000000D02*
X179500000Y-175000000D01*
X179500000Y-175000000D02*
X179500000Y-182500000D01*
X192975000Y-173475000D02*
X198475000Y-173475000D01*
X198475000Y-173475000D02*
X200000000Y-175000000D01*
X232500000Y-175000000D02*
X238000000Y-175000000D01*
X212000000Y-176500000D02*
X213000000Y-175500000D01*
X213000000Y-175500000D02*
X217500000Y-175500000D01*
X208500000Y-180000000D02*
X208500000Y-180500000D01*
X212000000Y-176500000D02*
X208500000Y-180000000D01*
X89500000Y-176000000D02*
X100000000Y-176000000D01*
X226066601Y-166433399D02*
X226066601Y-147933399D01*
X224000000Y-168500000D02*
X226066601Y-166433399D01*
X226066601Y-147933399D02*
X226066601Y-146933399D01*
X226066601Y-146933399D02*
X228000000Y-145000000D01*
X228000000Y-145000000D02*
X228000000Y-96000000D01*
X228000000Y-96000000D02*
X224500000Y-92500000D01*
X211500000Y-85500000D02*
X211500000Y-47500000D01*
X211500000Y-47500000D02*
X216000000Y-43000000D01*
X216000000Y-43000000D02*
X234500000Y-43000000D01*
X234500000Y-43000000D02*
X235000000Y-43000000D01*
%TO.N,Net-(C4-Pad2)*%
X86865000Y-109635000D02*
X86865000Y-109865000D01*
X86865000Y-113135000D02*
X86865000Y-109865000D01*
%TO.N,/Logique/Vpp*%
X151500000Y-121500000D02*
X155000000Y-125000000D01*
X140500000Y-121500000D02*
X151500000Y-121500000D01*
%TO.N,Net-(D20-Pad1)*%
X215000000Y-177000000D02*
X223500000Y-177000000D01*
X223500000Y-177000000D02*
X224000000Y-177500000D01*
%TO.N,Net-(J3-Pad4)*%
X204500000Y-112500000D02*
X204500000Y-95000000D01*
X204500000Y-95000000D02*
X206500000Y-93000000D01*
X206500000Y-83000000D02*
X206500000Y-47500000D01*
X217000000Y-37000000D02*
X217500000Y-37000000D01*
X206500000Y-47500000D02*
X217000000Y-37000000D01*
%TO.N,Net-(J3-Pad3)*%
X238500000Y-51000000D02*
X239000000Y-51500000D01*
X239000000Y-51500000D02*
X239000000Y-74500000D01*
%TO.N,Net-(J4-Pad3)*%
X177500000Y-100000000D02*
X177500000Y-96000000D01*
X185725001Y-87774999D02*
X185725001Y-78274999D01*
X177500000Y-96000000D02*
X185725001Y-87774999D01*
X185725001Y-78274999D02*
X192000000Y-72000000D01*
X192000000Y-36426998D02*
X196426998Y-32000000D01*
X192000000Y-72000000D02*
X192000000Y-36426998D01*
X196426998Y-32000000D02*
X199500000Y-32000000D01*
%TO.N,Net-(J4-Pad4)*%
X177000000Y-104000000D02*
X177000000Y-107000000D01*
X177000000Y-107000000D02*
X190000000Y-107000000D01*
X190000000Y-107000000D02*
X192500000Y-109500000D01*
X192500000Y-109500000D02*
X202000000Y-109500000D01*
X202000000Y-109500000D02*
X203500000Y-108000000D01*
X203500000Y-108000000D02*
X203500000Y-102500000D01*
X201774999Y-100774999D02*
X201774999Y-37774999D01*
X203500000Y-102500000D02*
X201774999Y-100774999D01*
X201774999Y-37774999D02*
X199500000Y-35500000D01*
X199500000Y-35500000D02*
X194000000Y-35500000D01*
%TO.N,Net-(J25-Pad2)*%
X117000000Y-34500000D02*
X112500000Y-34500000D01*
%TO.N,Net-(R1-Pad2)*%
X79500000Y-113000000D02*
X79500000Y-109500000D01*
X79500000Y-109500000D02*
X81500000Y-107500000D01*
X81500000Y-107500000D02*
X83500000Y-107500000D01*
X84500000Y-108500000D02*
X83500000Y-107500000D01*
X93000000Y-108500000D02*
X84500000Y-108500000D01*
%TO.N,Net-(R3-Pad2)*%
X94200000Y-117600000D02*
X94200000Y-113600000D01*
%TO.N,Rel8*%
X177000000Y-123000000D02*
X171500000Y-123000000D01*
X171000000Y-122500000D02*
X171000000Y-122000000D01*
X171500000Y-123000000D02*
X171000000Y-122500000D01*
%TO.N,IN1*%
X220500000Y-145000000D02*
X220500000Y-138500000D01*
X220500000Y-138500000D02*
X214500000Y-132500000D01*
%TO.N,IN3*%
X192260000Y-102260000D02*
X198500000Y-108500000D01*
X211785002Y-115000000D02*
X221500000Y-124714998D01*
X206000000Y-115000000D02*
X211785002Y-115000000D01*
X221500000Y-124714998D02*
X221500000Y-143000000D01*
X221500000Y-143000000D02*
X224500000Y-146000000D01*
X224512653Y-146012653D02*
X224512653Y-146487347D01*
X224500000Y-146000000D02*
X224512653Y-146012653D01*
%TO.N,IN4*%
X187500000Y-104000000D02*
X191500000Y-104000000D01*
X191500000Y-104000000D02*
X196012653Y-108512653D01*
X196012653Y-113487347D02*
X196987347Y-113487347D01*
X196987347Y-113487347D02*
X201000000Y-117500000D01*
X201000000Y-117500000D02*
X201000000Y-127000000D01*
X201000000Y-127000000D02*
X204000000Y-130000000D01*
X204000000Y-130000000D02*
X216500000Y-130000000D01*
%TO.N,IN6*%
X202500000Y-98500000D02*
X202500000Y-95000000D01*
X202500000Y-95000000D02*
X202500000Y-94000000D01*
X202500000Y-94000000D02*
X207500000Y-89000000D01*
X207500000Y-89000000D02*
X239500000Y-89000000D01*
%TO.N,AN1*%
X156000000Y-89000000D02*
X148000000Y-89000000D01*
X148000000Y-89000000D02*
X145000000Y-89000000D01*
X145000000Y-89000000D02*
X138000000Y-82000000D01*
X138000000Y-82000000D02*
X138000000Y-51000000D01*
%TO.N,AN2*%
X151500000Y-81500000D02*
X153500000Y-81500000D01*
X153500000Y-81500000D02*
X154000000Y-82000000D01*
X154000000Y-82000000D02*
X154000000Y-85500000D01*
%TO.N,AN4*%
X150500000Y-72000000D02*
X150500000Y-67500000D01*
X150500000Y-67500000D02*
X157000000Y-61000000D01*
%TO.N,C2*%
X137500000Y-108000000D02*
X137500000Y-83500000D01*
X131000000Y-77000000D02*
X131000000Y-76000000D01*
X137500000Y-83500000D02*
X131000000Y-77000000D01*
X131000000Y-76000000D02*
X116500000Y-61500000D01*
X115000000Y-43500000D02*
X102000000Y-43500000D01*
%TO.N,C3*%
X137000000Y-109500000D02*
X136000000Y-109500000D01*
X136000000Y-109500000D02*
X135000000Y-108500000D01*
X135000000Y-108500000D02*
X135000000Y-83000000D01*
X135000000Y-83000000D02*
X113500000Y-61500000D01*
X113500000Y-61500000D02*
X113500000Y-49000000D01*
X113500000Y-49000000D02*
X112500000Y-48000000D01*
%TO.N,C4*%
X135000000Y-110000000D02*
X133500000Y-108500000D01*
X133500000Y-108500000D02*
X133500000Y-90000000D01*
X133500000Y-90000000D02*
X133000000Y-90000000D01*
X126000000Y-49000000D02*
X123000000Y-49000000D01*
%TO.N,Net-(BZ1-Pad1)*%
X166827600Y-93827600D02*
X171172400Y-93827600D01*
X171172400Y-93827600D02*
X172000000Y-93000000D01*
X172000000Y-93000000D02*
X172000000Y-83000000D01*
X172000000Y-83000000D02*
X173500000Y-81500000D01*
X173500000Y-81500000D02*
X182000000Y-81500000D01*
X182000000Y-81500000D02*
X184000000Y-79500000D01*
X184000000Y-79500000D02*
X184000000Y-76500000D01*
X184000000Y-76500000D02*
X185000000Y-75500000D01*
%TO.N,Net-(D44-Pad1)*%
X256362200Y-64362200D02*
X252637800Y-64362200D01*
X252637800Y-64362200D02*
X252000000Y-65000000D01*
X252000000Y-65000000D02*
X244000000Y-65000000D01*
X236500000Y-65000000D02*
X236500000Y-84000000D01*
X233000000Y-96000000D02*
X233000000Y-104000000D01*
X232999389Y-104000000D02*
X232737042Y-104262347D01*
X233000000Y-104000000D02*
X232999389Y-104000000D01*
X241000000Y-119500000D02*
X241000000Y-125000000D01*
X241000000Y-125000000D02*
X237000000Y-129000000D01*
X237000000Y-129000000D02*
X237000000Y-134000000D01*
%TO.N,Net-(D44-Pad2)*%
X242000000Y-56500000D02*
X242000000Y-51000000D01*
X255000000Y-50500000D02*
X256500000Y-52000000D01*
X255000000Y-50500000D02*
X255000000Y-47500000D01*
X255000000Y-47500000D02*
X252000000Y-44500000D01*
X252000000Y-44500000D02*
X252000000Y-39500000D01*
X245500000Y-51000000D02*
X252000000Y-44500000D01*
X242000000Y-51000000D02*
X245500000Y-51000000D01*
%TO.N,Net-(D45-Pad1)*%
X229000000Y-106500000D02*
X229000000Y-105500000D01*
X229000000Y-105500000D02*
X229000000Y-96500000D01*
X229000000Y-96500000D02*
X234000000Y-91500000D01*
X234000000Y-91500000D02*
X240000000Y-91500000D01*
X240000000Y-91500000D02*
X242000000Y-89500000D01*
X242000000Y-89500000D02*
X242000000Y-62500000D01*
%TO.N,Net-(D49-Pad1)*%
X267000000Y-50500000D02*
X267000000Y-39000000D01*
%TO.N,Net-(D51-Pad1)*%
X263000000Y-65500000D02*
X258500000Y-70000000D01*
X258500000Y-70000000D02*
X258500000Y-78000000D01*
X258500000Y-87000000D02*
X258500000Y-104500000D01*
X258500000Y-104500000D02*
X258000000Y-105000000D01*
X258000000Y-105000000D02*
X250500000Y-105000000D01*
X250500000Y-105000000D02*
X249000000Y-106500000D01*
X249000000Y-106500000D02*
X245500000Y-106500000D01*
X245500000Y-106500000D02*
X245500000Y-106000000D01*
X245500000Y-106000000D02*
X243500000Y-104000000D01*
X243500000Y-104000000D02*
X241500000Y-104000000D01*
X241500000Y-104000000D02*
X236000000Y-109500000D01*
%TO.N,Net-(D52-Pad1)*%
X220012653Y-136987347D02*
X220012653Y-125012653D01*
X220012653Y-125012653D02*
X220000000Y-125000000D01*
X229725000Y-104987347D02*
X236987347Y-104987347D01*
X236987347Y-104987347D02*
X238000000Y-103974694D01*
X238000000Y-103974694D02*
X238000000Y-95500000D01*
X238000000Y-95500000D02*
X242000000Y-91500000D01*
X242000000Y-91500000D02*
X246000000Y-91500000D01*
X246000000Y-91500000D02*
X247000000Y-90500000D01*
X247000000Y-90500000D02*
X247000000Y-81500000D01*
X247000000Y-81500000D02*
X247500000Y-81000000D01*
X247500000Y-81000000D02*
X250500000Y-81000000D01*
X250500000Y-81000000D02*
X252000000Y-79500000D01*
X252000000Y-79500000D02*
X259000000Y-79500000D01*
X259000000Y-79500000D02*
X260000000Y-78500000D01*
X260000000Y-78500000D02*
X260500000Y-78000000D01*
X260500000Y-78000000D02*
X260500000Y-72500000D01*
X260500000Y-72500000D02*
X265500000Y-67500000D01*
X265500000Y-67500000D02*
X272000000Y-67500000D01*
%TO.N,Net-(JP2-Pad1)*%
X225500000Y-96000000D02*
X225500000Y-133500000D01*
X221000000Y-88000000D02*
X225500000Y-88000000D01*
X216500000Y-83500000D02*
X221000000Y-88000000D01*
X216500000Y-80000000D02*
X216500000Y-83500000D01*
X215000000Y-78500000D02*
X216500000Y-80000000D01*
X215000000Y-65000000D02*
X215000000Y-78500000D01*
%TO.N,GPIO4*%
X201000000Y-108000000D02*
X192500000Y-99500000D01*
X192500000Y-99500000D02*
X183000000Y-99500000D01*
X183000000Y-99500000D02*
X180000000Y-99500000D01*
X180000000Y-99622357D02*
X179947347Y-99675010D01*
X180000000Y-99500000D02*
X180000000Y-99622357D01*
%TO.N,Net-(JP3-Pad1)*%
X214500000Y-80775000D02*
X216000000Y-82275000D01*
X216000000Y-82275000D02*
X216000000Y-87500000D01*
X216000000Y-95500000D02*
X216000000Y-108000000D01*
%TO.N,Net-(JP4-Pad1)*%
X219000000Y-135500000D02*
X219000000Y-125000000D01*
X219000000Y-101000000D02*
X219000000Y-92000000D01*
X219000000Y-92000000D02*
X220500000Y-90500000D01*
X220500000Y-90500000D02*
X239500000Y-90500000D01*
X239500000Y-90500000D02*
X240225001Y-89774999D01*
X240225001Y-89774999D02*
X240500000Y-89500000D01*
X240500000Y-89500000D02*
X240500000Y-88926998D01*
X240500000Y-88926998D02*
X240500000Y-88000000D01*
X240500000Y-88000000D02*
X238000000Y-85500000D01*
X238000000Y-85500000D02*
X220000000Y-85500000D01*
X220000000Y-85500000D02*
X217500000Y-83000000D01*
X217500000Y-83000000D02*
X217500000Y-78000000D01*
%TO.N,Net-(JP5-Pad1)*%
X210000000Y-80000000D02*
X210000000Y-87000000D01*
X210000000Y-87000000D02*
X209500000Y-87500000D01*
X214000000Y-96000000D02*
X214000000Y-101000000D01*
%TO.N,Net-(R74-Pad2)*%
X157500000Y-98500000D02*
X149500000Y-98500000D01*
%TO.N,Net-(C5-Pad1)*%
X103725001Y-107825001D02*
X103700000Y-107800000D01*
X103725001Y-116974999D02*
X103725001Y-107825001D01*
X103200000Y-117500000D02*
X103725001Y-116974999D01*
%TD*%
M02*
