M48
; DRILL file {KiCad (5.1.10)-1} date 01/12/22 07:47:48
; FORMAT={-:-/ absolute / inch / decimal}
; #@! TF.CreationDate,2022-01-12T07:47:48+01:00
; #@! TF.GenerationSoftware,Kicad,Pcbnew,(5.1.10)-1
; #@! TF.FileFunction,Plated,1,4,PTH
FMAT,2
INCH
T1C0.0157
T2C0.0197
T3C0.0315
T4C0.0394
T5C0.0433
T6C0.0512
T7C0.0591
%
G90
G05
T1
X3.1299Y-4.4488
X3.2874Y-4.2323
X3.4199Y-4.3254
X3.4199Y-4.4541
X3.5236Y-6.9291
X3.6614Y-4.2717
X3.7087Y-4.4724
X3.7087Y-4.6299
X3.937Y-6.9291
X4.0157Y-1.7126
X4.063Y-4.626
X4.0827Y-4.2441
X4.3504Y-6.8307
X4.4291Y-1.3583
X4.4291Y-1.8898
X4.5276Y-1.7126
X4.5866Y-2.4213
X4.6063Y-1.3583
X4.8425Y-1.9291
X4.8425Y-5.0236
X4.8622Y-6.8701
X4.8957Y-5.0236
X4.9606Y-1.9291
X5.2165Y-6.8307
X5.2362Y-3.5433
X5.315Y-4.3307
X5.3937Y-4.311
X5.4134Y-4.252
X5.4331Y-2.0079
X5.5315Y-4.7835
X5.7362Y-6.8425
X5.8858Y-3.878
X5.9252Y-2.8346
X5.9646Y-3.2087
X6.063Y-3.3661
X6.0827Y-6.8307
X6.1024Y-4.9213
X6.1417Y-3.5039
X6.1811Y-2.4016
X6.2008Y-3.878
X6.5551Y-6.8504
X6.568Y-3.694
X6.7323Y-4.8031
X6.811Y-6.8504
X6.9685Y-4.0945
X6.9685Y-4.8425
X6.9882Y-3.937
X7.0669Y-6.8898
X7.0669Y-7.185
X7.0845Y-3.9242
X7.2835Y-2.9724
X7.3819Y-4.0945
X7.5693Y-4.026
X7.5974Y-6.8297
X7.6378Y-1.3976
X7.717Y-4.2722
X7.717Y-4.468
X7.815Y-4.2717
X7.8543Y-1.2598
X7.874Y-6.8898
X7.9134Y-4.252
X7.9724Y-3.878
X8.0512Y-4.4291
X8.1102Y-4.5276
X8.1299Y-3.2677
X8.1299Y-3.6614
X8.2087Y-7.1063
X8.248Y-3.4449
X8.2677Y-3.1496
X8.3268Y-3.3661
X8.3465Y-6.9488
X8.4252Y-3.7795
X8.4252Y-3.9764
X8.4449Y-3.1801
X8.4449Y-5.2165
X8.4646Y-2.5591
X8.4646Y-6.9685
X8.5039Y-3.4449
X8.5039Y-3.7598
X8.5039Y-4.252
X8.5236Y-5.1181
X8.563Y-1.4567
X8.563Y-3.0709
X8.563Y-6.9094
X8.622Y-3.9764
X8.622Y-4.9213
X8.622Y-5.3346
X8.6614Y-4.9213
X8.6619Y-5.3932
X8.6811Y-5.7087
X8.8189Y-6.6339
X8.8189Y-6.9882
X8.8386Y-3.6417
X8.8391Y-5.7672
X8.878Y-3.4646
X8.878Y-3.7795
X8.878Y-5.2559
X9.0157Y-4.1929
X9.0443Y-4.1334
X9.1535Y-6.8898
X9.1629Y-4.1048
X9.1732Y-3.7795
X9.2323Y-1.6929
X9.2913Y-4.311
X9.311Y-2.5591
X9.311Y-3.3071
X9.3307Y-5.2756
X9.3701Y-6.8898
X9.3898Y-2.0079
X9.4094Y-2.9331
X9.4291Y-3.5039
X9.4882Y-4.7047
X9.5276Y-2.2244
X9.5276Y-2.4606
X9.6063Y-2.5591
X9.9213Y-1.5551
X10.093Y-2.5339
X10.0984Y-2.0472
X10.1772Y-3.0709
X10.1772Y-3.4252
X10.3543Y-2.5787
X10.5118Y-1.5354
X10.5118Y-1.9882
X10.7087Y-2.6575
T2
X2.9921Y-4.252
X2.9921Y-4.4685
X3.0039Y-4.0669
X3.0315Y-2.1063
X3.3071Y-6.4567
X3.6417Y-1.7126
X3.6614Y-2.1063
X3.937Y-2.1063
X4.0453Y-4.4193
X4.0945Y-2.1063
X4.1535Y-4.3504
X4.1535Y-6.437
X4.1535Y-6.5945
X4.252Y-4.3701
X4.4488Y-4.2717
X4.5344Y-3.9163
X4.5472Y-2.1457
X4.685Y-2.1457
X4.9213Y-4.3701
X4.9685Y-5.0236
X5.0197Y-6.4567
X5.0197Y-6.5945
X5.8661Y-6.437
X5.8661Y-6.5945
X6.1258Y-3.264
X6.2598Y-3.7008
X6.2684Y-3.5347
X6.3189Y-5.0197
X6.5551Y-4.9213
X6.6929Y-4.9213
X6.7126Y-6.4764
X6.7126Y-6.5945
X6.9291Y-5.1772
X6.97Y-3.6796
X7.5197Y-6.4567
X7.5197Y-6.5945
X8.035Y-5.6728
X8.1102Y-5.0394
X8.1299Y-5.9843
X8.189Y-6.4567
X8.189Y-6.5945
X8.207Y-4.8048
X8.912Y-2.16
X8.922Y-2.515
X8.924Y-2.8083
X8.929Y-3.1182
X8.9567Y-6.437
X8.9567Y-6.5945
X9.0945Y-3.1102
X9.1142Y-2.1654
X9.1142Y-2.5197
X9.1142Y-2.815
X9.158Y-5.9798
X9.171Y-5.0568
X9.3517Y-5.7073
X9.3755Y-3.6757
X9.3898Y-4.8425
X9.4739Y-2.8292
X9.4892Y-3.3411
X9.5016Y-5.2425
X9.5016Y-5.8331
X9.5212Y-6.3843
X9.5606Y-4.1992
X9.6457Y-5.6496
X9.7441Y-3.1299
X9.7575Y-6.096
X9.7968Y-4.1079
X9.7968Y-4.6
X9.7968Y-5.1315
X9.8031Y-6.6142
X9.8622Y-3.622
X9.9409Y-1.8701
X10.2559Y-1.8701
X10.5709Y-1.8701
X10.5733Y-6.1836
X10.5906Y-3.6614
X10.5906Y-4.1732
X10.5906Y-5.6693
X10.5906Y-6.7126
X10.6102Y-5.1772
X10.6299Y-4.685
T3
X5.5315Y-4.026
X5.5315Y-4.626
X5.6315Y-4.026
X5.6315Y-4.626
X5.7315Y-4.026
X5.7315Y-4.626
X5.8315Y-4.026
X5.8315Y-4.626
X5.9315Y-4.026
X5.9315Y-4.626
X6.0315Y-4.026
X6.0315Y-4.626
X6.1315Y-4.026
X6.1315Y-4.626
X6.2315Y-4.026
X6.2315Y-4.626
X6.3315Y-4.026
X6.3315Y-4.626
X6.4315Y-4.026
X6.4315Y-4.626
X6.5315Y-4.026
X6.5315Y-4.626
X6.6315Y-4.026
X6.6315Y-4.626
X6.7315Y-4.026
X6.7315Y-4.626
X6.8315Y-4.026
X6.8315Y-4.626
X6.9315Y-4.026
X6.9315Y-4.626
X7.0315Y-4.026
X7.0315Y-4.626
X7.1315Y-4.026
X7.1315Y-4.626
X7.2315Y-4.026
X7.2315Y-4.626
X7.3315Y-4.026
X7.3315Y-4.626
X7.4315Y-4.026
X7.4315Y-4.626
T4
X5.0984Y-4.1323
X5.0984Y-4.2323
X5.0984Y-4.3323
X5.0984Y-4.4323
X5.0984Y-4.5323
X6.573Y-2.962
X6.673Y-2.962
X7.1299Y-2.752
X7.3858Y-2.752
X8.2055Y-4.0748
X8.2055Y-4.3701
X8.3055Y-4.0748
X8.3055Y-4.3701
X8.4055Y-4.0748
X8.4055Y-4.3701
X8.477Y-5.405
X8.477Y-5.505
X8.477Y-5.605
X8.854Y-5.412
X8.854Y-5.512
X8.854Y-5.612
T5
X6.4961Y-5.1772
X6.6929Y-5.1772
T6
X3.622Y-7.4252
X3.622Y-7.9055
X3.8583Y-7.3465
X4.0945Y-7.4252
X4.0945Y-7.9055
X4.4882Y-7.4213
X4.4882Y-7.9016
X4.7244Y-7.3425
X4.9606Y-7.4213
X4.9606Y-7.9016
X5.3543Y-7.4213
X5.3543Y-7.9016
X5.5906Y-7.3425
X5.8268Y-7.4213
X5.8268Y-7.9016
X6.1417Y-7.4213
X6.1417Y-7.9016
X6.378Y-7.3425
X6.6142Y-7.4213
X6.6142Y-7.9016
X6.9685Y-7.4213
X6.9685Y-7.9016
X7.2047Y-7.3425
X7.4409Y-7.4213
X7.4409Y-7.9016
X7.7559Y-7.4213
X7.7559Y-7.9016
X7.9921Y-7.3425
X8.2283Y-7.4213
X8.2283Y-7.9016
X8.5433Y-7.4213
X8.5433Y-7.9016
X8.7795Y-7.3425
X9.0157Y-7.4213
X9.0157Y-7.9016
X9.3307Y-7.4213
X9.3307Y-7.9016
X9.5669Y-7.3425
X9.8031Y-7.4213
X9.8031Y-7.9016
T7
X2.9606Y-7.2402
X2.9606Y-7.437
X3.3661Y-1.0827
X3.563Y-1.0827
X3.6614Y-8.3661
X3.8386Y-1.0827
X3.8583Y-8.3661
X4.0354Y-1.0827
X4.0551Y-8.3661
X4.2323Y-1.0827
X4.4291Y-1.0827
X4.5669Y-8.3661
X4.626Y-1.0827
X4.7638Y-8.3661
X4.9606Y-8.3661
X5.0787Y-1.063
X5.2756Y-1.063
X5.3937Y-8.3661
X5.5906Y-8.3661
X5.6299Y-1.063
X5.7874Y-8.3661
X5.8268Y-1.063
X6.1614Y-1.063
X6.2205Y-8.3661
X6.3583Y-1.063
X6.4173Y-8.3661
X6.6142Y-8.3661
X6.752Y-1.063
X6.9488Y-1.063
X7.0079Y-8.3661
X7.2047Y-8.3661
X7.4016Y-8.3661
X7.6575Y-1.063
X7.7953Y-8.3661
X7.8543Y-1.063
X7.9921Y-8.3661
X8.0512Y-1.063
X8.189Y-8.3661
X8.248Y-1.063
X8.563Y-1.063
X8.5827Y-8.3661
X8.7598Y-1.063
X8.7795Y-8.3661
X8.9567Y-1.063
X8.9764Y-8.3661
X9.1535Y-1.063
X9.3701Y-8.3661
X9.5669Y-1.063
X9.5669Y-8.3661
X9.7638Y-1.063
X9.7638Y-8.3661
X9.9606Y-1.063
X10.1575Y-1.063
X10.3543Y-1.063
X10.7811Y-2.9277
X10.7811Y-3.1245
X10.7811Y-3.4395
X10.7811Y-3.6363
X10.7811Y-3.9513
X10.7811Y-4.1481
X10.7811Y-4.4631
X10.7811Y-4.66
X10.7811Y-4.9749
X10.7811Y-5.1718
X10.7811Y-5.4867
X10.7811Y-5.6836
X10.7811Y-5.9985
X10.7811Y-6.1954
X10.7811Y-6.5103
X10.7811Y-6.7072
T0
M30
