%TF.GenerationSoftware,KiCad,Pcbnew,(5.1.10)-1*%
%TF.CreationDate,2022-01-12T07:46:51+01:00*%
%TF.ProjectId,automate,6175746f-6d61-4746-952e-6b696361645f,rev?*%
%TF.SameCoordinates,Original*%
%TF.FileFunction,Soldermask,Bot*%
%TF.FilePolarity,Negative*%
%FSLAX46Y46*%
G04 Gerber Fmt 4.6, Leading zero omitted, Abs format (unit mm)*
G04 Created by KiCad (PCBNEW (5.1.10)-1) date 2022-01-12 07:46:51*
%MOMM*%
%LPD*%
G01*
G04 APERTURE LIST*
%ADD10C,2.000000*%
%ADD11R,2.000000X2.000000*%
%ADD12C,3.200000*%
%ADD13C,2.500000*%
%ADD14R,2.500000X2.500000*%
%ADD15R,1.600000X2.400000*%
%ADD16O,1.600000X2.400000*%
%ADD17C,3.000000*%
%ADD18R,1.700000X1.700000*%
%ADD19O,1.700000X1.700000*%
G04 APERTURE END LIST*
D10*
%TO.C,BZ2*%
X181100000Y-69900000D03*
D11*
X187600000Y-69900000D03*
%TD*%
D10*
%TO.C,SW1*%
X170000000Y-131500000D03*
X165000000Y-131500000D03*
%TD*%
D12*
%TO.C,REF\u002A\u002A*%
X192500000Y-142000000D03*
%TD*%
%TO.C,REF\u002A\u002A*%
X192500000Y-87000000D03*
%TD*%
%TO.C,REF\u002A\u002A*%
X100500000Y-142000000D03*
%TD*%
%TO.C,REF\u002A\u002A*%
X100500000Y-87000000D03*
%TD*%
%TO.C,REF\u002A\u002A*%
X278000000Y-24500000D03*
%TD*%
%TO.C,REF\u002A\u002A*%
X278500000Y-216000000D03*
%TD*%
%TO.C,REF\u002A\u002A*%
X70000000Y-215000000D03*
%TD*%
%TO.C,REF\u002A\u002A*%
X70000000Y-25000000D03*
%TD*%
D13*
%TO.C,J1*%
X85500000Y-27500000D03*
D14*
X90500000Y-27500000D03*
%TD*%
D13*
%TO.C,J3*%
X217500000Y-27000000D03*
D14*
X232500000Y-27000000D03*
D13*
X227500000Y-27000000D03*
X222500000Y-27000000D03*
%TD*%
%TO.C,J4*%
X199500000Y-27000000D03*
X204500000Y-27000000D03*
D14*
X209500000Y-27000000D03*
D13*
X194500000Y-27000000D03*
%TD*%
D14*
%TO.C,J5*%
X93000000Y-212500000D03*
D13*
X98000000Y-212500000D03*
X103000000Y-212500000D03*
%TD*%
D14*
%TO.C,J6*%
X116000000Y-212500000D03*
D13*
X121000000Y-212500000D03*
X126000000Y-212500000D03*
%TD*%
D14*
%TO.C,J7*%
X137000000Y-212500000D03*
D13*
X142000000Y-212500000D03*
X147000000Y-212500000D03*
%TD*%
%TO.C,J8*%
X168000000Y-212500000D03*
X163000000Y-212500000D03*
D14*
X158000000Y-212500000D03*
%TD*%
%TO.C,J9*%
X178000000Y-212500000D03*
D13*
X183000000Y-212500000D03*
X188000000Y-212500000D03*
%TD*%
%TO.C,J10*%
X208000000Y-212500000D03*
X203000000Y-212500000D03*
D14*
X198000000Y-212500000D03*
%TD*%
D13*
%TO.C,J11*%
X228000000Y-212500000D03*
X223000000Y-212500000D03*
D14*
X218000000Y-212500000D03*
%TD*%
D13*
%TO.C,J12*%
X248000000Y-212500000D03*
X243000000Y-212500000D03*
D14*
X238000000Y-212500000D03*
%TD*%
D13*
%TO.C,J13*%
X273839600Y-165362800D03*
D14*
X273839600Y-170362800D03*
%TD*%
D13*
%TO.C,J14*%
X273839600Y-152362800D03*
D14*
X273839600Y-157362800D03*
%TD*%
D13*
%TO.C,J15*%
X273839600Y-139362800D03*
D14*
X273839600Y-144362800D03*
%TD*%
%TO.C,J16*%
X273839600Y-131362800D03*
D13*
X273839600Y-126362800D03*
%TD*%
%TO.C,J17*%
X273839600Y-113362800D03*
D14*
X273839600Y-118362800D03*
%TD*%
%TO.C,J18*%
X273839600Y-105362800D03*
D13*
X273839600Y-100362800D03*
%TD*%
D14*
%TO.C,J19*%
X273839600Y-92362800D03*
D13*
X273839600Y-87362800D03*
%TD*%
%TO.C,J20*%
X273839600Y-74362800D03*
D14*
X273839600Y-79362800D03*
%TD*%
%TO.C,J21*%
X134000000Y-27000000D03*
D13*
X129000000Y-27000000D03*
%TD*%
D14*
%TO.C,J22*%
X148000000Y-27000000D03*
D13*
X143000000Y-27000000D03*
%TD*%
D14*
%TO.C,J23*%
X161500000Y-27000000D03*
D13*
X156500000Y-27000000D03*
%TD*%
%TO.C,J24*%
X171500000Y-27000000D03*
D14*
X176500000Y-27000000D03*
%TD*%
D13*
%TO.C,J25*%
X102500000Y-27500000D03*
D14*
X117500000Y-27500000D03*
D13*
X112500000Y-27500000D03*
X107500000Y-27500000D03*
X97500000Y-27500000D03*
%TD*%
D15*
%TO.C,U2*%
X140500000Y-117500000D03*
D16*
X188760000Y-102260000D03*
X143040000Y-117500000D03*
X186220000Y-102260000D03*
X145580000Y-117500000D03*
X183680000Y-102260000D03*
X148120000Y-117500000D03*
X181140000Y-102260000D03*
X150660000Y-117500000D03*
X178600000Y-102260000D03*
X153200000Y-117500000D03*
X176060000Y-102260000D03*
X155740000Y-117500000D03*
X173520000Y-102260000D03*
X158280000Y-117500000D03*
X170980000Y-102260000D03*
X160820000Y-117500000D03*
X168440000Y-102260000D03*
X163360000Y-117500000D03*
X165900000Y-102260000D03*
X165900000Y-117500000D03*
X163360000Y-102260000D03*
X168440000Y-117500000D03*
X160820000Y-102260000D03*
X170980000Y-117500000D03*
X158280000Y-102260000D03*
X173520000Y-117500000D03*
X155740000Y-102260000D03*
X176060000Y-117500000D03*
X153200000Y-102260000D03*
X178600000Y-117500000D03*
X150660000Y-102260000D03*
X181140000Y-117500000D03*
X148120000Y-102260000D03*
X183680000Y-117500000D03*
X145580000Y-102260000D03*
X186220000Y-117500000D03*
X143040000Y-102260000D03*
X188760000Y-117500000D03*
X140500000Y-102260000D03*
%TD*%
D17*
%TO.C,K1*%
X98000000Y-186600000D03*
X104000000Y-188600000D03*
X104000000Y-200800000D03*
X92000000Y-200800000D03*
X92000000Y-188600000D03*
%TD*%
%TO.C,K2*%
X120000000Y-186500000D03*
X126000000Y-188500000D03*
X126000000Y-200700000D03*
X114000000Y-200700000D03*
X114000000Y-188500000D03*
%TD*%
%TO.C,K3*%
X142000000Y-186500000D03*
X148000000Y-188500000D03*
X148000000Y-200700000D03*
X136000000Y-200700000D03*
X136000000Y-188500000D03*
%TD*%
%TO.C,K4*%
X156000000Y-188500000D03*
X156000000Y-200700000D03*
X168000000Y-200700000D03*
X168000000Y-188500000D03*
X162000000Y-186500000D03*
%TD*%
%TO.C,K5*%
X177000000Y-188500000D03*
X177000000Y-200700000D03*
X189000000Y-200700000D03*
X189000000Y-188500000D03*
X183000000Y-186500000D03*
%TD*%
%TO.C,K6*%
X197000000Y-188500000D03*
X197000000Y-200700000D03*
X209000000Y-200700000D03*
X209000000Y-188500000D03*
X203000000Y-186500000D03*
%TD*%
%TO.C,K7*%
X217000000Y-188500000D03*
X217000000Y-200700000D03*
X229000000Y-200700000D03*
X229000000Y-188500000D03*
X223000000Y-186500000D03*
%TD*%
%TO.C,K8*%
X243000000Y-186500000D03*
X249000000Y-188500000D03*
X249000000Y-200700000D03*
X237000000Y-200700000D03*
X237000000Y-188500000D03*
%TD*%
D13*
%TO.C,J26*%
X248000000Y-27000000D03*
D14*
X263000000Y-27000000D03*
D13*
X258000000Y-27000000D03*
X253000000Y-27000000D03*
X243000000Y-27000000D03*
%TD*%
D18*
%TO.C,JP1*%
X166954200Y-75234800D03*
D19*
X169494200Y-75234800D03*
%TD*%
D18*
%TO.C,JP2*%
X224891600Y-137464800D03*
D19*
X224891600Y-140004800D03*
X224891600Y-142544800D03*
%TD*%
%TO.C,JP3*%
X208420000Y-111000000D03*
X210960000Y-111000000D03*
D18*
X213500000Y-111000000D03*
%TD*%
%TO.C,JP4*%
X215315800Y-137287000D03*
D19*
X215315800Y-139827000D03*
X215315800Y-142367000D03*
%TD*%
%TO.C,JP5*%
X208420000Y-103500000D03*
X210960000Y-103500000D03*
D18*
X213500000Y-103500000D03*
%TD*%
D13*
%TO.C,J27*%
X75200000Y-188900000D03*
D14*
X75200000Y-183900000D03*
%TD*%
D18*
%TO.C,J2*%
X129500000Y-104960000D03*
D19*
X129500000Y-107500000D03*
X129500000Y-110040000D03*
X129500000Y-112580000D03*
X129500000Y-115120000D03*
%TD*%
M02*
